<?xml version="1.0" encoding="UTF-8"?>
<svg version="1.1" xmlns="http://www.w3.org/2000/svg" width="512" height="512">
<path d="M0 0 C1.4499234 -0.0099852 1.4499234 -0.0099852 2.92913818 -0.02017212 C4.96982937 -0.03027089 7.01055339 -0.03499 9.05126953 -0.03466797 C12.1480254 -0.03902891 15.2433408 -0.07534478 18.33984375 -0.11328125 C20.33072434 -0.11915269 22.32161164 -0.12311989 24.3125 -0.125 C25.22638489 -0.13937103 26.14026978 -0.15374207 27.08184814 -0.16854858 C35.95520328 -0.10656029 43.86451423 2.50119739 50.40234375 8.65625 C54.69510819 13.40146519 57.06718868 18.59286019 59.359375 24.5234375 C61.81889825 30.63755016 64.12844619 33.27748776 69.9375 36.4296875 C75.30778761 38.06045547 80.97581656 37.69632472 86.5546875 37.7265625 C94.02284884 37.91070894 100.21317572 39.2722294 106.078125 44.1171875 C106.5215625 44.684375 106.965 45.2515625 107.421875 45.8359375 C108.11796875 46.68671875 108.11796875 46.68671875 108.828125 47.5546875 C110.00857997 49.47714274 110.42246537 51.15073789 110.921875 53.3359375 C111.60124115 53.32927567 112.2806073 53.32261383 112.9805603 53.31575012 C120.08643841 53.24909705 127.19222689 53.20401284 134.29833984 53.17114258 C136.94616303 53.15610731 139.59396153 53.13567374 142.24169922 53.10961914 C146.05963252 53.07300489 149.87723493 53.05615784 153.6953125 53.04296875 C154.86863129 53.02748489 156.04195007 53.01200104 157.25082397 52.99604797 C167.48296012 52.99397861 175.92422293 54.55616779 183.87890625 61.2578125 C194.10171208 71.6565366 194.22331322 84.17330325 194.17584229 97.98632812 C194.17815005 99.45626225 194.18132868 100.92619521 194.18529677 102.39612579 C194.19361006 106.41321817 194.18953534 110.43021496 194.18332434 114.44730759 C194.17878661 118.78820173 194.18579015 123.12907979 194.19128418 127.4699707 C194.20016574 135.96503438 194.19826168 144.46006267 194.1924589 152.95512772 C194.18793755 159.86079447 194.18733155 166.76645133 194.18950653 173.67211914 C194.189813 174.65590561 194.19011946 175.63969209 194.19043522 176.65329027 C194.19107468 178.65198962 194.19172311 180.65068897 194.1923804 182.64938831 C194.19808007 201.38019273 194.19153149 220.11097755 194.18077967 238.84177876 C194.17184449 254.90494565 194.17339663 270.96808363 194.18261719 287.03125 C194.19332623 305.69617946 194.19753078 324.36109176 194.19139266 343.02602386 C194.19075558 345.01726786 194.19012684 347.00851186 194.18950653 348.99975586 C194.18919798 349.97942212 194.18888943 350.95908837 194.18857153 351.96844149 C194.18684649 358.8638122 194.18975557 365.759172 194.19446564 372.65454102 C194.2000815 381.06054167 194.19854316 389.46650498 194.18790415 397.87250137 C194.18265696 402.15929468 194.18057446 406.44602579 194.18720245 410.7328186 C194.19318374 414.66081736 194.18985099 418.58869654 194.17924735 422.51668453 C194.17702254 423.93378043 194.17812884 425.35088653 194.18299893 426.76797581 C194.22298206 439.37417373 193.84905337 449.99894515 184.875 459.50390625 C177.31616447 466.65873505 170.44742548 468.79411757 160.25506592 468.72361755 C159.31183574 468.72900309 158.36860556 468.73438863 157.39679265 468.73993737 C154.25234947 468.7541867 151.10832905 468.74712073 147.96386719 468.73999023 C145.70319278 468.74569516 143.44252125 468.7526599 141.18185425 468.76078796 C135.05411404 468.77871528 128.92651705 468.77755241 122.79875851 468.77184558 C117.68391808 468.76875487 112.5691052 468.77484448 107.45426869 468.78088433 C94.70414499 468.79572718 81.95412264 468.79211696 69.20400515 468.78002102 C58.12999202 468.77007657 47.05614569 468.78305279 35.98215827 468.80695521 C24.60489881 468.83132705 13.22773912 468.84055944 1.85044599 468.83430248 C-4.53464329 468.83092611 -10.91959455 468.83339387 -17.30466461 468.85055351 C-23.30312385 468.86597159 -29.30126296 468.86212423 -35.29970932 468.84324837 C-37.50401369 468.83954905 -39.70834153 468.84270974 -41.91262436 468.85313416 C-44.91520688 468.86625301 -47.91671507 468.85487763 -50.91925049 468.83714294 C-51.79706027 468.84674795 -52.67487006 468.85635296 -53.57928014 468.86624902 C-59.46800062 468.79438533 -59.46800062 468.79438533 -62.61515427 466.42961216 C-64.18812643 464.17851316 -64.64593874 463.05657222 -64.640625 460.3359375 C-64.67349609 459.3459375 -64.67349609 459.3459375 -64.70703125 458.3359375 C-63.68843442 455.09667306 -61.92426792 454.1266743 -59.078125 452.3359375 C-56.04235346 451.75679039 -53.05838518 451.80185543 -49.97535706 451.83714294 C-48.59710004 451.82906611 -48.59710004 451.82906611 -47.19099945 451.82082611 C-44.11086729 451.80754729 -41.03153092 451.82270599 -37.95141602 451.83764648 C-35.74368931 451.83382377 -33.53596508 451.82820514 -31.32824707 451.82092285 C-26.57335365 451.80896341 -21.81868101 451.80946855 -17.06378365 451.81951714 C-9.54674944 451.83505928 -2.02994265 451.82141278 5.48707581 451.80348206 C16.02467878 451.78122377 26.5622315 451.77073756 37.09985352 451.77172852 C37.76834047 451.77178684 38.43682742 451.77184516 39.12557156 451.77190525 C41.83411504 451.7721711 44.54265851 451.77248838 47.25120198 451.77286851 C54.70531041 451.77383462 62.15941744 451.77250709 69.61352539 451.76977539 C70.61457734 451.76941555 70.61457734 451.76941555 71.63585257 451.76904844 C82.76668224 451.76464062 93.89747481 451.74831317 105.02828079 451.7245546 C112.50226789 451.70960404 119.97605429 451.70990381 127.45004451 451.72203243 C132.09818321 451.7267382 136.74624485 451.71923151 141.39437103 451.70848846 C143.55106982 451.70607922 145.70778143 451.70882858 147.86446571 451.71709633 C150.80722234 451.72770349 153.74938602 451.71997648 156.69212341 451.70774841 C157.54669913 451.71532447 158.40127485 451.72290052 159.2817468 451.73070616 C164.23982373 451.68698357 167.61270306 451.05719906 171.921875 448.3359375 C175.61704941 444.25850367 176.04730033 440.7170551 176.05609608 435.3456831 C176.06278284 433.45601496 176.06278284 433.45601496 176.06960469 431.52817172 C176.06951539 430.12231202 176.06932554 428.71645232 176.06904602 427.31059265 C176.07234458 425.82322573 176.07607013 424.33585971 176.0801875 422.84849483 C176.09021628 418.75088706 176.09392569 414.65329393 176.09657681 410.55567563 C176.10047719 406.14043308 176.11005562 401.72520217 176.11878967 397.30996704 C176.13856022 386.64294986 176.14862042 375.97593173 176.15751746 365.3089008 C176.16189884 360.28834405 176.16726599 355.26778835 176.17250633 350.24723244 C176.18951816 333.56307411 176.20401351 316.87891645 176.21125507 300.19475079 C176.21316503 295.86429023 176.21508536 291.53382968 176.21704102 287.20336914 C176.21752476 286.12702758 176.2180085 285.05068601 176.2185069 283.94172803 C176.22681162 266.49601771 176.25215621 249.05037587 176.28462169 231.60469546 C176.31766505 213.70291368 176.33570131 195.80116673 176.33889931 177.89935428 C176.34106679 167.84430973 176.34985028 157.78936508 176.37536049 147.7343502 C176.39703019 139.17323737 176.40513629 130.61224869 176.39539371 122.05111154 C176.39083833 117.68175039 176.39280682 113.31264558 176.41215515 108.94331932 C176.42971146 104.94421431 176.42885088 100.94555409 176.41325786 96.94644485 C176.41087029 95.49892188 176.41526464 94.05136871 176.42708651 92.60389205 C176.7641539 82.58566668 176.7641539 82.58566668 171.921875 74.3359375 C168.9626109 72.19047103 166.44306613 71.14909393 162.921875 70.3359375 C162.92339388 71.0554222 162.92491276 71.7749069 162.92647767 72.51619416 C163.01601516 115.17095957 163.08463397 157.82571474 163.12613632 200.48055531 C163.13113907 205.60365487 163.13631636 210.72675424 163.14160156 215.84985352 C163.1426508 216.86975835 163.14370005 217.88966319 163.14478108 218.94047423 C163.16218016 235.44858121 163.19371513 251.95663239 163.23048618 268.46470628 C163.26790941 285.40703184 163.29011378 302.3493282 163.29822898 319.29169339 C163.30371387 329.74369673 163.32102942 340.19554235 163.35354087 350.64749714 C163.3747058 357.81751255 163.38107056 364.98744658 163.37588051 372.15749095 C163.37332181 376.29253091 163.3772083 380.42729553 163.3986969 384.56228638 C163.41825337 388.35329064 163.41908666 392.14383605 163.40547058 395.93486204 C163.40299719 397.94488206 163.42016742 399.9548972 163.43820024 401.96483785 C163.3647474 413.15425116 161.06613705 422.1936511 153.20703125 430.390625 C145.99946354 436.52629803 138.40989832 438.45000694 129.12817383 438.48310852 C128.1225035 438.48862355 128.1225035 438.48862355 127.09651661 438.49425 C124.85730528 438.50523451 122.61814043 438.50912164 120.37890625 438.51293945 C118.77053685 438.51920776 117.16216889 438.52585489 115.55380249 438.53285217 C110.28067016 438.55384071 105.00753769 438.56424555 99.734375 438.57421875 C97.91769394 438.57826741 96.10101303 438.58238436 94.28433228 438.58656883 C85.75364684 438.60560429 77.22297 438.61984216 68.69226742 438.6281808 C58.84523813 438.63796564 48.99843289 438.66432443 39.15148258 438.70468169 C31.53777658 438.73481632 23.92413494 438.74964691 16.31037045 438.75296181 C11.76342248 438.75531414 7.21671433 438.76429911 2.66983032 438.78942299 C-1.60496928 438.81266423 -5.87937041 438.81695303 -10.15421677 438.80666161 C-11.72276508 438.80616527 -13.29133278 438.81251454 -14.85982132 438.82621765 C-17.0018348 438.84388464 -19.14240984 438.83685813 -21.28442383 438.82368469 C-22.48271317 438.82607305 -23.6810025 438.8284614 -24.91560364 438.83092213 C-28.74113113 438.23216655 -30.38706783 437.08046856 -33.078125 434.3359375 C-34.140625 430.8984375 -34.140625 430.8984375 -34.078125 427.3359375 C-32.48572254 424.65239239 -32.48572254 424.65239239 -30.078125 422.3359375 C-27.07547283 421.71066761 -27.07547283 421.71066761 -23.49406433 421.7101593 C-22.83405011 421.70321476 -22.17403589 421.69627021 -21.49402124 421.68911523 C-19.283432 421.67185803 -17.07457506 421.69015619 -14.86401367 421.70825195 C-13.27873392 421.70307358 -11.69346009 421.69567392 -10.10820007 421.68621826 C-6.6944478 421.67064463 -3.28118648 421.67083384 0.1325779 421.68322182 C5.53276726 421.70274989 10.93251961 421.68757306 16.33268738 421.66777039 C24.87721877 421.64060555 33.4215725 421.63713168 41.96613854 421.64354342 C57.25832805 421.65447249 72.55046332 421.62985289 87.84259814 421.58979577 C93.20800799 421.57673592 98.57325496 421.57545951 103.93867266 421.5839287 C107.28121759 421.58756029 110.62372114 421.58324551 113.96626091 421.5770874 C115.51299315 421.57600428 117.05973229 421.57835011 118.60645294 421.5844326 C120.72337583 421.59235558 122.83994563 421.58797698 124.9568634 421.58076477 C126.13985929 421.58172811 127.32285517 421.58269144 128.54169941 421.58368397 C133.65114842 421.2091922 137.66501855 420.31349252 141.734375 417.1484375 C147.10005108 410.24971111 146.21286902 402.05445362 146.2003479 393.70033264 C146.20535434 392.30423025 146.21123115 390.90813075 146.21790063 389.51203531 C146.23367257 385.68550544 146.23712976 381.85904906 146.23854923 378.03249061 C146.24224818 373.90235618 146.25740614 369.77226183 146.27116394 365.64215088 C146.29342502 358.48970524 146.30844524 351.33727388 146.31853104 344.1848011 C146.33312385 333.84356348 146.35866239 323.50237561 146.38686232 313.1611672 C146.43231935 296.38276722 146.46893867 279.60436008 146.5 262.82592773 C146.53019 246.52838889 146.56454235 230.23086758 146.60449219 213.93334961 C146.60695374 212.92857116 146.60941528 211.92379272 146.61195143 210.88856644 C146.62432611 205.8478287 146.63678263 200.80709117 146.64927983 195.76635373 C146.75283132 153.95623876 146.8414948 112.1461029 146.921875 70.3359375 C135.701875 70.3359375 124.481875 70.3359375 112.921875 70.3359375 C113.03957188 76.22895628 113.03957188 76.22895628 113.19213867 82.12109375 C113.26390962 89.31979665 111.83655351 94.57029077 107.671875 100.5859375 C101.62235884 106.63545366 95.77170835 108.45258493 87.35800171 108.48310852 C86.70010419 108.48678521 86.04220666 108.4904619 85.36437285 108.49425 C83.16136431 108.50525683 80.95840298 108.50912559 78.75537109 108.51293945 C77.17496594 108.51920647 75.59456224 108.52585348 74.01416016 108.53285217 C68.82455466 108.55386996 63.63494896 108.5642537 58.4453125 108.57421875 C56.65629689 108.57826742 54.86728144 108.58238437 53.07826614 108.58656883 C44.67090622 108.60561695 36.26355504 108.61984774 27.85617769 108.6281808 C18.16426777 108.63794656 8.47258664 108.66425037 -1.21924269 108.70468169 C-8.71835794 108.73488757 -16.21740778 108.74965399 -23.71658266 108.75296181 C-28.1916071 108.75530755 -32.66638702 108.76420552 -37.14134598 108.78942299 C-41.35541193 108.81278662 -45.56907381 108.81690387 -49.78318787 108.80666161 C-51.32383446 108.80616811 -52.86450151 108.81243318 -54.40508652 108.82621765 C-63.96945887 108.90695788 -72.76971627 108.61499133 -80.515625 102.37109375 C-81.03125 101.72011719 -81.546875 101.06914063 -82.078125 100.3984375 C-82.614375 99.75003906 -83.150625 99.10164063 -83.703125 98.43359375 C-86.31050472 94.4558582 -87.33162639 90.99630095 -87.2734375 86.25390625 C-87.26844238 85.4136792 -87.26344727 84.57345215 -87.25830078 83.70776367 C-87.24009277 82.65693604 -87.22188477 81.6061084 -87.203125 80.5234375 C-87.161875 77.1615625 -87.120625 73.7996875 -87.078125 70.3359375 C-98.298125 70.3359375 -109.518125 70.3359375 -121.078125 70.3359375 C-121.05717773 75.73743164 -121.03623047 81.13892578 -121.01464844 86.70410156 C-120.94847504 104.51763407 -120.90402469 122.33117132 -120.87087631 140.14479446 C-120.85023771 150.9489696 -120.82209229 161.75302842 -120.77636719 172.55712891 C-120.73653919 181.97231489 -120.71070164 191.38741666 -120.70177102 200.80268455 C-120.69654943 205.78954475 -120.68424985 210.77616399 -120.65520477 215.76294708 C-120.62809945 220.45460415 -120.6196701 225.14592047 -120.62569427 229.83764839 C-120.62459185 231.56142337 -120.61660887 233.28520948 -120.6013031 235.00891685 C-120.58145096 237.35949492 -120.58616745 239.7087803 -120.59710693 242.05938721 C-120.59341976 243.37570759 -120.58973259 244.69202797 -120.58593369 246.04823685 C-121.16073689 249.88776185 -122.00290948 251.04571672 -125.078125 253.3359375 C-128.76264218 254.51184724 -130.36066775 254.67075088 -133.890625 253.0234375 C-136.078125 251.3359375 -136.078125 251.3359375 -137.078125 249.3359375 C-137.17294208 246.99216501 -137.20001986 244.64558528 -137.19837952 242.29989624 C-137.19923394 241.56723152 -137.20008837 240.8345668 -137.20096868 240.07970011 C-137.20262246 237.61219096 -137.19710377 235.14474903 -137.19165039 232.67724609 C-137.19136847 230.91342673 -137.19152635 229.14960726 -137.1920929 227.38578796 C-137.19238068 222.58646247 -137.18648695 217.78716179 -137.17951894 212.98784208 C-137.17328231 207.97632185 -137.17268136 202.9648011 -137.17149353 197.95327759 C-137.16838113 188.45831785 -137.16016896 178.96336958 -137.15014404 169.4684149 C-137.13898008 158.66083689 -137.13347174 147.85325834 -137.12844861 137.04567599 C-137.11798628 114.80909009 -137.10038859 92.57251451 -137.078125 70.3359375 C-142.53715016 71.74078651 -145.46309173 72.89461091 -149.078125 77.3359375 C-151.16951207 81.47178821 -151.32847575 84.95143854 -151.3296814 89.55397034 C-151.33265154 90.27004186 -151.33562167 90.98611338 -151.33868182 91.72388405 C-151.34630577 94.11751834 -151.33983453 96.51090609 -151.33349609 98.90454102 C-151.33624667 100.62290615 -151.33992698 102.34127001 -151.34446716 104.05963135 C-151.35257361 107.75697612 -151.35474905 111.45426044 -151.35251999 115.15161324 C-151.34968704 120.9962216 -151.36403723 126.84070909 -151.38150024 132.68528748 C-151.42853201 149.30376379 -151.45247641 165.92223157 -151.45898438 182.54077148 C-151.46273131 191.72130226 -151.48072882 200.90169601 -151.51407874 210.08216804 C-151.53432685 215.89421357 -151.53664674 221.70590655 -151.52579856 227.51797307 C-151.52319629 231.13030903 -151.53717119 234.74243852 -151.55587959 238.35472107 C-151.56121352 240.03170966 -151.55968435 241.70873599 -151.55084419 243.38570976 C-151.53975953 245.67259892 -151.55310981 247.95808533 -151.57260132 250.24488831 C-151.57423562 252.16538167 -151.57423562 252.16538167 -151.57590294 254.12467289 C-152.1642847 257.88685238 -153.08668488 259.06069652 -156.078125 261.3359375 C-158.078125 261.90234375 -158.078125 261.90234375 -160.078125 261.8984375 C-161.068125 261.93130859 -161.068125 261.93130859 -162.078125 261.96484375 C-165.25230194 260.96671389 -166.28345888 259.07952704 -168.078125 256.3359375 C-168.58428288 252.97432613 -168.58428288 252.97432613 -168.5927887 249.05784607 C-168.60320699 247.97382959 -168.60320699 247.97382959 -168.61383575 246.86791378 C-168.63210173 244.45125883 -168.62184292 242.03558607 -168.61157227 239.61889648 C-168.61863136 237.88394944 -168.62737634 236.14900856 -168.63768005 234.41407776 C-168.66019528 229.70287378 -168.65722779 224.99200547 -168.64835858 220.28076816 C-168.64324673 216.34237996 -168.65054359 212.40405474 -168.65783066 208.46567303 C-168.6748394 199.16643114 -168.67125749 189.86735327 -168.65454102 180.56811523 C-168.63765168 170.99381314 -168.65340806 161.41996804 -168.6857639 151.84571594 C-168.71252401 143.61361436 -168.71971751 135.38165446 -168.71124882 127.14951378 C-168.70633422 122.2384882 -168.70845416 117.32773696 -168.72903633 112.41674614 C-168.74749211 107.79134198 -168.74131474 103.16658958 -168.71683693 98.54121971 C-168.71185862 96.85146148 -168.71524059 95.16165277 -168.72798538 93.47193527 C-168.80797122 81.94762518 -167.85887747 71.44343293 -159.890625 62.3984375 C-152.89962369 56.14172079 -144.81475952 53.20096807 -135.52514648 53.22583008 C-133.89336708 53.22496147 -133.89336708 53.22496147 -132.22862244 53.22407532 C-131.06391922 53.22618515 -129.899216 53.22829498 -128.69921875 53.23046875 C-126.22720477 53.2170208 -123.75519894 53.20199914 -121.28320312 53.18554688 C-117.38976638 53.16265155 -113.49725574 53.14849597 -109.60375977 53.16088867 C-105.8432356 53.16967217 -102.08455239 53.14089089 -98.32421875 53.10546875 C-97.1574913 53.11769974 -95.99076385 53.12993073 -94.78868103 53.14253235 C-91.76494024 53.09698288 -89.02611602 53.01069614 -86.078125 52.3359375 C-83.30963032 49.59327618 -83.30963032 49.59327618 -82.078125 46.3359375 C-80.3671875 44.5078125 -80.3671875 44.5078125 -78.703125 43.0859375 C-78.15914063 42.60640625 -77.61515625 42.126875 -77.0546875 41.6328125 C-70.46119624 37.30664827 -62.88759178 37.98622477 -55.30859375 37.9453125 C-49.09636181 37.79192406 -44.24979155 36.94430103 -39.078125 33.3359375 C-35.94572809 29.75605532 -34.44686523 25.82853922 -32.703125 21.4609375 C-29.12727104 12.68976989 -24.79006778 6.46770448 -16.078125 2.3359375 C-10.67736918 0.08755418 -5.75441755 0.01389106 0 0 Z M-13.6953125 21.359375 C-14.31792969 22.52339844 -14.31792969 22.52339844 -14.953125 23.7109375 C-15.44296875 24.58878906 -15.9328125 25.46664062 -16.4375 26.37109375 C-17.24960938 27.83869141 -17.24960938 27.83869141 -18.078125 29.3359375 C-19.4410745 31.61544412 -20.81354698 33.88544735 -22.203125 36.1484375 C-22.84507812 37.20675781 -23.48703125 38.26507813 -24.1484375 39.35546875 C-27.13586705 43.9696565 -29.66121909 47.4927748 -34.578125 50.0859375 C-35.3309375 50.49328125 -36.08375 50.900625 -36.859375 51.3203125 C-40.72182921 53.08833731 -44.0926519 53.45410394 -48.32421875 53.4765625 C-49.82758789 53.50556641 -49.82758789 53.50556641 -51.36132812 53.53515625 C-53.46009365 53.56894443 -55.55916726 53.58723463 -57.65820312 53.58984375 C-62.11326702 53.69857363 -65.28292035 53.91981938 -69.265625 56.00390625 C-72.27911315 61.54378856 -71.75639256 67.20643756 -71.640625 73.3984375 C-71.65158203 74.67783203 -71.66253906 75.95722656 -71.67382812 77.27539062 C-71.95235934 83.92253337 -71.95235934 83.92253337 -69.23022461 89.66967773 C-65.53860363 92.52790952 -62.42700375 92.46443618 -57.90457153 92.47637939 C-56.61189362 92.48208954 -55.3192157 92.48779968 -53.98736572 92.49368286 C-52.55163584 92.49492821 -51.11590585 92.4960533 -49.68017578 92.49707031 C-48.17062254 92.50169878 -46.66107048 92.50672348 -45.15151978 92.51211548 C-41.04818723 92.52523775 -36.94487104 92.53168397 -32.84152079 92.53612614 C-30.27839722 92.53905683 -27.71527814 92.54316161 -25.15215683 92.54763031 C-17.13404045 92.5613041 -9.11593429 92.57097163 -1.09780705 92.5748322 C8.16058012 92.57931436 17.41881975 92.59687004 26.67716205 92.6258328 C33.83223393 92.64743974 40.98726427 92.65753593 48.14236844 92.65887332 C52.41655276 92.65992196 56.69059838 92.66584229 60.96474838 92.68369293 C64.98503759 92.70015685 69.00508356 92.70233739 73.02539444 92.69355392 C74.50040589 92.69278267 75.97543033 92.69713789 77.45040894 92.70701218 C79.46501773 92.71970748 81.47972399 92.71207196 83.49435425 92.70343018 C84.62149778 92.70489674 85.74864132 92.7063633 86.90994072 92.7078743 C90.33227779 92.28525781 92.17539075 91.39218333 94.921875 89.3359375 C97.2193706 85.88969411 97.17876311 84.55531557 97.1875 80.49609375 C97.19007813 79.35076172 97.19265625 78.20542969 97.1953125 77.02539062 C97.18757812 75.82849609 97.17984375 74.63160156 97.171875 73.3984375 C97.17960938 72.20541016 97.18734375 71.01238281 97.1953125 69.78320312 C97.19273437 68.63658203 97.19015625 67.48996094 97.1875 66.30859375 C97.18411621 64.73476929 97.18411621 64.73476929 97.18066406 63.12915039 C96.91576951 60.27003857 96.56836564 58.67433226 94.921875 56.3359375 C92.043532 54.403626 89.67661814 54.07997969 86.25390625 54.02734375 C85.35994141 54.00220703 84.46597656 53.97707031 83.54492188 53.95117188 C81.69081823 53.91638327 79.83664593 53.88505758 77.98242188 53.85742188 C68.18319586 53.56982827 60.07693501 51.27016233 52.921875 44.3359375 C48.01910726 38.47205449 44.32481974 31.75784313 40.67382812 25.0703125 C37.4965084 19.31238056 37.4965084 19.31238056 31.921875 16.3359375 C29.11542619 16.21481959 26.33460729 16.14778372 23.52734375 16.1328125 C22.70236893 16.12711243 21.8773941 16.12141235 21.02742004 16.11553955 C19.28155802 16.10609627 17.53567823 16.09955824 15.78979492 16.09570312 C13.12972582 16.08601164 10.47043422 16.05498838 7.81054688 16.0234375 C6.11198374 16.01690561 4.4134151 16.01165587 2.71484375 16.0078125 C1.92401901 15.9954657 1.13319427 15.9831189 0.31840515 15.97039795 C-5.258149 15.99269294 -10.00265945 16.73909896 -13.6953125 21.359375 Z " fill="#000000" transform="translate(272.078125,21.6640625)"/>
<path d="M0 0 C0.8146875 0.69480469 1.629375 1.38960938 2.46875 2.10546875 C6.37598255 5.48623977 9.96714134 8.78037057 13 13 C17.84498859 11.12939289 20.99462446 7.10313029 24.49023438 3.43164062 C28.74641913 -0.95433884 32.51723725 -4.20377651 38.8125 -4.875 C39.99779297 -5.02582031 39.99779297 -5.02582031 41.20703125 -5.1796875 C48.87557198 -4.68632684 53.73027097 -1.03793765 58.875 4.375 C59.4421875 4.93960937 60.009375 5.50421875 60.59375 6.0859375 C64.819046 10.41135899 67.27876854 14.14592392 67.3125 20.375 C67.32925781 21.08398438 67.34601563 21.79296875 67.36328125 22.5234375 C66.29490454 29.80677981 62.7472726 33.67216267 57.3984375 38.2890625 C56.08629496 39.47567729 54.77764749 40.66616609 53.47216797 41.86010742 C52.46304352 42.78151016 52.46304352 42.78151016 51.43353271 43.7215271 C38.65199568 54.65046327 38.65199568 54.65046327 32.76342773 69.62158203 C32.91005723 72.9937395 33.238302 76.29185995 33.74658203 79.62841797 C34.17163625 83.6062375 33.52829943 87.3378077 32.8125 91.25 C32.68302979 91.9821875 32.55355957 92.714375 32.42016602 93.46875 C28.57735375 113.51121539 19.14871162 130.61999186 6 146 C5.41734375 146.68578125 4.8346875 147.3715625 4.234375 148.078125 C-12.56573027 166.23581453 -37.85284415 175.6868519 -62.01953125 177.1875 C-91.23141887 177.81318969 -116.87571485 166.60637404 -137.75 146.6875 C-156.38938083 127.39790821 -166.11828043 101.92803937 -166.03125 75.26953125 C-165.40039932 47.45577542 -154.43306122 23.70676631 -135 4 C-134.20851563 3.195625 -133.41703125 2.39125 -132.6015625 1.5625 C-96.85034576 -32.64464426 -36.66034284 -32.32889822 0 0 Z M-128.3125 20.3125 C-145.05870953 39.69141994 -150.53681144 61.88396938 -149 87 C-146.81249492 107.73812386 -135.5034301 128.00512447 -119.43603516 141.29345703 C-99.41959487 156.78868006 -76.61707945 162.55226652 -51.62451172 159.73193359 C-37.38201433 157.42189789 -23.80766406 150.43021668 -13 141 C-11.55947266 139.84951172 -11.55947266 139.84951172 -10.08984375 138.67578125 C4.93779162 126.12060123 13.87706541 105.99254095 17 87 C17.23853977 83.90302598 17.22175141 81.10451971 17 78 C12.26201092 81.94981446 7.80055481 86.07179326 3.47265625 90.46484375 C2.88004501 91.06124161 2.28743378 91.65763947 1.67686462 92.27210999 C-0.82533674 94.79045153 -3.3214814 97.31476382 -5.81811523 99.83862305 C-18.01755294 112.15927363 -18.01755294 112.15927363 -24.15063477 117.36010742 C-28.79513502 121.47853755 -33.01108331 126.09845867 -37.2890625 130.59179688 C-44.00396073 137.46245306 -50.56603869 142.02502607 -60.49609375 142.29272461 C-75.71374456 142.43408123 -82.7334222 136.20871334 -93.35864258 125.80249023 C-95.37565164 123.80957129 -97.38588062 121.80993328 -99.39453125 119.80859375 C-100.18880303 119.01856303 -100.18880303 119.01856303 -100.99912071 118.2125721 C-103.79335498 115.43321206 -106.58479331 112.65108124 -109.3737793 109.86645508 C-112.24289319 107.00285439 -115.12119414 104.1486748 -118.00168324 101.29652309 C-120.22954359 99.08731458 -122.45064029 96.87139906 -124.66995811 94.65361214 C-125.72836529 93.59821875 -126.7892578 92.5453114 -127.8527317 91.49502373 C-129.33847633 90.02641715 -130.81437597 88.54854245 -132.28833008 87.06811523 C-133.12801834 86.2320726 -133.9677066 85.39602997 -134.83283997 84.53465271 C-138.54674786 80.19096486 -140.42434 76.22344016 -140.375 70.5 C-140.38273437 69.6028125 -140.39046875 68.705625 -140.3984375 67.78125 C-139.50747237 61.56196402 -135.98930826 57.50814941 -131.625 53.25 C-131.15578125 52.76917969 -130.6865625 52.28835938 -130.203125 51.79296875 C-125.65475316 47.2822906 -121.91392448 45.71452734 -115.5625 45.6875 C-114.65628906 45.67074219 -113.75007813 45.65398437 -112.81640625 45.63671875 C-104.81404339 46.66892367 -100.03501088 52.57348409 -94.6640625 58.04296875 C-93.78471039 58.9265657 -92.90535828 59.81016266 -91.99935913 60.72053528 C-89.67594801 63.05785386 -87.35919222 65.40151039 -85.04553223 67.74847412 C-82.6777959 70.14703558 -80.30142104 72.53700518 -77.92578125 74.92773438 C-73.27588999 79.6106486 -68.63467563 84.302029 -64 89 C-60.29557746 87.26798575 -57.95482865 85.17198443 -55.078125 82.23828125 C-54.61444519 81.76939987 -54.15076538 81.30051849 -53.67303467 80.81742859 C-52.19382975 79.32048402 -50.72147299 77.81704251 -49.25 76.3125 C-47.79202939 74.82662216 -46.33252184 73.34234309 -44.86981201 71.86112976 C-43.53123319 70.50491833 -42.19758899 69.14384157 -40.86425781 67.7824707 C-38.66489392 65.64590828 -36.44909582 63.6290865 -34.13183594 61.62744141 C-30.05727241 58.09550322 -26.23374313 54.36216821 -22.4375 50.53515625 C-21.76074219 49.85698349 -21.08398438 49.17881073 -20.38671875 48.48008728 C-18.25542325 46.34325695 -16.12765782 44.20295177 -14 42.0625 C-12.54320221 40.60067877 -11.08617299 39.13908813 -9.62890625 37.67773438 C-6.08326027 34.121146 -2.54077261 30.56143984 1 27 C-3.76213373 14.26396874 -18.06358212 5.63255536 -29.95239258 0.03613281 C-64.52766999 -15.3489793 -102.47637857 -6.74267739 -128.3125 20.3125 Z M38.45703125 13.28515625 C37.64298828 14.16494141 37.64298828 14.16494141 36.8125 15.0625 C34.44633214 17.60138085 31.97628907 19.90357182 29.34448242 22.15991211 C25.14236922 25.82364484 21.19710371 29.69081938 17.28125 33.65625 C16.57907349 34.36221313 15.87689697 35.06817627 15.15344238 35.79553223 C12.93315397 38.02791358 10.71616045 40.26352111 8.5 42.5 C5.57590521 45.45090378 2.64836943 48.39833203 -0.28125 51.34375 C-0.936698 52.00749634 -1.592146 52.67124268 -2.26745605 53.35510254 C-5.4240331 56.52811905 -8.62495993 59.58645552 -12.01367188 62.51147461 C-16.03709504 65.98451234 -19.77694283 69.68240154 -23.5 73.47265625 C-24.89569751 74.880994 -26.29153507 76.28919296 -27.6875 77.69726562 C-29.84833847 79.88290463 -32.00751768 82.07013387 -34.1640625 84.26000977 C-36.27153788 86.39789985 -38.38536785 88.52934804 -40.5 90.66015625 C-41.45036133 91.63070702 -41.45036133 91.63070702 -42.41992188 92.62086487 C-49.17157259 99.40965453 -54.85643029 104.93239243 -64.76953125 105.328125 C-72.5483256 104.18378397 -77.22813618 98.07847954 -82.4140625 92.703125 C-84.24454389 90.83960034 -86.07528065 88.97632648 -87.90625 87.11328125 C-90.78049464 84.17370311 -93.64761259 81.22725712 -96.51074219 78.27685547 C-99.27803406 75.42695737 -102.06496159 72.59664683 -104.8515625 69.765625 C-105.70891998 68.87304993 -106.56627747 67.98047485 -107.44961548 67.06085205 C-108.25079803 66.24960876 -109.05198059 65.43836548 -109.87744141 64.60253906 C-110.57882233 63.88100647 -111.28020325 63.15947388 -112.00283813 62.41607666 C-113.88451119 60.76303069 -113.88451119 60.76303069 -116.13754272 61.15936279 C-118.68548661 62.30940068 -119.9788864 63.91672776 -121.75 66.0625 C-122.36359375 66.79597656 -122.9771875 67.52945313 -123.609375 68.28515625 C-124.06828125 68.85105469 -124.5271875 69.41695312 -125 70 C-119.7159787 76.40087379 -113.9158526 82.24790886 -108.0546875 88.11328125 C-106.99660204 89.17458586 -105.93858939 90.23596307 -104.88064575 91.29740906 C-102.67528905 93.50871918 -100.4679104 95.7179879 -98.25927734 97.92602539 C-95.43195321 100.75324736 -92.61160465 103.58732087 -89.79292107 106.42315388 C-87.61560361 108.61158622 -85.43376002 110.79546219 -83.25061417 112.97807884 C-82.20841854 114.02145255 -81.1678395 115.06644367 -80.12893295 116.11309242 C-78.67904164 117.57278631 -77.22294539 119.02600224 -75.76513672 120.4777832 C-74.93940155 121.30494339 -74.11366638 122.13210358 -73.26290894 122.98432922 C-69.31113105 126.50434855 -66.50726259 127.22437292 -61.1953125 127.4609375 C-47.10704328 124.50290233 -31.42485447 102.50269813 -21.75 92.75 C-18.39359894 89.36681914 -15.03376272 85.9871028 -11.671875 82.609375 C-10.54347198 81.46852448 -10.54347198 81.46852448 -9.39227295 80.30462646 C-6.02854225 76.92549467 -2.64127206 73.63782569 0.97314453 70.52685547 C5.57645189 66.56092478 9.82940319 62.27780476 14.1015625 57.9609375 C14.94165863 57.11705475 15.78175476 56.273172 16.64730835 55.40371704 C19.3089943 52.72990623 21.96740032 50.05287196 24.625 47.375 C28.13510248 43.83822886 31.6485508 40.30483107 35.1640625 36.7734375 C35.96107574 35.96812592 36.75808899 35.16281433 37.57925415 34.33309937 C40.78123181 31.117104 43.9405884 27.97229094 47.48974609 25.13916016 C50.22732316 23.1796279 50.22732316 23.1796279 51 20 C49.73861805 18.65772182 48.46555441 17.32641323 47.1875 16 C46.12595703 14.88625 46.12595703 14.88625 45.04296875 13.75 C42.57419346 11.63525559 41.08500657 11.09628566 38.45703125 13.28515625 Z " fill="#000000" transform="translate(212,310)"/>
<path d="M0 0 C0.80843324 -0.00538554 1.61686648 -0.01077108 2.44979769 -0.01631981 C5.16212573 -0.03064169 7.87396863 -0.02348532 10.58631897 -0.01637268 C12.5295145 -0.02207404 14.47270668 -0.02903739 16.41589355 -0.03717041 C21.69686385 -0.05514283 26.97766836 -0.05392575 32.25866008 -0.04822803 C36.66488871 -0.04514206 41.07108522 -0.05122202 45.47730929 -0.05726677 C55.87076927 -0.07132382 66.26414708 -0.0697409 76.65760803 -0.05836487 C87.38563746 -0.04688223 98.11341695 -0.06095917 108.84141344 -0.08776134 C118.04745877 -0.10990137 127.25342554 -0.11655955 136.4594956 -0.11068493 C141.95992456 -0.10731012 147.46019328 -0.10976522 152.9605999 -0.12693596 C158.13250557 -0.14237593 163.30404031 -0.13848227 168.47593117 -0.11963081 C170.37503868 -0.11593676 172.2741735 -0.11907708 174.17325592 -0.1295166 C176.76412778 -0.14267255 179.3537619 -0.13122753 181.94458008 -0.11352539 C182.69769515 -0.1231304 183.45081023 -0.1327354 184.22674698 -0.14263147 C187.88355087 -0.09115572 189.89500694 0.29721235 193.00217533 2.29400539 C195.03578186 4.38768005 195.03578186 4.38768005 195.66468811 6.38768005 C195.63181702 7.37768005 195.63181702 7.37768005 195.59828186 8.38768005 C195.59957092 9.04768005 195.60085999 9.70768005 195.60218811 10.38768005 C194.75481134 13.37979666 193.49625881 14.48380914 191.03578186 16.38768005 C188.23724948 16.78267922 185.83126944 16.9327097 183.03359985 16.90234375 C182.22108306 16.90928928 181.40856627 16.91623481 180.57142776 16.92339081 C177.84515634 16.94170681 175.11975059 16.93138392 172.39344788 16.92112732 C170.44039761 16.92818349 168.48735282 16.93692722 166.53431702 16.94723511 C161.2264469 16.96977303 155.91887435 16.96677902 150.61097455 16.95791364 C146.18236952 16.95281027 141.75382072 16.96009104 137.32522148 16.96738571 C126.87900103 16.9843988 116.43292662 16.98080475 105.98670959 16.96409607 C95.20409323 16.94717251 84.42188162 16.96300947 73.63930947 16.99531895 C64.38654282 17.02199572 55.13390232 17.02929603 45.88110107 17.02080387 C40.35269594 17.01586917 34.82453441 17.01811967 29.29615974 17.03859138 C24.09791291 17.05691838 18.9002493 17.05102613 13.702034 17.02639198 C11.79325338 17.02137465 9.88442855 17.02489769 7.97568321 17.03754044 C5.37143039 17.05342646 2.76910854 17.03856347 0.16494751 17.01586914 C-0.59205851 17.02770487 -1.34906454 17.0395406 -2.12901014 17.05173498 C-6.10962616 16.98116487 -7.80626742 16.51510039 -10.94665623 13.98171902 C-12.96421814 11.38768005 -12.96421814 11.38768005 -13.37437439 9.25486755 C-13.25964783 8.59744568 -13.14492126 7.9400238 -13.02671814 7.26268005 C-12.9351947 6.60010193 -12.84367126 5.9375238 -12.74937439 5.25486755 C-10.40596165 -0.31802443 -5.2846004 -0.04204788 0 0 Z " fill="#000000" transform="translate(204.96421813964844,220.61231994628906)"/>
<path d="M0 0 C1.26226913 -0.0071553 2.52453827 -0.01431061 3.82505798 -0.02168274 C7.27973424 -0.04017517 10.73363737 -0.02727364 14.1882813 -0.00759244 C17.80590394 0.00881021 21.42347825 -0.0000209 25.04112244 -0.00511169 C31.11478 -0.00963031 37.18812935 0.00622385 43.26171875 0.03417969 C50.2822876 0.06624528 57.30230106 0.06620972 64.32290941 0.04896492 C71.07993661 0.03309946 77.83676031 0.03983246 84.59377861 0.05690193 C87.46813821 0.06377202 90.34233467 0.06274057 93.21669197 0.05535698 C97.22941049 0.04627082 101.24127132 0.07023009 105.25390625 0.09765625 C106.44726593 0.09113037 107.64062561 0.08460449 108.87014771 0.07788086 C109.96226059 0.09060532 111.05437347 0.10332977 112.17958069 0.11643982 C113.12806413 0.11924674 114.07654757 0.12205366 115.05377293 0.12494564 C118.30248004 0.78046483 119.50178031 2.09297817 121.56225586 4.63110352 C122.12866211 6.63110352 122.12866211 6.63110352 122.12475586 8.63110352 C122.14666992 9.29110352 122.16858398 9.95110352 122.19116211 10.63110352 C121.13122981 14.00181989 119.61620154 14.82994551 116.56225586 16.63110352 C112.45124273 17.23707665 108.36517451 17.16674788 104.21630859 17.1328125 C102.33753525 17.14091698 102.33753525 17.14091698 100.42080688 17.14918518 C96.99290699 17.15954007 93.56597433 17.15198207 90.13815951 17.13547397 C86.54856917 17.12160577 82.9590075 17.12808544 79.36940002 17.13160706 C73.3428641 17.13430744 67.31652755 17.12084729 61.29003906 17.09765625 C54.32407389 17.07103537 47.35844175 17.0693038 40.39244312 17.08104461 C33.68776913 17.09182523 26.98321553 17.08563393 20.2785511 17.07148933 C17.42654637 17.06573316 14.57462984 17.06580925 11.72262383 17.07055473 C7.74122395 17.07621488 3.76015713 17.05700291 -0.22119141 17.03515625 C-1.99720482 17.04190872 -1.99720482 17.04190872 -3.80909729 17.04879761 C-4.89279602 17.03889297 -5.97649475 17.02898834 -7.09303284 17.01878357 C-8.03414193 17.01635367 -8.97525103 17.01392378 -9.94487858 17.01142025 C-12.89662504 16.5610957 -14.26717982 15.64655588 -16.43774414 13.63110352 C-17.22290039 11.76391602 -17.22290039 11.76391602 -17.50024414 9.75610352 C-17.6149707 9.09868164 -17.72969727 8.44125977 -17.84790039 7.76391602 C-17.33828866 5.11393502 -16.2411104 3.56316645 -14.2986927 1.71132088 C-10.05970497 -0.74926736 -4.7535723 -0.04665329 0 0 Z " fill="#000000" transform="translate(209.437744140625,251.368896484375)"/>
<path d="M0 0 C1.09080872 -0.0071553 2.18161743 -0.01431061 3.30548096 -0.02168274 C4.50760223 -0.02437164 5.70972351 -0.02706055 6.94827271 -0.02983093 C8.21010376 -0.03640213 9.47193481 -0.04297333 10.77200317 -0.04974365 C14.23897854 -0.06715591 17.70594011 -0.0777057 21.17294836 -0.08594918 C23.33822335 -0.09109818 25.50349406 -0.09717391 27.66876602 -0.10346031 C34.44120776 -0.12251182 41.21363859 -0.13674383 47.98610198 -0.14507228 C55.80809956 -0.15484988 63.62981453 -0.18118286 71.45171249 -0.22157317 C77.49507988 -0.25171071 83.53836616 -0.26653883 89.58180726 -0.26985329 C93.192614 -0.27220623 96.80311882 -0.28119781 100.41384506 -0.30631447 C104.44112768 -0.33387636 108.46777686 -0.32977139 112.49514771 -0.32279968 C113.69322052 -0.33560974 114.89129333 -0.3484198 116.12567139 -0.36161804 C117.22211975 -0.35467422 118.31856812 -0.34773041 119.44824219 -0.34057617 C120.40062208 -0.34296453 121.35300198 -0.34535288 122.33424187 -0.34781361 C125.59548708 0.29356669 126.78705907 1.60071313 128.85110474 4.14717102 C129.41751099 6.14717102 129.41751099 6.14717102 129.41360474 8.14717102 C129.4355188 8.80717102 129.45743286 9.46717102 129.48001099 10.14717102 C128.42022013 13.5174376 126.90425571 14.34554487 123.85110474 16.14717102 C119.74062046 16.75774548 115.65423644 16.69317149 111.50515747 16.66474915 C109.62638412 16.67526306 109.62638412 16.67526306 107.70965576 16.68598938 C104.28176601 16.70056482 100.85484365 16.69716852 97.42700839 16.68447304 C93.83740885 16.67433243 90.2478501 16.68374144 86.6582489 16.6900177 C80.6317199 16.69729012 74.60538713 16.68771623 68.57888794 16.6686554 C61.61286282 16.64687734 54.64730582 16.65394606 47.681292 16.67596102 C41.69727334 16.69411496 35.71339556 16.69667374 29.72935826 16.68620634 C26.15665167 16.67997256 22.58416513 16.67913255 19.0114727 16.69235229 C15.03001587 16.70605627 11.0490833 16.68706106 7.06765747 16.66474915 C5.29164406 16.67689453 5.29164406 16.67689453 3.47975159 16.68928528 C2.39605286 16.67800598 1.31235413 16.66672668 0.19581604 16.65510559 C-0.74529305 16.65359749 -1.68640215 16.65208939 -2.6560297 16.65053558 C-5.91491604 15.99249452 -7.09503799 14.70992081 -9.14889526 12.14717102 C-10.324805 8.46265384 -10.48370865 6.86462827 -8.83639526 3.33467102 C-6.14640903 -0.15234817 -4.22088289 0.01895479 0 0 Z " fill="#000000" transform="translate(271.1488952636719,182.8528289794922)"/>
<path d="M0 0 C1.0809494 -0.0071553 2.1618988 -0.01431061 3.27560425 -0.02168274 C4.46680374 -0.02437164 5.65800323 -0.02706055 6.88529968 -0.02983093 C8.76100647 -0.03968773 8.76100647 -0.03968773 10.67460632 -0.04974365 C14.11067686 -0.06610007 17.54668577 -0.07770622 20.98278069 -0.08594918 C23.12930242 -0.09109877 25.27581982 -0.09717452 27.42233849 -0.10346031 C34.13765111 -0.12251337 40.85295273 -0.13674418 47.56828719 -0.14507228 C55.32122539 -0.15484577 63.07387816 -0.18116741 70.82671577 -0.22157317 C76.81829456 -0.25172861 82.8097915 -0.2665406 88.80144471 -0.26985329 C92.38042653 -0.27220448 95.95910347 -0.28117319 99.53800392 -0.30631447 C103.53155625 -0.33391515 107.52447057 -0.3297659 111.51811218 -0.32279968 C112.70323898 -0.33560974 113.88836578 -0.3484198 115.10940552 -0.36161804 C123.11839287 -0.31056931 123.11839287 -0.31056931 127.13009644 2.05154419 C129.03624466 4.3138608 129.5552637 5.22678407 129.45829773 8.14717102 C129.45958679 8.80717102 129.46087585 9.46717102 129.46220398 10.14717102 C128.64241297 13.04188136 127.1957907 14.24204211 124.89579773 16.14717102 C122.38452148 16.64774227 122.38452148 16.64774227 119.50639343 16.64837646 C117.86605637 16.66312767 117.86605637 16.66312767 116.19258118 16.67817688 C114.99765045 16.66850891 113.80271973 16.65884094 112.57157898 16.64888 C111.30945587 16.65428299 110.04733276 16.65968597 108.7469635 16.66525269 C105.28818946 16.67921134 101.82991264 16.66803519 98.37116623 16.65154147 C94.75087344 16.63768761 91.13060942 16.64415143 87.51029968 16.64767456 C81.43070974 16.65037643 75.35131725 16.63690324 69.27177429 16.61372375 C62.24391478 16.58711402 55.2163854 16.58536692 48.18849277 16.59711212 C41.42669007 16.60789307 34.66500673 16.60170039 27.9032135 16.58755684 C25.02608924 16.58179974 22.14905242 16.58187751 19.27192688 16.58662224 C15.25444069 16.59228264 11.23744717 16.57306999 7.22001648 16.55122375 C6.02508575 16.5557254 4.83015503 16.56022705 3.59901428 16.56486511 C2.50545624 16.55496048 1.41189819 16.54505585 0.28520203 16.53485107 C-0.66458023 16.53242118 -1.61436249 16.52999128 -2.59292603 16.52748775 C-5.5913917 16.0733893 -6.94831404 15.25917346 -9.10420227 13.14717102 C-10.20793605 9.17372941 -10.5196381 7.0571733 -8.79170227 3.27217102 C-6.09051532 -0.12932366 -4.16815054 0.01889015 0 0 Z " fill="#000000" transform="translate(202.1042022705078,151.8528289794922)"/>
<path d="M0 0 C1.54210144 -0.00717545 1.54210144 -0.00717545 3.11535645 -0.01449585 C5.28736909 -0.01789593 7.45943284 -0.00868604 9.63134766 0.01220703 C12.95721472 0.03896968 16.27970674 0.01246143 19.60546875 -0.01953125 C21.71615329 -0.01622717 23.82683572 -0.00982099 25.9375 0 C26.93237427 -0.01012115 27.92724854 -0.02024231 28.95227051 -0.03067017 C35.83565595 0.0862646 35.83565595 0.0862646 39.10742188 3.07226562 C40.50092482 5.72531929 40.92611655 6.87335072 40.46875 9.7890625 C40.38625 10.45164063 40.30375 11.11421875 40.21875 11.796875 C39.18240705 14.37693713 37.80413683 15.19375064 35.46875 16.6640625 C33.30627441 17.04501343 33.30627441 17.04501343 30.94726562 17.05224609 C30.05954468 17.06170258 29.17182373 17.07115906 28.25720215 17.0809021 C27.30607544 17.07482941 26.35494873 17.06875671 25.375 17.0625 C24.39132446 17.06537018 23.40764893 17.06824036 22.39416504 17.07119751 C20.31631901 17.0732372 18.23845373 17.06771401 16.16064453 17.05517578 C12.98035747 17.0391211 9.80134129 17.05502803 6.62109375 17.07421875 C4.6015597 17.0722363 2.58202643 17.06839259 0.5625 17.0625 C-0.86419006 17.07160904 -0.86419006 17.07160904 -2.31970215 17.0809021 C-3.65128357 17.06671738 -3.65128357 17.06671738 -5.00976562 17.05224609 C-5.78823853 17.04985931 -6.56671143 17.04747253 -7.36877441 17.04501343 C-10.09831672 16.56416561 -11.49081638 15.50575396 -13.53125 13.6640625 C-14.28125 11.796875 -14.28125 11.796875 -14.53125 9.7890625 C-14.634375 9.13164062 -14.7375 8.47421875 -14.84375 7.796875 C-13.61427889 -0.59426534 -6.76697405 -0.06884246 0 0 Z " fill="#000000" transform="translate(206.53125,182.3359375)"/>
<path d="M0 0 C1.00587158 -0.0038269 2.01174316 -0.00765381 3.0480957 -0.01159668 C5.17302451 -0.01431651 7.29798676 -0.00695041 9.42285156 0.00976562 C12.67588932 0.03117359 15.92671845 0.00996568 19.1796875 -0.015625 C21.24479654 -0.01298174 23.30990421 -0.00785679 25.375 0 C26.34800049 -0.00809692 27.32100098 -0.01619385 28.32348633 -0.02453613 C35.05541533 0.06897118 35.05541533 0.06897118 38.29663086 2.43945312 C39.78882325 4.68363505 40.25522374 5.85669759 40.25 8.53125 C40.27191406 9.19125 40.29382813 9.85125 40.31640625 10.53125 C39.28804422 13.80156901 37.58220194 14.73888762 34.6875 16.53125 C31.37438755 17.12124488 28.10833073 17.09202605 24.75 17.0625 C23.79230713 17.0663269 22.83461426 17.07015381 21.84790039 17.07409668 C19.82730048 17.0768132 17.80666524 17.06947023 15.78613281 17.05273438 C12.69776825 17.03132119 9.61172993 17.05254501 6.5234375 17.078125 C4.55728655 17.07548168 2.59113703 17.07035661 0.625 17.0625 C-0.29595459 17.07059692 -1.21690918 17.07869385 -2.16577148 17.08703613 C-6.40828868 17.02515209 -8.71672222 16.90014797 -12.39428711 14.62304688 C-14.4654092 12.36450366 -14.97504265 11.54429937 -14.875 8.53125 C-14.87628906 7.87125 -14.87757813 7.21125 -14.87890625 6.53125 C-12.78978366 -0.84551391 -6.33803697 -0.05274263 0 0 Z " fill="#000000" transform="translate(360.3125,251.46875)"/>
<path d="M0 0 C0.95769287 -0.0038269 1.91538574 -0.00765381 2.90209961 -0.01159668 C4.92269952 -0.0143132 6.94333476 -0.00697023 8.96386719 0.00976562 C12.05223175 0.03117881 15.13827007 0.00995499 18.2265625 -0.015625 C20.19271345 -0.01298168 22.15886297 -0.00785661 24.125 0 C25.50643188 -0.01214539 25.50643188 -0.01214539 26.91577148 -0.02453613 C31.15828868 0.03734791 33.46672222 0.16235203 37.14428711 2.43945312 C39.2154092 4.69799634 39.72504265 5.51820063 39.625 8.53125 C39.62693359 9.52125 39.62693359 9.52125 39.62890625 10.53125 C38.75280286 13.62480127 37.6844471 14.61367364 35.0625 16.53125 C31.63006468 17.14383529 28.22900373 17.09145089 24.75 17.0625 C23.74412842 17.0663269 22.73825684 17.07015381 21.7019043 17.07409668 C19.57697549 17.07681651 17.45201324 17.06945041 15.32714844 17.05273438 C12.07411068 17.03132641 8.82328155 17.05253432 5.5703125 17.078125 C3.50520346 17.07548174 1.44009579 17.07035679 -0.625 17.0625 C-1.59800049 17.07059692 -2.57100098 17.07869385 -3.57348633 17.08703613 C-10.30541533 16.99352882 -10.30541533 16.99352882 -13.54663086 14.62304688 C-15.03882325 12.37886495 -15.50522374 11.20580241 -15.5 8.53125 C-15.52191406 7.87125 -15.54382813 7.21125 -15.56640625 6.53125 C-13.32737891 -0.58913508 -6.10873272 -0.05370726 0 0 Z " fill="#000000" transform="translate(360.9375,151.46875)"/>
<path d="M0 0 C4.62230261 4.18208331 7.2353574 8.131458 7.72265625 14.359375 C7.49250411 19.10971517 5.29139483 22.49300684 2.5 26.1875 C-1.32224033 29.09572634 -4.58023243 30.18819087 -9.375 30.375 C-14.29477157 29.67217549 -18.08026843 28.16204778 -21.375 24.375 C-24.65393254 19.45660119 -25.04598916 15.13592124 -24.375 9.375 C-22.96825387 5.02764601 -20.84189433 2.73917757 -17.25 -0.0625 C-11.56860108 -2.88487237 -5.63594899 -2.71360507 0 0 Z " fill="#000000" transform="translate(293.375,61.625)"/>
<path d="M0 0 C2.33030405 1.60710624 2.89531369 2.69399385 3.8125 5.375 C4.04244451 8.5942232 3.61716739 10.20671087 2 13 C-0.84255511 15.36879593 -2.34843369 16 -6.0625 16 C-9.84861588 14.71110949 -11.09266488 13.50949663 -13 10 C-12.93822484 6.41704089 -12.76840164 4.04782042 -10.625 1.125 C-6.9417166 -1.42496543 -4.17372926 -1.04343232 0 0 Z " fill="#000000" transform="translate(182,237)"/>
<path d="M0 0 C2.39216609 1.5947774 2.88287964 2.65764819 3.8125 5.375 C4.03578841 8.50103781 3.42252752 10.22981483 2 13 C-0.64508959 15.64508959 -2.29971764 15.78233633 -6 16 C-9.52906067 14.39588152 -10.82772908 13.25840638 -13 10 C-12.92433357 5.83834648 -12.59563245 3.70074406 -9.875 0.5 C-6.08386986 -1.47798094 -4.07202027 -1.13111674 0 0 Z " fill="#000000" transform="translate(182,168)"/>
</svg>
