<?xml version="1.0" encoding="UTF-8"?>
<svg version="1.1" xmlns="http://www.w3.org/2000/svg" width="512" height="512">
<path d="M0 0 C1.08273681 -0.00694553 2.16547362 -0.01389106 3.28102064 -0.02104706 C6.92164469 -0.03939389 10.56162276 -0.02903098 14.20227051 -0.01878357 C16.80717967 -0.02583808 19.41208472 -0.03458111 22.01698303 -0.04489136 C28.36523658 -0.06654942 34.713311 -0.06639998 41.06158936 -0.05826581 C46.22023064 -0.0519699 51.37881961 -0.05309907 56.53746033 -0.05953789 C57.2712342 -0.06043954 58.00500808 -0.0613412 58.76101753 -0.06227018 C60.25159348 -0.06412134 61.74216942 -0.06598391 63.23274535 -0.06785773 C77.21494585 -0.08444231 91.19704548 -0.07571124 105.17923993 -0.05887216 C117.9768608 -0.04417264 130.77424696 -0.05880587 143.5718376 -0.08764232 C156.70727335 -0.11702002 169.84260071 -0.1280135 182.97806787 -0.11846012 C184.46320754 -0.11743755 185.94834723 -0.11644294 187.43348694 -0.11547661 C188.16423336 -0.11500022 188.89497978 -0.11452383 189.64787003 -0.114033 C194.80125336 -0.11186681 199.95453429 -0.12168369 205.1078949 -0.13624763 C212.04202901 -0.15557061 218.97571865 -0.14871866 225.90983391 -0.12404823 C228.45922055 -0.11902165 231.0086402 -0.12257754 233.55800056 -0.13519669 C237.02949278 -0.15102499 240.49952526 -0.1362711 243.97094727 -0.11352539 C244.98766872 -0.12536112 246.00439017 -0.13719685 247.05192137 -0.14939123 C247.98051859 -0.1369692 248.90911582 -0.12454716 249.86585236 -0.1117487 C250.66717228 -0.11147901 251.46849221 -0.11120932 252.29409456 -0.11093146 C255.70608874 0.86312504 256.70668571 2.49629586 258.48547363 5.5146637 C258.86989981 8.29697468 259.02400754 10.67896337 258.9888382 13.45610046 C258.99465196 14.25390733 259.00046572 15.05171421 259.00645566 15.87369704 C259.02110061 18.55787212 259.00714971 21.2411392 258.9934082 23.92530823 C258.99801534 25.86472098 259.00436699 27.80413025 259.01231718 29.74353218 C259.02905928 35.08141663 259.02074194 40.41901608 259.00837231 45.75690174 C258.9993441 51.51022107 259.01328045 57.26349044 259.02429199 63.01679993 C259.04210564 74.29089279 259.03822455 85.56487931 259.02664143 96.83897638 C259.01761857 105.99929333 259.01637813 115.1595804 259.02073669 124.31990051 C259.02134963 125.62219923 259.02196256 126.92449795 259.02259406 128.26626027 C259.02387293 130.91161395 259.02516978 133.55696762 259.02648443 136.20232129 C259.037573 160.31677517 259.0260615 184.43117306 259.00511404 208.54561785 C258.98613117 230.56592987 258.98782966 252.58614936 259.00695801 274.60646057 C259.02836993 299.33835008 259.03679985 324.07018631 259.02450895 348.80208397 C259.02323472 351.43786493 259.02197724 354.0736459 259.02073669 356.70942688 C259.01981104 358.65485687 259.01981104 358.65485687 259.01886669 360.63958848 C259.01540877 369.79199026 259.02125165 378.94435927 259.03065491 388.09675598 C259.04185769 399.24605409 259.03887109 410.39523952 259.01753193 421.54452467 C259.00699837 427.23624088 259.00293897 432.92776901 259.01612854 438.61948395 C259.02801047 443.8255346 259.02155935 449.03122209 259.00021833 454.2372396 C258.99573442 456.12478072 258.99805838 458.01235226 259.00772148 459.89987397 C259.01981788 462.45809963 259.00747996 465.01506784 258.9888382 467.57322693 C258.99820286 468.31270498 259.00756752 469.05218303 259.01721597 469.81406951 C258.96576962 473.32631487 258.53893812 475.42394153 256.74273968 478.47185272 C254.18217873 480.7891436 253.25782202 481.1399345 249.86585236 481.14107609 C248.93725513 481.15349813 248.0086579 481.16592016 247.05192137 481.17871863 C246.03519991 481.1668829 245.01847846 481.15504717 243.97094727 481.14285278 C242.34684205 481.15349436 242.34684205 481.15349436 240.68992662 481.16435093 C237.04915268 481.18200209 233.40943624 481.1637887 229.76867676 481.14576721 C227.16376762 481.15090327 224.55886195 481.15818216 221.95396423 481.16744995 C215.60565646 481.185844 209.25765615 481.1773027 202.90935791 481.15936173 C197.75071214 481.14534481 192.59214992 481.14144095 187.43348694 481.144804 C186.33282612 481.14552016 186.33282612 481.14552016 185.20992973 481.1462508 C183.71935377 481.14727711 182.22877783 481.14833247 180.73820192 481.14941656 C167.55314887 481.15798718 154.36824442 481.14129695 141.18322754 481.11158752 C128.38466144 481.0827492 115.58630941 481.07566607 102.78771973 481.09107971 C88.85607327 481.1078349 74.92452849 481.11188308 60.99287939 481.09436935 C59.50773971 481.09252493 58.02260003 481.09069021 56.53746033 481.08886528 C55.80671391 481.08795319 55.07596748 481.0870411 54.32307723 481.08610137 C49.16971819 481.08049171 44.01640873 481.08380714 38.86305237 481.09041023 C31.928951 481.09894216 24.99516421 481.08600646 18.06111336 481.05856133 C15.51173382 481.0516572 12.96232549 481.05160106 10.4129467 481.05877686 C6.94161562 481.0674239 3.47125006 481.05159473 0 481.02932739 C-1.01672145 481.03756816 -2.03344291 481.04580893 -3.0809741 481.05429941 C-6.99624642 481.00771872 -9.69937362 480.97539159 -13.14162064 479.02981853 C-15.15428265 475.34263414 -15.05254544 471.85023025 -14.99554443 467.75752258 C-14.99896213 466.86389047 -15.00237983 465.97025836 -15.0059011 465.04954648 C-15.0125005 462.04898791 -14.99046977 459.04931982 -14.96862793 456.04884338 C-14.9674999 453.90049765 -14.96813244 451.75215038 -14.97039795 449.60380554 C-14.97154775 443.76525113 -14.94799517 437.92702401 -14.92010212 432.0885458 C-14.89513287 425.98932991 -14.89275 419.89010689 -14.88800049 413.79084778 C-14.87555756 402.23821992 -14.84271803 390.6857431 -14.80260253 379.13318181 C-14.75792587 365.98221182 -14.73590809 352.83123469 -14.71582079 339.68020773 C-14.67398664 312.62494259 -14.6036089 285.56981159 -14.51452637 258.5146637 C-15.44132202 258.76615173 -15.44132202 258.76615173 -16.38684082 259.02272034 C-21.7336597 260.25896131 -27.30058897 257.9422304 -31.88952637 255.2646637 C-37.76126098 251.08669869 -41.81123945 245.20949619 -46.05065918 239.47315979 C-48.81409322 235.7759837 -51.67082257 232.15023917 -54.51452637 228.5146637 C-55.77293333 245.5448519 -54.68362979 261.60428083 -49.88562012 278.02638245 C-38.25748484 318.68741009 -36.03567352 357.64013334 -36.31301355 399.70352507 C-36.32703926 401.89167522 -36.33870496 404.07982728 -36.34983444 406.26799393 C-36.40169294 415.98397346 -36.50997433 425.69815143 -36.65905762 435.4131012 C-36.68452478 437.32744304 -36.68452478 437.32744304 -36.71050644 439.28045845 C-36.76383644 442.87389254 -36.83800639 446.46621693 -36.92004395 450.05909729 C-36.94150939 451.63253135 -36.94150939 451.63253135 -36.96340847 453.23775196 C-37.18477343 461.17402486 -38.29851696 468.06399861 -44.26452637 473.8271637 C-51.18980593 480.18992055 -56.69857446 481.14639342 -65.99890137 480.9287262 C-72.56374198 480.15553386 -78.02794985 477.53788855 -82.45202637 472.5771637 C-88.28745204 463.91244073 -88.66151468 456.53528835 -88.65637207 446.37892151 C-88.6598465 445.26579086 -88.66332092 444.15266022 -88.66690063 443.00579834 C-88.67424244 440.59138231 -88.6795962 438.17695961 -88.6831913 435.7625351 C-88.69038581 431.9260927 -88.70607794 428.08977607 -88.72453308 424.25337219 C-88.77683974 413.34585969 -88.82532387 402.43841282 -88.8404541 391.53077698 C-88.84981348 384.8517332 -88.880117 378.17304992 -88.92177391 371.49411774 C-88.93399139 368.96354828 -88.93922232 366.43293407 -88.93697548 363.90233612 C-88.9273911 349.5753541 -89.5541381 336.33661033 -93.51452637 322.5146637 C-93.84452637 322.5146637 -94.17452637 322.5146637 -94.51452637 322.5146637 C-94.62422131 323.21666082 -94.73391624 323.91865795 -94.84693527 324.64192772 C-97.52192046 341.7552478 -100.21003141 358.86645475 -102.9126091 375.97543907 C-104.21926355 384.24940379 -105.52153298 392.52401353 -106.81335449 400.80030823 C-107.93985399 408.01736274 -109.07470967 415.23304596 -110.21944737 422.44723094 C-110.82479456 426.26401177 -111.42605346 430.08133238 -112.01729584 433.90032578 C-112.57502279 437.50195709 -113.14398801 441.10163969 -113.72126389 444.70018768 C-114.02898163 446.63648583 -114.3250754 448.57462035 -114.62069702 450.51280212 C-117.62312464 469.01944426 -117.62312464 469.01944426 -124.95202637 475.0146637 C-125.6932373 475.6437262 -126.43444824 476.2727887 -127.19812012 476.9209137 C-134.04923345 481.63466453 -141.52712614 481.17815381 -149.51452637 480.5146637 C-156.23066848 478.86435195 -160.67139325 474.06585597 -164.51452637 468.5146637 C-170.47409367 457.99032145 -166.89331376 445.21964592 -165.05187988 433.96095276 C-164.78682672 432.30431632 -164.52246158 430.64756968 -164.25872803 428.99072266 C-163.54458723 424.51677189 -162.8208779 420.04441702 -162.09537244 415.5722971 C-161.33618563 410.88216833 -160.58587098 406.19062053 -159.83457947 401.4992218 C-158.41123384 392.61982039 -156.97992332 383.74172222 -155.54573816 374.86406589 C-153.91663354 364.77730197 -152.2966264 354.68908365 -150.67729676 344.60074663 C-148.15950591 328.91649676 -145.63678268 313.23304691 -143.10656738 297.55079651 C-142.97994658 296.76571402 -142.85332577 295.98063152 -142.72286797 295.17175865 C-142.36869553 292.97607408 -142.01429622 290.78042627 -141.6598053 288.58479309 C-141.46161981 287.35704792 -141.26343431 286.12930275 -141.0592432 284.86435318 C-140.70276492 282.67222057 -140.334615 280.48194624 -139.95344448 278.29397202 C-139.40445554 274.81767545 -139.32378758 271.39969793 -139.32702637 267.8896637 C-139.32638184 267.14345764 -139.3257373 266.39725159 -139.32507324 265.62843323 C-139.43050236 253.56877983 -140.5490167 241.52960976 -141.51452637 229.5146637 C-144.94861223 232.35736898 -146.32378772 234.18532156 -146.96594238 238.66078186 C-147.08135178 241.98893034 -147.12120311 245.29310366 -147.07554626 248.6219101 C-147.04531453 250.87724256 -147.04654585 253.13068857 -147.05566406 255.38618469 C-147.07189594 260.98835429 -147.03472316 266.58993502 -146.99908447 272.19197083 C-146.97099056 276.92788701 -146.96356799 281.66299594 -146.98265076 286.39896393 C-146.98326246 288.60511752 -146.9542327 290.80954682 -146.92382812 293.01545715 C-146.8951295 301.09444434 -147.55279826 307.86754474 -152.51452637 314.5146637 C-158.81369897 320.36590418 -164.89663671 323.36201187 -173.51452637 323.5146637 C-181.26521796 322.91435195 -187.96287199 319.54160029 -193.11999512 313.6943512 C-199.67918232 304.19218557 -198.81427986 292.41028778 -198.78015137 281.3584137 C-198.78150199 279.80482421 -198.78344582 278.25123515 -198.78594971 276.69764709 C-198.78888228 273.45676105 -198.78466389 270.21598596 -198.77526855 266.97511292 C-198.76387513 262.84652113 -198.77044467 258.71818951 -198.78241348 254.58960724 C-198.7896828 251.38604313 -198.78732102 248.18253944 -198.7821579 244.97897339 C-198.78083539 243.45772266 -198.78241936 241.93646622 -198.787117 240.41522217 C-198.81792057 227.64038496 -198.49232601 217.83793643 -190.51452637 207.5146637 C-189.93154785 206.75693665 -189.93154785 206.75693665 -189.33679199 205.98390198 C-186.57904268 202.41001935 -183.77880287 198.87122584 -180.96569824 195.34083557 C-179.10863584 193.00388625 -177.2683643 190.65404774 -175.42858887 188.30348206 C-170.58995254 182.12320795 -165.72224756 175.96598724 -160.78869629 169.86109924 C-158.57414762 167.11774626 -156.41004924 164.37149826 -154.33093262 161.5224762 C-149.05241124 154.364079 -143.24756428 150.45756433 -134.51452637 148.5146637 C-134.90124512 147.96939026 -135.28796387 147.42411682 -135.68640137 146.86231995 C-144.56520484 134.0056367 -146.72719698 122.9555623 -145.51452637 107.5146637 C-143.29187869 96.52843377 -136.23016158 86.43761809 -127.51452637 79.5146637 C-115.23757148 72.05252535 -103.31946291 69.5052824 -89.00671387 72.16700745 C-76.5890042 75.58701496 -66.77043534 83.02229169 -59.97937012 93.99513245 C-53.75394536 105.70183498 -52.53412207 118.58912319 -56.20202637 131.3896637 C-57.99996568 136.6545971 -60.31239799 140.97831516 -63.51452637 145.5146637 C-62.23577637 145.8240387 -60.95702637 146.1334137 -59.63952637 146.4521637 C-49.59278765 149.86396699 -43.32618241 158.68093677 -37.22937012 166.9052887 C-33.69637687 171.65824183 -29.91758776 176.21009453 -26.15588379 180.78248596 C-23.47330975 184.0566256 -20.85447839 187.3614497 -18.32214355 190.75367737 C-17.52849396 191.81566597 -17.52849396 191.81566597 -16.71881104 192.89910889 C-16.12269012 193.69880852 -16.12269012 193.69880852 -15.51452637 194.5146637 C-15.51305981 193.53914173 -15.51159325 192.56361977 -15.51008224 191.55853653 C-15.47351404 167.83998505 -15.41409974 144.12157507 -15.33062363 120.40314102 C-15.29078632 108.93315135 -15.25841768 97.46323075 -15.24353027 85.99317932 C-15.23053806 75.99780023 -15.20363571 66.00257283 -15.1599133 56.00727916 C-15.13724375 50.71307765 -15.12161897 45.41906362 -15.12264252 40.12480927 C-15.12338589 35.14415484 -15.10556546 30.16391571 -15.07335854 25.18336868 C-15.06482295 23.353203 -15.06313427 21.52299093 -15.06872368 19.69281387 C-15.0753303 17.19765851 -15.05752467 14.70383745 -15.0335083 12.20881653 C-15.04126872 11.48118772 -15.04902914 10.75355891 -15.05702472 10.00388074 C-15.00433682 6.92106167 -14.65609749 4.76673467 -13.13924789 2.06594563 C-8.93500504 -0.41887644 -4.79577811 -0.03887091 0 0 Z M2.48547363 16.5146637 C2.48547363 75.2546637 2.48547363 133.9946637 2.48547363 194.5146637 C15.02850566 188.60306618 15.02850566 188.60306618 27.48547363 182.5146637 C34.70771233 180.80383132 42.1639004 181.03532417 48.68469238 184.77638245 C54.71836378 189.02560389 58.6853263 193.8430825 60.22375488 201.25294495 C61.13570406 209.13381921 59.63482441 215.27893949 55.73937988 222.12794495 C47.85959118 230.47205395 34.79210794 235.05469201 24.63879395 240.20387268 C22.46897973 241.30581394 20.30141599 242.41209491 18.13391113 243.51856995 C17.48473724 243.84579544 16.83556335 244.17302094 16.16671753 244.51016235 C14.94269778 245.13524907 13.72537317 245.773719 12.51697874 246.4285019 C11.16190241 247.15300519 9.78883373 247.84480658 8.40027094 248.50285691 C4.24742289 250.61898955 4.24742289 250.61898955 1.75288868 254.36460268 C1.47384673 256.66542647 1.45679194 258.84730319 1.5234375 261.16427612 C1.51658936 262.03216766 1.50974121 262.9000592 1.50268555 263.79425049 C1.4894416 266.71191312 1.53361291 269.62590157 1.57727051 272.54322815 C1.57972114 274.66644518 1.57865332 276.78966873 1.57434845 278.9128828 C1.57254121 284.60249209 1.61892719 290.29075723 1.67523193 295.98004913 C1.72077047 301.31727364 1.7229355 306.65417016 1.7286377 311.99159241 C1.77062727 327.60362777 1.88231656 343.21541267 1.98547363 358.8271637 C2.15047363 393.7040387 2.31547363 428.5809137 2.48547363 464.5146637 C81.35547363 464.5146637 160.22547363 464.5146637 241.48547363 464.5146637 C241.48547363 316.6746637 241.48547363 168.8346637 241.48547363 16.5146637 C162.61547363 16.5146637 83.74547363 16.5146637 2.48547363 16.5146637 Z M-123.51452637 99.5146637 C-128.57504838 107.49415348 -129.36626368 115.16559411 -128.51452637 124.5146637 C-126.11349896 133.09980072 -120.095498 139.11107319 -112.61218262 143.67481995 C-105.68408051 146.82395727 -97.33859709 146.7938902 -90.22155762 144.4131012 C-81.86935842 140.53270057 -76.96353417 136.09836347 -73.13952637 127.7646637 C-70.09831873 119.33106268 -70.69872625 111.7684432 -74.39343262 103.6631012 C-78.12615344 96.50980346 -84.23933057 92.55932256 -91.38952637 89.1396637 C-103.91210361 86.63514825 -115.00736004 89.76973414 -123.51452637 99.5146637 Z M-75.59240723 162.64479065 C-76.77060532 162.69847305 -77.94880341 162.75215546 -79.16270447 162.8074646 C-80.42220413 162.87197311 -81.6817038 162.93648163 -82.97937012 163.00294495 C-84.93937706 163.09783455 -84.93937706 163.09783455 -86.9389801 163.19464111 C-89.69869064 163.32914077 -92.45810509 163.46847465 -95.21740723 163.61109924 C-98.73829452 163.79258514 -102.25967138 163.9607639 -105.781394 164.12513447 C-109.16028501 164.28495588 -112.53851884 164.45709355 -115.91687012 164.62794495 C-117.17434555 164.68638077 -118.43182098 164.74481659 -119.72740173 164.80502319 C-129.59498057 165.00469211 -129.59498057 165.00469211 -138.34265137 168.9677887 C-138.81187012 169.56075745 -139.28108887 170.1537262 -139.76452637 170.7646637 C-140.63077637 171.83587463 -140.63077637 171.83587463 -141.51452637 172.9287262 C-142.17452637 173.78208557 -142.83452637 174.63544495 -143.51452637 175.5146637 C-144.34672431 176.56504341 -145.18013783 177.61446078 -146.01452637 178.6631012 C-148.38425965 181.65221603 -150.73200447 184.65794479 -153.07507324 187.66798401 C-155.37920775 190.62396661 -157.69732167 193.56892396 -160.01452637 196.5146637 C-160.9221578 197.66954926 -161.82970956 198.82449744 -162.73718262 199.97950745 C-163.41611572 200.84358215 -163.41611572 200.84358215 -164.10876465 201.72511292 C-165.57642965 203.59346728 -167.04357064 205.46223223 -168.51062012 207.33106995 C-169.00304199 207.95819885 -169.49546387 208.58532776 -170.00280762 209.23146057 C-170.93919051 210.42402369 -171.8754006 211.61672252 -172.81140137 212.80958557 C-174.68733567 215.19842639 -176.52735526 217.52802627 -178.6328125 219.72106934 C-181.01832447 223.26260288 -181.07885741 226.14543257 -181.03210449 230.27076721 C-181.03911377 231.03560425 -181.04612305 231.80044128 -181.05334473 232.5884552 C-181.07089685 235.10720013 -181.05931377 237.62481435 -181.04577637 240.14356995 C-181.04847182 241.89804296 -181.05235469 243.65251452 -181.05737305 245.40698242 C-181.06326406 249.07965858 -181.05471707 252.75194502 -181.03601074 256.42457581 C-181.01320437 261.1314442 -181.0263571 265.8374011 -181.0503006 270.54423618 C-181.06475507 274.16538359 -181.06015454 277.78631487 -181.04978943 281.4074688 C-181.04712203 283.14301092 -181.05039237 284.8785727 -181.05970764 286.61409187 C-181.06986965 289.03924173 -181.05437958 291.46291485 -181.03210449 293.88795471 C-181.04020142 294.60442673 -181.04829834 295.32089874 -181.05664062 296.05908203 C-180.99888886 299.45370008 -180.74515478 301.2180278 -178.63452148 303.93273926 C-176.11512807 305.8126917 -174.66351278 306.43785915 -171.51452637 306.5146637 C-168.67739073 305.12908583 -166.74450932 303.74464665 -164.51452637 301.5146637 C-164.20240332 298.5210959 -164.20240332 298.5210959 -164.24328613 294.95704651 C-164.23805939 294.28364227 -164.23283264 293.61023804 -164.22744751 292.91642761 C-164.21719575 291.45193568 -164.21142506 289.98740719 -164.20956612 288.52288055 C-164.20590798 286.20215822 -164.18919517 283.8818654 -164.16880798 281.56123352 C-164.11335549 274.96245834 -164.08276737 268.36361843 -164.05822754 261.7646637 C-164.0423152 257.72921994 -164.01205208 253.69407776 -163.97346306 249.65879059 C-163.96183902 248.12310245 -163.95588294 246.58736024 -163.95578194 245.05162811 C-163.95558898 242.89738703 -163.93725606 240.74397132 -163.91516113 238.58985901 C-163.90755516 236.75357941 -163.90755516 236.75357941 -163.89979553 234.88020325 C-163.15701858 228.39163515 -159.46060037 223.88444342 -155.45202637 218.9521637 C-154.47207566 217.72883301 -153.49292862 216.50485817 -152.51452637 215.2802887 C-152.0182373 214.66089417 -151.52194824 214.04149963 -151.01062012 213.40333557 C-149.53066664 211.53503921 -148.08002574 209.64787878 -146.63952637 207.7490387 C-146.187146 207.15292786 -145.73476562 206.55681702 -145.26867676 205.94264221 C-144.40576301 204.8019576 -143.54547362 203.65928188 -142.68811035 202.51441956 C-139.73399822 198.62439962 -139.73399822 198.62439962 -137.51452637 197.5146637 C-130.34465189 197.05943357 -130.34465189 197.05943357 -127.57702637 198.5771637 C-124.57340953 204.05434735 -125.14165592 212.0667304 -124.76062012 218.1787262 C-124.66286034 219.72057083 -124.66286034 219.72057083 -124.56312561 221.29356384 C-124.42634172 223.47035861 -124.29111617 225.6472518 -124.15734863 227.82423401 C-123.95566645 231.08088569 -123.74413982 234.33679704 -123.53210449 237.5927887 C-123.39933167 239.72556322 -123.2671532 241.85837485 -123.13562012 243.9912262 C-123.07313583 244.93269501 -123.01065155 245.87416382 -122.9462738 246.84416199 C-122.75484248 250.06699907 -122.630651 253.28821801 -122.51452637 256.5146637 C-122.47883419 257.19255007 -122.44314201 257.87043644 -122.40636826 258.56886482 C-121.56313311 275.63914135 -124.42111272 292.11406383 -127.22909832 308.87515044 C-127.90148629 312.91146021 -128.55431647 316.95093618 -129.20941162 320.99008179 C-130.45225229 328.63525415 -131.71166778 336.2775932 -132.97754121 343.91898185 C-134.5430216 353.37370525 -136.08760086 362.831822 -137.63171387 372.29005432 C-139.33834334 382.74106386 -141.04878139 393.19140076 -142.77344584 403.63945049 C-143.70574741 409.2906248 -144.63059357 414.942986 -145.54944539 420.59636265 C-146.081283 423.86686013 -146.61790349 427.13645372 -147.16133118 430.40504837 C-147.7603323 434.01081631 -148.34648454 437.61845055 -148.92956543 441.2268219 C-149.10712246 442.27639918 -149.28467949 443.32597647 -149.46761703 444.40735912 C-150.99935855 453.53127405 -150.99935855 453.53127405 -147.88952637 461.9521637 C-144.55274927 464.14741179 -142.42904092 464.07388006 -138.51452637 463.5146637 C-134.88431788 460.6517546 -133.84425598 458.2294357 -132.92726135 453.75942993 C-132.68816103 452.60074465 -132.44906071 451.44205936 -132.20271492 450.24826241 C-130.99822499 443.71359681 -129.92385641 437.16470798 -128.9107666 430.59840393 C-128.66768801 429.04628001 -128.42417549 427.494224 -128.18026733 425.94223022 C-127.66041154 422.62904984 -127.14337722 419.31544653 -126.62856865 416.0014782 C-125.81415859 410.7603012 -124.99209175 405.5203423 -124.1688385 400.2805481 C-122.1273439 387.27961817 -120.09482754 374.27728689 -118.06604004 361.27436829 C-116.48455785 351.13862222 -114.90020369 341.00334538 -113.30651623 330.86951023 C-112.48767322 325.66056964 -111.67503372 320.45071082 -110.86705196 315.24007499 C-110.36421398 312.00628551 -109.85583468 308.77338542 -109.34589767 305.54070854 C-109.11055748 304.04145491 -108.87751965 302.54183779 -108.64694786 301.04184341 C-108.33209766 298.99570521 -108.0090535 296.95102362 -107.6839447 294.90649414 C-107.50532615 293.76191962 -107.32670759 292.6173451 -107.14267635 291.43808651 C-106.57008791 288.77324825 -105.96564562 286.80879873 -104.51452637 284.5146637 C-101.4959387 283.00536986 -98.38551683 283.28956297 -95.07702637 283.2646637 C-94.39575684 283.2440387 -93.7144873 283.2234137 -93.01257324 283.2021637 C-88.00702471 283.16294294 -88.00702471 283.16294294 -85.89855957 284.66871643 C-84.04536173 287.14040965 -83.56387481 289.37014435 -82.86608887 292.37794495 C-82.58249512 293.5774176 -82.29890137 294.77689026 -82.00671387 296.01271057 C-81.72054199 297.2714801 -81.43437012 298.53024963 -81.13952637 299.8271637 C-80.86108887 301.01245667 -80.58265137 302.19774963 -80.29577637 303.41896057 C-79.71022109 305.92339633 -79.1381433 308.43101602 -78.57859802 310.94139099 C-77.87602679 314.04016926 -77.09339902 317.10436788 -76.25624084 320.1693573 C-72.27115091 335.28746917 -71.81155352 349.73208118 -71.87780762 365.29981995 C-71.86974683 367.90199634 -71.85921691 370.50416613 -71.84635925 373.10632324 C-71.8209607 379.19481976 -71.81566132 385.28298347 -71.82213229 391.37151951 C-71.83385552 402.96090271 -71.8026456 414.55014546 -71.76177025 426.13944817 C-71.75293288 429.93354177 -71.75820978 433.72742182 -71.76533508 437.52151489 C-71.76195253 439.83571939 -71.75820383 442.14992339 -71.75402832 444.46412659 C-71.75972336 445.51497437 -71.7654184 446.56582214 -71.77128601 447.64851379 C-71.76734833 448.61646378 -71.76341064 449.58441376 -71.75935364 450.58169556 C-71.76031697 451.41868516 -71.76128031 452.25567476 -71.76227283 453.11802769 C-71.40320336 456.59157405 -70.2333824 459.41746239 -68.32702637 462.3271637 C-65.3031901 464.3082978 -63.0225819 463.99853342 -59.51452637 463.5146637 C-56.6061108 461.48564801 -54.81295539 459.85726083 -54.02465057 456.31077003 C-53.78980085 453.49381172 -53.72440063 450.71378742 -53.7088623 447.88697815 C-53.6721396 446.27287395 -53.6721396 446.27287395 -53.63467503 444.62616158 C-53.56224707 441.04330581 -53.52843489 437.46139582 -53.49890137 433.87794495 C-53.46493076 431.34929938 -53.43059663 428.82065868 -53.3959198 426.29202271 C-53.30868131 418.83420291 -53.28096885 411.37716401 -53.26907492 403.91894054 C-53.26453915 401.83304296 -53.25641114 399.74718974 -53.2471199 397.66130829 C-53.06845843 355.96395111 -55.18481097 316.43928334 -68.02404785 276.44776917 C-70.03316963 270.06664019 -70.63244551 263.93732046 -70.83093262 257.2646637 C-70.86244415 256.23926231 -70.86244415 256.23926231 -70.89459229 255.19314575 C-70.96081936 252.9670985 -71.01998145 250.74096436 -71.07702637 248.5146637 C-71.09687592 247.75209259 -71.11672546 246.98952148 -71.13717651 246.20384216 C-71.25887192 241.4321012 -71.36591752 236.66016518 -71.46447754 231.88789368 C-71.51353373 229.56173266 -71.56746231 227.23572257 -71.62194824 224.90968323 C-71.7033413 221.30897577 -71.76117126 217.70859711 -71.80062866 214.10719299 C-71.8266079 212.1093446 -71.87170532 210.1117743 -71.91711426 208.11427307 C-71.92476807 206.90706604 -71.93242187 205.69985901 -71.94030762 204.45606995 C-71.95489014 203.40105286 -71.96947266 202.34603577 -71.98449707 201.25904846 C-71.39191568 197.79868095 -70.25511933 196.64132398 -67.51452637 194.5146637 C-64.70202637 193.8896637 -64.70202637 193.8896637 -61.51452637 194.5146637 C-54.60640594 199.12007732 -49.94500732 206.09198277 -44.96276855 212.62257385 C-42.63074707 215.66929781 -40.26093433 218.68605657 -37.88952637 221.7021637 C-37.43746826 222.27805237 -36.98541016 222.85394104 -36.51965332 223.44728088 C-29.09447315 234.63946413 -29.09447315 234.63946413 -19.18395996 242.25758362 C-16.03352336 242.56098674 -14.62392369 242.01742952 -11.80358887 240.62794495 C-10.89963379 240.1899054 -9.99567871 239.75186584 -9.06433105 239.30055237 C-7.61655273 238.57122498 -7.61655273 238.57122498 -6.13952637 237.8271637 C-5.13309082 237.33256653 -4.12665527 236.83796936 -3.08972168 236.3283844 C7.86345586 230.91045515 18.70516627 225.26795592 29.48547363 219.5146637 C30.47869629 218.99210999 31.47191895 218.46955627 32.49523926 217.9311676 C33.47686035 217.40829163 34.45848145 216.88541565 35.46984863 216.34669495 C36.80354492 215.64057068 36.80354492 215.64057068 38.16418457 214.92018127 C41.24836669 213.05273949 43.07644749 211.59566136 44.36047363 208.2021637 C44.53634164 204.42100163 43.67276833 202.59054686 41.48547363 199.5146637 C37.52882764 197.8327277 35.41581558 197.20568566 31.28625488 198.5771637 C30.13512207 199.2165387 28.98398926 199.8559137 27.79797363 200.5146637 C26.41069627 201.25564067 25.02260433 201.99509362 23.63391113 202.7334137 C22.84339355 203.16267151 22.05287598 203.59192932 21.23840332 204.03419495 C16.13248395 206.78005297 10.97667903 209.42645109 5.80783081 212.05128479 C3.94745208 213.00215239 2.09705497 213.97070625 0.24645996 214.94044495 C-0.91345459 215.53212463 -2.07336914 216.12380432 -3.26843262 216.7334137 C-4.82026245 217.5368219 -4.82026245 217.5368219 -6.40344238 218.35646057 C-10.01029317 219.69922916 -12.69408062 219.86643799 -16.51452637 219.5146637 C-19.06921387 217.47950745 -19.06921387 217.47950745 -21.51452637 214.5146637 C-21.98535645 213.95794983 -22.45618652 213.40123596 -22.94128418 212.82765198 C-24.53349514 210.93082188 -26.08906475 209.00824405 -27.63952637 207.0771637 C-28.20864746 206.37269104 -28.77776855 205.66821838 -29.36413574 204.94239807 C-33.39802594 199.93713632 -37.37493913 194.88877022 -41.33581543 189.82569885 C-44.98348891 185.1712675 -48.67338277 180.55210135 -52.38952637 175.9521637 C-52.92513184 175.28507385 -53.4607373 174.61798401 -54.01257324 173.93067932 C-60.72685491 165.64945111 -64.49854405 162.11257594 -75.59240723 162.64479065 Z " fill="#B22222" transform="translate(213.5145263671875,15.485336303710938)"/>
<path d="M0 0 C1.06347656 -0.01611328 2.12695312 -0.03222656 3.22265625 -0.04882812 C12.52011951 -0.05460295 18.35140906 1.84679955 25.125 8.3125 C28.22985506 12.70212267 29.23343417 16.43739125 29.30200195 21.75463867 C29.32125481 23.06201241 29.32125481 23.06201241 29.34089661 24.39579773 C29.34828354 25.33123917 29.35567047 26.2666806 29.36328125 27.23046875 C29.371353 28.20228592 29.37942474 29.17410309 29.38774109 30.17536926 C29.4015613 32.23221056 29.41229267 34.2890746 29.42016602 36.34594727 C29.43167319 38.43976608 29.45210486 40.53355585 29.48168945 42.62719727 C29.52455884 45.66182273 29.54056308 48.69557729 29.55078125 51.73046875 C29.56828934 52.65578903 29.58579742 53.58110931 29.60383606 54.5344696 C29.58069952 61.55192974 28.25820528 67.87816121 23.40400696 73.19889832 C16.66820987 79.51562277 9.52939978 79.65306952 0.6875 79.625 C-0.32376953 79.64111328 -1.33503906 79.65722656 -2.37695312 79.67382812 C-9.99040306 79.6787945 -15.65154255 78.62571631 -21.625 73.5625 C-22.45257813 72.88960937 -22.45257813 72.88960937 -23.296875 72.203125 C-28.24376243 66.2766559 -28.33099647 60.00716317 -28.30859375 52.62890625 C-28.3138356 51.61457016 -28.31907745 50.60023407 -28.32447815 49.55516052 C-28.33087874 47.41788647 -28.3295869 45.28057711 -28.32104492 43.14331055 C-28.31253534 39.88851689 -28.34132447 36.63547999 -28.37304688 33.38085938 C-28.37465921 31.29687552 -28.37408075 29.21288859 -28.37109375 27.12890625 C-28.38232773 26.16408829 -28.39356171 25.19927032 -28.40513611 24.20521545 C-28.33248387 17.09734645 -26.82459364 11.73059733 -22.12890625 6.2890625 C-21.57074219 5.84304687 -21.01257813 5.39703125 -20.4375 4.9375 C-19.88191406 4.47601563 -19.32632812 4.01453125 -18.75390625 3.5390625 C-12.77058658 -0.36688839 -6.90529691 -0.02077406 0 0 Z M-10.875 19.3125 C-11.17895558 22.32815989 -11.29486545 25.13464547 -11.2734375 28.15234375 C-11.27630768 29.03024063 -11.27917786 29.90813751 -11.28213501 30.81263733 C-11.28417849 32.67124068 -11.27862885 34.5298654 -11.26611328 36.38842773 C-11.25008248 39.23535281 -11.26594221 42.08085404 -11.28515625 44.92773438 C-11.28317349 46.73177397 -11.27932914 48.53581268 -11.2734375 50.33984375 C-11.27951019 51.19303696 -11.28558289 52.04623016 -11.2918396 52.92527771 C-11.36503326 57.24531302 -11.36503326 57.24531302 -9.59487915 61.03639221 C-6.59261432 63.26399845 -2.96542707 62.74144632 0.625 62.6875 C1.39714844 62.69910156 2.16929687 62.71070313 2.96484375 62.72265625 C7.16802974 62.79026932 7.16802974 62.79026932 10.84487915 61.02966309 C13.10465391 57.99838538 12.55012108 54.23280675 12.5234375 50.59375 C12.52630768 49.73946411 12.52917786 48.88517822 12.53213501 48.00500488 C12.53417581 46.19945615 12.52864483 44.39388531 12.51611328 42.58837891 C12.50005944 39.82273988 12.51596099 37.05856225 12.53515625 34.29296875 C12.53317382 32.53905927 12.52933015 30.7851507 12.5234375 29.03125 C12.52951019 28.20306763 12.53558289 27.37488525 12.5418396 26.52160645 C12.60010802 22.29470044 12.60010802 22.29470044 10.84487915 18.59313965 C7.84726736 16.36108718 4.21206319 16.92514476 0.625 17 C-0.14714844 16.99677734 -0.91929687 16.99355469 -1.71484375 16.99023438 C-5.59931666 17.02726141 -7.57817851 17.11461901 -10.875 19.3125 Z " fill="#B22222" transform="translate(411.875,206.6875)"/>
</svg>
