<?xml version="1.0" encoding="UTF-8"?>
<svg version="1.1" xmlns="http://www.w3.org/2000/svg" width="512" height="512">
<path d="M0 0 C1.27151917 -0.0237545 1.27151917 -0.0237545 2.56872559 -0.04798889 C3.92979431 -0.04054909 3.92979431 -0.04054909 5.31835938 -0.03295898 C6.25764282 -0.03915756 7.19692627 -0.04535614 8.16467285 -0.05174255 C10.14834558 -0.05883887 12.13207789 -0.05566999 14.11572266 -0.04296875 C17.15182957 -0.02909969 20.18485641 -0.06317958 23.22070312 -0.10131836 C25.1490893 -0.10226954 27.07747933 -0.10041081 29.00585938 -0.09545898 C30.3669281 -0.1153463 30.3669281 -0.1153463 31.75549316 -0.13563538 C33.02701233 -0.11683571 33.02701233 -0.11683571 34.32421875 -0.09765625 C35.06716187 -0.09669449 35.81010498 -0.09573273 36.57556152 -0.09474182 C39.93494572 0.9166553 40.84004454 2.55455862 42.66210938 5.53344727 C43.24843793 8.97273248 43.18445707 12.37183538 43.14312744 15.85346985 C43.14654514 16.90313138 43.14996284 17.95279291 43.15348411 19.03426236 C43.16008061 22.55680946 43.13805671 26.07859714 43.11621094 29.60107422 C43.11508285 32.12394696 43.11571556 34.64682102 43.11798096 37.16969299 C43.11889227 42.60397847 43.10753603 48.03801873 43.0850296 53.4722538 C43.05251058 61.32917177 43.04210271 69.18599687 43.03707764 77.04297485 C43.02832482 89.79058409 43.00170963 102.5380909 42.96386719 115.28564453 C42.92714674 127.6681263 42.89883516 140.05058024 42.88183594 152.43310547 C42.88078504 153.19646272 42.87973415 153.95981997 42.87865141 154.74630926 C42.87343123 158.57587815 42.86837641 162.40544724 42.8634038 166.23501647 C42.82194217 198.00123519 42.75119663 229.7673253 42.66210938 261.53344727 C43.21699036 261.52456482 43.77187134 261.51568237 44.34356689 261.50653076 C50.11842549 261.41804133 55.89309153 261.35770673 61.66845703 261.3137207 C63.82381004 261.29360451 65.97910848 261.26630802 68.13427734 261.23168945 C71.23223332 261.18317241 74.32946783 261.16047853 77.42773438 261.14282227 C78.3914093 261.12217712 79.35508423 261.10153198 80.34796143 261.08026123 C87.03477713 261.07801809 87.03477713 261.07801809 90.27043247 263.42703152 C91.84677574 265.81295477 92.16318604 267.04858919 92.16381836 269.88720703 C92.17788979 271.16356773 92.17788979 271.16356773 92.19224548 272.4657135 C92.18101151 273.37622971 92.16977753 274.28674591 92.15820312 275.22485352 C92.15965836 276.16650864 92.16111359 277.10816376 92.16261292 278.07835388 C92.16095482 280.06626484 92.14940357 282.05418875 92.12866211 284.04199219 C92.09967999 287.08852476 92.10806038 290.13332022 92.12109375 293.17993164 C92.1148571 295.11158074 92.10646674 297.04322434 92.09570312 298.97485352 C92.09863876 299.88739395 92.1015744 300.79993439 92.104599 301.74012756 C92.09191483 302.58788254 92.07923065 303.43563751 92.06616211 304.30908203 C92.06075912 305.05424576 92.05535614 305.79940948 92.04978943 306.56715393 C91.55546748 309.07432947 90.62135497 309.94317321 88.66210938 311.53344727 C86.3255371 312.7017334 84.97401956 312.65775254 82.37111473 312.65649509 C81.46493318 312.65848614 80.55875163 312.66047719 79.62511003 312.66252857 C78.6231801 312.65961573 77.62125018 312.65670289 76.58895874 312.65370178 C74.99993537 312.65498342 74.99993537 312.65498342 73.37881052 312.65629095 C69.80574616 312.65794669 66.23272806 312.65242281 62.65966797 312.64697266 C60.10768129 312.64669078 57.55569452 312.64684853 55.00370789 312.64741516 C49.49743428 312.64764336 43.99117575 312.64479489 38.48490524 312.63917732 C30.52370228 312.63106047 22.56250506 312.62844691 14.60129841 312.62718933 C1.68569309 312.6249991 -11.22990592 312.61833981 -24.14550781 312.60888672 C-36.6940101 312.59971185 -49.24251067 312.59263138 -61.79101562 312.58837891 C-62.95067524 312.58798482 -62.95067524 312.58798482 -64.13376231 312.58758277 C-68.01209549 312.58627776 -71.89042868 312.58501405 -75.76876187 312.58377087 C-107.95847604 312.57339917 -140.14818246 312.55578165 -172.33789062 312.53344727 C-172.53736801 313.14311844 -172.7368454 313.75278961 -172.94236755 314.38093567 C-173.20751663 315.18512436 -173.47266571 315.98931305 -173.74584961 316.81787109 C-174.007202 317.61316727 -174.26855438 318.40846344 -174.53782654 319.2278595 C-179.88834745 334.64674377 -190.18389818 347.87436837 -201.33789062 359.53344727 C-202.17707031 360.4499707 -202.17707031 360.4499707 -203.03320312 361.38500977 C-223.54887819 383.08999932 -255.63597375 396.53924084 -285.33789062 397.53344727 C-287.08005859 397.61079102 -287.08005859 397.61079102 -288.85742188 397.68969727 C-323.20014718 398.51145739 -356.08788309 386.10577502 -381.14819336 362.63037109 C-399.72839531 344.7877516 -412.57254219 322.72074102 -418.33789062 297.53344727 C-418.61391113 296.37135742 -418.61391113 296.37135742 -418.89550781 295.18579102 C-420.69443662 286.68176394 -420.73564686 278.18322987 -420.71289062 269.53344727 C-420.7123468 268.75754242 -420.71180298 267.98163757 -420.71124268 267.18222046 C-420.67273481 255.23630979 -420.01621847 243.98558984 -416.33789062 232.53344727 C-416.12890137 231.85942871 -415.91991211 231.18541016 -415.70458984 230.4909668 C-404.88089676 196.49565211 -381.00786531 169.87514689 -349.65039062 153.59594727 C-318.80766586 138.15004811 -282.88373411 136.72858647 -250.33789062 147.53344727 C-244.85414973 149.55650466 -239.58803986 151.97142029 -234.33789062 154.53344727 C-233.34273437 155.0168457 -232.34757813 155.50024414 -231.32226562 155.99829102 C-217.24565268 163.25780141 -197.70697406 176.79528041 -190.33789062 191.53344727 C-190.32576035 190.59170403 -190.32576035 190.59170403 -190.31338501 189.63093567 C-190.22729163 183.09327016 -190.12778562 176.55590618 -190.02050781 170.01855469 C-189.9822376 167.5791531 -189.94738133 165.13969545 -189.91601562 162.70019531 C-189.87032318 159.192586 -189.81233457 155.68536193 -189.75195312 152.17797852 C-189.74040192 151.0882222 -189.72885071 149.99846588 -189.71694946 148.87568665 C-189.69707977 147.85500595 -189.67721008 146.83432526 -189.65673828 145.78271484 C-189.64341461 144.88780838 -189.63009094 143.99290192 -189.61636353 143.07087708 C-189.30504342 140.23414536 -188.59778394 138.08941684 -187.33789062 135.53344727 C-183.15018278 132.93622537 -178.49593819 133.22714589 -173.71289062 133.23266602 C-172.88837402 133.22838089 -172.06385742 133.22409576 -171.21435547 133.21968079 C-169.4762463 133.21395412 -167.73811317 133.21342493 -166 133.21777344 C-163.34658874 133.2209369 -160.6942895 133.19744227 -158.04101562 133.17211914 C-156.34830869 133.16984626 -154.65559877 133.1691426 -152.96289062 133.17016602 C-152.17317871 133.16095627 -151.3834668 133.15174652 -150.56982422 133.14225769 C-145.52515259 133.18447637 -141.97613576 133.89520213 -138.33789062 137.53344727 C-138.24188927 139.14033926 -138.21601173 140.75146496 -138.21763611 142.36122131 C-138.21557411 143.92831596 -138.21557411 143.92831596 -138.21347046 145.52706909 C-138.21706573 146.68296539 -138.22066101 147.83886169 -138.22436523 149.02978516 C-138.22421921 150.23937393 -138.22407318 151.44896271 -138.22392273 152.69520569 C-138.22450169 156.02151077 -138.2295309 159.34775445 -138.23649669 162.67404866 C-138.24273085 166.14674656 -138.24333407 169.6194452 -138.24452209 173.09214783 C-138.24763523 179.67240919 -138.25584837 186.25265402 -138.26587158 192.83290809 C-138.27703328 200.32250838 -138.28254331 207.81210944 -138.28756702 215.30171597 C-138.298031 230.71230428 -138.31637626 246.12286981 -138.33789062 261.53344727 C-125.13789063 261.53344727 -111.93789063 261.53344727 -98.33789062 261.53344727 C-98.35883789 256.40458984 -98.37978516 251.27573242 -98.40136719 245.99145508 C-98.46754416 229.07598792 -98.51199238 212.16051578 -98.54513931 195.24495316 C-98.56577683 184.98558206 -98.59392015 174.72633348 -98.63964844 164.46704102 C-98.67947979 155.5264944 -98.70531478 146.5860365 -98.7142446 137.64540362 C-98.71946563 132.91004886 -98.73176158 128.17494791 -98.76081085 123.43967438 C-98.78792151 118.98439598 -98.79634447 114.52947643 -98.79032135 110.07412338 C-98.79142354 108.4374255 -98.79940342 106.80071586 -98.81471252 105.1640892 C-98.8345733 102.93172383 -98.82984536 100.70071866 -98.81890869 98.46832275 C-98.82259586 97.21837147 -98.82628304 95.96842018 -98.83008194 94.68059158 C-98.2479846 90.9585748 -97.29679425 89.78706037 -94.33789062 87.53344727 C-92.28930664 87.03224182 -92.28930664 87.03224182 -90.09179688 87.03173828 C-89.26413818 87.02235733 -88.43647949 87.01297638 -87.58374023 87.00331116 C-86.69823486 87.01454514 -85.81272949 87.02577911 -84.90039062 87.03735352 C-83.98330322 87.03589828 -83.06621582 87.03444305 -82.12133789 87.03294373 C-80.18470072 87.03460181 -78.24805025 87.04615292 -76.31152344 87.06689453 C-73.34838856 87.0958447 -70.38704354 87.08750261 -67.42382812 87.07446289 C-65.54100694 87.08070065 -63.65819139 87.08909188 -61.77539062 87.09985352 C-60.88988525 87.09691788 -60.00437988 87.09398224 -59.09204102 87.09095764 C-58.26438232 87.10364182 -57.43672363 87.11632599 -56.58398438 87.12939453 C-55.85880615 87.13479752 -55.13362793 87.1402005 -54.38647461 87.14576721 C-51.57902745 87.67705676 -50.3654547 88.50371983 -48.33789062 90.53344727 C-47.84569931 93.57316113 -47.84569931 93.57316113 -47.85687256 97.3860321 C-47.85345486 98.08688283 -47.85003716 98.78773356 -47.84651589 99.50982219 C-47.83991421 101.86405736 -47.86194913 104.21715853 -47.88378906 106.57128906 C-47.88491705 108.25643893 -47.88428463 109.94159078 -47.88201904 111.6267395 C-47.88086907 116.20716569 -47.90442398 120.78717482 -47.93231487 125.36750388 C-47.95728151 130.15211113 -47.95966678 134.93672743 -47.9644165 139.72138977 C-47.97686024 148.78432834 -48.00970072 157.84707442 -48.04981446 166.90992814 C-48.09448873 177.226582 -48.11650827 187.54324494 -48.1365962 197.8599714 C-48.1784322 219.08459473 -48.25180198 240.30895412 -48.33789062 261.53344727 C-35.13789063 261.53344727 -21.93789063 261.53344727 -8.33789062 261.53344727 C-8.34677307 258.32261414 -8.35565552 255.11178101 -8.36480713 251.8036499 C-8.44436594 222.37473983 -8.5041003 192.94585684 -8.54215194 163.51686512 C-8.5471549 159.66155245 -8.55233218 155.80624003 -8.55761719 151.95092773 C-8.55866643 151.18338898 -8.55971567 150.41585023 -8.56079671 149.62505272 C-8.57821249 137.18935214 -8.60975661 124.75372536 -8.64650181 112.31806859 C-8.68387865 99.56247391 -8.70611957 86.80691793 -8.7142446 74.05127072 C-8.71973917 66.17728451 -8.73710686 58.30350686 -8.76955649 50.42958483 C-8.7931558 44.39669663 -8.79571873 38.36398869 -8.79032135 32.33104897 C-8.79142514 29.8526029 -8.79942581 27.37414921 -8.81471252 24.89575005 C-8.83451567 21.52059834 -8.82986455 18.14635036 -8.81890869 14.7711792 C-8.83056006 13.78285685 -8.84221142 12.79453451 -8.85421586 11.776263 C-8.79589411 5.16215738 -8.79589411 5.16215738 -6.43823624 1.9257555 C-4.0672955 0.35407116 -2.82387494 0.02356036 0 0 Z M6.66210938 15.53344727 C6.66210938 96.71344727 6.66210938 177.89344727 6.66210938 261.53344727 C13.59210938 261.53344727 20.52210938 261.53344727 27.66210938 261.53344727 C27.66210938 180.35344727 27.66210938 99.17344727 27.66210938 15.53344727 C20.73210937 15.53344727 13.80210937 15.53344727 6.66210938 15.53344727 Z M-83.33789062 102.53344727 C-83.33789062 155.00344727 -83.33789062 207.47344727 -83.33789062 261.53344727 C-76.73789062 261.53344727 -70.13789063 261.53344727 -63.33789062 261.53344727 C-63.33789062 209.06344727 -63.33789062 156.59344727 -63.33789062 102.53344727 C-69.93789063 102.53344727 -76.53789062 102.53344727 -83.33789062 102.53344727 Z M-174.33789062 148.53344727 C-174.47463981 157.59290515 -174.58419833 166.65165326 -174.64876366 175.71191883 C-174.67978618 179.92113572 -174.72170878 184.12959684 -174.79052734 188.33837891 C-175.48644071 212.55380043 -175.48644071 212.55380043 -169.77636719 235.875 C-167.80039051 240.90046004 -167.08805228 245.81932208 -166.52539062 251.15844727 C-166.3137657 252.94268616 -166.09910333 254.7265684 -165.88085938 256.51000977 C-165.75747192 257.64043701 -165.75747192 257.64043701 -165.6315918 258.79370117 C-165.50658709 260.55792876 -165.50658709 260.55792876 -164.33789062 261.53344727 C-160.70789063 261.53344727 -157.07789063 261.53344727 -153.33789062 261.53344727 C-153.33789062 224.24344727 -153.33789062 186.95344727 -153.33789062 148.53344727 C-160.26789063 148.53344727 -167.19789063 148.53344727 -174.33789062 148.53344727 Z M-376.74804688 192.60375977 C-399.61372833 218.46991526 -407.25951821 249.57828782 -405.33789062 283.53344727 C-404.67164244 289.73040956 -403.24247531 295.60952214 -401.33789062 301.53344727 C-401.12358398 302.21648926 -400.90927734 302.89953125 -400.68847656 303.60327148 C-391.71753176 331.44976317 -372.22739153 355.36312465 -346.16333008 368.87158203 C-342.91825621 370.49278291 -339.63614482 372.02413948 -336.33789062 373.53344727 C-335.479375 373.94336914 -334.62085938 374.35329102 -333.73632812 374.77563477 C-322.98923073 379.53981196 -310.05252548 382.04363675 -298.33789062 382.53344727 C-297.57734375 382.58500977 -296.81679688 382.63657227 -296.03320312 382.68969727 C-265.84796033 383.81811756 -236.97596128 371.68950745 -214.99804688 351.50219727 C-192.98779516 330.67563641 -180.95074264 303.08790374 -179.11914062 272.93188477 C-178.31886456 241.78780807 -190.25289817 212.39221979 -211.55371094 189.86816406 C-231.31083117 169.58806124 -258.01552346 157.32762437 -286.33789062 155.53344727 C-287.18222656 155.47930664 -288.0265625 155.42516602 -288.89648438 155.36938477 C-322.70102034 154.31449144 -353.54585546 168.5497992 -376.74804688 192.60375977 Z M-165.33789062 277.53344727 C-165.99789062 284.13344727 -166.65789062 290.73344727 -167.33789062 297.53344727 C-86.48789062 297.53344727 -5.63789062 297.53344727 77.66210938 297.53344727 C77.66210938 290.60344727 77.66210938 283.67344727 77.66210938 276.53344727 C46.84976255 276.51086249 16.03741838 276.49294934 -14.77493471 276.48238194 C-18.40879437 276.48113116 -22.04265403 276.47983684 -25.67651367 276.47851562 C-26.39998014 276.47825331 -27.1234466 276.477991 -27.86883629 276.47772074 C-39.59844231 276.47336395 -51.32804345 276.46547635 -63.05764657 276.45629447 C-75.08437307 276.4469582 -87.111097 276.44139171 -99.13782698 276.43935877 C-105.89680501 276.4381072 -112.65577286 276.43508543 -119.41474724 276.42771721 C-125.76838019 276.42096124 -132.12199742 276.41882944 -138.47563362 276.42033958 C-140.8150351 276.42006306 -143.15443707 276.41805545 -145.49383545 276.41424179 C-148.67270343 276.40931115 -151.85151105 276.41044664 -155.03038025 276.41319275 C-155.9690769 276.41027991 -156.90777354 276.40736707 -157.87491554 276.40436596 C-161.92758251 276.0016509 -161.92758251 276.0016509 -165.33789062 277.53344727 Z " fill="#000000" transform="translate(420.337890625,98.466552734375)"/>
<path d="M0 0 C1.89744461 -0.01925285 1.89744461 -0.01925285 3.83322144 -0.03889465 C5.21579598 -0.04706166 6.59837496 -0.05450547 7.98095703 -0.0612793 C8.67804905 -0.06535482 9.37514107 -0.06943035 10.09335709 -0.07362938 C13.78196158 -0.09446834 17.4705291 -0.10878029 21.15917969 -0.11816406 C24.96466917 -0.12923362 28.76957474 -0.16364508 32.57485771 -0.20333576 C35.50543288 -0.22950141 38.43586874 -0.23785571 41.36655045 -0.24144554 C42.76916581 -0.24631047 44.17177499 -0.257922 45.57427597 -0.27648354 C47.53895696 -0.30087245 49.50392284 -0.29749041 51.46875 -0.29296875 C53.14395218 -0.30176811 53.14395218 -0.30176811 54.85299683 -0.31074524 C58.56952132 0.29133421 60.22058115 1.53953847 62.86376953 4.17700195 C63.93802875 7.39977961 63.99706739 9.74035665 64.0090332 13.12963867 C64.01860298 14.96702103 64.01860298 14.96702103 64.02836609 16.84152222 C64.02989493 18.17991089 64.0310088 19.5183001 64.03173828 20.85668945 C64.03495227 22.23047928 64.03831645 23.60426876 64.04182434 24.97805786 C64.0478116 27.85801995 64.04966468 30.73795205 64.04907227 33.61791992 C64.04897072 37.3021572 64.06261663 40.98620143 64.07984447 44.67039299 C64.09098231 47.50831988 64.09299092 50.34620038 64.09246254 53.18414688 C64.09364021 54.54207143 64.09805002 55.89999727 64.10579491 57.25790024 C64.11562926 59.16043349 64.11144362 61.06302344 64.10668945 62.96557617 C64.10811447 64.04684784 64.10953949 65.12811951 64.11100769 66.24215698 C63.85189831 69.3179195 63.29422949 71.44767936 61.86376953 74.17700195 C58.37508302 76.50279296 56.96658434 76.59565653 52.86376953 76.17700195 C50.71044922 75.25 50.71044922 75.25 48.86376953 73.17700195 C48.22593703 70.02880534 48.25875252 66.90024452 48.25439453 63.6965332 C48.23785828 62.76854416 48.22132202 61.84055511 48.20428467 60.88444519 C48.15568526 57.9193976 48.13440731 54.95486329 48.11376953 51.98950195 C48.08561983 49.97971034 48.05569382 47.96994276 48.02392578 45.96020508 C47.94992309 41.03251294 47.90042147 36.10510775 47.86376953 31.17700195 C42.08296898 36.08640323 36.67630334 41.26770067 31.36376953 46.67700195 C26.68049729 51.4455797 21.94410601 56.02676162 16.87744141 60.38598633 C13.20887399 63.64891195 9.80264354 67.17548907 6.36376953 70.67700195 C1.68049729 75.4455797 -3.05589399 80.02676162 -8.12255859 84.38598633 C-11.79112601 87.64891195 -15.19735646 91.17548907 -18.63623047 94.67700195 C-23.31950271 99.4455797 -28.05589399 104.02676162 -33.12255859 108.38598633 C-36.79112601 111.64891195 -40.19735646 115.17548907 -43.63623047 118.67700195 C-48.31950271 123.4455797 -53.05589399 128.02676162 -58.12255859 132.38598633 C-61.79112601 135.64891195 -65.19735646 139.17548907 -68.63623047 142.67700195 C-73.31950271 147.4455797 -78.05589399 152.02676162 -83.12255859 156.38598633 C-86.79112601 159.64891195 -90.19735646 163.17548907 -93.63623047 166.67700195 C-98.32244842 171.44857906 -103.06148795 176.0337411 -108.13183594 180.39526367 C-111.73221935 183.59570193 -115.07577587 187.05284661 -118.44873047 190.48950195 C-119.83829485 191.90458634 -121.23012747 193.31744794 -122.62451172 194.7277832 C-123.2281958 195.34306885 -123.83187988 195.95835449 -124.45385742 196.59228516 C-127.12156471 199.10514076 -128.77668735 200.13507643 -132.45263672 200.5637207 C-136.93765032 200.09286562 -138.61947753 198.84459407 -142.07373047 195.98950195 C-142.6216626 195.54533936 -143.16959473 195.10117676 -143.73413086 194.64355469 C-144.9210791 193.67836044 -146.10180029 192.70546847 -147.27685547 191.72583008 C-149.18577911 190.13572877 -151.11125423 188.56804621 -153.04248047 187.00512695 C-155.75473276 184.80962001 -158.46098556 182.60704703 -161.16357422 180.3996582 C-164.78778129 177.44858077 -168.4520758 174.55269666 -172.13623047 171.67700195 C-178.62746326 166.60767599 -185.01832051 161.41999896 -191.40185547 156.21606445 C-195.95516747 152.5051848 -200.53975791 148.83429142 -205.13623047 145.17700195 C-209.29573002 146.80900504 -212.05910792 149.8469133 -215.12646484 152.97192383 C-215.71559158 153.5639711 -216.30471832 154.15601837 -216.91169739 154.76600647 C-218.18797557 156.04988531 -219.46193823 157.3360692 -220.73384094 158.62428284 C-222.74684179 160.66282723 -224.7660394 162.69504379 -226.7869873 164.72570801 C-231.07568065 169.03725247 -235.35650434 173.35655872 -239.63623047 177.67700195 C-244.59566186 182.68361712 -249.55825725 187.68700605 -254.52937317 192.68202209 C-256.51878593 194.68440296 -258.50208004 196.69271252 -260.48522949 198.70129395 C-261.70518814 199.92851786 -262.92542858 201.15546173 -264.14599609 202.38208008 C-264.69572586 202.94214249 -265.24545563 203.5022049 -265.81184387 204.07923889 C-270.73694384 209.00569251 -270.73694384 209.00569251 -274.13623047 210.17700195 C-277.17159412 209.99116336 -279.35885294 209.61751589 -282.01123047 208.11450195 C-283.87150651 204.91069321 -283.84554069 201.7147522 -283.13623047 198.17700195 C-281.38023394 195.29140556 -279.07913224 193.09588553 -276.65039062 190.76708984 C-275.9610997 190.07502441 -275.27180878 189.38295898 -274.56163025 188.66992188 C-272.28478902 186.39355458 -269.98084066 184.14691577 -267.67529297 181.8996582 C-266.08657745 180.32333074 -264.49955301 178.74529723 -262.91415405 177.16563416 C-258.74034384 173.01667021 -254.54263236 168.89271184 -250.33990479 164.77307129 C-246.9058372 161.39907083 -243.48862016 158.00828748 -240.07224464 154.61638737 C-233.02574545 147.62049747 -225.96826937 140.6356074 -218.88085938 133.68115234 C-218.22414749 133.03341354 -217.56743561 132.38567474 -216.89082336 131.7183075 C-216.2906691 131.13108917 -215.69051483 130.54387085 -215.07217407 129.93885803 C-214.55043924 129.42659196 -214.02870441 128.91432589 -213.49115944 128.3865366 C-211.43116834 126.54759843 -210.15060689 126.1786921 -207.37841797 125.8527832 C-203.18754923 126.27187008 -201.50990696 127.71071298 -198.26123047 130.36450195 C-197.70878662 130.80866455 -197.15634277 131.25282715 -196.5871582 131.71044922 C-194.75870777 133.18574259 -192.94775726 134.68099493 -191.13623047 136.17700195 C-189.83395261 137.23565752 -188.5305441 138.29292357 -187.22607422 139.34887695 C-184.51553559 141.54486929 -181.81080943 143.74776472 -179.10888672 145.9543457 C-175.48467965 148.90542314 -171.82038514 151.80130724 -168.13623047 154.67700195 C-163.00622971 158.68327424 -157.93396205 162.75508522 -152.88623047 166.86450195 C-152.21172852 167.41122559 -151.53722656 167.95794922 -150.84228516 168.52124023 C-147.88288026 170.9229391 -144.93720935 173.33429758 -142.04248047 175.8137207 C-141.16591797 176.55235352 -140.28935547 177.29098633 -139.38623047 178.05200195 C-138.64888672 178.68879883 -137.91154297 179.3255957 -137.15185547 179.98168945 C-135.2351035 181.36482247 -135.2351035 181.36482247 -133.10498047 181.09887695 C-130.64687354 179.94785863 -129.2389328 178.53485279 -127.38623047 176.55200195 C-124.84198331 173.84740308 -122.2148739 171.35329044 -119.40185547 168.93481445 C-114.9272926 165.05776056 -110.782888 160.89919059 -106.63623047 156.67700195 C-101.95295823 151.90842421 -97.21656695 147.32724229 -92.14990234 142.96801758 C-88.48133493 139.70509195 -85.07510448 136.17851483 -81.63623047 132.67700195 C-76.95295823 127.90842421 -72.21656695 123.32724229 -67.14990234 118.96801758 C-63.48133493 115.70509195 -60.07510448 112.17851483 -56.63623047 108.67700195 C-51.95295823 103.90842421 -47.21656695 99.32724229 -42.14990234 94.96801758 C-38.48133493 91.70509195 -35.07510448 88.17851483 -31.63623047 84.67700195 C-26.95295823 79.90842421 -22.21656695 75.32724229 -17.14990234 70.96801758 C-13.48133493 67.70509195 -10.07510448 64.17851483 -6.63623047 60.67700195 C-1.95295823 55.90842421 2.78343305 51.32724229 7.85009766 46.96801758 C11.51866507 43.70509195 14.92489552 40.17851483 18.36376953 36.67700195 C23.0675125 31.8875806 27.80025522 27.23930093 32.92431641 22.89770508 C35.33950059 20.75492838 37.59696151 18.47510327 39.86376953 16.17700195 C39.27130432 16.17335632 38.67883911 16.16971069 38.06842041 16.16595459 C31.9037753 16.12415488 25.73987647 16.05482737 19.57568359 15.96948242 C17.27497826 15.94125092 14.97417554 15.92004729 12.67333984 15.90600586 C9.36651674 15.88460709 6.06086727 15.83797087 2.75439453 15.78637695 C1.72509827 15.78514832 0.695802 15.78391968 -0.36468506 15.78265381 C-7.46401746 15.63693717 -7.46401746 15.63693717 -10.78955078 13.36157227 C-12.75999385 10.16513923 -12.60350414 7.84843791 -12.13623047 4.17700195 C-9.10945995 -0.14695593 -4.89944785 0.04324851 0 0 Z " fill="#000000" transform="translate(387.13623046875,15.822998046875)"/>
<path d="M0 0 C2.4375 1.5 2.4375 1.5 4 4 C4.32111824 6.75845833 4.18630402 9.20543968 4 12 C4.81791016 12.20302734 4.81791016 12.20302734 5.65234375 12.41015625 C13.75291825 14.72262795 20.27792357 18.92965867 24.9375 26.0625 C28.85635028 33.15697034 30.12390952 39.90089945 29 48 C26.875 50.8125 26.875 50.8125 24 52 C20.88095694 51.93761914 18.92834709 51.69569008 16.41015625 49.80859375 C14.50473557 47.36479936 14.16992502 45.15080661 13.5625 42.125 C12.1260857 35.89803119 10.38524333 32.59016222 5 29 C4.67 40.22 4.34 51.44 4 63 C6.97 63.495 6.97 63.495 10 64 C18.62578474 68.28413975 25.00641102 74.92885634 28.3046875 83.9921875 C30.25102866 92.41175319 30.48862869 102.32411437 26.25 110.05078125 C25.8375 110.69402344 25.425 111.33726562 25 112 C24.5875 112.69480469 24.175 113.38960938 23.75 114.10546875 C19.62637786 120.34947614 13.53955697 124.93298313 6.19140625 126.66015625 C5.10666016 126.82837891 5.10666016 126.82837891 4 127 C4.0825 128.2375 4.165 129.475 4.25 130.75 C4.23373935 133.80700305 4.10738813 134.828179 2.4375 137.5 C-0.97532932 139.60020266 -3.06688873 139.63210717 -7 139 C-9.375 136.9375 -9.375 136.9375 -11 134 C-11.061875 132.824375 -11.12375 131.64875 -11.1875 130.4375 C-11.455625 129.303125 -11.72375 128.16875 -12 127 C-14.0924883 125.71408759 -16.22151374 124.94033825 -18.51953125 124.078125 C-26.81768006 120.47137056 -31.62132982 113.09715039 -35.3125 105.1875 C-36.32001378 100.51629975 -36.69262645 95.74411882 -36 91 C-34.13178998 88.52176222 -33.15349384 88.04671552 -30.125 87.125 C-26.29701377 86.97188055 -24.9984189 87.66464609 -22 90 C-20.99609375 92.70703125 -20.99609375 92.70703125 -20.4375 95.8125 C-19.06020989 102.24763514 -17.64883106 106.23411263 -12 110 C-11.67 98.78 -11.34 87.56 -11 76 C-13.97 75.01 -16.94 74.02 -20 73 C-27.75375792 68.7033316 -32.97597017 62.1225947 -35.4921875 53.6484375 C-37.27034283 44.37467353 -36.86380782 35.22555734 -32 27 C-27.66804401 20.92024989 -22.16273305 14.9425056 -14.6875 13.25 C-13.3571875 12.63125 -13.3571875 12.63125 -12 12 C-11.19606626 9.72513255 -10.81517945 7.58418567 -10.51953125 5.19140625 C-9.16655503 -0.51550848 -5.25304376 -0.64511064 0 0 Z M-17 32 C-20.2366433 36.59561853 -21.72578731 41.12928348 -21.453125 46.7578125 C-20.64503745 50.7564526 -18.74254911 54.00689702 -16 57 C-14.35 57.99 -12.7 58.98 -11 60 C-11 49.44 -11 38.88 -11 28 C-13.45813238 28 -15.36324388 30.47743617 -17 32 Z M4 79 C4 89.56 4 100.12 4 111 C10.61783498 106.64181797 10.61783498 106.64181797 14 100 C14.7605397 94.66070091 14.70757896 90.44136456 12.3125 85.5625 C10.03337115 83.03697884 7.78257397 80.95532225 5 79 C4.67 79 4.34 79 4 79 Z " fill="#000000" transform="translate(131,298)"/>
<path d="M0 0 C25.66356645 1.0986067 47.85641049 12.63474439 65.76000977 30.51220703 C66.48833008 31.22892578 67.21665039 31.94564453 67.96704102 32.68408203 C79.11380296 44.38048707 88.2248108 61.30289846 89.76000977 77.51220703 C88.96183906 80.19696303 88.23659977 81.15476453 86.01000977 82.82470703 C82.91306444 83.77099588 80.8597182 83.36957319 77.76000977 82.51220703 C74.23736506 79.97262597 73.35274825 76.07541424 72.01000977 72.13720703 C67.16142169 58.74572446 60.840571 48.4752107 50.76000977 38.51220703 C50.10258789 37.84447266 49.44516602 37.17673828 48.76782227 36.48876953 C34.47726637 22.93420793 14.75844989 16.75877259 -4.51342773 15.95361328 C-7.72868537 15.43309163 -9.64913324 14.47248507 -12.23999023 12.51220703 C-13.30249023 9.13720703 -13.30249023 9.13720703 -13.23999023 5.51220703 C-9.80103394 -0.42624131 -6.42398803 -0.15275788 0 0 Z " fill="#000000" transform="translate(133.239990234375,269.48779296875)"/>
<path d="M0 0 C4.04758883 3.08609263 5.32255502 6.95677072 6.875 11.625 C13.93219457 31.48091141 28.07915474 47.50412611 47 57 C57.81594769 61.93222267 68.50409776 64.69625012 80.375 65.375 C84.00272497 65.65767987 85.94672018 65.97336009 89.25 67.625 C91 70 91 70 91.5625 73.5 C90.90455556 77.59387649 90.25720677 78.53580599 87 81 C66.76719443 84.19200784 43.52183838 75.39174813 27 64 C9.01995548 50.69789577 -5.42325114 31.96381088 -11 10 C-11.49639793 6.24155854 -11.51891805 4.78875544 -9.4375 1.625 C-6.06489221 -0.62340519 -3.97487617 -0.56783945 0 0 Z " fill="#000000" transform="translate(44,384)"/>
<path d="M0 0 C2.375 1.5625 2.375 1.5625 4 4 C4.56783945 7.97487617 4.62340519 10.06489221 2.375 13.4375 C-0.69817115 15.45932313 -2.38247881 15.52755517 -6 15 C-8.3125 13.875 -8.3125 13.875 -10 12 C-11.19308162 8.34121638 -11.32667744 6.70002308 -9.6875 3.1875 C-6.87508262 -0.45822623 -4.46213662 -0.44621366 0 0 Z " fill="#000000" transform="translate(221,360)"/>
<path d="M0 0 C2.9375 2.0625 2.9375 2.0625 5 5 C5.06625411 8.8427383 4.81899419 10.99200716 2.375 14 C-1.08383253 15.45635054 -3.41298371 14.91305869 -7 14 C-8.9375 12.875 -8.9375 12.875 -10 11 C-10.50030235 7.06905293 -10.5996142 4.8994213 -8.375 1.5625 C-5.24316508 -0.49791771 -3.68455227 -0.6767545 0 0 Z " fill="#000000" transform="translate(40,360)"/>
</svg>
