<?xml version="1.0" encoding="UTF-8"?>
<svg version="1.1" xmlns="http://www.w3.org/2000/svg" width="512" height="512">
<path d="M0 0 C8.97400684 5.53449202 13.78529575 12.23641782 17.18359375 22.12109375 C17.53292969 22.86746094 17.88226563 23.61382812 18.2421875 24.3828125 C22.13155714 25.67926905 22.95973088 24.7403585 26.5546875 22.9453125 C35.31619211 19.15712572 43.95088052 19.04740893 53.0546875 21.8828125 C61.91185989 25.61352134 67.44533385 31.50921606 71.3671875 40.18359375 C74.4794574 48.00595068 74.57793072 57.86872212 71.6796875 65.8203125 C66.99168844 75.32728958 58.25044653 82.50085706 50.8046875 89.8828125 C49.7764577 90.90601389 48.74846124 91.92944983 47.72070312 92.953125 C45.23054412 95.43239249 42.73725917 97.90848788 40.2421875 100.3828125 C40.83169189 100.4960083 41.42119629 100.6092041 42.02856445 100.72583008 C50.88489551 102.53836008 58.34483373 106.18845424 63.99609375 113.47265625 C69.28660289 121.58255897 71.01646004 129.39769906 69.5546875 138.9453125 C67.75354846 147.44147496 64.22349185 154.01257839 57.2421875 159.3828125 C54.51953125 160.578125 54.51953125 160.578125 52.2421875 161.3828125 C56.90207475 167.22780688 61.65113927 172.91259609 66.7421875 178.3828125 C70.98167537 182.94497373 74.98592604 187.64012586 78.89453125 192.4921875 C81.65391877 195.88976948 84.47290175 199.23304571 87.3046875 202.5703125 C87.79453125 203.14773193 88.284375 203.72515137 88.7890625 204.32006836 C89.93937276 205.67493773 91.09066839 207.0289704 92.2421875 208.3828125 C92.46132813 207.86332031 92.68046875 207.34382812 92.90625 206.80859375 C95.7063062 200.65074658 98.54958642 196.84416018 105.05712891 194.26879883 C111.01269985 192.68772982 117.27820847 193.07779058 123.390625 193.08203125 C124.77153653 193.078137 126.15244688 193.07380084 127.53335571 193.06904602 C130.41973767 193.061611 133.30599726 193.061855 136.19238281 193.06713867 C139.86950135 193.07292653 143.54611507 193.05600611 147.22315025 193.032794 C150.07326121 193.01797587 152.92325288 193.01719591 155.77339554 193.02030373 C157.78119378 193.01954889 159.78897367 193.00574199 161.79672241 192.99162292 C169.45593453 193.03015792 177.12147221 193.11204217 183.36328125 198.06640625 C183.79769531 198.64519531 184.23210937 199.22398437 184.6796875 199.8203125 C185.35837891 200.68462891 185.35837891 200.68462891 186.05078125 201.56640625 C188.9528052 205.99080342 189.49057311 208.98382524 189.48269653 214.35565186 C189.48525981 215.40820958 189.48525981 215.40820958 189.48787487 216.48203111 C189.49116861 218.83285125 189.48016812 221.18338584 189.46923828 223.53417969 C189.46867414 225.21947727 189.46899078 226.90477534 189.47012329 228.59007263 C189.4706977 233.16617908 189.45892913 237.74218093 189.44497538 242.31826305 C189.4324827 247.10021117 189.43129867 251.88216162 189.42892456 256.66412354 C189.42270549 265.71987632 189.40628889 274.77558088 189.38622558 283.83131242 C189.36387987 294.14075487 189.35287649 304.45019961 189.34283471 314.75966024 C189.32192304 335.96740459 189.28673876 357.17510551 189.2421875 378.3828125 C190.18537842 378.36710205 191.12856934 378.3513916 192.1003418 378.33520508 C195.61341898 378.28395243 199.12609648 378.24640259 202.6394043 378.21801758 C204.15737188 378.20296897 205.67529626 378.18252512 207.19311523 378.15649414 C209.38015427 378.11993597 211.56661646 378.10304727 213.75390625 378.08984375 C215.06834717 378.0741333 216.38278809 378.05842285 217.73706055 378.04223633 C222.38228904 378.49359063 224.95109949 379.95816366 228.0546875 383.3828125 C229.92955432 388.11931815 230.17308441 392.37403134 229.2421875 397.3828125 C227.43930069 400.87207302 224.89994172 403.51405414 222.2421875 406.3828125 C220.82309837 408.02610523 219.42022462 409.68255936 218.01635742 411.33886719 C216.47166734 413.15696469 214.91526933 414.96438779 213.35546875 416.76953125 C210.44291341 420.14419639 207.55600034 423.53973742 204.6796875 426.9453125 C204.22940186 427.47809814 203.77911621 428.01088379 203.31518555 428.55981445 C201.95712157 430.16714487 200.59956506 431.77490238 199.2421875 433.3828125 C197.43027925 435.5291465 195.61786413 437.67504987 193.8046875 439.8203125 C193.35488525 440.35261475 192.90508301 440.88491699 192.44165039 441.43334961 C189.02080424 445.47605737 185.57120701 449.49344509 182.1171875 453.5078125 C178.62403644 457.56909995 175.17770354 461.65799837 171.8046875 465.8203125 C167.57101446 471.03874099 163.18066541 476.11148447 158.75805664 481.16967773 C158.23074951 481.77368408 157.70344238 482.37769043 157.16015625 483 C156.65532715 483.57717773 156.15049805 484.15435547 155.63037109 484.74902344 C154.40440256 486.19189741 153.24884048 487.69395793 152.10546875 489.203125 C149.53081631 492.21498257 147.59283264 493.14582042 143.7265625 493.82421875 C138.80341649 494.04224379 135.19132029 493.99259912 131.3046875 490.7578125 C129.90609748 489.3420267 128.55840838 487.87548328 127.2421875 486.3828125 C126.56736328 485.62629395 126.56736328 485.62629395 125.87890625 484.85449219 C119.77570713 477.98235439 113.95089798 470.87096613 108.15625 463.73828125 C105.87599246 460.9321684 103.56427337 458.15433435 101.2421875 455.3828125 C97.91968073 457.28926934 94.84934203 459.3874519 91.79272461 461.69384766 C71.09341014 477.15424194 46.5332035 486.66761585 21.2421875 491.3828125 C20.26088867 491.56827637 19.27958984 491.75374023 18.26855469 491.94482422 C7.33327425 493.76520577 -3.57270533 493.78041327 -14.6328125 493.7578125 C-16.1304866 493.75699677 -16.1304866 493.75699677 -17.65841675 493.75616455 C-32.71037533 493.7184445 -47.10586783 493.13935234 -61.7578125 489.3828125 C-63.0267334 489.06932861 -63.0267334 489.06932861 -64.32128906 488.74951172 C-95.40741484 480.86278083 -122.37161263 465.35812289 -144.7578125 442.3828125 C-145.30308594 441.89425781 -145.84835938 441.40570313 -146.41015625 440.90234375 C-161.50945769 426.91464733 -172.1405047 406.9860357 -178.6953125 387.6953125 C-178.96577393 386.90157227 -179.23623535 386.10783203 -179.51489258 385.29003906 C-183.78068609 371.89368973 -185.31883572 358.68243071 -185.1953125 344.6953125 C-185.19227112 343.95812988 -185.18922974 343.22094727 -185.18609619 342.46142578 C-185.11101781 330.09384696 -184.09753321 318.34438691 -180.7578125 306.3828125 C-180.54882324 305.62194336 -180.33983398 304.86107422 -180.12451172 304.07714844 C-166.50757345 256.11696587 -129.74632229 213.94877759 -96.828125 177.66796875 C-94.82963693 175.46209041 -92.84956571 173.24201123 -90.8828125 171.0078125 C-90.08230469 170.09902344 -90.08230469 170.09902344 -89.265625 169.171875 C-85.97526802 165.70991206 -85.97526802 165.70991206 -84.7578125 161.3828125 C-86.35478419 160.11491464 -86.35478419 160.11491464 -88.3828125 158.8203125 C-94.95664022 154.0414661 -99.41191677 147.45818689 -100.7578125 139.3828125 C-101.65283847 128.74039429 -100.36111475 120.41911882 -93.4453125 112.0703125 C-88.40461076 106.78450264 -84.17268306 103.59704828 -77.0234375 101.74609375 C-76.03633789 101.48739502 -75.04923828 101.22869629 -74.03222656 100.9621582 C-73.28166992 100.77097412 -72.53111328 100.57979004 -71.7578125 100.3828125 C-72.51400879 99.65803711 -73.27020508 98.93326172 -74.04931641 98.18652344 C-76.89420708 95.45156394 -79.7181002 92.69569909 -82.53662109 89.93359375 C-83.75118477 88.74890429 -84.9711157 87.56968836 -86.19677734 86.39648438 C-95.04014912 77.92188771 -103.78405461 69.0566971 -104.9609375 56.15625 C-105.16514233 45.70776979 -102.44453855 37.72047273 -95.5078125 29.8203125 C-87.19759896 22.45444141 -79.39844572 19.92205621 -68.3046875 20.05078125 C-64.03554525 20.45042562 -60.74743492 21.62466375 -56.890625 23.42578125 C-54.2308136 24.61928637 -51.64673083 25.07871583 -48.7578125 25.3828125 C-48.61085937 24.76535156 -48.46390625 24.14789063 -48.3125 23.51171875 C-45.57951903 13.19235958 -41.17486326 6.79533249 -32.3203125 0.79296875 C-22.97777532 -4.34827503 -9.64857473 -4.64561005 0 0 Z M-28.8828125 21.0078125 C-30.45926605 23.8454289 -31.53417735 26.41506063 -32.6328125 29.4453125 C-34.76717566 34.93367491 -37.4410701 37.78702135 -42.828125 40.37890625 C-49.09611207 42.83586982 -54.79048616 43.0646876 -61.04296875 40.4140625 C-61.79449219 40.053125 -62.54601562 39.6921875 -63.3203125 39.3203125 C-67.8186483 37.17302328 -70.7863605 36.81231801 -75.7578125 37.3828125 C-81.40195354 39.4450948 -84.09650273 42.5348529 -87.0703125 47.6328125 C-88.11651882 51.81763776 -87.99118781 55.24615951 -86.7578125 59.3828125 C-85.34223125 61.36361662 -85.34223125 61.36361662 -83.546875 63.17578125 C-81.1471715 65.79533289 -78.95342821 68.39743325 -76.93359375 71.3203125 C-66.42207063 86.41654103 -54.50370714 99.56890616 -35.81317139 103.26290894 C-15.6655349 106.22860139 8.56813638 107.02699003 25.61968994 94.53842163 C36.66880873 85.44802008 53.92745649 69.89487199 56.67578125 55.0390625 C56.68552814 49.65877722 55.87352962 46.60302091 52.2421875 42.3828125 C47.57586397 38.27200367 44.84762634 37.04683769 38.73828125 37.0859375 C35.26810684 37.4986656 32.60698036 38.89992708 29.4921875 40.4140625 C23.25655939 43.09884683 17.50984784 42.81596599 11.24609375 40.38671875 C5.25247212 37.3840662 2.862667 32.1959286 0.2421875 26.3828125 C-1.82552576 21.7978831 -3.9508913 18.71386855 -7.7578125 15.3828125 C-16.24327574 12.55432475 -23.16673174 13.94677157 -28.8828125 21.0078125 Z M-80.6953125 123.3828125 C-83.78840177 127.88185144 -84.49249837 132.00532011 -83.7578125 137.3828125 C-81.01049913 142.67393454 -77.47655517 146.47656494 -71.7578125 148.3828125 C-70.22788891 148.48208581 -68.6940706 148.52629629 -67.16096497 148.53671265 C-65.74592178 148.54961334 -65.74592178 148.54961334 -64.30229187 148.56277466 C-63.2690126 148.56703461 -62.23573334 148.57129456 -61.17114258 148.57568359 C-60.08140137 148.58386108 -58.99166016 148.59203857 -57.86889648 148.60046387 C-54.25505117 148.62531809 -50.64124516 148.64183461 -47.02734375 148.65625 C-45.79340063 148.66157368 -44.55945751 148.66689735 -43.28812218 148.67238235 C-37.42977675 148.69635791 -31.57144751 148.71559853 -25.71306688 148.7284044 C-18.9630031 148.74345398 -12.21342407 148.77852092 -5.46354562 148.83040559 C0.39211427 148.87387292 6.24761223 148.88975972 12.10341835 148.89613724 C14.58928475 148.90285128 17.07514347 148.91807714 19.56090355 148.94202805 C23.04385513 148.97367069 26.52548714 148.97371677 30.00854492 148.96630859 C31.54328209 148.9909166 31.54328209 148.9909166 33.10902405 149.01602173 C39.74650567 148.95835488 44.09525123 147.65491673 49.2421875 143.3828125 C52.72247771 139.57624509 52.69960177 135.70071393 52.5234375 130.74609375 C51.96875242 126.08519832 49.66826474 123.63874356 46.3046875 120.6328125 C42.32258465 117.70718591 39.5299523 117.26065046 34.67694092 117.24237061 C33.76586075 117.23666046 32.85478058 117.23095032 31.91609192 117.22506714 C30.42767036 117.22339035 30.42767036 117.22339035 28.90917969 117.22167969 C27.85830673 117.21671478 26.80743378 117.21174988 25.72471619 117.20663452 C22.2461583 117.19202293 18.76764604 117.18521229 15.2890625 117.1796875 C12.87013752 117.17393492 10.45121255 117.1681772 8.0322876 117.16241455 C2.9582091 117.15190721 -2.11585356 117.14606289 -7.18994141 117.14257812 C-13.68422099 117.13709609 -20.17829064 117.11307291 -26.67250443 117.08460617 C-31.67057909 117.06596004 -36.6686034 117.06077311 -41.6667099 117.05924225 C-44.0604441 117.05621933 -46.45417749 117.04820301 -48.8478775 117.03505707 C-52.20115515 117.01795686 -55.55392272 117.01988688 -58.90722656 117.02636719 C-59.89141068 117.0171524 -60.87559479 117.00793762 -61.88960266 116.9984436 C-69.01247289 117.04145108 -75.74273229 117.6942722 -80.6953125 123.3828125 Z M-75.49881363 178.67934418 C-77.00590667 180.71849236 -78.66183565 182.58493139 -80.3828125 184.4453125 C-81.51107741 185.75500695 -82.63559153 187.06793557 -83.7578125 188.3828125 C-84.655969 189.42732502 -85.55443684 190.47156987 -86.453125 191.515625 C-89.05174372 194.53697945 -91.6413847 197.56590364 -94.22900391 200.59667969 C-95.65409204 202.26163414 -97.08584728 203.92057332 -98.51953125 205.578125 C-105.42225707 213.59674751 -111.85326577 221.9331881 -118.22949219 230.37402344 C-119.62222711 232.20460219 -121.03145341 234.01997958 -122.453125 235.828125 C-128.66877897 243.74125076 -134.33126467 251.91324554 -139.7578125 260.3828125 C-140.20801758 261.08035645 -140.65822266 261.77790039 -141.12207031 262.49658203 C-153.77928543 282.21859871 -164.88054524 303.80416778 -167.7578125 327.3828125 C-167.92216797 328.71119141 -167.92216797 328.71119141 -168.08984375 330.06640625 C-171.51417583 362.25512777 -162.0995511 394.90166686 -141.76953125 420.171875 C-138.86650264 423.6696727 -135.83729535 427.04040688 -132.7578125 430.3828125 C-131.66919922 431.59517578 -131.66919922 431.59517578 -130.55859375 432.83203125 C-103.08842495 461.97657224 -61.60475282 475.81842733 -22.42919922 477.23999023 C7.28605215 478.01210327 35.64451747 472.94545171 62.2421875 459.3828125 C63.66724609 458.67705078 63.66724609 458.67705078 65.12109375 457.95703125 C70.64155388 455.10439173 75.7372211 451.7748212 80.8046875 448.1953125 C81.41320557 447.76694092 82.02172363 447.33856934 82.64868164 446.8972168 C85.44363747 444.87716297 87.30864802 443.28312173 89.2421875 440.3828125 C88.13423828 439.09310547 88.13423828 439.09310547 87.00390625 437.77734375 C81.42651798 431.2804326 75.85817125 424.77636552 70.33886719 418.22998047 C67.96557042 415.41524017 65.58174132 412.61057704 63.1796875 409.8203125 C62.67767822 409.23451416 62.17566895 408.64871582 61.65844727 408.04516602 C60.6986632 406.92565563 59.73578331 405.80878918 58.76928711 404.69506836 C54.41170192 399.59811244 52.77527694 396.29932875 52.91796875 389.63671875 C53.41914705 386.15262384 54.99163616 384.01917264 57.2421875 381.3828125 C60.79822118 379.01212338 63.42212095 379.03816142 67.53515625 378.96875 C68.59419914 378.93970078 68.59419914 378.93970078 69.67463684 378.9100647 C71.92619811 378.85036026 74.17781078 378.8039211 76.4296875 378.7578125 C77.95770439 378.71962421 79.48569995 378.68057198 81.01367188 378.640625 C84.75633685 378.54466654 88.4991026 378.46060239 92.2421875 378.3828125 C92.45290985 360.20615752 92.61137026 342.02982175 92.70849705 323.85220718 C92.75480406 315.4109832 92.81787694 306.97052039 92.92114258 298.52978516 C93.01116041 291.16835836 93.06898454 283.80748305 93.08898395 276.44552112 C93.10066601 272.55105182 93.12789781 268.65815946 93.19375801 264.7641983 C93.25539435 261.08978832 93.27358616 257.4175861 93.26015663 253.74270821 C93.26376777 251.76948301 93.31191989 249.79649198 93.36196899 247.82389832 C93.2591805 237.83007065 89.68306943 232.60810614 83.2421875 225.3828125 C82.12201729 223.9843866 81.00798214 222.58096649 79.90625 221.16796875 C78.89600853 219.92481952 77.88299432 218.68391831 76.8671875 217.4453125 C76.31901367 216.77419434 75.77083984 216.10307617 75.20605469 215.41162109 C67.7545613 206.31356721 60.18726168 197.33790737 52.27734375 188.6328125 C50.46841207 186.63291875 48.69326949 184.61011818 46.9296875 182.5703125 C46.38893585 181.97784729 45.8481842 181.38538208 45.29104614 180.77496338 C43.2421875 178.3828125 43.2421875 178.3828125 41.00387573 175.19329834 C37.08725215 169.9123339 33.31327974 165.46164693 26.63116455 164.13415527 C21.0958702 163.47140822 15.56599478 163.51881159 10 163.5859375 C7.94315998 163.57206937 5.88634117 163.55465016 3.82955933 163.53387451 C-0.46661092 163.50580334 -4.75926418 163.52529141 -9.05517578 163.578125 C-14.52755609 163.64095347 -19.98996198 163.57763941 -25.46148491 163.47728348 C-29.70557343 163.41489369 -33.94732888 163.42400956 -38.19168472 163.45345306 C-40.20651671 163.45838384 -42.22154625 163.44095179 -44.2359581 163.39951324 C-59.28346521 163.14319134 -66.52113335 166.46278198 -75.49881363 178.67934418 Z M109.2421875 212.3828125 C108.93426772 215.5534506 108.93426772 215.5534506 108.98390198 219.36070251 C108.98022627 220.08716699 108.97655057 220.81363146 108.97276348 221.56211001 C108.9627425 224.00884358 108.96694233 226.45535172 108.97094727 228.90209961 C108.96656259 230.65120181 108.96126138 232.40030193 108.95510864 234.1493988 C108.94358773 237.92209591 108.9381477 241.69473669 108.93722725 245.4674511 C108.93529144 251.42916379 108.91726556 257.39075949 108.89646912 263.35243225 C108.8472133 278.16137486 108.81637649 292.97034934 108.79516602 307.77935791 C108.77866212 319.28430143 108.75589977 330.78914511 108.71214527 342.29402167 C108.69031332 348.22420036 108.68231623 354.15418965 108.68453801 360.08440578 C108.68287531 363.76986659 108.66885175 367.45520299 108.65132523 371.14061928 C108.64570946 372.8535001 108.64525536 374.56640654 108.65026283 376.27928925 C108.65637003 378.61245919 108.6442355 380.94483796 108.62745667 383.27793884 C108.62443967 385.23884413 108.62443967 385.23884413 108.62136173 387.23936367 C108.2421875 390.3828125 108.2421875 390.3828125 106.92298794 392.29984379 C104.15505589 394.08327015 101.14118714 393.86473269 97.94921875 393.89453125 C97.24319016 393.91248245 96.53716156 393.93043365 95.80973816 393.94892883 C93.55811509 394.00304428 91.30670407 394.03692972 89.0546875 394.0703125 C87.52666319 394.10348469 85.99866687 394.13797427 84.47070312 394.17382812 C80.72801761 394.25877075 76.98539509 394.32557498 73.2421875 394.3828125 C74.97253701 397.37021004 76.70622992 400.10755715 78.9921875 402.6953125 C79.77251343 403.58585327 79.77251343 403.58585327 80.56860352 404.49438477 C81.12088623 405.11756592 81.67316895 405.74074707 82.2421875 406.3828125 C83.41861298 407.7246959 84.59438372 409.06715356 85.76953125 410.41015625 C86.35589355 411.07901855 86.94225586 411.74788086 87.54638672 412.43701172 C89.99605502 415.24781742 92.40372121 418.09289753 94.8046875 420.9453125 C98.63276979 425.48897644 102.49127381 430.00489476 106.3671875 434.5078125 C109.86042606 438.56902126 113.30667457 442.65800221 116.6796875 446.8203125 C121.86159687 453.20313882 127.26352333 459.39336028 132.68115234 465.57617188 C133.7693287 466.83555646 134.84145146 468.10891508 135.90087891 469.39257812 C136.69824463 470.35454102 136.69824463 470.35454102 137.51171875 471.3359375 C137.98843018 471.92020508 138.4651416 472.50447266 138.95629883 473.10644531 C140.17679718 474.61763726 140.17679718 474.61763726 142.2421875 474.3828125 C143.5749063 472.91590691 144.83132619 471.37958749 146.0546875 469.8203125 C149.81106767 465.12332991 153.66243434 460.53886303 157.6171875 456.0078125 C162.16801179 450.78347678 166.678998 445.52964643 171.14355469 440.23144531 C174.52700698 436.21897066 177.94318934 432.23570862 181.3671875 428.2578125 C185.5921068 423.34595808 189.71818833 418.36642495 193.796875 413.33203125 C197.47384594 408.89734586 201.27061745 404.56746082 205.07788086 400.24438477 C207.90792678 397.63710535 207.90792678 397.63710535 209.2421875 394.3828125 C208.28852295 394.36299316 207.3348584 394.34317383 206.35229492 394.32275391 C202.81296451 394.24666236 199.27404333 394.15795089 195.73510742 394.06542969 C194.20361411 394.02715452 192.67203135 393.99229901 191.14038086 393.9609375 C188.9383142 393.91525443 186.73686254 393.85726713 184.53515625 393.796875 C183.85067917 393.78532379 183.16620209 393.77377258 182.46098328 393.76187134 C178.85757913 393.65007506 177.3262692 393.43886697 174.2421875 391.3828125 C173.06389516 387.84793548 173.10246116 385.03519571 173.08396912 381.30244446 C173.07656215 380.21441639 173.07656215 380.21441639 173.06900555 379.10440797 C173.05361618 376.6676708 173.04526604 374.23096 173.03686523 371.79418945 C173.02728784 370.04992439 173.01727784 368.30566165 173.00686646 366.56140137 C172.97979629 361.82000956 172.95879815 357.07860779 172.93886447 352.33718133 C172.91701794 347.38437084 172.88962273 342.43159118 172.86280823 337.47880554 C172.8128633 328.09723256 172.76793114 318.7156425 172.72478586 309.33403605 C172.67542887 298.65458464 172.62050504 287.97516415 172.56510627 277.29574263 C172.45125859 255.32479472 172.34442561 233.3538173 172.2421875 211.3828125 C169.59572696 210.05958223 167.59444414 210.24843548 164.63085938 210.23754883 C163.45624146 210.23116898 162.28162354 210.22478912 161.07141113 210.21821594 C159.16047668 210.21654671 159.16047668 210.21654671 157.2109375 210.21484375 C155.90894409 210.21151535 154.60695068 210.20818695 153.26550293 210.20475769 C150.50821097 210.19876687 147.75095036 210.19691779 144.99365234 210.19750977 C141.45593906 210.1976115 137.91842597 210.18394734 134.38076019 210.16673756 C131.01164929 210.15296537 127.64257623 210.15352948 124.2734375 210.15234375 C122.9994812 210.14515823 121.7255249 210.13797272 120.41296387 210.13056946 C118.65103699 210.1351844 118.65103699 210.1351844 116.85351562 210.13989258 C115.8158606 210.13846756 114.77820557 210.13704254 113.70910645 210.13557434 C111.06531839 210.13763621 111.06531839 210.13763621 109.2421875 212.3828125 Z " fill="#B22222" transform="translate(233.7578125,10.6171875)"/>
<path d="M0 0 C2.9375 1.625 2.9375 1.625 5 5 C5.41481696 9.69594076 5.28626268 14.29893062 5 19 C6.2375 19.04125 7.475 19.0825 8.75 19.125 C19.55767458 20.38052264 28.93031589 27.01770606 36 35 C43.25919456 45.00908694 43.25919456 45.00908694 43.75 50.9375 C42.74697953 55.03316692 41.44483318 56.58128734 38 59 C34.5 59.625 34.5 59.625 31 59 C27.67382471 56.46577121 25.72027555 53.60678104 23.625 50.0625 C19.29192461 42.96107089 13.8443436 39.26327466 5.95703125 36.6953125 C-3.26157283 34.52766187 -11.54551643 35.84228522 -20 40 C-21.3344763 40.99847423 -22.66804582 41.99816377 -24 43 C-24.66 43 -25.32 43 -26 43 C-29.9768227 50.34182651 -32.37343169 56.72541302 -30 65 C-25.92106563 72.37381729 -19.70086893 75.36151547 -12 78 C-6.57644965 79.46873129 -1.09986236 80.67903502 4.40869141 81.78320312 C18.05148334 84.58490324 32.19248077 89.63211539 40.5 101.5 C44.80063604 108.31808152 46.54589724 114.92976082 46.4375 122.9375 C46.42920166 123.72946777 46.42090332 124.52143555 46.41235352 125.33740234 C46.08823075 136.53290263 41.19789685 143.09458817 33.26171875 150.65625 C25.53368851 157.14316189 14.9763898 160.40141661 5 161 C5.04640625 161.96421875 5.0928125 162.9284375 5.140625 163.921875 C5.19476563 165.81679688 5.19476563 165.81679688 5.25 167.75 C5.29640625 169.00296875 5.3428125 170.2559375 5.390625 171.546875 C5 175 5 175 3.16796875 177.39453125 C0.35368236 179.47862442 -1.5036772 179.92864647 -5 180 C-7.7935186 178.79370788 -9.45328736 177.83138026 -11.1328125 175.27734375 C-12.25439682 172.33192185 -12.19331196 169.89235018 -12.125 166.75 C-12.10695312 165.67234375 -12.08890625 164.5946875 -12.0703125 163.484375 C-12.04710937 162.66453125 -12.02390625 161.8446875 -12 161 C-12.83917969 160.90525391 -12.83917969 160.90525391 -13.6953125 160.80859375 C-25.21996806 159.04839716 -37.34478863 153.25132942 -44.60546875 143.94140625 C-49.30458664 137.24661361 -54.46526684 129.46598616 -53 121 C-50.40783917 117.30813458 -48.95850936 116.17116239 -44.5 115.375 C-39.93828603 116.18959178 -38.7535122 117.27903757 -36 121 C-35.38541593 122.59245562 -34.80468161 124.19820239 -34.25 125.8125 C-31.6403658 132.78885278 -26.95757754 136.71826962 -20.6015625 140.3828125 C-10.57269687 144.79551338 3.54133484 144.81701906 13.8203125 141.046875 C19.88888495 138.13222013 25.01414571 135.23650911 28 129 C28.94708308 123.27803974 28.87936254 117.6694957 25.9375 112.5625 C17.74141145 101.66440424 3.38019818 99.64247407 -9.25 97 C-23.04542535 94.08481228 -35.76665654 89.04462411 -44 77 C-49.40627644 66.9647073 -50.45666701 57.46907175 -47.4375 46.4375 C-44.13689668 36.61647404 -37.85588064 29.35070449 -29 24 C-23.40608744 21.4035306 -18.21929075 19 -12 19 C-12.05220703 17.67935547 -12.05220703 17.67935547 -12.10546875 16.33203125 C-12.13253906 15.17058594 -12.15960938 14.00914062 -12.1875 12.8125 C-12.23970703 11.08966797 -12.23970703 11.08966797 -12.29296875 9.33203125 C-11.97323533 5.6955965 -11.18158273 3.8894086 -9 1 C-5.86128812 -0.56935594 -3.46144178 -0.35201103 0 0 Z " fill="#B22222" transform="translate(221,242)"/>
</svg>
