<?xml version="1.0" encoding="UTF-8"?>
<svg version="1.1" xmlns="http://www.w3.org/2000/svg" width="512" height="512">
<path d="M0 0 C33.41682364 15.56809574 74.73211799 16.12329108 109.35644531 4.1328125 C119.70838576 0.335802 119.70838576 0.335802 129.51171875 -4.64453125 C136.11035345 -7.35814603 141.98508171 -6.36414001 148.53125 -3.8828125 C150.67872486 -2.97384253 152.81652956 -2.04176701 154.9453125 -1.08984375 C156.08145996 -0.59355469 157.21760742 -0.09726562 158.38818359 0.4140625 C178.73113384 9.45918059 197.52104876 20.75004507 214.5703125 35.09765625 C215.33843262 35.7326001 215.33843262 35.7326001 216.12207031 36.38037109 C229.16284576 47.16657516 241.17673038 58.70445577 251.5703125 72.09765625 C252.3334375 73.03222656 253.0965625 73.96679688 253.8828125 74.9296875 C284.47502305 113.12092471 303.41127333 163.27624173 305.0078125 212.28515625 C305.06839844 213.59871094 305.12898438 214.91226563 305.19140625 216.265625 C304.5028341 220.51398523 303.64423352 222.53566843 300.69213867 225.5949707 C296.19057683 228.78299431 290.82897853 229.53169202 285.5078125 230.59765625 C284.17850187 230.88230225 282.84957097 231.16872652 281.52099609 231.45678711 C277.94819236 232.22124691 274.3684457 232.94556248 270.784729 233.65692139 C268.58485907 234.09476105 266.38678776 234.54077793 264.18896484 234.98876953 C198.73329906 248.27353972 132.55643227 254.71122074 65.77734375 254.48876953 C60.60556451 254.47167947 55.43424902 254.48187081 50.2624855 254.49909878 C-17.93912673 254.69090277 -85.37587817 247.20511191 -152.16772461 233.55792236 C-154.30921212 233.12217068 -156.45214981 232.69449724 -158.59570312 232.26904297 C-162.13164865 231.55688003 -165.65626384 230.80656927 -169.1796875 230.03515625 C-170.16066406 229.83857422 -171.14164063 229.64199219 -172.15234375 229.43945312 C-177.60752094 228.17236783 -181.03703269 226.55875468 -184.41455078 221.98266602 C-186.04915094 218.94737313 -186.11374658 216.51604482 -185.9921875 213.09765625 C-185.96850098 212.41888428 -185.94481445 211.7401123 -185.92041016 211.04077148 C-185.81051942 208.7193941 -185.63147105 206.41283255 -185.4296875 204.09765625 C-185.35572754 203.24574707 -185.28176758 202.39383789 -185.20556641 201.51611328 C-179.28667902 139.27196607 -148.29833165 78.40190192 -99.8671875 38.34765625 C-98.06039114 36.9237224 -96.24778389 35.50713354 -94.4296875 34.09765625 C-93.47191406 33.32292969 -92.51414062 32.54820312 -91.52734375 31.75 C-72.28412105 16.43792746 -50.91342542 5.74771625 -28.4296875 -3.90234375 C-27.51960937 -4.29421875 -26.60953125 -4.68609375 -25.671875 -5.08984375 C-16.21138592 -8.51803492 -8.47728454 -3.96374577 0 0 Z M-28.5546875 23.53515625 C-29.35438965 23.89569092 -30.1540918 24.25622559 -30.97802734 24.62768555 C-52.61156379 34.50848956 -71.53630625 46.93778824 -89.1171875 63.0078125 C-91.07954264 64.78122466 -93.07630159 66.4791587 -95.1171875 68.16015625 C-98.97937824 71.45780403 -102.16354365 75.22149332 -105.4296875 79.09765625 C-106.27789062 80.06960938 -107.12609375 81.0415625 -108 82.04296875 C-114.37125104 89.374964 -120.13064489 96.93941799 -125.4296875 105.09765625 C-126.14640625 106.20109375 -126.863125 107.30453125 -127.6015625 108.44140625 C-146.45024712 138.26803444 -156.37194102 171.27640245 -160.4296875 206.09765625 C-94.26451195 220.40803351 -27.17539848 229.05967294 40.5703125 230.09765625 C41.58762451 230.1140918 41.58762451 230.1140918 42.62548828 230.13085938 C122.08084008 231.37035557 202.09303183 224.04063374 279.5703125 206.09765625 C273.57552913 157.36789669 255.9857861 113.86896497 222.66015625 77.41015625 C220.88674409 75.44780111 219.18881005 73.45104216 217.5078125 71.41015625 C214.87854595 68.3307707 212.01329646 65.69685713 208.921875 63.0859375 C207.22643356 61.65241641 205.55751066 60.18732263 203.90625 58.703125 C186.38930954 43.10560949 165.69124659 30.98217855 144.20703125 21.69921875 C143.43447998 21.36486816 142.66192871 21.03051758 141.8659668 20.68603516 C137.86750641 19.66122504 134.47931008 21.00444565 130.77734375 22.55078125 C130.07416016 22.83791992 129.37097656 23.12505859 128.64648438 23.42089844 C127.5259668 23.87964355 127.5259668 23.87964355 126.3828125 24.34765625 C81.09929847 42.33168039 31.39137067 40.84704645 -13.4296875 22.09765625 C-14.11844971 21.73115967 -14.80721191 21.36466309 -15.5168457 20.98706055 C-20.19085543 18.81381008 -24.25144131 21.5895252 -28.5546875 23.53515625 Z " fill="#006400" transform="translate(196.4296875,257.90234375)"/>
<path d="M0 0 C0.74151306 0.00176239 1.48302612 0.00352478 2.24700928 0.00534058 C34.95072378 0.17797402 62.62467273 13.11980189 85.61450195 36.31713867 C100.1642833 51.45500677 110.44059598 70.84208848 114.4375 91.5 C114.60975098 92.38413574 114.78200195 93.26827148 114.95947266 94.17919922 C120.6064495 125.11940273 113.90836122 157.00984099 96.125 182.9765625 C76.51328225 209.4910888 49.10910021 226.34322425 16.4375 231.5 C12.77028322 231.98550556 9.13172727 232.31672051 5.4375 232.5 C4.67824219 232.54125 3.91898437 232.5825 3.13671875 232.625 C-27.84512761 233.45812528 -57.30677314 221.40422019 -79.78125 200.53125 C-101.25173295 180.13004553 -114.74129854 152.24441154 -115.8515625 122.44921875 C-116.5586683 88.51073066 -106.06463121 58.83884244 -82.53442383 34.07592773 C-68.26729813 19.47696302 -50.37872116 8.64445148 -30.5625 3.5 C-29.5727417 3.24105957 -28.5829834 2.98211914 -27.56323242 2.71533203 C-18.32673199 0.50530325 -9.43709828 -0.06025483 0 0 Z M-70.47265625 58.01855469 C-78.97705641 68.71407324 -85.01677546 81.32483408 -88.5625 94.5 C-88.78679687 95.30695313 -89.01109375 96.11390625 -89.2421875 96.9453125 C-94.40184242 119.4922977 -89.60170988 144.58660804 -77.390625 164.0703125 C-63.12403669 185.76147631 -42.10593148 200.56562515 -16.59375 205.94140625 C-12.57923888 206.68119374 -8.63743464 207.25416299 -4.5625 207.5 C-3.52029297 207.57927734 -3.52029297 207.57927734 -2.45703125 207.66015625 C20.13348025 208.554445 42.32995799 199.98569649 59.4375 185.5 C60.08976563 184.99210938 60.74203125 184.48421875 61.4140625 183.9609375 C75.63682047 172.4580695 84.74726504 154.92792568 89.4375 137.5 C89.66179687 136.69304687 89.88609375 135.88609375 90.1171875 135.0546875 C95.27984634 112.49457558 90.45399926 87.4833168 78.30078125 67.96484375 C70.70785096 56.36128017 61.85769822 47.32969997 50.4375 39.5 C49.63699219 38.94441406 48.83648437 38.38882813 48.01171875 37.81640625 C9.92199084 13.17011172 -42.12702613 23.8885377 -70.47265625 58.01855469 Z " fill="#006400" transform="translate(255.5625,-0.5)"/>
</svg>
