<?xml version="1.0" encoding="UTF-8"?>
<svg version="1.1" xmlns="http://www.w3.org/2000/svg" width="512" height="512">
<path d="M0 0 C0.68844925 -0.00367669 1.37689849 -0.00735338 2.08620983 -0.01114148 C4.39277236 -0.02215286 6.69928979 -0.0260179 9.00587463 -0.02983093 C10.6602289 -0.03609776 12.31458177 -0.04274476 13.96893311 -0.04974365 C19.40384443 -0.07076936 24.83875598 -0.08114817 30.2736969 -0.09111023 C32.14808225 -0.09515906 34.02246745 -0.09927602 35.89685249 -0.10346031 C44.70840828 -0.12251276 53.51995571 -0.13674079 62.33152813 -0.14507228 C72.48241765 -0.15482975 82.63308824 -0.18111002 92.78390068 -0.22157317 C100.64144615 -0.25181271 108.49892918 -0.26654877 116.35653168 -0.26985329 C121.04347551 -0.27219584 125.73018549 -0.28105148 130.41706657 -0.30631447 C134.83386794 -0.32973617 139.25028386 -0.33377229 143.66713142 -0.32355309 C145.27908237 -0.32306094 146.8910532 -0.3292855 148.50294495 -0.34310913 C165.86279909 -0.48352993 179.30752414 3.76396293 192.34010315 15.58467102 C196.31436376 19.73641057 199.06589053 24.06393133 201.65260315 29.14717102 C201.97897766 29.78710999 202.30535217 30.42704895 202.64161682 31.08638 C207.57510026 41.4983018 207.43422582 52.31598531 207.37965393 63.61250305 C207.37908889 65.25927727 207.37940818 66.906052 207.38053894 68.55282593 C207.38110984 72.99635173 207.36939829 77.43976829 207.35539103 81.88326883 C207.34283966 86.53705692 207.3417097 91.19084786 207.33934021 95.84465027 C207.33313835 104.64520911 207.31674512 113.44571793 207.29664123 122.2462548 C207.27424186 132.27047274 207.26327866 142.29469315 207.25325036 152.31892991 C207.23237769 172.92837148 207.19722699 193.53776809 207.15260315 214.14717102 C208.23742981 214.13492493 209.32225647 214.12267883 210.43995667 214.11006165 C229.90107936 214.30458329 251.92959118 227.73492095 265.15260315 241.14717102 C281.81971441 259.4152398 292.30565281 281.90570088 292.29977417 306.80709839 C292.30345086 307.65414131 292.30712755 308.50118422 292.31091565 309.37389511 C292.32188743 312.19879869 292.3257851 315.02366541 292.3296051 317.84858704 C292.33587431 319.87926855 292.34252151 321.90994892 292.34951782 323.94062805 C292.37049346 330.59410309 292.38090913 337.24757821 292.3908844 343.90107727 C292.39493337 346.19383697 292.39905033 348.48659655 292.40323448 350.779356 C292.4222661 361.54455931 292.43650549 372.30975581 292.44484645 383.07497269 C292.45463362 395.50058407 292.48100022 407.92601802 292.52134734 420.35156685 C292.5514781 429.96021635 292.56631215 439.56881485 292.56962746 449.17751068 C292.57197995 454.91548451 292.58096764 460.65326832 292.60608864 466.39119148 C292.62932327 471.78471386 292.63362112 477.1779204 292.62332726 482.5714798 C292.62283079 484.55080909 292.62918384 486.53015371 292.6428833 488.50943565 C292.66053942 491.21141328 292.65352739 493.91224943 292.64035034 496.61422729 C292.65680421 497.78898891 292.65680421 497.78898891 292.67359048 498.98748308 C292.61246934 504.17791117 291.45576397 507.15850468 288.15260315 511.14717102 C284.43807083 513.00443718 280.1968089 512.73218191 276.15260315 512.14717102 C273.32836027 509.95694185 271.73751712 508.31699895 270.15260315 505.14717102 C270.05131223 502.53577387 270.01094825 499.95071962 270.01457214 497.33889771 C270.01175086 496.52289477 270.00892958 495.70689183 270.00602281 494.86616153 C269.99765135 492.11582775 269.99633633 489.3655341 269.99488831 486.6151886 C269.9902216 484.64910773 269.98507828 482.68302794 269.97949219 480.71694946 C269.96819363 476.47283847 269.95976761 472.22873458 269.95337296 467.98461342 C269.9426985 461.26351937 269.92245171 454.54247577 269.9002533 447.82141113 C269.83832145 428.70516796 269.78442051 409.58892671 269.75123596 390.47261047 C269.73284077 379.92229686 269.70383713 369.37206683 269.66323125 358.82181472 C269.64223069 353.24171124 269.62671399 347.66171283 269.62442398 342.08156776 C269.62226289 336.82104729 269.60624572 331.56074494 269.58003426 326.30029106 C269.57289313 324.37959626 269.57071479 322.45887489 269.57413673 320.53816986 C269.61160577 295.48671518 264.18394239 274.52048394 246.15260315 256.14717102 C245.5493219 255.51939758 244.94604065 254.89162415 244.32447815 254.24482727 C236.07158072 246.33281038 225.64179731 241.81910459 214.8674469 238.5226593 C214.12490662 238.29317093 213.38236633 238.06368256 212.61732483 237.82723999 C210.79647719 237.26486018 208.9746379 236.7056928 207.15260315 236.14717102 C207.15536853 236.81640217 207.15813391 237.48563332 207.16098309 238.1751442 C207.22740319 254.50254705 207.27696139 270.82990678 207.30803967 287.15741348 C207.32347058 295.05346293 207.34448735 302.94942187 207.37892151 310.84541321 C207.40894007 317.7321958 207.42820555 324.6189128 207.43486863 331.505759 C207.43875993 335.14810484 207.44782496 338.79026314 207.46979332 342.43254852 C207.49419008 346.51100784 207.49456521 350.58914666 207.49317932 354.66767883 C207.50935806 356.4544101 207.50935806 356.4544101 207.52586365 358.27723694 C207.47582442 371.95389358 204.43933685 383.22504496 195.0471344 393.43623352 C184.77771234 403.14220057 173.49874006 406.60515224 159.6018219 406.33076477 C140.03153757 405.28908486 124.73413113 398.63409386 108.3440094 388.34638977 C102.80703097 385.31634988 96.30383195 385.38246908 90.15260315 386.14717102 C86.67017923 388.67363543 85.50033493 390.10397567 84.15260315 394.14717102 C83.36458075 400.6967998 84.35834617 405.72361546 88.15260315 411.14717102 C89.79305124 412.99064487 91.50758761 414.68712986 93.3049469 416.37763977 C95.80126382 418.76840418 98.01363353 421.36388113 100.26979065 423.97920227 C102.36835635 426.39560053 104.50700015 428.77246126 106.65260315 431.14717102 C109.91651163 434.76393447 113.14051264 438.4110671 116.34010315 442.08467102 C118.42471479 444.45681531 120.53688959 446.80273167 122.65260315 449.14717102 C125.91651163 452.76393447 129.14051264 456.4110671 132.34010315 460.08467102 C134.42471479 462.45681531 136.53688959 464.80273167 138.65260315 467.14717102 C141.91473108 470.76196143 145.13919344 474.40499007 148.33229065 478.08076477 C150.45047708 480.48531547 152.61567945 482.84439806 154.77760315 485.20967102 C156.24240583 486.84974924 157.70130408 488.49513152 159.15260315 490.14717102 C159.70818909 490.77752258 160.26377502 491.40787415 160.8361969 492.05732727 C163.20801426 495.00698115 164.48870868 497.4670874 164.71510315 501.20967102 C164.09088998 505.5791632 162.94983569 507.77403766 160.15260315 511.14717102 C156.41550098 513.0157221 152.22248319 512.68814426 148.15260315 512.14717102 C145.51819244 510.49420744 144.13169402 509.39414989 142.15260315 507.14717102 C141.62408752 506.56580383 141.0955719 505.98443665 140.55104065 505.38545227 C139.37716968 504.06417741 138.21765635 502.73004796 137.0705719 501.38545227 C134.97089533 498.93511689 132.81753939 496.53999529 130.65260315 494.14717102 C127.38869467 490.53040757 124.16469366 486.88327494 120.96510315 483.20967102 C118.8804915 480.83752674 116.76831671 478.49161037 114.65260315 476.14717102 C111.39360938 472.5358536 108.17332134 468.89528632 104.98072815 465.22529602 C102.08188584 461.93003083 99.12352624 458.688674 96.16822815 455.44404602 C94.15260315 453.14717102 94.15260315 453.14717102 93.0982666 451.0337677 C89.90542709 447.93785694 86.2816905 448.61019684 82.00636292 448.66474915 C81.06935043 448.66083664 80.13233795 448.65692413 79.16693115 448.65289307 C77.12895951 448.64690901 75.09094527 448.65010434 73.05299568 448.66131592 C69.8188879 448.67855493 66.58567613 448.67107927 63.3515625 448.65705872 C55.31125729 448.62737651 47.27112108 448.64054693 39.23078918 448.65223694 C32.44976154 448.66047257 25.6691238 448.65235223 18.88815117 448.62310791 C15.71746885 448.61605659 12.54748854 448.63264571 9.37686157 448.65022278 C-8.52681527 448.64781526 -22.32648469 444.87596925 -35.74583435 432.40498352 C-44.72661523 422.75648659 -49.96362597 410.13599174 -49.97882462 396.97163963 C-49.98266576 395.72141246 -49.98650691 394.47118529 -49.99046445 393.18307245 C-49.98968425 391.79833303 -49.98880548 390.41359367 -49.98783875 389.02885437 C-49.99042317 387.55569939 -49.99343654 386.08254512 -49.99684215 384.60939181 C-50.00490645 380.56015836 -50.0067014 376.51094264 -50.00743961 372.46170211 C-50.00929118 368.09479914 -50.01683907 363.72790535 -50.02357483 359.36100769 C-50.03715497 349.81128424 -50.04318247 340.26156498 -50.04758549 330.71183348 C-50.05034863 324.74787145 -50.05458614 318.78391104 -50.05908966 312.8199501 C-50.07128226 296.30471333 -50.08158137 279.78947786 -50.08496475 263.27423668 C-50.08518432 262.21727464 -50.08540388 261.1603126 -50.0856301 260.07132141 C-50.08584838 259.01184058 -50.08606666 257.95235975 -50.08629155 256.86077344 C-50.08673502 254.71388904 -50.08718158 252.56700464 -50.08763123 250.42012024 C-50.08785266 249.35519307 -50.08807409 248.29026591 -50.08830222 247.19306822 C-50.09224932 229.94163867 -50.10970068 212.69025139 -50.13299075 195.43883817 C-50.156714 177.72342067 -50.16916706 160.00802437 -50.17033267 142.29259074 C-50.17124892 132.34754232 -50.17698859 122.40254896 -50.19515228 112.45751572 C-50.21056644 103.98810188 -50.21566599 95.51876012 -50.20741418 87.04933493 C-50.20351225 82.73001477 -50.20441489 78.4108397 -50.21847153 74.09153748 C-50.23123789 70.13240531 -50.22998906 66.17352684 -50.21788082 62.21439488 C-50.21592853 60.78703397 -50.21898047 59.35965491 -50.22772518 57.93231945 C-50.32358056 41.21978308 -46.1091387 26.71198255 -34.33177185 14.40107727 C-24.79393235 5.74803735 -12.9201575 0.04477783 0 0 Z M-20.84739685 33.14717102 C-25.19719857 40.37788716 -27.96730983 46.62910673 -27.98161793 55.07471561 C-27.98607577 56.29508457 -27.99053362 57.51545353 -27.99512655 58.77280337 C-27.99503725 60.12904299 -27.9948474 61.48528262 -27.99456787 62.84152222 C-27.99786754 64.28081595 -28.00159332 65.72010877 -28.00570935 67.1594004 C-28.01572591 71.11967849 -28.01944559 75.07994143 -28.02209866 79.04023039 C-28.02600276 83.3096739 -28.03558107 87.57910541 -28.04431152 91.84854126 C-28.06407349 102.16217939 -28.07414205 112.47581849 -28.08303931 122.78947082 C-28.08742287 127.64700074 -28.09278953 132.50452958 -28.09802818 137.36205864 C-28.11504061 153.51095764 -28.12953444 169.65985596 -28.13677692 185.80876255 C-28.1386868 189.99944624 -28.14060714 194.19012993 -28.14256287 198.3808136 C-28.14304661 199.42238135 -28.14353035 200.4639491 -28.14402875 201.53707951 C-28.15232776 218.40706201 -28.17766245 235.27697357 -28.21014354 252.1469251 C-28.2432232 269.46906636 -28.26122653 286.79117159 -28.26442116 304.11334461 C-28.26658548 313.8382173 -28.27532259 323.56298655 -28.30088234 333.28782845 C-28.32260174 341.57063193 -28.33063367 349.85330686 -28.32091556 358.13613559 C-28.31637438 362.36030747 -28.31824634 366.58421419 -28.337677 370.80834961 C-28.35533482 374.68061818 -28.35429004 378.55242866 -28.33877971 382.42470228 C-28.33640758 383.82046792 -28.34070667 385.2162655 -28.35260836 386.61198241 C-28.44160107 397.74382613 -26.80202927 407.52098797 -19.61302185 416.36201477 C-13.63108552 422.41012296 -6.81899331 425.81272245 1.7277832 426.38768005 C2.99131119 426.38323883 4.25483917 426.37879761 5.55665588 426.3742218 C6.25993515 426.37451385 6.96321442 426.37480591 7.68780518 426.37510681 C9.98739938 426.37372549 12.28666006 426.35822159 14.5861969 426.34248352 C16.19044823 426.33874912 17.79470186 426.33590416 19.3989563 426.33390808 C23.60260923 426.32630524 27.80612196 426.30668586 32.00971985 426.28450012 C36.30667729 426.26396921 40.60365758 426.25489093 44.90065002 426.24482727 C53.31803177 426.22343652 61.73529997 426.18934145 70.15260315 426.14717102 C69.11169488 424.05050009 68.05797437 421.97429151 66.93385315 419.92060852 C61.13485793 409.06517234 59.62748608 398.42337828 62.9065094 386.37763977 C66.65141511 376.17708071 72.3080253 369.80877798 82.15260315 365.14717102 C92.42405204 361.11611184 103.90136603 362.97576433 114.15260315 366.14717102 C118.66325454 368.2002951 122.89439411 370.61802038 127.15260315 373.14717102 C136.68432566 378.60291126 144.83175815 382.00918424 155.71510315 383.45967102 C156.42360413 383.56054016 157.1321051 383.6614093 157.86207581 383.76533508 C164.35589077 384.52081483 169.60924592 383.56558178 175.40260315 380.33467102 C180.9285189 375.93905622 184.01356517 371.37452867 184.94967711 364.3943305 C185.39122383 359.50473671 185.29280583 354.59197062 185.28631592 349.6865387 C185.28971425 347.80260788 185.28971425 347.80260788 185.29318124 345.88061786 C185.29928214 342.40597869 185.29916767 338.93136365 185.29798687 335.45672035 C185.29778242 331.70471961 185.30330577 327.95272653 185.30804443 324.20072937 C185.31634228 316.8539596 185.31909889 309.50719785 185.31965681 302.16042379 C185.3201324 296.18671335 185.32218931 290.21300556 185.32535744 284.23929596 C185.33416182 267.2924152 185.33877718 250.34554077 185.33802696 233.39865771 C185.33798701 232.48551085 185.33794705 231.57236399 185.33790588 230.63154602 C185.33784456 229.26014788 185.33784456 229.26014788 185.337782 227.86104473 C185.33737564 213.04763141 185.34694319 198.23424352 185.36104425 183.42083755 C185.37541809 168.20042399 185.38231387 152.98002283 185.38145047 137.75960231 C185.38111884 129.21858696 185.38385109 120.67759827 185.39462852 112.13658905 C185.40374681 104.86398023 185.40589789 97.59141016 185.3991191 90.31879809 C185.39586054 86.61112172 185.39577314 82.90351962 185.40447235 79.19585037 C185.41382272 75.16909038 185.40754399 71.14250138 185.39984131 67.11573792 C185.40755665 65.37334394 185.40755665 65.37334394 185.41542786 63.59575009 C185.3630983 51.1873188 184.14729523 40.20769612 175.40260315 30.89717102 C168.61619091 24.45261163 161.84489812 22.0335799 152.58872986 22 C151.93083233 21.99632331 151.27293481 21.99264662 150.595101 21.98885852 C148.39209246 21.97785169 146.18913113 21.97398294 143.98609924 21.97016907 C142.40569408 21.96390206 140.82529039 21.95725504 139.24488831 21.95025635 C134.05528281 21.92923856 128.8656771 21.91885482 123.67604065 21.90888977 C121.88702504 21.9048411 120.09800959 21.90072415 118.30899429 21.89653969 C109.90163437 21.87749157 101.49428319 21.86326078 93.08690584 21.85492772 C83.39499592 21.84516196 73.70331479 21.81885815 64.01148546 21.77842683 C56.51237021 21.74822095 49.01332037 21.73345453 41.51414549 21.73014671 C37.03912105 21.72780097 32.56434113 21.718903 28.08938217 21.69368553 C23.87531622 21.6703219 19.66165434 21.66620465 15.44754028 21.67644691 C13.90689369 21.67694041 12.36622664 21.67067534 10.82564163 21.65689087 C-1.57732822 21.55218785 -12.50559862 23.09057059 -20.84739685 33.14717102 Z " fill="#000000" transform="translate(134.84739685058594,-0.1471710205078125)"/>
<path d="M0 0 C0.67530258 -0.00511093 1.35060516 -0.01022186 2.04637146 -0.01548767 C4.27327395 -0.02935999 6.49986614 -0.02842875 8.72680664 -0.02612305 C10.27853001 -0.03001127 11.83025233 -0.0343462 13.38197327 -0.03910828 C16.63261364 -0.04656538 19.8831454 -0.04628292 23.13378906 -0.04101562 C27.29451721 -0.03522145 31.45480013 -0.05215288 35.61545467 -0.0753603 C38.81969288 -0.09010914 42.02382415 -0.09096779 45.22809029 -0.08785057 C46.76185551 -0.0883632 48.29562682 -0.09359002 49.82935905 -0.10366249 C51.97637542 -0.11603244 54.12252817 -0.10923284 56.26953125 -0.09765625 C58.10009315 -0.09860039 58.10009315 -0.09860039 59.96763611 -0.0995636 C64.21826362 0.39262784 66.67217084 2.09159172 69.98461914 4.6574707 C72.11337857 7.49125335 71.65751976 10.40852885 71.56274414 13.82543945 C71.05789303 17.22911304 69.71264781 18.98322489 67.19946289 21.2746582 C64.23977241 22.75450344 61.56204002 22.43472733 58.25878906 22.4675293 C57.18775185 22.47979553 57.18775185 22.47979553 56.09507751 22.49230957 C53.72753744 22.51716122 51.36005732 22.53367901 48.99243164 22.5480957 C48.18409693 22.55341938 47.37576221 22.55874306 46.54293251 22.56422806 C42.2643084 22.59095884 37.98571346 22.6103338 33.70703125 22.62475586 C29.2882452 22.64140256 24.87020517 22.68617989 20.45170116 22.7371273 C17.05360562 22.77078825 13.65568739 22.78233195 10.25744057 22.78798294 C8.62872937 22.79469883 7.00002998 22.80992985 5.37148094 22.83387375 C3.08980965 22.86550571 0.81015343 22.86556632 -1.47167969 22.8581543 C-3.41787956 22.87028458 -3.41787956 22.87028458 -5.40339661 22.88265991 C-9.66923008 22.11918427 -11.12189032 20.60411472 -13.80053711 17.2746582 C-14.9383531 14.25970801 -15.09375524 11.47750242 -14.80053711 8.2746582 C-11.29006233 1.12369107 -7.63084775 0.02882823 0 0 Z " fill="#000000" transform="translate(184.800537109375,41.725341796875)"/>
</svg>
