<?xml version="1.0" encoding="UTF-8"?>
<svg version="1.1" xmlns="http://www.w3.org/2000/svg" width="512" height="512">
<path d="M0 0 C1.93480225 -0.0141394 1.93480225 -0.0141394 3.90869141 -0.02856445 C10.39072848 -0.00606622 16.11953006 0.28694538 22.3125 2.25 C23.86375278 7.08594081 24.57624894 11.18325293 24.61328125 16.30859375 C24.62174828 17.29455284 24.62174828 17.29455284 24.63038635 18.3004303 C24.64237583 20.42969608 24.63615204 22.55823575 24.625 24.6875 C24.62284485 25.42097656 24.6206897 26.15445313 24.61846924 26.91015625 C24.38973743 75.56524606 9.01963534 124.10554013 -21.6875 162.25 C-22.37972656 163.13300781 -23.07195312 164.01601563 -23.78515625 164.92578125 C-32.15650677 175.42415368 -41.20581249 185.80691953 -51.6875 194.25 C-52.80865517 195.1718003 -53.92974221 196.09368348 -55.05078125 197.015625 C-56.32460729 198.05320588 -57.59935723 199.08965348 -58.875 200.125 C-59.73810791 200.83003662 -59.73810791 200.83003662 -60.61865234 201.54931641 C-61.21242676 202.02546387 -61.80620117 202.50161133 -62.41796875 202.9921875 C-63.0524292 203.52513428 -63.68688965 204.05808105 -64.34057617 204.60717773 C-66.6875 206.25 -66.6875 206.25 -70.04418945 207.62915039 C-74.2117819 209.62017243 -77.30625993 211.20206933 -79.6875 215.25 C-81.89560232 224.50590619 -80.86900093 234.51151843 -80.5 243.9375 C-80.36680348 247.88074205 -80.26484402 251.82311601 -80.20500183 255.76826477 C-80.16545054 258.21670236 -80.08607779 260.6649022 -79.96211243 263.11051941 C-79.79901197 271.15344483 -79.79901197 271.15344483 -82.31091309 274.25358582 C-84.36249098 275.82836271 -86.39558722 277.05761295 -88.6875 278.25 C-89.63866699 278.85062256 -90.58983398 279.45124512 -91.56982422 280.07006836 C-92.4517041 280.57159424 -93.33358398 281.07312012 -94.2421875 281.58984375 C-95.25539062 282.16992188 -96.26859375 282.75 -97.3125 283.34765625 C-98.385 283.95480469 -99.4575 284.56195313 -100.5625 285.1875 C-102.29911077 286.17984901 -104.03571687 287.17220632 -105.77203369 288.16506958 C-107.56293539 289.1883062 -109.3551036 290.20929616 -111.14746094 291.22998047 C-116.67420273 294.38005336 -122.1795659 297.56720004 -127.6875 300.75 C-129.83194732 301.98712466 -131.97647902 303.22410307 -134.12109375 304.4609375 C-138.08084212 306.74529301 -142.03979827 309.03100906 -145.99771118 311.31854248 C-147.77112608 312.34345403 -149.54471646 313.36806123 -151.31835938 314.39257812 C-153.53745773 315.67452738 -155.75623016 316.95704107 -157.97460938 318.24023438 C-160.87573799 319.9157426 -163.78093676 321.58394225 -166.6875 323.25 C-167.9859082 324.00265137 -167.9859082 324.00265137 -169.31054688 324.77050781 C-170.10654297 325.22522461 -170.90253906 325.67994141 -171.72265625 326.1484375 C-172.75531616 326.74277588 -172.75531616 326.74277588 -173.80883789 327.34912109 C-176.58623637 328.680973 -178.68394665 328.8221054 -181.6875 328.25 C-183.5625 327.25 -183.5625 327.25 -184.6875 325.25 C-185.28311573 317.73616469 -183.43211382 310.89956654 -181.66015625 303.6328125 C-181.34795224 302.32641403 -181.03647657 301.0198413 -180.72569275 299.71310425 C-180.07623393 296.99033767 -179.42100476 294.26905397 -178.76098633 291.54882812 C-177.91461095 288.06032962 -177.07833395 284.56951295 -176.24575138 281.07769966 C-175.44976082 277.74109282 -174.64894299 274.40565071 -173.84765625 271.0703125 C-173.54658463 269.81517853 -173.245513 268.56004456 -172.93531799 267.26687622 C-172.655103 266.11162445 -172.374888 264.95637268 -172.08618164 263.76611328 C-171.83969376 262.74655548 -171.59320587 261.72699768 -171.33924866 260.67654419 C-170.6875 258.25 -170.6875 258.25 -169.6875 256.25 C-171.415188 257.43537402 -173.14277189 258.62090002 -174.86987305 259.80712891 C-176.33682208 260.81427819 -177.80443806 261.82045671 -179.27270508 262.82568359 C-184.10181404 266.13765238 -188.87217226 269.51677265 -193.57421875 273.0078125 C-196.07115175 274.47551064 -197.78578897 275.09845134 -200.6875 275.25 C-204.43268434 273.31359699 -207.28583132 270.92880589 -210.29418945 267.99731445 C-211.17472488 267.14244949 -212.05526031 266.28758453 -212.96247864 265.40681458 C-214.36743843 264.02401558 -214.36743843 264.02401558 -215.80078125 262.61328125 C-216.28162863 262.14058493 -216.76247601 261.6678886 -217.25789452 261.18086815 C-219.79903474 258.68128665 -222.3336827 256.17531937 -224.86352539 253.66430664 C-227.47073344 251.07927894 -230.10044992 248.51846183 -232.73589802 245.96227741 C-234.76615238 243.98438244 -236.77836468 241.98885227 -238.78618431 239.98821068 C-240.21374555 238.57506912 -241.66037988 237.18127926 -243.10725403 235.78791809 C-250.25682664 228.58997089 -250.25682664 228.58997089 -250.42456055 223.86328125 C-249.76270796 220.61869088 -249.30225395 218.73886086 -247.34375 216.13671875 C-246.84262695 215.45085693 -246.34150391 214.76499512 -245.82519531 214.05834961 C-245.28475586 213.35846924 -244.74431641 212.65858887 -244.1875 211.9375 C-243.64448242 211.20345947 -243.10146484 210.46941895 -242.54199219 209.71313477 C-241.45040123 208.23987429 -240.35121879 206.77220524 -239.24414062 205.31054688 C-237.09668483 202.46792973 -235.01951024 199.57834874 -232.9375 196.6875 C-231.85508595 195.20766049 -230.77192167 193.72836896 -229.6875 192.25 C-239.94778454 194.3272309 -250.15560264 196.55699564 -260.32421875 199.046875 C-261.3097171 199.28748657 -262.29521545 199.52809814 -263.31057739 199.77600098 C-267.36664494 200.76813438 -271.42191279 201.76321094 -275.47436523 202.77001953 C-278.48485812 203.51639124 -281.49798503 204.25121577 -284.51171875 204.984375 C-285.41701828 205.21243835 -286.32231781 205.44050171 -287.25505066 205.67547607 C-299.90471444 208.72835483 -299.90471444 208.72835483 -304.6875 206.1875 C-306.251054 203.15811412 -306.30590077 200.52945425 -305.6875 197.25 C-303.98723042 193.45123777 -301.81228722 189.97287745 -299.625 186.4375 C-298.32976198 184.28313327 -297.03552457 182.12816472 -295.7421875 179.97265625 C-295.07026367 178.86293457 -294.39833984 177.75321289 -293.70605469 176.60986328 C-290.48029107 171.2406133 -287.36732693 165.8076791 -284.25 160.375 C-282.99771932 158.2016365 -281.74511294 156.02846062 -280.4921875 153.85546875 C-278.57031492 150.51922891 -276.64879685 147.18278533 -274.72753906 143.84619141 C-270.95134662 137.28887161 -267.17114679 130.73390744 -263.3828125 124.18359375 C-262.28477084 122.28352628 -261.18831388 120.38254177 -260.09375 118.48046875 C-258.6925067 116.04653833 -257.28483199 113.61646235 -255.875 111.1875 C-255.47240967 110.48488037 -255.06981934 109.78226074 -254.6550293 109.05834961 C-251.91635772 104.36442886 -251.91635772 104.36442886 -249.6875 103.25 C-247.78850089 103.1912128 -245.88733801 103.19792952 -243.98779297 103.23510742 C-242.79249969 103.2538945 -241.59720642 103.27268158 -240.36569214 103.29203796 C-238.41736984 103.3234362 -238.41736984 103.3234362 -236.4296875 103.35546875 C-232.97900427 103.38084553 -229.52825568 103.38897901 -226.07749748 103.39846325 C-222.46489382 103.4118736 -218.8549293 103.4465465 -215.24316406 103.52758789 C-211.74493074 103.60488217 -208.25071463 103.6228524 -204.75174332 103.6017704 C-202.78165025 103.60539612 -200.81197416 103.67027046 -198.84298706 103.7363739 C-195.10069925 103.68740977 -192.21842325 103.50397703 -188.6875 102.25 C-185.18031747 98.64232844 -183.03837869 94.66085511 -180.6875 90.25 C-175.510035 83.19202866 -169.70194546 76.60264677 -163.6875 70.25 C-163.0982373 69.62673828 -162.50897461 69.00347656 -161.90185547 68.36132812 C-151.91289697 57.88419676 -141.57809532 48.51951411 -129.6875 40.25 C-128.97464844 39.75193848 -128.26179687 39.25387695 -127.52734375 38.74072266 C-89.71330389 12.72243092 -45.60585511 0.23457113 0 0 Z M-65.6875 23.25 C-60.53955607 37.06816528 -49.43433797 50.27079332 -38.6875 60.25 C-33.6875 65.25 -33.6875 65.25 -32.18676758 66.81225586 C-28.03165983 71.08661989 -23.67105327 74.78027943 -18.875 78.3125 C-18.17938965 78.8290918 -17.4837793 79.34568359 -16.76708984 79.87792969 C-8.41448619 86.86882443 -8.41448619 86.86882443 1.3125 90.25 C9.90623783 64.7887661 11.68120476 39.97542291 11.3125 13.25 C-12.81913536 12.70643192 -43.44386469 12.12818235 -65.6875 23.25 Z M-151.1875 76.375 C-164.67498219 89.89842751 -175.18872476 104.73221827 -184.6875 121.25 C-185.05713867 121.88083496 -185.42677734 122.51166992 -185.80761719 123.16162109 C-193.76049754 136.81345489 -199.15346585 151.65204813 -203.6875 166.75 C-203.99917114 167.78133057 -203.99917114 167.78133057 -204.31713867 168.83349609 C-205.34436872 172.42003498 -206.16270021 175.5384563 -205.6875 179.25 C-203.80384029 181.92845563 -203.80384029 181.92845563 -201.14868164 184.51513672 C-200.42421844 185.26478951 -200.42421844 185.26478951 -199.68511963 186.02958679 C-198.08576264 187.67640667 -196.46821882 189.30374791 -194.84765625 190.9296875 C-193.72541153 192.06800215 -192.6035449 193.20668968 -191.48204041 194.34573364 C-189.12767138 196.73003802 -186.76319579 199.1037802 -184.39233398 201.47167969 C-181.36018945 204.50331633 -178.36388049 207.56785786 -175.37540531 210.64246941 C-173.06842062 213.00513562 -170.73897317 215.34463428 -168.40267754 217.67828751 C-167.28825568 218.79859895 -166.18190829 219.92700432 -165.08406258 221.0635643 C-159.46986029 227.29762388 -159.46986029 227.29762388 -152.15176392 230.75468445 C-149.80548954 230.53663393 -147.89709117 230.05249116 -145.6875 229.25 C-144.64239258 228.99226807 -143.59728516 228.73453613 -142.52050781 228.46899414 C-139.32070269 227.43141745 -136.12405455 226.39028183 -132.9375 225.3125 C-131.75244873 224.91281006 -130.56739746 224.51312012 -129.34643555 224.10131836 C-101.57268345 214.48366478 -77.15903341 199.25756523 -55.6875 179.25 C-54.12696234 177.8935724 -52.56449037 176.53936667 -51 175.1875 C-46.84070235 171.47746447 -43.2225988 167.55299697 -39.6875 163.25 C-39.26098145 162.74114258 -38.83446289 162.23228516 -38.39501953 161.70800781 C-27.83787025 149.08871711 -18.92779898 135.77056087 -11.1875 121.25 C-10.77806152 120.48526367 -10.36862305 119.72052734 -9.94677734 118.93261719 C-7.30743589 113.84854011 -5.3401045 108.73275845 -3.6875 103.25 C-9.36937575 99.40642168 -9.36937575 99.40642168 -15.171875 95.75 C-38.96238904 81.33150664 -57.98344146 60.84151757 -72.6796875 37.44140625 C-74.63404644 34.33496413 -76.58936118 31.26096545 -78.6875 28.25 C-102.63239221 28.25 -135.41588912 60.84722397 -151.1875 76.375 Z M-248.6875 125.25 C-249.23277344 126.1582251 -249.77804688 127.0664502 -250.33984375 128.00219727 C-250.76394531 128.76588623 -251.18804687 129.5295752 -251.625 130.31640625 C-252.1202417 131.20183105 -252.6154834 132.08725586 -253.12573242 132.99951172 C-253.64111572 133.92779785 -254.15649902 134.85608398 -254.6875 135.8125 C-259.34495212 144.12623806 -264.06604873 152.39791515 -268.875 160.625 C-269.45588379 161.61975342 -270.03676758 162.61450684 -270.63525391 163.6394043 C-273.33754225 168.25940871 -276.05260808 172.87121984 -278.79296875 177.46875 C-279.26387939 178.26104004 -279.73479004 179.05333008 -280.2199707 179.86962891 C-281.09082749 181.33261763 -281.96544463 182.79337702 -282.84448242 184.25146484 C-284.97265198 187.52302649 -284.97265198 187.52302649 -285.6875 191.25 C-272.70195455 188.41859607 -259.76515445 185.40273185 -246.84106445 182.3034668 C-243.70248701 181.55111054 -240.56319267 180.80179876 -237.42382812 180.05273438 C-235.41922818 179.57309489 -233.41466928 179.09328382 -231.41015625 178.61328125 C-230.47591324 178.39037918 -229.54167023 178.16747711 -228.57911682 177.93782043 C-227.71648727 177.73057846 -226.85385773 177.52333649 -225.96508789 177.30981445 C-225.20885635 177.12868607 -224.45262482 176.94755768 -223.67347717 176.76094055 C-221.99161792 176.32824167 -220.33501054 175.79917018 -218.6875 175.25 C-217.64524183 172.87318832 -217.64524183 172.87318832 -216.92578125 169.9140625 C-216.46051025 168.23691162 -216.46051025 168.23691162 -215.98583984 166.52587891 C-215.6605127 165.32108887 -215.33518555 164.11629883 -215 162.875 C-211.70685408 151.22244782 -207.7558312 140.23360138 -202.6875 129.25 C-202.16704102 128.11916992 -201.64658203 126.98833984 -201.11035156 125.82324219 C-199.63886833 122.63085715 -198.16441817 119.4398735 -196.6875 116.25 C-203.12804726 116.0213589 -209.56754575 115.86402177 -216.01123047 115.75561523 C-218.20173239 115.71041852 -220.39196372 115.64904562 -222.58154297 115.57104492 C-225.73472768 115.4615494 -228.88432056 115.41077081 -232.0390625 115.37109375 C-233.01428864 115.32464218 -233.98951477 115.27819061 -234.99429321 115.23033142 C-242.98083622 115.22443346 -245.24264756 118.36447387 -248.6875 125.25 Z M-212.6875 191.25 C-214.35604737 193.39263648 -215.96931903 195.55201289 -217.5625 197.75 C-218.04630127 198.41330322 -218.53010254 199.07660645 -219.02856445 199.76000977 C-224.39377086 207.15608909 -229.55322748 214.6925892 -234.6875 222.25 C-233.32636987 225.29581486 -231.79419904 227.38839026 -229.43115234 229.73339844 C-228.77061859 230.39378113 -228.11008484 231.05416382 -227.42953491 231.73455811 C-226.71802277 232.43574768 -226.00651062 233.13693726 -225.2734375 233.859375 C-224.54379791 234.58618469 -223.81415833 235.31299438 -223.06240845 236.06182861 C-220.7337612 238.37929198 -218.39825174 240.6896995 -216.0625 243 C-214.48131347 244.57115444 -212.90057875 246.14276371 -211.3203125 247.71484375 C-207.4479331 251.56518653 -203.56989829 255.40976117 -199.6875 259.25 C-193.50804839 257.02464519 -188.53010762 253.18266127 -183.1875 249.4375 C-182.15496094 248.72529297 -181.12242187 248.01308594 -180.05859375 247.27929688 C-179.05957031 246.58255859 -178.06054688 245.88582031 -177.03125 245.16796875 C-176.12568359 244.53656982 -175.22011719 243.9051709 -174.28710938 243.25463867 C-171.51194629 241.11462514 -169.11291051 238.77519352 -166.6875 236.25 C-172.5345737 230.37980414 -178.38430762 224.51227795 -184.2375021 218.64818573 C-186.95499092 215.9254678 -189.67153744 213.20182313 -192.38598633 210.47607422 C-195.00329484 207.84793782 -197.62300515 205.22221823 -200.24443245 202.59819031 C-201.2464889 201.59427943 -202.24766165 200.58948573 -203.24795341 199.58381653 C-204.64403134 198.18052954 -206.04348681 196.78060515 -207.44311523 195.38085938 C-208.24031479 194.58143921 -209.03751434 193.78201904 -209.85887146 192.95837402 C-211.39220698 191.13622143 -211.39220698 191.13622143 -212.6875 191.25 Z M-99.4140625 224.9375 C-116.939516 233.22142917 -135.0591778 239.01796066 -153.6875 244.25 C-155.34620662 250.95255133 -156.99964618 257.65638701 -158.6496582 264.36108398 C-159.21000757 266.63546211 -159.77150341 268.90955812 -160.33422852 271.18334961 C-163.37971862 283.49254384 -166.39460381 295.77496046 -168.6875 308.25 C-164.87787936 306.825794 -161.44346032 305.07091117 -157.91796875 303.046875 C-156.79366455 302.40314941 -155.66936035 301.75942383 -154.51098633 301.09619141 C-153.29890968 300.39760181 -152.08691622 299.69886787 -150.875 299 C-149.61948792 298.27895447 -148.36387132 297.5580909 -147.1081543 296.83740234 C-136.1730695 290.55489331 -125.27208318 284.2136833 -114.39257812 277.83544922 C-111.74743574 276.2851284 -109.10043626 274.73801984 -106.453125 273.19140625 C-104.88530884 272.27362168 -103.31759373 271.35566444 -101.75 270.4375 C-101.03948486 270.02258301 -100.32896973 269.60766602 -99.59692383 269.18017578 C-96.46235348 267.46014751 -96.46235348 267.46014751 -93.6875 265.25 C-93.59875865 262.14748799 -93.57231545 259.0673188 -93.58984375 255.96484375 C-93.5912587 255.03402481 -93.59267365 254.10320587 -93.59413147 253.1441803 C-93.59974828 250.15858809 -93.6123036 247.17306971 -93.625 244.1875 C-93.63001284 242.16862087 -93.63457612 240.14974057 -93.63867188 238.13085938 C-93.64972317 233.17054428 -93.66699905 228.21028468 -93.6875 223.25 C-96.075248 223.25 -97.26693414 223.899576 -99.4140625 224.9375 Z " fill="#000000" transform="translate(313.6875,174.75)"/>
<path d="M0 0 C15.29133465 14.76196344 26.16089609 36.30099454 26.59521484 57.7331543 C26.80178951 70.69875261 26.72948118 82.50031819 22.35693359 94.8034668 C21.98310547 95.86178711 21.60927734 96.92010742 21.22412109 98.01049805 C16.20925983 110.94618322 9.05983379 121.08709035 -0.64306641 130.8034668 C-1.44744141 131.61944336 -2.25181641 132.43541992 -3.08056641 133.27612305 C-11.72509993 141.565207 -21.79282876 146.94031423 -32.89306641 151.1784668 C-33.51777832 151.41718506 -34.14249023 151.65590332 -34.78613281 151.90185547 C-53.05233431 158.48673776 -75.40303216 158.28598768 -93.64306641 151.8034668 C-94.70138672 151.42963867 -95.75970703 151.05581055 -96.85009766 150.6706543 C-109.78578283 145.65579304 -119.92668996 138.50636699 -129.64306641 128.8034668 C-130.45904297 127.9990918 -131.27501953 127.1947168 -132.11572266 126.3659668 C-148.39665927 109.38687681 -155.88588137 86.01554366 -155.64306641 62.8034668 C-154.82978962 41.27354665 -147.21109307 20.83614246 -132.64306641 4.8034668 C-131.83224609 3.89983398 -131.02142578 2.99620117 -130.18603516 2.06518555 C-114.23454577 -14.82050527 -92.26900715 -24.82020302 -69.08056641 -26.13012695 C-42.45373408 -26.64450894 -19.62401799 -18.27944354 0 0 Z M-121.64306641 11.8034668 C-135.58039044 27.41157778 -142.81710784 46.918495 -142.64306641 67.8034668 C-141.45846862 88.11085747 -133.52679592 107.67087877 -118.64306641 121.8034668 C-102.79627787 135.90110405 -83.0861057 144.68745168 -61.59179688 143.71020508 C-37.75246484 142.00778415 -18.43178381 131.74519112 -2.64306641 113.8034668 C-0.04447459 110.26958415 2.20442218 106.62279475 4.35693359 102.8034668 C4.81841797 102.01456055 5.27990234 101.2256543 5.75537109 100.4128418 C14.85397186 83.75964525 16.21649749 62.93594581 11.79443359 44.6159668 C8.23440401 33.52221265 2.93724653 23.6748306 -4.64306641 14.8034668 C-5.40619141 13.7928418 -6.16931641 12.7822168 -6.95556641 11.7409668 C-20.93741553 -3.54151946 -40.22429235 -11.53626881 -60.64306641 -13.1965332 C-84.12326288 -13.77305588 -105.1471568 -4.64339649 -121.64306641 11.8034668 Z " fill="#000000" transform="translate(481.64306640625,352.196533203125)"/>
<path d="M0 0 C19.43931513 15.5780813 33.95592728 36.534391 36.92919922 61.80419922 C39.42422339 86.31221567 34.07428421 110.25338895 18.875 130 C17.50418938 131.60504622 16.10696824 133.18782041 14.6875 134.75 C13.87667969 135.65363281 13.06585938 136.55726563 12.23046875 137.48828125 C-4.28522682 154.97122107 -27.06082322 164.92434257 -51.07421875 165.74609375 C-74.450864 166.04572449 -96.88371203 158.58659853 -114.3125 142.75 C-115.21613281 141.93917969 -116.11976562 141.12835938 -117.05078125 140.29296875 C-133.40348904 124.84497508 -143.66166958 103.77102398 -144.6953125 81.22265625 C-145.02157549 68.52329166 -144.58913767 56.78328443 -140.3125 44.75 C-139.93867188 43.69167969 -139.56484375 42.63335937 -139.1796875 41.54296875 C-134.16482624 28.60728358 -127.0154002 18.46637645 -117.3125 8.75 C-116.508125 7.93402344 -115.70375 7.11804688 -114.875 6.27734375 C-106.23046648 -2.0117402 -96.16273764 -7.38684744 -85.0625 -11.625 C-84.43778809 -11.86371826 -83.81307617 -12.10243652 -83.16943359 -12.34838867 C-55.69097612 -22.2542472 -23.50190338 -16.86139162 0 0 Z M-107.9375 18.1875 C-108.72125 19.033125 -109.505 19.87875 -110.3125 20.75 C-110.92738281 21.39453125 -111.54226562 22.0390625 -112.17578125 22.703125 C-128.54258669 40.33365741 -132.35080645 60.50511977 -131.50341797 83.79248047 C-130.51730104 99.06846579 -123.12133097 113.27056521 -113.3125 124.75 C-112.549375 125.760625 -111.78625 126.77125 -111 127.8125 C-97.19796248 142.89844799 -77.59341769 151.51550936 -57.3125 152.75 C-37.14479781 152.91134162 -18.71663388 146.95354333 -3.3125 133.75 C-2.72339844 133.30398437 -2.13429687 132.85796875 -1.52734375 132.3984375 C12.79482948 121.24084469 21.42123177 102.38036009 23.9765625 84.75634766 C26.67459028 62.27459597 20.04678545 41.72453724 6.52734375 23.90234375 C-7.2360476 7.74097496 -26.70507304 -1.82555595 -47.6875 -4.125 C-70.63195 -5.28210018 -91.14902115 2.59819821 -107.9375 18.1875 Z " fill="#000000" transform="translate(148.3125,20.25)"/>
<path d="M0 0 C1.05832031 0.37382812 2.11664063 0.74765625 3.20703125 1.1328125 C16.14271642 6.14767376 26.28362355 13.2970998 36 23 C37.22396484 24.2065625 37.22396484 24.2065625 38.47265625 25.4375 C46.7617402 34.08203352 52.13684744 44.14976236 56.375 55.25 C56.61371826 55.87471191 56.85243652 56.49942383 57.09838867 57.14306641 C63.68327096 75.4092679 63.48252088 97.75996575 57 116 C56.62617188 117.05832031 56.25234375 118.11664063 55.8671875 119.20703125 C50.85232624 132.14271642 43.7029002 142.28362355 34 152 C33.195625 152.81597656 32.39125 153.63195312 31.5625 154.47265625 C14.9510299 170.40108892 -8.21608373 178.24398361 -31 178 C-52.99157171 177.18837735 -73.56775006 169.93109823 -90 155 C-90.90363281 154.18917969 -91.80726563 153.37835938 -92.73828125 152.54296875 C-110.53295205 135.73278873 -120.21215929 112.76727151 -120.99609375 88.39453125 C-121.27692208 65.38192614 -113.55806579 43.12225194 -98 26 C-97.18917969 25.09636719 -96.37835938 24.19273438 -95.54296875 23.26171875 C-71.52951519 -2.15808641 -33.17051183 -11.78882302 0 0 Z M-84.01953125 29.91796875 C-99.3332413 46.01699727 -107.84518362 65.42203413 -108.03125 87.75 C-107.25795762 106.3090171 -101.079582 122.90715434 -89 137 C-88.55398438 137.58910156 -88.10796875 138.17820313 -87.6484375 138.78515625 C-76.49084469 153.10732948 -57.63036009 161.73373177 -40.00634766 164.2890625 C-17.62587079 166.97493633 2.8764711 160.4148221 20.66015625 146.9921875 C34.93492751 134.89658372 45.12484177 117.54727386 48 99 C49.69743292 77.31454339 46.80299354 57.38137648 33.1875 39.75 C31.81491851 38.1464679 30.41843364 36.56311904 29 35 C28.26136719 34.16855469 27.52273438 33.33710937 26.76171875 32.48046875 C12.6676764 17.46373951 -5.86245419 9.3285868 -26.3515625 8.0390625 C-47.80286784 7.80939114 -68.34976951 15.01258563 -84.01953125 29.91796875 Z " fill="#000000" transform="translate(447,8)"/>
<path d="M0 0 C15.08969165 11.70391596 24.33053115 27.12170275 27.1328125 46 C29.10483397 64.33641423 24.28769818 82.06392418 12.9453125 96.6875 C0.89246536 110.67525237 -14.58532987 119.24893938 -32.98291016 121.22753906 C-51.17869686 122.55863181 -68.47804844 117.47505123 -82.6171875 105.8125 C-95.80073151 94.41350096 -104.44910943 78.49893998 -106.04736328 61.03076172 C-107.35875112 41.14372967 -101.45868728 23.7799033 -88.37109375 8.56640625 C-64.8615804 -15.52992802 -27.55619216 -19.22175802 0 0 Z M-80.8671875 20 C-90.10054185 31.94904681 -94.39721507 45.92639504 -92.8671875 61 C-90.51669506 76.19078586 -83.11010514 89.22485163 -70.6484375 98.359375 C-64.68525954 102.17692351 -58.78422187 105.36531024 -51.8671875 107 C-51.10664062 107.18175781 -50.34609375 107.36351562 -49.5625 107.55078125 C-34.96765049 109.98325617 -21.35477219 106.73740542 -8.8671875 99 C3.38988091 89.77076751 11.71959318 77.29889984 14.1328125 62 C15.12752506 45.43421004 11.5211832 31.12082855 0.5703125 18.25 C-9.30146218 7.96194566 -21.66366835 1.75660129 -35.875 0.796875 C-53.69652112 0.5288822 -68.8317922 6.65198863 -80.8671875 20 Z " fill="#000000" transform="translate(133.8671875,40)"/>
<path d="M0 0 C13.18339418 11.34117316 21.83978919 27.39954556 23.43017578 44.78173828 C24.68348043 63.78794607 19.37681655 81.6482933 6.9375 96.25 C-5.94202049 109.57211569 -22.58253857 117.51877623 -41.12207031 118.28735352 C-60.00471752 118.51049632 -77.02212529 111.88077712 -90.75 98.8125 C-103.81131815 85.09193551 -110.46474911 68.05909547 -110.22265625 49.18017578 C-109.433052 30.46569671 -101.59609057 14.42096104 -88.25390625 1.37109375 C-62.58903449 -21.16670597 -26.4864963 -20.27814973 0 0 Z M-84.75 16.8125 C-94.44674694 30.04117463 -97.70724934 42.5215343 -96.75 58.8125 C-94.46978047 73.32474463 -86.5838641 85.94455364 -75.046875 94.9140625 C-62.21247135 103.53144781 -48.03537919 106.69764271 -32.74609375 104.3515625 C-17.69492132 100.62710935 -5.62492409 92.33199821 2.75 79.25 C9.98498239 66.67385475 12.32020725 53.05325126 9.125 38.75 C4.60502523 22.91967362 -4.36450739 11.61081575 -18.6328125 3.40234375 C-41.29507808 -8.15597967 -68.01434617 -1.87393557 -84.75 16.8125 Z " fill="#000000" transform="translate(460.75,43.1875)"/>
<path d="M0 0 C14.81665562 11.49214286 24.74546597 27.26359284 27.1328125 46 C28.90164392 65.72738375 23.71826338 82.55084887 11.5078125 98.25 C-0.57798899 112.13308304 -17.33613893 119.89041156 -35.6015625 121.28515625 C-53.81861585 121.71979549 -70.75886471 116.14213377 -84.62890625 104.18359375 C-98.42787954 90.72176815 -106.11978777 73.79276137 -106.3671875 54.5 C-106.13495885 36.39031222 -99.36636715 20.13005307 -86.8671875 7 C-63.07682295 -15.64728397 -27.09167865 -18.8977377 0 0 Z M-80.8671875 20 C-90.48016214 32.36464396 -93.74925375 45.56384055 -92.8671875 61 C-90.84025905 74.896484 -84.30145605 86.65502322 -73.8671875 96 C-61.15514438 105.31805102 -48.60421354 109.1988507 -32.8671875 108 C-17.68104047 105.28818803 -4.7887245 98.48332828 4.43359375 85.84765625 C12.63099499 73.00456143 15.9482143 60.16934599 13.671875 44.91015625 C10.33496276 29.97256673 2.48676733 17.65104824 -10.3046875 9.0625 C-34.21880171 -5.08244415 -62.16606768 -0.41194781 -80.8671875 20 Z " fill="#000000" transform="translate(456.8671875,363)"/>
<path d="M0 0 C10.60760351 8.2374671 16.6428526 16.92855201 19.6875 29.9375 C21.06957768 43.48186127 18.45557526 55.35414027 10.25 66.34375 C3.24665487 74.81553846 -6.26001941 80.85867765 -17.31079102 82.30175781 C-19.65363299 82.43590421 -21.9661078 82.46813868 -24.3125 82.4375 C-25.55362549 82.42505249 -25.55362549 82.42505249 -26.81982422 82.41235352 C-40.68991001 82.03240673 -49.81294882 76.59199927 -59.25 66.75 C-68.33946155 56.17284215 -69.72421097 44.62523892 -69.17041016 31.22216797 C-68.33284819 20.30026393 -62.42711765 10.89262879 -54.421875 3.67578125 C-38.84511025 -8.36283265 -16.98336907 -11.44387174 0 0 Z M-49.75390625 18.17578125 C-55.75539714 26.78032843 -56.94707118 34.5939093 -56 45 C-55.0980463 48.32504013 -53.78487572 51.06434914 -52 54 C-51.649375 54.62390625 -51.29875 55.2478125 -50.9375 55.890625 C-46.6331789 62.76558232 -39.71565806 66.89226152 -32 69 C-21.73794794 70.21003788 -13.48746462 69.07314184 -5 63 C2.80246346 56.03080934 6.54313404 48.73877298 7.25 38.3125 C7.06553861 28.51760019 3.05450842 21.12422578 -3.69921875 14.27734375 C-10.25867367 8.27802206 -17.75512619 5.57084177 -26.6953125 5.72265625 C-35.66159501 6.80164957 -44.08747172 11.1463736 -49.75390625 18.17578125 Z " fill="#000000" transform="translate(230,270)"/>
<path d="M0 0 C1.9375 1.625 1.9375 1.625 3 4 C3.1875 7.25 3.1875 7.25 3 10 C3.886875 10.2475 4.77375 10.495 5.6875 10.75 C11.66911728 13.00721407 14.66466675 16.20071854 17.26953125 21.91015625 C18.39664887 25.13479757 18.51746525 27.63647585 18 31 C16.4375 33.5 16.4375 33.5 14 35 C10.5 35.3125 10.5 35.3125 7 34 C5.66897056 31.76282999 4.8254262 29.60217008 4.01953125 27.12890625 C3.159375 24.87790416 3.159375 24.87790416 1.109375 23.703125 C-2.16583343 22.61138886 -4.68913697 23.21743237 -8 24 C-10.08984231 25.08674994 -10.08984231 25.08674994 -11 27 C-10.71894787 28.67627521 -10.38929201 30.34550895 -10 32 C-9.45585449 32.16081055 -8.91170898 32.32162109 -8.35107422 32.48730469 C-5.85582106 33.2311586 -3.36551205 33.99043034 -0.875 34.75 C0.40890625 35.12898438 0.40890625 35.12898438 1.71875 35.515625 C9.13402018 37.79724659 14.44954585 40.42712178 19 47 C20.93968693 52.8190608 20.76476232 59.46672482 19 65.3125 C14.81091036 70.94158921 9.99687282 75.42570362 3 77 C3.12375 78.36125 3.12375 78.36125 3.25 79.75 C3 83 3 83 1.4375 85.4375 C-1 87 -1 87 -4.625 86.9375 C-8 86 -8 86 -10 83 C-10.125 79.8125 -10.125 79.8125 -10 77 C-11.299375 76.62875 -11.299375 76.62875 -12.625 76.25 C-18.98944855 73.89279683 -22.61641594 70.88994262 -26 65 C-26.92015848 62.23952457 -27.19267245 60.36637731 -27.25 57.5 C-27.27578125 56.7265625 -27.3015625 55.953125 -27.328125 55.15625 C-26.91759322 52.45846973 -26.1718046 51.60855621 -24 50 C-19.92205575 49.57521414 -18.46923881 49.68717413 -15 52 C-14.26171875 54.05859375 -14.26171875 54.05859375 -13.6875 56.4375 C-12.61124962 59.88261075 -12.24643808 60.80514199 -9.3125 63.125 C-4.90876457 64.28825087 -2.44943169 64.07647541 2 63 C4.60720318 61.47722993 4.60720318 61.47722993 6 59 C6.75015195 55.95691709 6.75015195 55.95691709 6 53 C2.30289666 50.25632406 -1.45233671 49.18994042 -5.875 48.0625 C-13.60172204 45.92876086 -19.37269068 43.94096398 -24 37 C-25.87904976 31.36285071 -25.90143313 25.26775589 -23.5625 19.75 C-20.94331279 15.09786964 -16.67871538 12.38451903 -12 10 C-11.34 10 -10.68 10 -10 10 C-10.061875 8.906875 -10.12375 7.81375 -10.1875 6.6875 C-10 3 -10 3 -8.9375 1.0625 C-5.84506242 -0.63335287 -3.44485259 -0.43060657 0 0 Z " fill="#000000" transform="translate(421,374)"/>
<path d="M0 0 C3.4375 0.8125 3.4375 0.8125 5.4375 3.8125 C5.47875 4.781875 5.52 5.75125 5.5625 6.75 C6.07591642 9.84659934 6.07591642 9.84659934 8.1015625 10.84375 C9.52024222 11.46010523 10.9409013 12.07192012 12.36328125 12.6796875 C16.69262954 15.04411501 18.92054409 19.26163228 20.4375 23.8125 C20.69787027 27.39259121 20.82900804 29.96423258 19.3125 33.25 C17.4375 34.8125 17.4375 34.8125 14.5 35.3125 C10.72447828 34.69608829 9.69006502 33.86955252 7.4375 30.8125 C7.1075 29.78125 6.7775 28.75 6.4375 27.6875 C5.70232189 24.79252801 5.70232189 24.79252801 3.75 23.375 C0.37552725 22.5541823 -2.20566171 23.01906549 -5.5625 23.8125 C-7.65234231 24.89924994 -7.65234231 24.89924994 -8.5625 26.8125 C-8.28144787 28.48877521 -7.95179201 30.15800895 -7.5625 31.8125 C-6.74007812 32.05484375 -5.91765625 32.2971875 -5.0703125 32.546875 C-1.55630886 33.60188764 1.9424328 34.69639567 5.4375 35.8125 C6.38753906 36.11285156 7.33757812 36.41320312 8.31640625 36.72265625 C14.23828795 38.81113667 18.05875592 41.43892547 21.4375 46.8125 C23.46264522 52.88793566 23.53796489 60.26485531 20.9375 66.1875 C17.90786726 71.35189176 13.15882579 75.01877998 7.4375 76.6875 C6.7775 76.72875 6.1175 76.77 5.4375 76.8125 C5.499375 77.905625 5.56125 78.99875 5.625 80.125 C5.4375 83.8125 5.4375 83.8125 4.375 85.75 C1.28256242 87.44585287 -1.11764741 87.24310657 -4.5625 86.8125 C-6.5 85.1875 -6.5 85.1875 -7.5625 82.8125 C-7.75 79.5625 -7.75 79.5625 -7.5625 76.8125 C-8.861875 76.44125 -8.861875 76.44125 -10.1875 76.0625 C-16.55194855 73.70529683 -20.17891594 70.70244262 -23.5625 64.8125 C-24.48265848 62.05202457 -24.75517245 60.17887731 -24.8125 57.3125 C-24.83828125 56.5390625 -24.8640625 55.765625 -24.890625 54.96875 C-24.48017195 52.27148708 -23.72614242 51.42889796 -21.5625 49.8125 C-18.01508485 49.28416157 -16.28510736 49.31068934 -13.3125 51.375 C-11.5625 53.8125 -11.5625 53.8125 -10.6875 57.375 C-9.87092431 60.96989955 -9.87092431 60.96989955 -6.9375 62.8125 C-2.47015262 64.13615848 -0.10614522 63.911769 4.4375 62.8125 C7.04470318 61.28972993 7.04470318 61.28972993 8.4375 58.8125 C9.18765195 55.76941709 9.18765195 55.76941709 8.4375 52.8125 C3.59231167 49.15575409 -2.069818 48.32492133 -7.87109375 46.97265625 C-13.89873956 45.07825328 -18.03171607 42.04329101 -21.5625 36.8125 C-23.61265555 31.85795742 -22.97173632 26.27040439 -21.5625 21.25 C-18.54536531 16.06429975 -14.33420855 11.73640285 -8.5625 9.8125 C-7.86998793 7.99981595 -7.86998793 7.99981595 -7.5625 5.875 C-7.1875 3.72265625 -7.1875 3.72265625 -6.5625 1.8125 C-3.5625 -0.1875 -3.5625 -0.1875 0 0 Z " fill="#000000" transform="translate(95.5625,51.1875)"/>
<path d="M0 0 C3.4375 0.8125 3.4375 0.8125 5.4375 3.8125 C5.56125 5.2975 5.56125 5.2975 5.6875 6.8125 C5.935 7.8025 6.1825 8.7925 6.4375 9.8125 C8.41827953 10.85005118 10.42279902 11.84245879 12.4375 12.8125 C16.92902803 16.57221084 19.77345298 20.17987414 20.625 26.0625 C20.72674802 29.36931071 20.60059601 30.5384987 18.875 33.4375 C15.77476554 35.18635021 13.94605014 35.33505002 10.4375 34.8125 C7.54109248 33.05396686 7.3765517 31.58089648 6.5 28.25 C5.77456771 24.85137451 5.77456771 24.85137451 3.75 23.3125 C-0.30633663 22.43545424 -4.0214483 22.84934269 -7.5625 25.0625 C-8.98023857 27.54354251 -8.1978867 29.11210652 -7.5625 31.8125 C-6.65540283 32.09130005 -6.65540283 32.09130005 -5.72998047 32.37573242 C-2.96104237 33.23588982 -0.19946065 34.11770702 2.5625 35 C3.51382812 35.29197266 4.46515625 35.58394531 5.4453125 35.88476562 C12.32291284 38.1056574 16.95458748 40.41918622 21.3125 46.375 C23.34889241 52.59731015 23.39005801 59.05509523 21.25 65.25 C17.41891617 70.6663599 13.26786659 73.84231324 7.4375 76.8125 C6.7775 76.8125 6.1175 76.8125 5.4375 76.8125 C5.499375 77.72 5.56125 78.6275 5.625 79.5625 C5.4375 82.8125 5.4375 82.8125 4.375 85.1875 C2.4375 86.8125 2.4375 86.8125 -1.0625 87.3125 C-4.5625 86.8125 -4.5625 86.8125 -6.5 85.1875 C-7.81316255 82.25219547 -7.77941118 79.99386394 -7.5625 76.8125 C-8.59375 76.585625 -9.625 76.35875 -10.6875 76.125 C-16.40859837 74.4491227 -20.04195907 71.16271596 -22.9375 66.0625 C-24.86421631 61.81405024 -25.5688773 57.40919632 -24.5625 52.8125 C-23.22265625 51.0703125 -23.22265625 51.0703125 -21.5625 49.8125 C-17.48455575 49.38771414 -16.03173881 49.49967413 -12.5625 51.8125 C-11.82421875 53.87109375 -11.82421875 53.87109375 -11.25 56.25 C-10.17374962 59.69511075 -9.80893808 60.61764199 -6.875 62.9375 C-2.47126457 64.10075087 -0.01193169 63.88897541 4.4375 62.8125 C7.04470318 61.28972993 7.04470318 61.28972993 8.4375 58.8125 C9.18765195 55.76941709 9.18765195 55.76941709 8.4375 52.8125 C3.59231167 49.15575409 -2.069818 48.32492133 -7.87109375 46.97265625 C-13.93925066 45.06552122 -17.95565779 42.02238319 -21.5625 36.8125 C-23.46445321 31.10664036 -23.46502212 25.04103262 -21 19.5 C-18.16815187 14.5038108 -13.93910152 11.60470051 -8.5625 9.8125 C-7.86998793 7.99981595 -7.86998793 7.99981595 -7.5625 5.875 C-7.1875 3.72265625 -7.1875 3.72265625 -6.5625 1.8125 C-3.5625 -0.1875 -3.5625 -0.1875 0 0 Z " fill="#000000" transform="translate(418.5625,51.1875)"/>
<path d="M0 0 C2.04764449 3.07146673 2.48972613 4.36102731 1.83230591 7.94998169 C-0.08947689 12.68344555 -4.22198738 16.11331651 -7.78515625 19.65234375 C-8.67480576 20.55247696 -9.56445526 21.45261017 -10.48106384 22.38002014 C-12.36462292 24.2764128 -14.25327098 26.16529487 -16.15307617 28.04516602 C-18.5792562 30.44835004 -20.9722402 32.88180863 -23.35755253 35.32547665 C-25.6479885 37.66154476 -27.96805625 39.96776744 -30.28515625 42.27734375 C-31.56375267 43.58964211 -31.56375267 43.58964211 -32.86817932 44.92845154 C-39.61946873 51.52470533 -39.61946873 51.52470533 -44.48217773 51.67016602 C-48 51 -48 51 -50 49 C-50.63630207 45.71380767 -50.83998042 44.15094548 -50 41 C-47.46137462 37.33052886 -44.31677726 34.36262388 -41.1015625 31.28515625 C-39.74362076 29.94063637 -39.74362076 29.94063637 -38.35824585 28.56895447 C-35.95615344 26.19850086 -33.53803821 23.84716741 -31.11053467 21.50292969 C-29.12930617 19.58185681 -27.1650309 17.64394789 -25.20147133 15.70484257 C-21.14842597 11.70237579 -17.08222581 7.7133936 -12.99072266 3.75024414 C-12.26680328 3.0482338 -11.54288391 2.34622345 -10.79702759 1.62294006 C-7.15800856 -1.66354803 -4.67893287 -1.00262847 0 0 Z " fill="#000000" transform="translate(73,439)"/>
<path d="M0 0 C1.70703125 1.16796875 1.70703125 1.16796875 3 3 C3.29296875 5.69921875 3.29296875 5.69921875 3.1875 8.6875 C3.16042969 9.68136719 3.13335937 10.67523438 3.10546875 11.69921875 C3.07066406 12.45847656 3.03585937 13.21773438 3 14 C3.75925781 13.96519531 4.51851563 13.93039062 5.30078125 13.89453125 C6.79158203 13.85392578 6.79158203 13.85392578 8.3125 13.8125 C9.29863281 13.77769531 10.28476562 13.74289062 11.30078125 13.70703125 C14 14 14 14 15.828125 15.29296875 C17.81052556 18.18066557 17.42142513 20.62859899 17 24 C14.81735287 26.19268229 13.51205282 26.94181218 10.421875 27.29296875 C9.54015625 27.25816406 8.6584375 27.22335937 7.75 27.1875 C6.85796875 27.16042969 5.9659375 27.13335937 5.046875 27.10546875 C4.37140625 27.07066406 3.6959375 27.03585937 3 27 C3.05220703 28.13888672 3.05220703 28.13888672 3.10546875 29.30078125 C3.13253906 30.29464844 3.15960938 31.28851563 3.1875 32.3125 C3.23970703 33.79169922 3.23970703 33.79169922 3.29296875 35.30078125 C3 38 3 38 1.70703125 39.828125 C-1.18066557 41.81052556 -3.62859899 41.42142513 -7 41 C-9.19268229 38.81735287 -9.94181218 37.51205282 -10.29296875 34.421875 C-10.25816406 33.54015625 -10.22335937 32.6584375 -10.1875 31.75 C-10.16042969 30.85796875 -10.13335937 29.9659375 -10.10546875 29.046875 C-10.07066406 28.37140625 -10.03585937 27.6959375 -10 27 C-11.01320313 27.05220703 -11.01320313 27.05220703 -12.046875 27.10546875 C-12.93890625 27.13253906 -13.8309375 27.15960938 -14.75 27.1875 C-16.07257813 27.23970703 -16.07257813 27.23970703 -17.421875 27.29296875 C-20.51205282 26.94181218 -21.81735287 26.19268229 -24 24 C-24.74021854 18.07825167 -24.74021854 18.07825167 -22.828125 15.29296875 C-20.26467627 13.47993129 -18.41545627 13.7029839 -15.3125 13.8125 C-14.31863281 13.83957031 -13.32476562 13.86664063 -12.30078125 13.89453125 C-11.16189453 13.94673828 -11.16189453 13.94673828 -10 14 C-10.03480469 13.24074219 -10.06960938 12.48148437 -10.10546875 11.69921875 C-10.14607422 10.20841797 -10.14607422 10.20841797 -10.1875 8.6875 C-10.23970703 7.20830078 -10.23970703 7.20830078 -10.29296875 5.69921875 C-10 3 -10 3 -8.70703125 1.16796875 C-5.85199133 -0.78547961 -3.33623765 -0.35745403 0 0 Z " fill="#000000" transform="translate(287,397)"/>
<path d="M0 0 C2.20914 3.31371 2.22481553 4.3446021 2.125 8.1875 C2.10695313 9.08855469 2.08890625 9.98960937 2.0703125 10.91796875 C2.04710938 11.60503906 2.02390625 12.29210937 2 13 C2.90492187 12.96519531 2.90492187 12.96519531 3.828125 12.9296875 C5.02695313 12.90261719 5.02695313 12.90261719 6.25 12.875 C7.03890625 12.85179687 7.8278125 12.82859375 8.640625 12.8046875 C11.24614317 13.02037609 12.79986977 13.6078822 15 15 C16.39935013 17.79870027 16.25265405 19.90498792 16 23 C14.83984375 24.6796875 14.83984375 24.6796875 13 26 C10.30078125 26.29296875 10.30078125 26.29296875 7.3125 26.1875 C5.82169922 26.14689453 5.82169922 26.14689453 4.30078125 26.10546875 C3.54152344 26.07066406 2.78226563 26.03585938 2 26 C2.05800781 26.74765625 2.11601563 27.4953125 2.17578125 28.265625 C2.54299299 36.2813328 2.54299299 36.2813328 -0.125 39.8125 C-3 41 -3 41 -6.1875 40.375 C-9 39 -9 39 -11 37 C-11.1953125 34.3984375 -11.1953125 34.3984375 -11.125 31.375 C-11.10695313 30.37210938 -11.08890625 29.36921875 -11.0703125 28.3359375 C-11.04710938 27.56507813 -11.02390625 26.79421875 -11 26 C-12.13888672 26.05220703 -12.13888672 26.05220703 -13.30078125 26.10546875 C-14.29464844 26.13253906 -15.28851563 26.15960938 -16.3125 26.1875 C-17.29863281 26.22230469 -18.28476563 26.25710937 -19.30078125 26.29296875 C-22 26 -22 26 -23.8359375 24.67578125 C-25.62432877 22.10121798 -25.31745118 20.04753132 -25 17 C-23 14 -23 14 -20 13 C-18.43881572 12.93259135 -16.8749748 12.91485544 -15.3125 12.9375 C-14.10013672 12.95103516 -14.10013672 12.95103516 -12.86328125 12.96484375 C-11.94095703 12.98224609 -11.94095703 12.98224609 -11 13 C-11.04640625 12.32453125 -11.0928125 11.6490625 -11.140625 10.953125 C-11.43233895 3.743623 -11.43233895 3.743623 -9.4375 0.3125 C-5.93248628 -1.57481508 -3.76636515 -1.04621254 0 0 Z " fill="#000000" transform="translate(99,210)"/>
<path d="M0 0 C2.28062828 3.42094242 2.21925007 4.68187222 2.125 8.6875 C2.10695313 9.68136719 2.08890625 10.67523438 2.0703125 11.69921875 C2.04710937 12.45847656 2.02390625 13.21773437 2 14 C2.75925781 13.96519531 3.51851563 13.93039063 4.30078125 13.89453125 C5.79158203 13.85392578 5.79158203 13.85392578 7.3125 13.8125 C8.29863281 13.77769531 9.28476562 13.74289063 10.30078125 13.70703125 C13 14 13 14 14.83203125 15.32421875 C16.64548905 17.92613646 16.38474673 19.92202612 16 23 C14.83203125 24.67578125 14.83203125 24.67578125 13 26 C10.30078125 26.29296875 10.30078125 26.29296875 7.3125 26.1875 C5.82169922 26.14689453 5.82169922 26.14689453 4.30078125 26.10546875 C3.54152344 26.07066406 2.78226562 26.03585937 2 26 C2.02320313 26.75925781 2.04640625 27.51851563 2.0703125 28.30078125 C2.09738281 29.79158203 2.09738281 29.79158203 2.125 31.3125 C2.14820313 32.29863281 2.17140625 33.28476562 2.1953125 34.30078125 C2 37 2 37 0 40 C-3.73588519 41.03774589 -5.92821869 41.54963144 -9.4375 39.75 C-11.91791868 35.38446313 -11.30461555 30.90769501 -11 26 C-11.84304688 26.03480469 -12.68609375 26.06960938 -13.5546875 26.10546875 C-14.65039062 26.13253906 -15.74609375 26.15960938 -16.875 26.1875 C-18.51082031 26.23970703 -18.51082031 26.23970703 -20.1796875 26.29296875 C-21.11039062 26.19628906 -22.04109375 26.09960938 -23 26 C-25.31332486 22.53001271 -25.33957563 21.07490752 -25 17 C-24.01 15.515 -24.01 15.515 -23 14 C-20.1796875 13.70703125 -20.1796875 13.70703125 -16.875 13.8125 C-15.23144531 13.85310547 -15.23144531 13.85310547 -13.5546875 13.89453125 C-12.71164062 13.92933594 -11.86859375 13.96414062 -11 14 C-11.04640625 13.25234375 -11.0928125 12.5046875 -11.140625 11.734375 C-11.43281527 3.76175487 -11.43281527 3.76175487 -9.4375 0.25 C-5.92821869 -1.54963144 -3.73588519 -1.03774589 0 0 Z " fill="#000000" transform="translate(422,236)"/>
<path d="M0 0 C1.67578125 1.16796875 1.67578125 1.16796875 3 3 C3.29296875 5.69921875 3.29296875 5.69921875 3.1875 8.6875 C3.16042969 9.68136719 3.13335937 10.67523438 3.10546875 11.69921875 C3.07066406 12.45847656 3.03585937 13.21773437 3 14 C3.75925781 13.97679688 4.51851563 13.95359375 5.30078125 13.9296875 C6.29464844 13.91164063 7.28851563 13.89359375 8.3125 13.875 C9.29863281 13.85179688 10.28476562 13.82859375 11.30078125 13.8046875 C14 14 14 14 17 16 C18.03774589 19.73588519 18.54963144 21.92821869 16.75 25.4375 C12.38446313 27.91791868 7.90769501 27.30461555 3 27 C3.05220703 28.13888672 3.05220703 28.13888672 3.10546875 29.30078125 C3.13253906 30.29464844 3.15960938 31.28851563 3.1875 32.3125 C3.23970703 33.79169922 3.23970703 33.79169922 3.29296875 35.30078125 C3 38 3 38 1.67578125 39.8359375 C-0.89878202 41.62432877 -2.95246868 41.31745118 -6 41 C-6.99 40.34 -7.98 39.68 -9 39 C-9.29296875 36.1796875 -9.29296875 36.1796875 -9.1875 32.875 C-9.16042969 31.77929688 -9.13335937 30.68359375 -9.10546875 29.5546875 C-9.07066406 28.71164063 -9.03585938 27.86859375 -9 27 C-9.74765625 27.04640625 -10.4953125 27.0928125 -11.265625 27.140625 C-19.23824513 27.43281527 -19.23824513 27.43281527 -22.75 25.4375 C-24.54963144 21.92821869 -24.03774589 19.73588519 -23 16 C-19.57905758 13.71937172 -18.31812778 13.78074993 -14.3125 13.875 C-12.82169922 13.90207031 -12.82169922 13.90207031 -11.30078125 13.9296875 C-10.54152344 13.95289062 -9.78226563 13.97609375 -9 14 C-9.03480469 13.24074219 -9.06960937 12.48148438 -9.10546875 11.69921875 C-9.14607422 10.20841797 -9.14607422 10.20841797 -9.1875 8.6875 C-9.23970703 7.20830078 -9.23970703 7.20830078 -9.29296875 5.69921875 C-9 3 -9 3 -7.67578125 1.16796875 C-5.07386354 -0.64548905 -3.07797388 -0.38474673 0 0 Z " fill="#000000" transform="translate(259,74)"/>
<path d="M0 0 C2.4375 1.625 2.4375 1.625 4 4 C4.28688001 8.20757354 2.80511877 10.53261704 0.1875 13.625 C-1.18886325 15.10172307 -2.58816035 16.55715711 -4 18 C-4.48597656 18.49967285 -4.97195312 18.9993457 -5.47265625 19.51416016 C-16.55288694 30.87684144 -16.55288694 30.87684144 -20.9375 31.25 C-24 31 -24 31 -25.875 29.9375 C-27.65026005 26.8801077 -27.32242914 24.47377376 -27 21 C-25.16748047 18.27758789 -25.16748047 18.27758789 -22.6171875 15.72265625 C-21.69679688 14.79775391 -20.77640625 13.87285156 -19.828125 12.91992188 C-19.34279297 12.45126709 -18.85746094 11.9826123 -18.35742188 11.49975586 C-16.87682582 10.06427019 -15.43416258 8.59721329 -13.9921875 7.12304688 C-5.97485682 -0.78849958 -5.97485682 -0.78849958 0 0 Z " fill="#000000" transform="translate(49,416)"/>
<path d="M0 0 C2.34551461 3.51827191 2.52406005 4.85718433 2 9 C-0.45691741 12.52837246 -3.51735479 15.42155887 -6.58764648 18.42480469 C-8.05704751 19.86963868 -9.48850095 21.34576646 -10.91992188 22.828125 C-11.84482422 23.74851562 -12.76972656 24.66890625 -13.72265625 25.6171875 C-14.56578369 26.45878418 -15.40891113 27.30038086 -16.27758789 28.16748047 C-19.74336298 30.50037508 -21.90164767 30.42865342 -26 30 C-27.9375 28.875 -27.9375 28.875 -29 27 C-29.47591106 23.18905066 -29.40204047 21.54984185 -27.10400391 18.40698242 C-26.23694824 17.56498291 -25.36989258 16.7229834 -24.4765625 15.85546875 C-23.538125 14.93185547 -22.5996875 14.00824219 -21.6328125 13.05664062 C-20.63031792 12.10014555 -19.62771249 11.14376664 -18.625 10.1875 C-17.62889465 9.21292944 -16.63408738 8.23703025 -15.640625 7.25976562 C-6.51977157 -1.62994289 -6.51977157 -1.62994289 0 0 Z " fill="#000000" transform="translate(95,461)"/>
</svg>
