<?xml version="1.0" encoding="UTF-8"?>
<svg version="1.1" xmlns="http://www.w3.org/2000/svg" width="512" height="512">
<path d="M0 0 C0.73952408 -0.00979385 1.47904816 -0.01958771 2.24098206 -0.02967834 C33.0266661 -0.35362359 33.0266661 -0.35362359 47.20703125 4.23828125 C47.87959961 4.44727051 48.55216797 4.65625977 49.24511719 4.87158203 C65.49931 10.04548461 80.21920846 18.22939689 93.20703125 29.23828125 C93.71572754 29.66334961 94.22442383 30.08841797 94.74853516 30.52636719 C113.84727043 46.61652198 126.77716584 68.05663984 133.95703125 91.86328125 C134.25528809 92.84723877 134.25528809 92.84723877 134.55957031 93.85107422 C137.64029072 104.61245862 138.53517837 115.23342293 138.46777344 126.37597656 C138.45697351 128.49963447 138.46777577 130.62245999 138.48046875 132.74609375 C138.47914809 134.12369975 138.47658764 135.50130523 138.47265625 136.87890625 C138.47040039 138.10125977 138.46814453 139.32361328 138.46582031 140.58300781 C138.17404973 144.70412971 137.24874106 148.24483413 136.20703125 152.23828125 C136.85271435 152.23459408 137.49839745 152.23090691 138.1636467 152.227108 C153.87068518 152.13879107 169.57763737 152.0725884 185.28486252 152.03103256 C192.88075423 152.01040257 200.47648026 151.98227386 208.07226562 151.93652344 C214.69235317 151.89666876 221.31232074 151.87085161 227.93252492 151.86192727 C231.43830927 151.85671011 234.94375036 151.84443949 238.44942474 151.81536102 C242.36185668 151.78317152 246.27395205 151.78232097 250.18652344 151.78417969 C251.35033539 151.76979858 252.51414734 151.75541748 253.71322632 151.74060059 C254.77890839 151.74609924 255.84459045 151.7515979 256.94256592 151.75726318 C258.33078615 151.75173243 258.33078615 151.75173243 259.74705124 151.74608994 C262.99440232 152.39581798 264.18614225 153.66379461 266.20703125 156.23828125 C266.71496582 159.42578125 266.71496582 159.42578125 266.72460938 163.23828125 C266.73512329 164.28290527 266.73512329 164.28290527 266.74584961 165.34863281 C266.76342321 167.64559057 266.75181044 169.94131146 266.73828125 172.23828125 C266.74097638 173.83724198 266.74485898 175.43620112 266.74987793 177.03515625 C266.75577207 180.38427351 266.74721317 183.73296368 266.72851562 187.08203125 C266.7057256 191.37306716 266.71884921 195.66310236 266.74280548 199.95410156 C266.75726605 203.25528491 266.7526564 206.55623136 266.74229431 209.85742188 C266.73962771 211.43945433 266.74289447 213.02150836 266.75221252 214.60351562 C266.76238304 216.81568288 266.74687315 219.02623425 266.72460938 221.23828125 C266.721427 222.49640625 266.71824463 223.75453125 266.71496582 225.05078125 C266.20703125 228.23828125 266.20703125 228.23828125 262.20703125 232.23828125 C255.60703125 232.23828125 249.00703125 232.23828125 242.20703125 232.23828125 C242.20703125 319.35828125 242.20703125 406.47828125 242.20703125 496.23828125 C248.80703125 496.23828125 255.40703125 496.23828125 262.20703125 496.23828125 C266.20703125 500.23828125 266.20703125 500.23828125 266.73828125 502.23828125 C266.72796875 502.89828125 266.71765625 503.55828125 266.70703125 504.23828125 C266.71734375 504.89828125 266.72765625 505.55828125 266.73828125 506.23828125 C265.93435282 509.26483535 264.69436452 510.33295038 262.20703125 512.23828125 C259.29632644 512.63019179 256.76486111 512.77584066 253.8548584 512.74164581 C253.00050107 512.74745958 252.14614374 512.75327334 251.2658968 512.75926328 C248.3833626 512.77394097 245.50166958 512.75994191 242.61914062 512.74621582 C240.53963534 512.75082166 238.4601333 512.75717243 236.38063812 512.7651248 C230.65091681 512.78188472 224.92146062 512.7735415 219.19173813 512.76117992 C213.01851315 512.75215896 206.84533494 512.76608445 200.67211914 512.77709961 C189.2726444 512.79389011 177.87327822 512.79239026 166.47380614 512.78145374 C155.94370996 512.7714006 145.41364492 512.76876046 134.88354492 512.77354431 C134.1856816 512.77384985 133.48781828 512.77415539 132.76880759 512.77447019 C129.93611635 512.7757155 127.10342513 512.77698909 124.27073392 512.77830925 C97.68545185 512.79055157 71.10022388 512.77944139 44.51495016 512.75792166 C20.8836357 512.73893852 -2.74759255 512.74063701 -26.37890625 512.75976562 C-52.91484653 512.78117351 -79.45073899 512.78968343 -105.98668671 512.77731657 C-108.81428527 512.77603366 -111.64188384 512.7747823 -114.46948242 512.77354431 C-115.16573457 512.773228 -115.86198672 512.77291169 -116.57933742 512.7725858 C-127.10409286 512.7680315 -137.62881379 512.7733652 -148.15356445 512.78346252 C-160.11794185 512.79488362 -172.08221738 512.79168815 -184.04659081 512.77033955 C-190.15537677 512.75979996 -196.2639874 512.75575677 -202.37277222 512.76893616 C-207.95875509 512.78080569 -213.54439918 512.77438764 -219.13035107 512.75302595 C-221.15720374 512.74853673 -223.18408471 512.75087768 -225.21091938 512.7605291 C-227.95462526 512.77259764 -230.6971528 512.76031586 -233.4407959 512.74164581 C-234.63620389 512.75569281 -234.63620389 512.75569281 -235.85576153 512.77002358 C-239.42811816 512.7210456 -241.40456718 512.5358021 -244.28177643 510.33182096 C-245.9192108 508.06339104 -246.33617474 507.00346434 -246.29296875 504.23828125 C-246.30328125 503.57828125 -246.31359375 502.91828125 -246.32421875 502.23828125 C-245.79296875 500.23828125 -245.79296875 500.23828125 -241.79296875 496.23828125 C-235.19296875 496.23828125 -228.59296875 496.23828125 -221.79296875 496.23828125 C-221.79296875 409.11828125 -221.79296875 321.99828125 -221.79296875 232.23828125 C-228.39296875 232.23828125 -234.99296875 232.23828125 -241.79296875 232.23828125 C-246.30670387 227.72454613 -246.29537706 227.23554233 -246.31054688 221.23828125 C-246.31755615 220.54186523 -246.32456543 219.84544922 -246.33178711 219.12792969 C-246.34936071 216.83097193 -246.33774794 214.53525104 -246.32421875 212.23828125 C-246.32691388 210.63932052 -246.33079648 209.04036138 -246.33581543 207.44140625 C-246.34170957 204.09228899 -246.33315067 200.74359882 -246.31445312 197.39453125 C-246.2916631 193.10349534 -246.30478671 188.81346014 -246.32874298 184.52246094 C-246.34320355 181.22127759 -246.3385939 177.92033114 -246.32823181 174.61914062 C-246.32556521 173.03710817 -246.32883197 171.45505414 -246.33815002 169.87304688 C-246.34832054 167.66087962 -246.33281065 165.45032825 -246.31054688 163.23828125 C-246.3073645 161.98015625 -246.30418213 160.72203125 -246.30090332 159.42578125 C-245.68721118 155.57460866 -244.80075908 154.63537256 -241.79296875 152.23828125 C-239.33298874 151.74608994 -239.33298874 151.74608994 -236.52850342 151.75726318 C-235.46282135 151.75176453 -234.39713928 151.74626587 -233.29916382 151.74060059 C-232.13535187 151.75498169 -230.97153992 151.76936279 -229.77246094 151.78417969 C-228.54292694 151.78359558 -227.31339294 151.78301147 -226.04660034 151.78240967 C-222.67879083 151.78471838 -219.31196309 151.80477202 -215.94432735 151.8327055 C-212.42362805 151.85771738 -208.90291555 151.86006097 -205.38214111 151.86480713 C-198.71686323 151.8772376 -192.0518479 151.91005993 -185.38668561 151.95020509 C-177.79789891 151.99492077 -170.20909964 152.01690928 -162.62021399 152.03698683 C-147.0109802 152.0787927 -131.40200834 152.14914586 -115.79296875 152.23828125 C-116.27898056 150.36743866 -116.27898056 150.36743866 -116.77481079 148.45880127 C-118.43768832 142.05775906 -118.18761795 135.56259996 -118.16796875 128.98828125 C-118.16709259 128.2765274 -118.16621643 127.56477356 -118.16531372 126.83145142 C-118.02304178 91.76215606 -104.40692825 59.58385792 -79.44970703 34.81738281 C-58.57580958 14.92166093 -29.20768559 0.31792259 0 0 Z M-73.00390625 53.4453125 C-92.63928665 74.36126119 -101.87488774 102.92356909 -101.79296875 131.23828125 C-100.75435929 161.94299513 -87.50170486 188.88985611 -65.79296875 210.23828125 C-60.29563967 216.04024343 -60.29563967 216.04024343 -53.79296875 219.23828125 C-53.39333124 209.30992507 -53.09423165 199.38357517 -52.91216183 189.44871998 C-52.82462169 184.83143158 -52.70667916 180.21976371 -52.51049805 175.60571289 C-51.4744704 150.57520915 -53.7090121 133.56195372 -68.72390747 113.09164429 C-77.09328716 101.54975383 -77.09328716 101.54975383 -77.48046875 95.92578125 C-76.60778217 91.24500778 -75.53740262 90.15893967 -71.79296875 87.23828125 C-70.73529297 86.40490234 -70.73529297 86.40490234 -69.65625 85.5546875 C-53.93711986 73.78432435 -36.87907588 71.68697874 -17.79296875 73.23828125 C-5.21196409 75.20127488 6.9849118 81.51465474 16.20703125 90.23828125 C17.81314746 93.45051368 17.61643462 96.74930918 17.20703125 100.23828125 C15.74169922 103.64990234 15.74169922 103.64990234 13.69921875 107.01171875 C13.33611603 107.62036774 12.97301331 108.22901672 12.59890747 108.85610962 C11.44278817 110.78548818 10.2632214 112.69917229 9.08203125 114.61328125 C8.31219004 115.88835101 7.54394726 117.16438728 6.77734375 118.44140625 C5.34411805 120.82315569 3.90051066 123.19726008 2.44873047 125.56787109 C2.10296967 126.15994354 1.75720886 126.75201599 1.40097046 127.36203003 C0.20703125 129.23828125 0.20703125 129.23828125 -1.37631226 131.10696411 C-8.18090913 140.00619364 -6.53770246 151.24667841 -6.37890625 161.87109375 C-6.36770226 164.07639406 -6.35916776 166.28170939 -6.35317993 168.48703003 C-6.33037664 174.26430186 -6.27152622 180.04065475 -6.20495605 185.81756592 C-6.14335007 191.72330294 -6.11612585 197.62918985 -6.0859375 203.53515625 C-6.02177512 215.1032662 -5.91949862 226.67069702 -5.79296875 238.23828125 C2.06724627 242.16838876 15.84705552 240.40841782 24.20703125 239.23828125 C24.86703125 238.90828125 25.52703125 238.57828125 26.20703125 238.23828125 C26.21289749 237.11741623 26.21876373 235.99655121 26.22480774 234.84172058 C26.28196089 224.29103715 26.35468347 213.7405613 26.44274616 203.19008923 C26.48751979 197.7656572 26.52676042 192.3413015 26.5534668 186.91674805 C26.57943008 181.68410548 26.61978275 176.45175554 26.67021751 171.21929359 C26.68693354 169.22060084 26.69841823 167.22185743 26.70464516 165.22310448 C26.71423487 162.4286145 26.74223204 159.63488123 26.7746582 156.84057617 C26.77322311 156.00979553 26.77178802 155.17901489 26.77030945 154.32305908 C26.86361191 148.65712637 26.86361191 148.65712637 28.60426617 146.5341692 C31.4536532 144.23034666 34.63736062 144.5308772 38.20703125 144.23828125 C38.21114014 143.17391846 38.21524902 142.10955566 38.21948242 141.01293945 C38.24130573 137.05216491 38.29562731 133.0923793 38.35961914 129.13208008 C38.3827715 127.42026266 38.3971884 125.70830335 38.40258789 123.99633789 C38.41189828 121.53051627 38.45292904 119.06691751 38.5 116.6015625 C38.49606735 115.83991287 38.4921347 115.07826324 38.48808289 114.29353333 C38.59566513 110.34818011 39.00261911 108.48777736 41.53271484 105.3996582 C42.41523926 104.68640381 43.29776367 103.97314941 44.20703125 103.23828125 C44.80572021 102.71476074 45.40440918 102.19124023 46.02124023 101.65185547 C46.57626221 101.20342285 47.13128418 100.75499023 47.703125 100.29296875 C48.33734375 99.77871338 48.9715625 99.26445801 49.625 98.73461914 C50.29144531 98.19957764 50.95789063 97.66453613 51.64453125 97.11328125 C52.34320313 96.54923584 53.041875 95.98519043 53.76171875 95.40405273 C59.52111079 90.7649041 65.30560313 86.15757106 71.15234375 81.62890625 C72.98632264 80.19361842 74.80107858 78.73245877 76.57421875 77.22265625 C79.86744579 74.48043607 82.15812293 72.88083842 86.51953125 72.67578125 C90.20703125 73.23828125 90.20703125 73.23828125 91.91047668 74.36201477 C93.84196811 77.15710934 93.60822193 79.44711304 93.6394043 82.82104492 C93.65469177 83.81656624 93.65469177 83.81656624 93.67028809 84.8321991 C93.7004575 87.02363482 93.70968953 89.21463375 93.71875 91.40625 C93.73559386 92.92655393 93.75374371 94.4468439 93.77314758 95.96711731 C93.82068599 99.96686443 93.85047025 103.96655499 93.87658691 107.9664917 C93.90637324 112.04873832 93.95291012 116.13078998 93.99804688 120.21289062 C94.08412359 128.22125847 94.15144918 136.22964399 94.20703125 144.23828125 C94.91730469 144.35945312 95.62757813 144.480625 96.359375 144.60546875 C97.73802734 144.85683594 97.73802734 144.85683594 99.14453125 145.11328125 C100.06105469 145.27570313 100.97757813 145.438125 101.921875 145.60546875 C102.67597656 145.81429687 103.43007813 146.023125 104.20703125 146.23828125 C105.76198823 149.34819521 105.44780081 152.67172174 105.5234375 156.08984375 C105.5442186 156.86387543 105.56499969 157.6379071 105.58641052 158.43539429 C105.65186573 160.91126517 105.71077212 163.38724327 105.76953125 165.86328125 C105.81272032 167.54037573 105.85633473 169.21745932 105.90039062 170.89453125 C106.00754296 175.00900433 106.1088217 179.12358539 106.20703125 183.23828125 C121.77269394 164.44042628 122.97959082 134.78728277 120.98876953 111.70800781 C120.42899906 107.44037287 119.41829132 103.36245016 118.20703125 99.23828125 C117.87832031 98.04074219 117.54960937 96.84320313 117.2109375 95.609375 C108.43647673 66.49273874 88.2800213 43.41214217 61.76953125 28.92578125 C15.01333389 4.35968481 -37.04900383 17.55393464 -73.00390625 53.4453125 Z M-57.79296875 97.23828125 C-56.12221648 108.15680493 -48.4624483 120.34750959 -40.79296875 128.23828125 C-35.49228266 131.57426078 -30.36975779 132.14255365 -24.26171875 130.99609375 C-13.38533658 126.93285608 -7.78516965 113.02807795 -2.89086914 103.26269531 C-1.61898328 100.40852792 -1.61898328 100.40852792 -1.97387695 97.91943359 C-3.27093521 95.25727468 -5.246525 94.74154768 -7.91796875 93.61328125 C-8.84867188 93.20851563 -9.779375 92.80375 -10.73828125 92.38671875 C-17.11728554 89.98847417 -22.71389376 88.84879335 -29.48046875 88.86328125 C-30.26848877 88.86489258 -31.05650879 88.86650391 -31.8684082 88.86816406 C-41.53696245 89.06936625 -49.67811464 92.07428318 -57.79296875 97.23828125 Z M70.70703125 103.30078125 C69.5093314 104.25027356 68.31141101 105.19948774 67.11328125 106.1484375 C66.49638428 106.65576416 65.8794873 107.16309082 65.24389648 107.68579102 C63.20703125 109.23828125 63.20703125 109.23828125 60.75024414 110.66381836 C58.06184657 112.33886627 56.17437878 113.74495837 54.20703125 116.23828125 C53.11656104 121.09837486 53.35223207 125.72668145 53.64453125 130.67578125 C53.68513672 131.97966797 53.72574219 133.28355469 53.76757812 134.62695312 C53.87325005 137.83233486 54.03467142 141.03579305 54.20703125 144.23828125 C62.12703125 144.23828125 70.04703125 144.23828125 78.20703125 144.23828125 C78.20703125 129.05828125 78.20703125 113.87828125 78.20703125 98.23828125 C75.71159652 98.23828125 72.68587494 101.72389019 70.70703125 103.30078125 Z M-37.79296875 144.23828125 C-37.79296875 172.28828125 -37.79296875 200.33828125 -37.79296875 229.23828125 C-27.3442508 234.49469151 -27.3442508 234.49469151 -21.79296875 234.23828125 C-21.79296875 204.53828125 -21.79296875 174.83828125 -21.79296875 144.23828125 C-27.07296875 144.23828125 -32.35296875 144.23828125 -37.79296875 144.23828125 Z M42.20703125 160.23828125 C42.20703125 165.51828125 42.20703125 170.79828125 42.20703125 176.23828125 C58.04703125 176.23828125 73.88703125 176.23828125 90.20703125 176.23828125 C90.20703125 170.95828125 90.20703125 165.67828125 90.20703125 160.23828125 C74.36703125 160.23828125 58.52703125 160.23828125 42.20703125 160.23828125 Z M-229.79296875 168.23828125 C-229.79296875 173.51828125 -229.79296875 178.79828125 -229.79296875 184.23828125 C-188.87296875 184.23828125 -147.95296875 184.23828125 -105.79296875 184.23828125 C-108.57151414 175.48741769 -108.57151414 175.48741769 -111.79296875 168.23828125 C-150.73296875 168.23828125 -189.67296875 168.23828125 -229.79296875 168.23828125 Z M132.20703125 168.23828125 C128.0851486 176.00800619 128.0851486 176.00800619 126.20703125 184.23828125 C167.12703125 184.23828125 208.04703125 184.23828125 250.20703125 184.23828125 C250.20703125 178.95828125 250.20703125 173.67828125 250.20703125 168.23828125 C211.26703125 168.23828125 172.32703125 168.23828125 132.20703125 168.23828125 Z M42.20703125 192.23828125 C42.20703125 206.09828125 42.20703125 219.95828125 42.20703125 234.23828125 C48.57785345 232.82254298 53.35772662 231.57741938 58.95703125 228.67578125 C59.64168457 228.32572021 60.32633789 227.97565918 61.03173828 227.61499023 C67.84792931 224.04245866 74.06462007 219.88312934 80.20703125 215.23828125 C81.20605469 214.5525 82.20507812 213.86671875 83.234375 213.16015625 C86.48486513 210.84814787 86.48486513 210.84814787 90.20703125 206.23828125 C90.20703125 201.61828125 90.20703125 196.99828125 90.20703125 192.23828125 C74.36703125 192.23828125 58.52703125 192.23828125 42.20703125 192.23828125 Z M-229.79296875 200.23828125 C-229.79296875 205.51828125 -229.79296875 210.79828125 -229.79296875 216.23828125 C-181.61296875 216.23828125 -133.43296875 216.23828125 -83.79296875 216.23828125 C-85.77296875 213.59828125 -87.75296875 210.95828125 -89.79296875 208.23828125 C-90.6475118 206.75720215 -91.50205485 205.27612305 -92.3565979 203.79504395 C-94.30399719 201.23004291 -95.32152006 200.36302478 -98.46375656 199.53160095 C-101.92735734 199.24974003 -105.30061646 199.24892991 -108.77490234 199.33007812 C-110.08275696 199.32890991 -111.39061157 199.3277417 -112.73809814 199.32653809 C-116.31289578 199.32424813 -119.88553393 199.37118397 -123.45983076 199.42712975 C-127.19931471 199.47723614 -130.93885154 199.48184696 -134.67861938 199.49133301 C-141.75500596 199.51617059 -148.83040048 199.5817804 -155.90635073 199.66212893 C-163.96423716 199.75163571 -172.02217168 199.79555572 -180.0804317 199.83569241 C-196.65187398 199.91925068 -213.2222555 200.06152484 -229.79296875 200.23828125 Z M109.43896484 206.63012695 C108.16576176 208.80179819 107.19945339 210.90994864 106.20703125 213.23828125 C105.54703125 214.22828125 104.88703125 215.21828125 104.20703125 216.23828125 C152.38703125 216.23828125 200.56703125 216.23828125 250.20703125 216.23828125 C250.20703125 210.95828125 250.20703125 205.67828125 250.20703125 200.23828125 C232.90863194 199.93683095 215.61128758 199.70509914 198.31086159 199.56472301 C190.27713009 199.49779887 182.24506427 199.40663441 174.21240234 199.25756836 C167.20770067 199.12764109 160.20420539 199.04404477 153.19833219 199.01513082 C149.49089643 198.99823629 145.78691037 198.95880411 142.08058548 198.86379051 C123.70665788 197.35381811 123.70665788 197.35381811 109.43896484 206.63012695 Z M-205.79296875 232.23828125 C-205.79296875 308.79828125 -205.79296875 385.35828125 -205.79296875 464.23828125 C-158.27296875 464.23828125 -110.75296875 464.23828125 -61.79296875 464.23828125 C-61.62259327 421.47260046 -61.62259327 421.47260046 -61.49511719 378.70678711 C-61.44970703 370.39562988 -61.44970703 370.39562988 -61.42340088 366.49269104 C-61.40887938 363.79311312 -61.40053057 361.09422011 -61.40142822 358.39466858 C-61.40102428 329.09456492 -61.40102428 329.09456492 -56.79296875 317.23828125 C-56.49815109 316.4730011 -56.20333344 315.70772095 -55.89958191 314.91925049 C-48.46322078 297.59099288 -34.17773293 284.83810171 -17.00390625 277.4921875 C-15.94429687 277.07839844 -14.8846875 276.66460937 -13.79296875 276.23828125 C-12.91898438 275.89667969 -12.045 275.55507813 -11.14453125 275.203125 C6.9355787 269.50338359 28.26584679 272.35590237 44.89453125 280.80078125 C61.27543199 289.73369669 73.48950778 304.89529373 78.97739887 322.74377823 C81.09423167 330.50318421 81.64898527 337.69906494 81.6394043 345.71777344 C81.64967809 347.02762836 81.65995188 348.33748329 81.67053699 349.68703079 C81.69773917 353.19194157 81.70757804 356.69668789 81.71350861 360.20169067 C81.72181911 363.5051347 81.74620453 366.80844619 81.76916504 370.11181641 C81.82689263 379.73722229 81.85919882 389.3627671 81.89453125 398.98828125 C81.99765625 420.52078125 82.10078125 442.05328125 82.20703125 464.23828125 C129.72703125 464.23828125 177.24703125 464.23828125 226.20703125 464.23828125 C226.20703125 387.67828125 226.20703125 311.11828125 226.20703125 232.23828125 C203.21015625 232.07328125 180.21328125 231.90828125 156.51953125 231.73828125 C149.27669189 231.66544922 142.03385254 231.59261719 134.5715332 231.51757812 C128.04001607 231.49081132 128.04001607 231.49081132 121.50846863 231.47473145 C118.6143671 231.46732173 115.72145703 231.43752522 112.8276825 231.39367676 C109.12155902 231.33827412 105.41713561 231.32244537 101.7106365 231.33370304 C99.72856883 231.33025611 97.74668367 231.28761716 95.7651186 231.24285126 C85.66621072 231.33545237 80.24563702 234.57585694 72.20703125 240.23828125 C69.50793995 241.75796951 66.76657412 243.12337245 63.95703125 244.42578125 C62.89995972 244.91812256 62.89995972 244.91812256 61.8215332 245.42041016 C45.44936244 252.80048935 28.61590785 255.66578595 10.70703125 255.61328125 C10.00626465 255.61273743 9.30549805 255.6121936 8.58349609 255.6116333 C-14.41903641 255.52985524 -43.22290593 250.25305218 -61.06567383 234.19259644 C-66.18036393 230.81135487 -72.53176359 231.71898574 -78.41748047 231.78417969 C-79.82994607 231.785406 -81.24241412 231.7848694 -82.65487862 231.78271866 C-86.42760507 231.7818179 -90.19982107 231.80495184 -93.97242737 231.8331604 C-97.51622068 231.85598932 -101.05989166 231.85701549 -104.60375977 231.85986328 C-114.95856335 231.88082844 -125.31327255 231.93667333 -135.66796875 231.98828125 C-158.80921875 232.07078125 -181.95046875 232.15328125 -205.79296875 232.23828125 Z M-23.79296875 300.23828125 C-24.4271875 300.6765625 -25.06140625 301.11484375 -25.71484375 301.56640625 C-36.59603791 309.85208621 -42.60500533 323.11050072 -44.79296875 336.23828125 C-8.49296875 336.23828125 27.80703125 336.23828125 65.20703125 336.23828125 C60.8603062 318.85138107 54.2599201 305.85800025 38.703125 296.1875 C18.48680308 284.51312637 -5.18569184 286.67297615 -23.79296875 300.23828125 Z M-45.79296875 352.23828125 C-45.79296875 399.75828125 -45.79296875 447.27828125 -45.79296875 496.23828125 C-29.95296875 496.23828125 -14.11296875 496.23828125 2.20703125 496.23828125 C2.20703125 448.71828125 2.20703125 401.19828125 2.20703125 352.23828125 C-13.63296875 352.23828125 -29.47296875 352.23828125 -45.79296875 352.23828125 Z M18.20703125 352.23828125 C18.20703125 399.75828125 18.20703125 447.27828125 18.20703125 496.23828125 C34.04703125 496.23828125 49.88703125 496.23828125 66.20703125 496.23828125 C66.20703125 448.71828125 66.20703125 401.19828125 66.20703125 352.23828125 C50.36703125 352.23828125 34.52703125 352.23828125 18.20703125 352.23828125 Z M-205.79296875 480.23828125 C-205.79296875 485.51828125 -205.79296875 490.79828125 -205.79296875 496.23828125 C-158.27296875 496.23828125 -110.75296875 496.23828125 -61.79296875 496.23828125 C-61.79296875 490.95828125 -61.79296875 485.67828125 -61.79296875 480.23828125 C-109.31296875 480.23828125 -156.83296875 480.23828125 -205.79296875 480.23828125 Z M82.20703125 480.23828125 C82.20703125 485.51828125 82.20703125 490.79828125 82.20703125 496.23828125 C129.72703125 496.23828125 177.24703125 496.23828125 226.20703125 496.23828125 C226.20703125 490.95828125 226.20703125 485.67828125 226.20703125 480.23828125 C178.68703125 480.23828125 131.16703125 480.23828125 82.20703125 480.23828125 Z " fill="#000000" transform="translate(245.79296875,-0.23828125)"/>
<path d="M0 0 C2.44225447 1.66159248 4.74768159 3.38773224 7.0390625 5.25 C7.86148438 5.86875 8.68390625 6.4875 9.53125 7.125 C18.91719486 15.07819938 24.48357676 26.35293664 27.0390625 38.25 C27.13324572 39.80395184 27.17801674 41.36130911 27.18623352 42.91809082 C27.19338882 43.85177994 27.20054413 44.78546906 27.20791626 45.74745178 C27.21060516 46.76471848 27.21329407 47.78198517 27.21606445 48.83007812 C27.22263565 49.90688339 27.22920685 50.98368866 27.23597717 52.09312439 C27.25568682 55.65583363 27.26736477 59.21850085 27.27734375 62.78125 C27.28141928 63.99720352 27.2854948 65.21315704 27.28969383 66.46595764 C27.31053996 72.89608592 27.32485064 79.32619291 27.33422852 85.75634766 C27.34531791 92.40804911 27.37975102 99.05931622 27.41940022 105.71091461 C27.4454903 110.81863037 27.45391336 115.92626582 27.45750999 121.03404236 C27.462392 123.48691565 27.4740515 125.93978498 27.49254799 128.39259338 C27.51678731 131.81864175 27.51600247 135.24381477 27.5090332 138.66992188 C27.52184326 139.68718857 27.53465332 140.70445526 27.54785156 141.75254822 C27.51892612 145.6419613 27.48355329 148.42024661 25.63078308 151.87890625 C21.54684047 154.03942781 17.65477027 153.80631161 13.1015625 153.76757812 C12.09303223 153.7745874 11.08450195 153.78159668 10.04541016 153.78881836 C6.70968136 153.80643218 3.37480002 153.7947631 0.0390625 153.78125 C-2.27734541 153.78394393 -4.59375222 153.78782551 -6.91015625 153.79284668 C-11.76573448 153.79874634 -16.62101846 153.79016338 -21.4765625 153.77148438 C-27.70458396 153.74869496 -33.93191595 153.76181548 -40.15991211 153.78577423 C-44.94341235 153.80021932 -49.72674877 153.79563205 -54.51025391 153.78526306 C-56.80680421 153.78259223 -59.10336933 153.785878 -61.39990234 153.79518127 C-64.6081489 153.80532527 -67.81527456 153.78987483 -71.0234375 153.76757812 C-71.97524902 153.77567505 -72.92706055 153.78377197 -73.90771484 153.79211426 C-77.63456231 153.74406133 -80.23282044 153.63885489 -83.5486908 151.86799622 C-85.81742481 147.66226004 -85.52508968 143.54951299 -85.49438477 138.84448242 C-85.50730812 137.25577835 -85.50730812 137.25577835 -85.52049255 135.63497925 C-85.54323515 132.12489515 -85.53639221 128.61560503 -85.52734375 125.10546875 C-85.53257972 122.65847029 -85.5388561 120.21147385 -85.54612732 117.76448059 C-85.55654996 112.62552427 -85.55194918 107.48684443 -85.53735352 102.34790039 C-85.5202591 95.79578263 -85.54353613 89.24454949 -85.57884312 82.69253063 C-85.60093505 77.63149821 -85.59934552 72.570673 -85.5910778 67.50960732 C-85.59026288 65.09654083 -85.5970376 62.68345841 -85.61184883 60.27043724 C-85.70555598 42.22198026 -84.77235589 27.78306513 -72.9609375 13.25 C-72.3421875 12.42757813 -71.7234375 11.60515625 -71.0859375 10.7578125 C-54.25015514 -9.11088653 -22.01325939 -13.01047521 0 0 Z M-61.41796875 26.09765625 C-64.83583338 30.86536109 -66.9609375 35.36411377 -66.9609375 41.25 C-41.8809375 41.25 -16.8009375 41.25 9.0390625 41.25 C7.50310024 30.49826419 2.83005817 24.15867805 -5.36328125 17.1640625 C-23.71577286 3.64117394 -47.4862864 9.48803038 -61.41796875 26.09765625 Z M-68.9609375 57.25 C-68.9609375 83.65 -68.9609375 110.05 -68.9609375 137.25 C-58.4009375 137.25 -47.8409375 137.25 -36.9609375 137.25 C-36.9609375 110.85 -36.9609375 84.45 -36.9609375 57.25 C-47.5209375 57.25 -58.0809375 57.25 -68.9609375 57.25 Z M-20.9609375 57.25 C-20.9609375 83.65 -20.9609375 110.05 -20.9609375 137.25 C-10.4009375 137.25 0.1590625 137.25 11.0390625 137.25 C11.0390625 110.85 11.0390625 84.45 11.0390625 57.25 C0.4790625 57.25 -10.0809375 57.25 -20.9609375 57.25 Z " fill="#000000" transform="translate(428.9609375,278.75)"/>
<path d="M0 0 C2.44225447 1.66159248 4.74768159 3.38773224 7.0390625 5.25 C7.87179688 5.87648438 8.70453125 6.50296875 9.5625 7.1484375 C18.45825599 14.69720204 24.74991517 26.8604748 27.0390625 38.25 C27.33064515 41.89091262 27.33287789 45.51944385 27.32958984 49.1706543 C27.33630707 50.24789764 27.34302429 51.32514099 27.34994507 52.43502808 C27.36888191 55.98147234 27.37284629 59.52772714 27.375 63.07421875 C27.38142796 65.5432798 27.38815632 68.01234009 27.39517212 70.48139954 C27.40713194 75.64850635 27.41085397 80.81554634 27.40966797 85.98266602 C27.40946418 92.61073673 27.43683454 99.23838158 27.47121239 105.86635113 C27.49341476 110.96120687 27.49750765 116.05595874 27.49644852 121.15085793 C27.4988119 123.59535002 27.50767665 126.03984467 27.52311325 128.48428917 C27.54264958 131.89567684 27.53698463 135.30612741 27.52490234 138.7175293 C27.53614136 139.73008286 27.54738037 140.74263641 27.55895996 141.78587341 C27.52395443 145.66388156 27.47973737 148.42887936 25.62979126 151.87593079 C21.54719909 154.04125365 17.65549473 153.80631777 13.1015625 153.76757812 C12.09303223 153.7745874 11.08450195 153.78159668 10.04541016 153.78881836 C6.70968136 153.80643218 3.37480002 153.7947631 0.0390625 153.78125 C-2.27734541 153.78394393 -4.59375222 153.78782551 -6.91015625 153.79284668 C-11.76573448 153.79874634 -16.62101846 153.79016338 -21.4765625 153.77148438 C-27.70458396 153.74869496 -33.93191595 153.76181548 -40.15991211 153.78577423 C-44.94341235 153.80021932 -49.72674877 153.79563205 -54.51025391 153.78526306 C-56.80680421 153.78259223 -59.10336933 153.785878 -61.39990234 153.79518127 C-64.6081489 153.80532527 -67.81527456 153.78987483 -71.0234375 153.76757812 C-71.97524902 153.77567505 -72.92706055 153.78377197 -73.90771484 153.79211426 C-77.63307281 153.74408054 -80.23345955 153.63752857 -83.54968262 151.87097168 C-85.82215905 147.65054599 -85.51654559 143.51578406 -85.47851562 138.796875 C-85.4855249 137.73292007 -85.49253418 136.66896515 -85.49975586 135.57276917 C-85.51738726 132.04824862 -85.50568753 128.52452905 -85.4921875 125 C-85.49488251 122.54581549 -85.49876501 120.09163203 -85.50378418 117.63745117 C-85.50968755 112.48589951 -85.50109482 107.33462494 -85.48242188 102.18310547 C-85.45972828 95.6038889 -85.47268969 89.0253285 -85.49671173 82.44613647 C-85.51122891 77.37236677 -85.50653492 72.29875014 -85.49620056 67.22497559 C-85.49354463 64.80106528 -85.49676284 62.37714077 -85.50611877 59.95324707 C-85.51637072 56.5478898 -85.50065769 53.14356261 -85.47851562 49.73828125 C-85.48661255 48.74977676 -85.49470947 47.76127228 -85.50305176 46.74281311 C-85.34526936 33.52790329 -79.77370151 19.70731795 -70.7734375 9.93359375 C-51.71981977 -7.76491755 -23.04387301 -13.61959777 0 0 Z M-61.41796875 26.09765625 C-64.83583338 30.86536109 -66.9609375 35.36411377 -66.9609375 41.25 C-41.8809375 41.25 -16.8009375 41.25 9.0390625 41.25 C7.50310024 30.49826419 2.83005817 24.15867805 -5.36328125 17.1640625 C-23.71577286 3.64117394 -47.4862864 9.48803038 -61.41796875 26.09765625 Z M-68.9609375 57.25 C-68.9609375 83.65 -68.9609375 110.05 -68.9609375 137.25 C-58.4009375 137.25 -47.8409375 137.25 -36.9609375 137.25 C-36.9609375 110.85 -36.9609375 84.45 -36.9609375 57.25 C-47.5209375 57.25 -58.0809375 57.25 -68.9609375 57.25 Z M-20.9609375 57.25 C-20.9609375 83.65 -20.9609375 110.05 -20.9609375 137.25 C-10.4009375 137.25 0.1590625 137.25 11.0390625 137.25 C11.0390625 110.85 11.0390625 84.45 11.0390625 57.25 C0.4790625 57.25 -10.0809375 57.25 -20.9609375 57.25 Z " fill="#000000" transform="translate(140.9609375,278.75)"/>
</svg>
