<?xml version="1.0" encoding="UTF-8"?>
<svg version="1.1" xmlns="http://www.w3.org/2000/svg" width="512" height="512">
<path d="M0 0 C1.27221999 -0.00644889 2.54443998 -0.01289778 3.85521209 -0.0195421 C5.26992067 -0.01659972 6.68462885 -0.01346427 8.09933662 -0.01015663 C9.59994235 -0.01389206 11.10054613 -0.01849315 12.60114682 -0.02388728 C16.73072085 -0.03614595 20.86021404 -0.03585345 24.98980212 -0.03349853 C29.441162 -0.03309108 33.89249571 -0.04412252 38.34384346 -0.05361366 C47.06698306 -0.07024014 55.79009563 -0.07572394 64.51324974 -0.07683842 C71.60216174 -0.07778807 78.69106481 -0.08189423 85.77997398 -0.08823967 C105.86881228 -0.10585625 125.9576292 -0.11507784 146.04647528 -0.11357872 C147.67161793 -0.11345885 147.67161793 -0.11345885 149.32959175 -0.11333656 C150.95671361 -0.11321392 150.95671361 -0.11321392 152.61670662 -0.1130888 C170.20138769 -0.11227569 187.78598314 -0.13141859 205.37063943 -0.1596133 C223.41709919 -0.18832064 241.46351717 -0.20215479 259.51000035 -0.20042574 C269.64550714 -0.19976112 279.78092418 -0.20528519 289.91641045 -0.22678185 C298.54521156 -0.24496534 307.17388224 -0.2493643 315.80269419 -0.235763 C320.2064861 -0.22921911 324.61002755 -0.22916716 329.01379585 -0.2464695 C333.04432517 -0.26214275 337.07440424 -0.25939592 341.10492219 -0.24190123 C342.5638519 -0.2388186 344.02281475 -0.2425111 345.48170541 -0.25362138 C347.46376131 -0.26771748 349.44595438 -0.25477991 351.42800903 -0.24050903 C353.07995752 -0.24116114 353.07995752 -0.24116114 354.7652787 -0.24182642 C358.62583028 0.38485801 360.79372425 1.8454504 363.83984566 4.25726891 C365.28515488 6.47832573 366.37985574 8.43758865 367.46484566 10.81976891 C367.78259956 11.48508629 368.10035347 12.15040367 368.42773628 12.83588219 C369.58997883 15.29885881 370.71653085 17.77628807 371.83984566 20.25726891 C372.34483589 21.36537926 372.84982613 22.47348961 373.37011909 23.61517906 C375.03662403 27.28316728 376.69256892 30.95561766 378.33984566 34.63226891 C378.74991859 35.54614876 378.74991859 35.54614876 379.16827583 36.47849083 C379.94873356 38.22304859 380.72255074 39.97057249 381.49609566 41.71820641 C381.94791206 42.73704918 382.39972847 43.75589195 382.86523628 44.80560875 C383.83984566 47.25726891 383.83984566 47.25726891 383.83984566 49.25726891 C384.76208931 49.24155846 385.68433296 49.22584801 386.63452339 49.20966148 C390.09551947 49.15816697 393.55610136 49.12074281 397.01733589 49.09247398 C398.50796164 49.07749848 399.99854417 49.05711071 401.48901558 49.03095055 C420.47436335 48.70636029 420.47436335 48.70636029 426.99609566 54.01117516 C427.43953316 54.60801109 427.88297066 55.20484703 428.33984566 55.81976891 C429.03593941 56.71889 429.03593941 56.71889 429.74609566 57.63617516 C431.82878138 60.72301293 431.97035088 62.69166824 431.98701668 66.39270592 C431.99774963 68.02458351 431.99774963 68.02458351 432.00869942 69.68942833 C432.01273277 71.48789711 432.01273277 71.48789711 432.01684761 73.32269859 C432.02670441 75.2106263 432.02670441 75.2106263 432.03676033 77.13669395 C432.05780965 81.31749761 432.0681645 85.49830167 432.07812691 89.67914391 C432.08217434 91.11844718 432.08629126 92.55775027 432.09047699 93.99705315 C432.10953172 100.75988816 432.12376133 107.52271225 432.13208896 114.28556895 C432.14185853 122.09056686 432.16816926 129.89528095 432.20858985 137.70017886 C432.23876192 143.73338649 432.25355891 149.76651283 432.25686997 155.79979444 C432.25921955 159.40284069 432.26816712 163.00558384 432.29333115 166.60854912 C432.32096789 170.63063438 432.31677746 174.6520869 432.30981636 178.67426109 C432.32262642 179.86514336 432.33543648 181.05602562 432.34863472 182.28299522 C432.30884885 188.58105009 432.14025268 192.50680678 427.83984566 197.25726891 C419.96805755 204.19193938 419.18970702 202.25726891 405.83984566 202.25726891 C406.33484566 322.54226891 406.33484566 322.54226891 406.83984566 445.25726891 C410.46984566 446.57726891 414.09984566 447.89726891 417.83984566 449.25726891 C424.95819215 454.30899867 429.43843167 460.23450574 431.4494648 468.83099937 C432.25232113 473.82085945 432.16714019 478.84029116 432.15234566 483.88226891 C432.16845894 484.98828453 432.18457222 486.09430016 432.20117378 487.23383141 C432.20750101 497.76233524 432.20750101 497.76233524 428.83984566 502.25726891 C424.11893025 506.12951947 420.33440189 506.83229469 414.40333748 506.76063347 C413.56415539 506.76644723 412.7249733 506.77226099 411.86036146 506.77825093 C409.04146425 506.79287735 406.22343414 506.77895337 403.40454292 506.76520348 C401.36598483 506.76981134 399.32743006 506.77616348 397.28888226 506.78411245 C391.68155446 506.80084455 386.07449819 506.79254168 380.46716928 506.78016758 C374.42209481 506.77113532 368.37706776 506.78507775 362.33200264 506.79608727 C351.17241786 506.81286678 340.01292025 506.81138339 328.85333726 506.80044139 C318.54431619 506.79038288 308.23532693 506.78775062 297.92630196 506.79253197 C297.24272983 506.79283751 296.55915771 506.79314305 295.85487128 506.79345785 C293.08009463 506.79470318 290.30531799 506.79597678 287.53054136 506.7972969 C261.49601134 506.80953549 235.46153658 506.79843496 209.42701508 506.77690931 C186.29213472 506.75792659 163.15734243 506.75962509 140.02246284 506.77875328 C114.03583964 506.80016746 88.04926527 506.80866757 62.06263447 506.79630423 C59.29288611 506.79502134 56.52313774 506.79376998 53.75338936 506.79253197 C53.07139656 506.79221566 52.38940376 506.79189935 51.68674452 506.79157345 C41.38368973 506.78702176 31.08067022 506.79234802 20.77762032 506.80245018 C9.06368263 506.81387839 -2.65017094 506.81066108 -14.36410213 506.7893272 C-20.34353398 506.77879703 -26.32278686 506.77472857 -32.30221748 506.78792381 C-37.77226778 506.79981263 -43.24197262 506.79334302 -48.71199143 506.7720136 C-50.69440561 506.76753265 -52.67684876 506.7698471 -54.65924442 506.77951676 C-57.34779704 506.7916284 -60.03515648 506.77925904 -62.72364616 506.76063347 C-63.49871565 506.76999813 -64.27378513 506.7793628 -65.07234156 506.78901124 C-70.24302759 506.71710053 -73.17728677 505.52288612 -77.16015434 502.25726891 C-81.31946744 496.7261739 -80.63882611 490.19093827 -80.59765434 483.56976891 C-80.61763481 482.44892906 -80.63761528 481.32808922 -80.65820122 480.17328453 C-80.65249603 470.34324591 -78.83513193 461.08054511 -71.85937309 453.75336266 C-66.57717058 449.10259585 -62.0208364 447.21746378 -55.16015434 445.25726891 C-54.83015434 365.06726891 -54.50015434 284.87726891 -54.16015434 202.25726891 C-59.11015434 202.25726891 -64.06015434 202.25726891 -69.16015434 202.25726891 C-74.20799776 198.89203996 -77.48982695 196.59792369 -80.16015434 191.25726891 C-80.26169966 189.54776704 -80.29961397 187.83432966 -80.30732536 186.12183189 C-80.31448067 185.0339135 -80.32163597 183.9459951 -80.3290081 182.82510948 C-80.33169701 181.62613029 -80.33438591 180.42715111 -80.3371563 179.19183922 C-80.34372749 177.93322075 -80.35029869 176.67460228 -80.35706902 175.37784386 C-80.37811833 171.1970402 -80.38847319 167.01623614 -80.39843559 162.83539391 C-80.40248303 161.39609063 -80.40659994 159.95678755 -80.41078568 158.51748466 C-80.42984041 151.75464965 -80.44407002 144.99182556 -80.45239764 138.22896886 C-80.46216722 130.42397095 -80.48847794 122.61925686 -80.52889854 114.81435895 C-80.55907061 108.78115132 -80.5738676 102.74802498 -80.57717866 96.71474338 C-80.57952824 93.11169712 -80.58847581 89.50895397 -80.61363983 85.90598869 C-80.64127657 81.88390343 -80.63708615 77.86245092 -80.63012505 73.84027672 C-80.6429351 72.64939445 -80.65574516 71.45851219 -80.66894341 70.23154259 C-80.62911263 63.92638008 -80.44400528 60.02522754 -76.16015434 55.25726891 C-70.48341679 49.73395669 -64.16098006 49.00023416 -56.47656059 49.06195641 C-55.42600739 49.06620125 -55.42600739 49.06620125 -54.35423088 49.07053185 C-52.14352265 49.08162006 -49.93323763 49.10670188 -47.72265434 49.13226891 C-46.21289462 49.14231345 -44.70312847 49.15143671 -43.19335747 49.15961266 C-39.51548837 49.18152176 -35.83786275 49.21597132 -32.16015434 49.25726891 C-31.90346977 48.43815025 -31.6467852 47.6190316 -31.38232231 46.77509117 C-29.98131809 42.7425163 -28.32890857 38.87517942 -26.60546684 34.97211266 C-26.26264671 34.19340309 -25.91982658 33.41469353 -25.56661797 32.6123867 C-24.84362548 30.97372763 -24.11907902 29.3357534 -23.3930645 27.69843102 C-22.28850709 25.20234547 -21.19493448 22.70162891 -20.10156059 20.20062828 C-19.39520169 18.60332558 -18.68819212 17.00631042 -17.98046684 15.40961266 C-17.65740562 14.66678535 -17.33434441 13.92395805 -17.00149345 13.15862083 C-13.20479858 4.67101964 -9.74373541 0.01246847 0 0 Z M-0.16015434 16.25726891 C-9.61917213 32.22775408 -9.61917213 32.22775408 -14.16015434 49.25726891 C111.23984566 49.25726891 236.63984566 49.25726891 365.83984566 49.25726891 C362.06125097 37.92148486 356.81843844 27.11965316 351.83984566 16.25726891 C235.67984566 16.25726891 119.51984566 16.25726891 -0.16015434 16.25726891 Z M-64.16015434 66.25726891 C-64.24647309 67.59994304 -64.26721908 68.94701212 -64.25781059 70.29242516 C-64.25458794 71.10131187 -64.25136528 71.91019859 -64.24804497 72.74359703 C-64.23966606 73.59373375 -64.23128716 74.44387047 -64.22265434 75.31976891 C-64.21814262 76.17377281 -64.21363091 77.02777672 -64.20898247 77.90765953 C-64.19715808 80.02422554 -64.17922203 82.14075576 -64.16015434 84.25726891 C-62.26329887 84.29594078 -62.26329887 84.29594078 -60.32812309 84.33539391 C-58.66793216 84.39167156 -57.00777725 84.44901898 -55.34765434 84.50726891 C-54.51427544 84.52144859 -53.68089653 84.53562828 -52.82226372 84.55023766 C-46.71249644 84.79560984 -46.71249644 84.79560984 -44.06640434 87.00726891 C-42.99654241 89.66347783 -43.01760894 91.19426099 -43.47265434 94.00726891 C-43.59253716 94.80648766 -43.71241997 95.60570641 -43.83593559 96.42914391 C-43.94292778 97.03242516 -44.04991997 97.63570641 -44.16015434 98.25726891 C-48.21357224 99.3652557 -52.23186246 99.59433666 -56.41015434 99.81976891 C-60.24640434 100.03633141 -60.24640434 100.03633141 -64.16015434 100.25726891 C-64.16015434 106.19726891 -64.16015434 112.13726891 -64.16015434 118.25726891 C-58.70098927 118.50643544 -58.70098927 118.50643544 -53.24096489 118.73529625 C-52.5581646 118.7709066 -51.8753643 118.80651695 -51.17187309 118.84320641 C-50.47537651 118.8746273 -49.77887993 118.9060482 -49.06127739 118.93842125 C-47.16015434 119.25726891 -47.16015434 119.25726891 -44.16015434 121.25726891 C-43.33062163 124.70302018 -42.83166388 127.2170491 -43.91015434 130.63226891 C-45.16015434 132.25726891 -45.16015434 132.25726891 -48.16015434 133.25726891 C-50.89447151 133.48536333 -53.60940188 133.67369601 -56.34765434 133.81976891 C-60.21484184 134.03633141 -60.21484184 134.03633141 -64.16015434 134.25726891 C-64.16015434 140.19726891 -64.16015434 146.13726891 -64.16015434 152.25726891 C-59.02990866 152.54585314 -59.02990866 152.54585314 -53.89916801 152.82538414 C-50.78606377 153.01011608 -48.13164518 153.26677196 -45.16015434 154.25726891 C-43.08004215 156.96141476 -43.16850486 158.41871227 -43.34765434 161.88226891 C-44.16015434 165.25726891 -44.16015434 165.25726891 -47.16015434 167.25726891 C-49.06127739 167.57611656 -49.06127739 167.57611656 -51.17187309 167.67133141 C-52.19607353 167.72474693 -52.19607353 167.72474693 -53.24096489 167.77924156 C-54.10117241 167.81324059 -54.96137993 167.84723961 -55.84765434 167.88226891 C-58.59077934 168.00601891 -61.33390434 168.12976891 -64.16015434 168.25726891 C-64.16015434 174.19726891 -64.16015434 180.13726891 -64.16015434 186.25726891 C-61.39002449 186.26535576 -58.61989464 186.27344261 -55.76582146 186.28177452 C-29.70503907 186.35879546 -3.64430999 186.44673639 22.41640186 186.54479599 C25.0822079 186.55477422 27.74801399 186.56473631 30.41382027 186.57465172 C31.07642519 186.57711771 31.73903012 186.57958371 32.42171399 186.58212443 C42.48580232 186.61938672 52.54989839 186.65083402 62.61401558 186.67914391 C74.29073957 186.71205172 85.96741581 186.75187626 97.64408714 186.80005896 C103.82862288 186.82533593 110.0131269 186.84711373 116.1977005 186.86061287 C122.01625212 186.87342226 127.83469499 186.89546469 133.6531868 186.9246521 C135.7909382 186.93373663 137.92870711 186.93942014 140.06647682 186.94148254 C142.98130685 186.94479885 145.8958274 186.96025942 148.81059456 186.97879601 C149.65982087 186.97686127 150.50904719 186.97492654 151.38400763 186.97293317 C155.6046172 187.01316064 159.05203413 187.15766827 162.83984566 189.25726891 C164.36476564 192.30710886 164.07547114 194.8996058 163.83984566 198.25726891 C162.81894398 199.95500469 162.81894398 199.95500469 160.83984566 201.25726891 C158.12604557 201.55757491 155.63967207 201.67319734 152.92427254 201.65599632 C151.70443924 201.66595886 151.70443924 201.66595886 150.45996284 201.67612267 C147.71708075 201.69486004 144.97463063 201.69211959 142.23169136 201.68964195 C140.23887042 201.69874209 138.2460551 201.70915376 136.25324726 201.72077465 C130.90591548 201.74832086 125.55869171 201.75786371 120.21129799 201.76374626 C115.19757023 201.77196955 110.18397241 201.79633688 105.17028999 201.81940269 C90.49769723 201.87745773 75.82501093 201.909517 61.15234566 201.94476891 C11.99265816 202.09945641 11.99265816 202.09945641 -38.16015434 202.25726891 C-38.16015434 282.44726891 -38.16015434 362.63726891 -38.16015434 445.25726891 C-28.26015434 445.25726891 -18.36015434 445.25726891 -8.16015434 445.25726891 C-8.1542881 443.10989723 -8.14842186 440.96252556 -8.14237785 438.75008202 C-8.08569466 418.5181088 -8.01260656 398.28624225 -7.92443943 378.05438137 C-7.87950511 367.65286396 -7.84008496 357.25138062 -7.8137188 346.8497982 C-7.79071961 337.78205644 -7.75730005 328.71442268 -7.71145278 319.6467666 C-7.68754653 314.84707288 -7.66880071 310.04748594 -7.66254044 305.24773407 C-7.65647786 300.72592717 -7.63643561 296.20439341 -7.60587883 291.68268776 C-7.5971174 290.02716598 -7.59337208 288.37160847 -7.59514618 286.71606445 C-7.60929409 267.4139245 -7.60929409 267.4139245 -1.72265434 260.31976891 C2.27893006 257.09898146 4.94209548 256.00854027 10.09517097 255.98984337 C11.69114113 255.97704842 11.69114113 255.97704842 13.3193531 255.96399498 C14.48151848 255.96490135 15.64368385 255.96580772 16.84106636 255.96674156 C18.68313164 255.95666573 18.68313164 255.95666573 20.56241035 255.94638634 C23.92831427 255.93064083 27.29397143 255.92403112 30.65989518 255.92275476 C32.76457413 255.92133212 34.8692273 255.91706033 36.97389984 255.91176033 C44.32172853 255.89326013 51.66948469 255.88508952 59.01733589 255.88666344 C65.85771634 255.8878642 72.69778092 255.86677499 79.53808147 255.83517611 C85.41764343 255.80898704 91.29710241 255.79829727 97.17672223 255.79957426 C100.68529916 255.80008321 104.19359546 255.79443768 107.70211411 255.77321815 C111.61834756 255.7501794 115.53415125 255.75937284 119.45044136 255.77142906 C120.60653404 255.76019005 121.76262672 255.74895103 122.95375252 255.73737144 C129.47515212 255.78838399 133.5428839 256.34969625 138.83984566 260.25726891 C143.44102202 265.63710589 143.96379043 271.5480315 143.99806404 278.34399986 C144.00300202 279.05795567 144.00794 279.77191148 144.01302761 280.50750232 C144.02838489 282.8996748 144.03675842 285.29182047 144.04516792 287.68402672 C144.05474784 289.39888304 144.06475799 291.113737 144.0751667 292.82858849 C144.10220953 297.48521283 144.12322248 302.14184731 144.14316869 306.79850674 C144.16503205 311.66456067 144.19241904 316.5305834 144.21922493 321.39661217 C144.26914706 330.61169658 144.31408768 339.82679831 144.35724729 349.04191661 C144.40662376 359.53276144 144.46154038 370.02357496 144.51692688 380.51438951 C144.63073957 402.09532015 144.73758019 423.67628067 144.83984566 445.25726891 C145.40399083 445.26150084 145.96813601 445.26573278 146.54937649 445.27009296 C160.26998703 445.37335302 173.99054525 445.48204587 187.71106625 445.59660816 C194.34617941 445.6518445 200.98129698 445.70526571 207.61645699 445.75458336 C214.0160755 445.80221632 220.41563954 445.85455885 226.81519318 445.91020966 C229.26048303 445.93063803 231.70578783 445.9493503 234.15110397 445.96634293 C237.5679955 445.99037613 240.98478368 446.02043237 244.40161324 446.05194664 C245.41940865 446.0577021 246.43720406 446.06345757 247.48584175 446.06938744 C248.41552269 446.07917625 249.34520363 446.08896507 250.30305672 446.09905052 C251.51567539 446.10872935 251.51567539 446.10872935 252.7527914 446.11860371 C254.83984566 446.25726891 254.83984566 446.25726891 257.83984566 447.25726891 C258.60157957 451.5737611 259.0004817 455.00160343 257.83984566 459.25726891 C254.82545941 460.26206432 252.83040518 460.38310311 249.68010521 460.38476086 C248.06829207 460.38927233 248.06829207 460.38927233 246.42391706 460.39387494 C245.23901834 460.39212457 244.05411963 460.3903742 242.8333149 460.38857079 C241.57795645 460.3906865 240.32259801 460.39280221 239.02919841 460.39498204 C236.26772937 460.39958382 233.50628276 460.40099898 230.7448101 460.40001678 C226.25197402 460.39842576 221.75916024 460.40362238 217.26632881 460.40964317 C210.7429753 460.41776089 204.21962571 460.42270165 197.69626808 460.42593384 C187.3857731 460.43142774 177.07531126 460.44832257 166.76483345 460.46727562 C163.23825651 460.47363257 159.71167948 460.47994098 156.18510246 460.48625278 C154.86304344 460.48862843 154.86304344 460.48862843 153.51427616 460.49105207 C143.47827046 460.50899379 133.44226241 460.52521757 123.40625191 460.54022789 C122.0298869 460.5422917 122.0298869 460.5422917 120.62571654 460.5443972 C105.75762697 460.56632518 90.88954592 460.57708279 76.02144304 460.58459864 C60.76045855 460.59266874 45.4995471 460.61595599 30.23860431 460.65255231 C20.8236292 460.6745832 11.40880425 460.68424016 1.99380466 460.67805197 C-4.45901287 460.67487816 -10.91170214 460.68620233 -17.36447999 460.70894638 C-21.0878995 460.72161806 -24.81103331 460.72777954 -28.53446388 460.71652985 C-32.57179468 460.70448852 -36.60839907 460.72326896 -40.64568901 460.7450161 C-42.40965275 460.73235229 -42.40965275 460.73235229 -44.20925212 460.71943265 C-50.74163503 460.78464305 -54.88899644 461.27715948 -60.16015434 465.25726891 C-66.48507506 472.20442097 -64.16015434 481.30517414 -64.16015434 490.25726891 C94.23984566 490.25726891 252.63984566 490.25726891 415.83984566 490.25726891 C417.00344749 476.75944639 417.00344749 476.75944639 411.83984566 465.25726891 C405.70063554 460.67862029 400.3884898 460.68797197 392.89355659 460.74310875 C391.70741768 460.73598366 390.52127876 460.72885857 389.29919624 460.72151756 C386.06379171 460.70558135 382.82894731 460.70699954 379.59353352 460.71562719 C376.20228266 460.71995874 372.81117974 460.70016033 369.41998482 460.68247032 C363.00285749 460.65227501 356.58585385 460.64052111 350.16866136 460.63689387 C338.66552391 460.63023092 327.16247139 460.60125905 315.65943933 460.55179751 C312.28525463 460.53800177 308.9111965 460.5293087 305.53698158 460.53166389 C301.78077264 460.53363339 298.02474449 460.52417317 294.26855659 460.51264 C293.14954964 460.51676399 292.03054268 460.52088799 290.87762642 460.52513695 C289.34682442 460.51706268 289.34682442 460.51706268 287.78509712 460.5088253 C286.89728428 460.50848982 286.00947144 460.50815434 285.09475517 460.50780869 C282.83984566 460.25726891 282.83984566 460.25726891 279.83984566 458.25726891 C279.00412565 454.78581657 278.48285839 452.30077015 279.65234566 448.88226891 C280.83984566 447.25726891 280.83984566 447.25726891 282.83984566 446.25726891 C284.27128991 446.15373446 285.70735307 446.11081393 287.14248848 446.09905052 C288.4970842 446.08436729 288.4970842 446.08436729 289.87904549 446.06938744 C290.87238396 446.06363197 291.86572243 446.05787651 292.88916206 446.05194664 C293.93308617 446.04204704 294.97701027 446.03214745 296.05256844 446.02194786 C299.51549166 445.9902697 302.97842861 445.96555047 306.44140816 445.94086266 C308.83751985 445.92029858 311.23362787 445.89930226 313.62973213 445.87788963 C319.94589456 445.8226125 326.26209003 445.77322812 332.57831001 445.72504234 C340.15157892 445.66605179 347.72478725 445.59979285 355.29800606 445.53474236 C366.81191569 445.43666189 378.32586362 445.3478543 389.83984566 445.25726891 C389.83984566 425.78726891 389.83984566 406.31726891 389.83984566 386.25726891 C384.11560249 386.2479232 378.39135933 386.2385775 372.49365425 386.22894859 C353.60635273 386.1952209 334.71916045 386.1398973 315.83194733 386.07336617 C304.37770921 386.03354774 292.92354007 386.00116947 281.46924019 385.98627281 C271.48629383 385.97327085 261.50349909 385.94634338 251.52063811 385.90265584 C246.23419772 385.88000835 240.94794455 385.8643602 235.66145134 385.86538506 C230.6857157 385.86612972 225.71039445 385.84825674 220.73476601 385.81610107 C218.90866548 385.80758188 217.08251859 385.80586582 215.25640678 385.81146622 C212.76195538 385.81809734 210.26882583 385.80020791 207.77450752 385.77625084 C207.0527044 385.78401126 206.33090127 385.79177167 205.58722532 385.79976726 C200.56669791 385.71446944 197.6629428 384.48195186 193.83984566 381.25726891 C191.81163822 378.34500145 191.58906031 375.98652534 191.58587837 372.48201561 C191.5774189 371.04578598 191.5774189 371.04578598 191.56878853 369.58054161 C191.57486122 368.01491982 191.57486122 368.01491982 191.58105659 366.4176693 C191.57579964 364.76097977 191.57579964 364.76097977 191.57043648 363.07082176 C191.56162532 359.41545918 191.56746667 355.76028975 191.57422066 352.10492516 C191.57287374 349.56671168 191.57093298 347.02849846 191.56842232 344.49028587 C191.5654718 339.1682014 191.56957546 333.84618627 191.57910347 328.52411461 C191.58998205 322.37678639 191.58646597 316.2295909 191.57545066 310.08226591 C191.56526973 304.16304934 191.56636205 298.24387389 191.57221413 292.32464981 C191.57354902 289.8084308 191.57190851 287.29220841 191.56725502 284.77599335 C191.5621793 281.25932519 191.56991534 277.7429122 191.58105659 274.22626305 C191.57700813 273.18453941 191.57295967 272.14281578 191.56878853 271.06952477 C191.57442818 270.10921852 191.58006783 269.14891228 191.58587837 268.15950584 C191.58700945 266.9131994 191.58700945 266.9131994 191.58816338 265.64171505 C191.89061731 262.77625663 192.42875838 260.78055528 193.83984566 258.25726891 C197.86235102 255.81632478 202.11661489 255.966646 206.69221687 255.97879601 C207.4764475 255.9730036 208.26067812 255.9672112 209.06867331 255.96124327 C211.69271596 255.94425742 214.31658258 255.941368 216.94067574 255.93842125 C218.82316709 255.9291221 220.70565433 255.91895345 222.58813667 255.90797997 C227.69717303 255.88066447 232.80618179 255.86552592 237.915272 255.85255194 C243.25512691 255.83692822 248.59492541 255.81013557 253.93474007 255.7845211 C264.04581101 255.7377199 274.15689256 255.70098226 284.26801652 255.66784823 C295.77943562 255.62963635 307.29079808 255.58022372 318.80216944 255.52986407 C342.48135825 255.42652423 366.16057084 255.33874911 389.83984566 255.25726891 C389.83984566 237.76726891 389.83984566 220.27726891 389.83984566 202.25726891 C383.73637642 202.24268639 377.63290718 202.22810387 371.34448433 202.21307945 C351.22383576 202.1628399 331.10326499 202.09641581 310.98269367 202.02155399 C298.77842953 201.97654426 286.57419492 201.93714161 274.36987495 201.91083336 C263.73545042 201.88789515 253.10111891 201.85454413 242.46676809 201.80856735 C236.83336864 201.78457866 231.20006164 201.76588695 225.56661224 201.759655 C220.26838688 201.75362961 214.97039822 201.73372253 209.67226028 201.70299339 C207.72395531 201.69417216 205.77561945 201.69049897 203.8272953 201.69226074 C201.17435674 201.69390278 198.52214906 201.67730656 195.86931038 201.65599632 C194.70346083 201.66326769 194.70346083 201.66326769 193.51405877 201.67068595 C188.36309228 201.60204302 188.36309228 201.60204302 185.85753536 199.95109844 C184.14148568 197.09492763 184.55125387 194.48949693 184.83984566 191.25726891 C186.83984566 188.25726891 186.83984566 188.25726891 189.83984566 187.25726891 C192.82746637 187.15100726 195.79235737 187.10240753 198.78044319 187.09905052 C200.16861235 187.09164356 200.16861235 187.09164356 201.58482534 187.08408695 C204.69872023 187.06867803 207.81259445 187.06034214 210.92651558 187.05194664 C213.15353262 187.04237079 215.38054783 187.03236088 217.60756111 187.02194786 C223.66502985 186.99486103 229.7225064 186.97387193 235.78000236 186.95394588 C242.10614247 186.9321096 248.43225838 186.90470939 254.75837898 186.87788963 C265.38016945 186.83361197 276.00196759 186.79278212 286.6237812 186.75458336 C297.5648718 186.71522697 308.50595132 186.6738004 319.44702339 186.62958336 C320.12129622 186.62685909 320.79556905 186.62413481 321.49027439 186.62132799 C324.87286273 186.60764849 328.2554509 186.59392822 331.63803899 186.58018768 C359.70528499 186.46622741 387.7725554 186.35968838 415.83984566 186.25726891 C415.83984566 180.31726891 415.83984566 174.37726891 415.83984566 168.25726891 C410.42581261 168.08714844 410.42581261 168.08714844 405.01074409 167.95941734 C401.35935012 167.79509597 399.34459658 167.6118332 396.29297066 165.46820641 C394.66246631 162.98738528 394.39940151 162.02818918 394.83984566 159.13226891 C394.92234566 158.44906578 395.00484566 157.76586266 395.08984566 157.06195641 C395.83984566 155.25726891 395.83984566 155.25726891 397.38672066 154.05414391 C400.90787055 152.91033088 404.42120751 152.78839691 408.08984566 152.63226891 C410.64734566 152.50851891 413.20484566 152.38476891 415.83984566 152.25726891 C415.83984566 146.31726891 415.83984566 140.37726891 415.83984566 134.25726891 C410.7548449 134.0083929 410.7548449 134.0083929 405.66894722 133.77924156 C398.57462338 133.38431824 398.57462338 133.38431824 395.83984566 131.25726891 C395.08984566 129.45258141 395.08984566 129.45258141 394.83984566 127.38226891 C394.73672066 126.70422203 394.63359566 126.02617516 394.52734566 125.32758141 C394.83984566 123.25726891 394.83984566 123.25726891 396.29297066 121.04633141 C399.95970624 118.47061837 403.20962761 118.58853762 407.58984566 118.50726891 C410.31234566 118.42476891 413.03484566 118.34226891 415.83984566 118.25726891 C415.83984566 112.31726891 415.83984566 106.37726891 415.83984566 100.25726891 C410.75462953 99.96898883 410.75462953 99.96898883 405.66894722 99.68915367 C402.27136125 99.4867534 399.11848706 99.15347341 395.83984566 98.25726891 C395.58924376 96.84423653 395.36522645 95.42647417 395.15234566 94.00726891 C394.96091988 92.82390953 394.96091988 92.82390953 394.76562691 91.61664391 C394.83984566 89.25726891 394.83984566 89.25726891 395.74609566 87.00726891 C399.11356441 84.19266815 402.76839288 84.57973369 407.02734566 84.50726891 C407.87232613 84.47762047 408.71730659 84.44797203 409.58789253 84.41742516 C411.67136387 84.34679901 413.75561071 84.29976095 415.83984566 84.25726891 C415.86668553 81.27804297 415.88660603 78.29905596 415.90234566 75.31976891 C415.91072456 74.46963219 415.91910347 73.61949547 415.92773628 72.74359703 C415.93095894 71.93471031 415.93418159 71.12582359 415.93750191 70.29242516 C415.94273872 69.54356041 415.94797554 68.79469566 415.95337105 68.02313805 C416.03326318 66.23059152 416.03326318 66.23059152 414.83984566 65.25726891 C412.30251753 65.15750348 409.79236249 65.12365046 407.25448799 65.13142776 C406.04264269 65.1292476 406.04264269 65.1292476 404.80631566 65.1270234 C402.06405604 65.12333643 399.32185108 65.12686221 396.57959175 65.13028526 C394.60778652 65.12913451 392.6359815 65.12754729 390.66417694 65.12555802 C385.21840886 65.12135843 379.77265816 65.12345821 374.32688999 65.12654424 C368.46452844 65.12879557 362.60216999 65.12532006 356.73980904 65.12256432 C345.24462349 65.11810475 333.74944444 65.11908391 322.25425863 65.12197696 C312.91647459 65.12426555 303.57869203 65.12457036 294.24090767 65.12345314 C293.57844777 65.12337676 292.91598788 65.12330037 292.23345344 65.12322167 C289.54459518 65.12291035 286.85573692 65.12259196 284.16687866 65.12226191 C258.92181824 65.11920003 233.67676138 65.12198092 208.43170151 65.1273588 C185.98246119 65.13210472 163.53322655 65.13168011 141.08398628 65.12689781 C115.88632876 65.12154802 90.68867439 65.11941714 65.49101639 65.12251008 C62.80693881 65.12283081 60.12286123 65.12314365 57.43878365 65.12345314 C56.77785164 65.12353222 56.11691963 65.12361129 55.43595938 65.12369277 C45.43685905 65.12483224 35.43776144 65.12349011 25.43866158 65.12097359 C14.07399636 65.11817641 2.70933805 65.11891209 -8.65532637 65.12425433 C-14.45987485 65.12689247 -20.26441178 65.12789452 -26.06896019 65.12460518 C-31.37352636 65.12164451 -36.67807019 65.12323117 -41.98263431 65.12858273 C-43.91060385 65.1297079 -45.83857525 65.12911355 -47.76654363 65.12670694 C-50.36932222 65.12370504 -52.97202232 65.12674526 -55.57479668 65.13142776 C-56.72074307 65.12791602 -56.72074307 65.12791602 -57.88983989 65.12433332 C-61.3134161 64.82930369 -61.3134161 64.82930369 -64.16015434 66.25726891 Z M9.06824207 271.35041904 C7.19457938 274.25892105 7.4715747 276.7119256 7.47908211 280.14781761 C7.47651883 280.85275189 7.47395556 281.55768617 7.47131461 282.2839821 C7.46636356 284.65185482 7.48289078 287.01909336 7.49926949 289.38690758 C7.50011548 291.08190966 7.49964117 292.77691285 7.49794197 294.47191429 C7.49707949 299.07912358 7.51474605 303.68609964 7.53566384 308.29325461 C7.55438862 313.10589851 7.55617777 317.91854745 7.55974007 322.73122215 C7.5690729 331.84724392 7.59370341 340.96315806 7.62378854 350.07913238 C7.66355624 362.39574195 7.67977742 374.71238086 7.69729519 387.02903843 C7.72552363 406.43852925 7.78528492 425.8477929 7.83984566 445.25726891 C47.76984566 445.25726891 87.69984566 445.25726891 128.83984566 445.25726891 C128.9272055 414.76021025 128.9272055 414.76021025 128.98633003 384.26312828 C129.00415221 371.83201969 129.02513825 359.40097195 129.06616402 346.96991539 C129.09602461 337.91767737 129.11541072 328.86548858 129.12211114 319.81320268 C129.12602908 315.01812575 129.13526502 310.22318968 129.15703583 305.42815781 C129.17734826 300.91793263 129.18369013 296.40790679 129.1791687 291.89764023 C129.17999626 290.23956788 129.18599309 288.58148908 129.19746208 286.92345619 C129.21232455 284.66466257 129.20882267 282.40662773 129.20060921 280.14781761 C129.20337459 278.88219584 129.20613997 277.61657408 129.20898914 276.31260014 C129.07227859 273.31315136 129.07227859 273.31315136 127.61144924 271.35041904 C125.31647295 269.93432705 123.82708854 269.87993907 121.13342476 269.87631798 C119.68230042 269.86362877 119.68230042 269.86362877 118.20186043 269.85068321 C117.14202446 269.85675591 116.08218849 269.8628286 114.99023628 269.86908531 C113.87295647 269.86382835 112.75567665 269.8585714 111.60453987 269.85315514 C107.90158403 269.83992276 104.19905607 269.848705 100.49609566 269.85883141 C97.92924097 269.85681161 95.36238685 269.85390097 92.79553413 269.8501339 C87.41196906 269.84570613 82.02856559 269.85187119 76.64502144 269.86615562 C70.41979788 269.88248252 64.19486907 269.8771941 57.96965265 269.86067641 C51.98259116 269.8454261 45.99567397 269.84703507 40.00859261 269.85582161 C37.46001838 269.85782702 34.91143666 269.85535246 32.36287117 269.84838295 C28.80486124 269.84078896 25.24742229 269.85234458 21.68945503 269.86908531 C20.09970108 269.85997627 20.09970108 269.85997627 18.47783089 269.85068321 C17.51041466 269.85914268 16.54299843 269.86760216 15.54626656 269.87631798 C14.70487885 269.87744905 13.86349113 269.87858013 12.99660683 269.87974548 C10.80865071 270.12546144 10.80865071 270.12546144 9.06824207 271.35041904 Z M206.83984566 270.25726891 C206.83984566 303.25726891 206.83984566 336.25726891 206.83984566 370.25726891 C267.22984566 370.25726891 327.61984566 370.25726891 389.83984566 370.25726891 C389.83984566 337.25726891 389.83984566 304.25726891 389.83984566 270.25726891 C329.44984566 270.25726891 269.05984566 270.25726891 206.83984566 270.25726891 Z " fill="#006400" transform="translate(80.16015434265137,2.7427310943603516)"/>
<path d="M0 0 C1.61572266 1.74023438 1.61572266 1.74023438 3.2890625 3.96875 C3.90007812 4.7819873 4.51109375 5.59522461 5.140625 6.43310547 C8.04707027 10.44549591 10.85552372 14.51716437 13.625 18.625 C17.35431649 24.13101916 21.10994439 29.60598237 25 35 C25.00410889 34.05157227 25.00821777 33.10314453 25.01245117 32.12597656 C25.03945746 28.59917184 25.08856376 25.0741036 25.15258789 21.54785156 C25.17575217 20.02322067 25.19016 18.49843012 25.19555664 16.97363281 C25.20485895 14.77828678 25.24586696 12.58544588 25.29296875 10.390625 C25.31653442 8.4111084 25.31653442 8.4111084 25.34057617 6.39160156 C26 3 26 3 28.31762695 0.53417969 C31 -1 31 -1 34.625 -0.9375 C39.14285714 0.31746032 39.14285714 0.31746032 41 3 C42.04193564 6.12580691 42.13290584 8.32159518 42.14526367 11.60131836 C42.15164352 12.74938461 42.15802338 13.89745087 42.16459656 15.08030701 C42.16570938 16.32095413 42.1668222 17.56160126 42.16796875 18.83984375 C42.17296135 20.75030235 42.17296135 20.75030235 42.17805481 22.69935608 C42.18312171 25.39522797 42.18589529 28.09099905 42.18530273 30.78686523 C42.1852011 34.23803768 42.19885694 37.68900444 42.21607494 41.14012814 C42.22987898 44.43585899 42.22928391 47.7315879 42.23046875 51.02734375 C42.23765427 52.26596664 42.24483978 53.50458954 42.25224304 54.78074646 C42.24916641 55.93196487 42.24608978 57.08318329 42.24291992 58.26928711 C42.24434494 59.28171982 42.24576996 60.29415253 42.24723816 61.33726501 C41.99276572 64.0779126 41.46833788 65.6919274 40 68 C36.78044012 70.29968563 33.87440468 70.55348638 30 70 C19.13303772 61.70679194 11.60277615 46.19007506 4 35 C3.98541748 35.91813477 3.97083496 36.83626953 3.95581055 37.78222656 C3.89466485 41.19687909 3.82049783 44.61073672 3.73754883 48.02490234 C3.70434645 49.50103138 3.67629983 50.97728594 3.65356445 52.45361328 C3.61993049 54.57899332 3.56761481 56.70322804 3.51171875 58.828125 C3.48553467 60.1059082 3.45935059 61.38369141 3.43237305 62.70019531 C2.97934087 66.1576673 2.46846393 67.58749621 0 70 C-3.60050078 71.17407634 -5.27928713 71.32759676 -8.75 69.75 C-11 68 -11 68 -13 65 C-13.26742554 62.39505005 -13.26742554 62.39505005 -13.29052734 59.23095703 C-13.30328705 58.04607697 -13.31604675 56.8611969 -13.32919312 55.64041138 C-13.33253159 53.71852493 -13.33253159 53.71852493 -13.3359375 51.7578125 C-13.3425943 50.44215302 -13.3492511 49.12649353 -13.35610962 47.77096558 C-13.36808325 44.98513509 -13.37179042 42.19942862 -13.37060547 39.41357422 C-13.37040238 35.85015566 -13.39769225 32.28753555 -13.43214989 28.72430611 C-13.4597877 25.31879633 -13.45856871 21.91343298 -13.4609375 18.5078125 C-13.47530853 17.23060333 -13.48967957 15.95339417 -13.50448608 14.63748169 C-13.4952562 12.85070511 -13.4952562 12.85070511 -13.48583984 11.02783203 C-13.48868988 9.98209015 -13.49153992 8.93634827 -13.49447632 7.85891724 C-12.87035642 4.25043877 -11.55076382 2.58461282 -9 0 C-5.21326852 -1.26224383 -3.79988957 -1.31534639 0 0 Z " fill="#006400" transform="translate(387,94)"/>
<path d="M0 0 C8.92868912 7.46475339 12.76031795 15.35361555 14.1796875 26.84375 C14.65798914 37.0229901 11.46236469 45.43464415 5.14453125 53.2734375 C-0.69736752 59.6543956 -8.95675865 63.93771148 -17.65625 64.421875 C-25.72892548 64.59049969 -32.69828302 64.64687704 -39.66796875 60.0859375 C-40.34988281 59.6734375 -41.03179687 59.2609375 -41.734375 58.8359375 C-48.79259923 54.12152587 -54.94768297 46.51533782 -56.66796875 38.0859375 C-58.5281904 26.61457066 -56.93030573 16.97909751 -50.66796875 7.0859375 C-44.92054244 -0.45022863 -36.34801149 -4.99501586 -27.078125 -6.6953125 C-17.23864527 -7.5883609 -8.06460015 -5.78573071 0 0 Z M-37.66796875 17.0859375 C-40.45877812 21.41650376 -41.96008204 25.91005514 -41.66796875 31.0859375 C-40.0073657 37.88403124 -37.47766219 42.21280854 -31.66796875 46.0859375 C-26.64348753 49.08562778 -21.33965012 48.89007802 -15.66796875 48.0859375 C-9.23269828 45.4148725 -5.34181021 41.43631097 -2.66796875 35.0859375 C-1.00320692 29.09279492 -2.07526905 24.58166003 -4.66796875 19.0859375 C-7.42020731 14.60260895 -10.72767975 11.92643732 -15.66796875 10.0859375 C-24.71023885 8.04413457 -31.17690351 10.59487226 -37.66796875 17.0859375 Z " fill="#006400" transform="translate(339.66796875,99.9140625)"/>
<path d="M0 0 C2.23005766 2.48533423 2.93393243 3.611853 3.5 6.9375 C2.81810427 11.11411135 1.36996335 12.50915752 -2 15 C-6.72154758 15.92378105 -9.16156273 14.44160393 -13.13671875 11.96484375 C-16.42664651 10.26125432 -19.30618818 10.12110858 -23 10 C-25.4237259 10.78785353 -25.4237259 10.78785353 -27 12 C-27 12.99 -27 13.98 -27 15 C-26.10539062 15.37511719 -25.21078125 15.75023438 -24.2890625 16.13671875 C-21.12523787 17.47577886 -17.96961728 18.83016525 -14.82128906 20.20507812 C-13.23484272 20.89750028 -11.64504552 21.58223508 -10.0546875 22.265625 C-3.20184131 25.40913243 1.20270964 29.07863921 4.375 36 C5.74331936 42.56793292 5.25795492 48.14028602 2 54 C-1.93800425 59.09803651 -5.88139648 61.83524954 -12 64 C-22.25631287 65.16050023 -31.92097926 64.63259817 -40.34765625 58.2109375 C-42.66257869 56.22671826 -44.84546933 54.15453067 -47 52 C-47.26406782 48.50110134 -47.38429254 45.85900685 -45.9375 42.625 C-42.99108373 40.15381216 -40.8063221 40 -37 40 C-33.875 41.75 -33.875 41.75 -31 44 C-26.86984693 47.21234128 -23.41123649 47.50017291 -18.31640625 47.37109375 C-15.76791547 47.14995271 -15.76791547 47.14995271 -13.375 45 C-12.92125 44.34 -12.4675 43.68 -12 43 C-12.66351519 39.86750351 -12.66351519 39.86750351 -15.12963867 38.85253906 C-16.0497876 38.49385742 -16.96993652 38.13517578 -17.91796875 37.765625 C-18.92537109 37.35570312 -19.93277344 36.94578125 -20.97070312 36.5234375 C-23.09301276 35.68327606 -25.21797853 34.84978941 -27.34570312 34.0234375 C-34.90200637 30.92982066 -39.28780033 27.68470853 -43.375 20.625 C-44.89046866 14.26003161 -44.65551124 8.61500398 -41.390625 2.85546875 C-37.64661894 -2.14004495 -32.41238373 -5.66518271 -26.25 -6.80859375 C-16.41346721 -7.64538213 -8.2416291 -5.5073171 0 0 Z " fill="#006400" transform="translate(130,100)"/>
<path d="M0 0 C4.65826263 4.64585286 6.6706648 9.50535535 8.84765625 15.640625 C9.35551918 17.02396027 9.35551918 17.02396027 9.87364197 18.4352417 C10.94819318 21.36941726 12.00578974 24.30935803 13.0625 27.25 C14.12651469 30.17489199 15.19397197 33.09850851 16.2620697 36.02191162 C16.92311308 37.83508057 17.58117229 39.64934151 18.23561096 41.46490479 C20.10802453 46.6452769 22.09091218 51.76038973 24.20677185 56.84661865 C25.28668313 59.77826047 25.57275407 61.92144685 25 65 C23.5 67.875 23.5 67.875 21 70 C18.19921961 70.66001997 15.80741832 70.60779159 13 70 C8.29174372 66.94599593 8.12360179 63.66293811 6 58 C-4.89 57.505 -4.89 57.505 -16 57 C-16.99 59.97 -17.98 62.94 -19 66 C-20.6875 68.5625 -20.6875 68.5625 -23 70 C-26.52250246 70.61322917 -29.75414038 70.72340236 -32.9375 68.875 C-34.73754496 65.69845006 -35.37913592 62.65353977 -34.55102539 59.04187012 C-33.79062189 56.7615834 -32.94617525 54.5323058 -32.0625 52.296875 C-31.74474609 51.46021301 -31.42699219 50.62355103 -31.09960938 49.76153564 C-30.079702 47.08570775 -29.04023307 44.41798282 -28 41.75 C-27.33073343 40.00310083 -26.66275288 38.25570839 -25.99609375 36.5078125 C-24.67154258 33.04007071 -23.32968285 29.57973158 -21.9765625 26.12304688 C-20.64548686 22.70980722 -19.37511619 19.28216188 -18.1484375 15.83007812 C-17.849375 15.00856262 -17.5503125 14.18704712 -17.2421875 13.34063721 C-16.68192293 11.79813514 -16.13653664 10.25011053 -15.609375 8.69598389 C-12.88978733 1.32120556 -8.05338772 -2.63565416 0 0 Z M-5 29 C-7.475 34.94 -7.475 34.94 -10 41 C-6.7 41 -3.4 41 0 41 C-0.45034123 39.37276701 -0.91055354 37.74826336 -1.375 36.125 C-1.63023437 35.22007812 -1.88546875 34.31515625 -2.1484375 33.3828125 C-2.8604315 30.85430274 -2.8604315 30.85430274 -5 29 Z " fill="#006400" transform="translate(185,94)"/>
<path d="M0 0 C2.5328814 2.02192468 3.84042822 3.19813205 4.48101807 6.41717529 C4.47213562 7.31430237 4.46325317 8.21142944 4.45410156 9.13574219 C4.45364838 10.66687653 4.45364838 10.66687653 4.45318604 12.22894287 C4.43254089 13.32386047 4.41189575 14.41877808 4.390625 15.546875 C4.38496521 16.6732135 4.37930542 17.799552 4.37347412 18.96002197 C4.35108545 22.55711382 4.30088213 26.15320926 4.25 29.75 C4.22993833 32.1887877 4.21168698 34.62759101 4.1953125 37.06640625 C4.15121244 43.04461074 4.08427463 49.02223419 4 55 C4.82346924 54.91258545 5.64693848 54.8251709 6.49536133 54.73510742 C7.5758374 54.63045166 8.65631348 54.5257959 9.76953125 54.41796875 C11.37598511 54.25590942 11.37598511 54.25590942 13.01489258 54.09057617 C16.75624509 53.97705349 18.98517979 54.79999607 22 57 C23.54586876 60.09173752 23.29359521 62.59429552 23 66 C20.86861174 68.85967625 19.67201151 69.8787726 16.13085938 70.51757812 C15.04611328 70.52208984 13.96136719 70.52660156 12.84375 70.53125 C11.65652344 70.53640625 10.46929687 70.5415625 9.24609375 70.546875 C8.00988281 70.53140625 6.77367187 70.5159375 5.5 70.5 C4.26378906 70.51546875 3.02757812 70.5309375 1.75390625 70.546875 C-0.02693359 70.53914063 -0.02693359 70.53914063 -1.84375 70.53125 C-2.92849609 70.52673828 -4.01324219 70.52222656 -5.13085938 70.51757812 C-8.75095292 69.86453198 -9.73872833 68.86502226 -12 66 C-12.50793457 63.19213867 -12.50793457 63.19213867 -12.51757812 59.91796875 C-12.53649109 58.07585815 -12.53649109 58.07585815 -12.55578613 56.1965332 C-12.54862627 54.86018295 -12.54042227 53.52383795 -12.53125 52.1875 C-12.53394577 50.81274135 -12.53782889 49.43798456 -12.54284668 48.06323242 C-12.54873793 45.18487356 -12.54019176 42.30701191 -12.52148438 39.42871094 C-12.49869389 35.74295984 -12.51181913 32.05837378 -12.53577423 28.37266541 C-12.55024299 25.53470107 -12.54562154 22.69701202 -12.53526306 19.85903931 C-12.5325987 18.50029359 -12.53585541 17.14152272 -12.54518127 15.7828064 C-12.55536241 13.88255301 -12.53708729 11.98221176 -12.51757812 10.08203125 C-12.51439575 9.00155518 -12.51121338 7.9210791 -12.50793457 6.80786133 C-11.87956611 3.33424169 -10.71374293 2.18169545 -8 0 C-5.02898609 -1.48550695 -3.16565278 -0.82306972 0 0 Z " fill="#006400" transform="translate(244,94)"/>
<path d="M0 0 C1.99404046 3.98808092 1.27258758 8.98995527 1.3125 13.375 C1.34150391 14.42945313 1.37050781 15.48390625 1.40039062 16.5703125 C1.40876953 17.58609375 1.41714844 18.601875 1.42578125 19.6484375 C1.44036377 20.57833496 1.45494629 21.50823242 1.4699707 22.46630859 C0.8538113 25.78812797 -0.35586434 26.95807588 -3 29 C-6.75349462 29.46918683 -9.03848453 29.53136381 -12.375 27.6875 C-16.1262236 23.79199857 -15.25850834 18.18581801 -15.3125 13.125 C-15.34150391 12.22652344 -15.37050781 11.32804687 -15.40039062 10.40234375 C-15.44192708 6.07616262 -15.42083838 3.67782575 -13.09375 -0.0703125 C-8.38512464 -4.40997841 -5.48245161 -2.79294704 0 0 Z " fill="#006400" transform="translate(122,360)"/>
</svg>
