<?xml version="1.0" encoding="UTF-8"?>
<svg version="1.1" xmlns="http://www.w3.org/2000/svg" width="512" height="512">
<path d="M0 0 C1.22857224 -0.01038551 1.22857224 -0.01038551 2.48196411 -0.02098083 C5.10781707 -0.03815414 7.73346855 -0.04456626 10.359375 -0.046875 C11.70047333 -0.04888412 11.70047333 -0.04888412 13.06866455 -0.05093384 C51.99402094 -0.03826368 51.99402094 -0.03826368 65.046875 8.015625 C68.88522213 12.08659922 70.29730293 15.66262502 70.546875 21.203125 C70.39081992 25.92733773 69.29002935 28.59265249 66.109375 32.203125 C61.05057528 36.65968665 58.27421181 37.47660829 51.67578125 37.43359375 C47.42140197 37.15866672 43.30724856 36.4864806 39.109375 35.765625 C-4.69422667 28.36513549 -51.66591782 38.32615671 -88.09375 64.125 C-95.75677656 69.70686482 -103.04647399 75.63584094 -109.890625 82.203125 C-110.83164063 83.08097656 -111.77265625 83.95882812 -112.7421875 84.86328125 C-141.56543871 112.24583918 -161.40893381 154.23619381 -163.05175781 194.11450195 C-163.07124271 195.47340245 -163.08502981 196.83239404 -163.09375 198.19140625 C-163.10080963 198.92787384 -163.10786926 199.66434143 -163.11514282 200.42312622 C-163.38349987 222.98703514 -163.38349987 222.98703514 -159.890625 245.203125 C-159.69194824 246.02699707 -159.49327148 246.85086914 -159.28857422 247.69970703 C-151.64272948 278.57517444 -136.94665248 306.21724813 -114.890625 329.203125 C-114.01277344 330.14414062 -113.13492188 331.08515625 -112.23046875 332.0546875 C-80.54342874 365.40889482 -35.14990574 381.66254036 10.109375 383.203125 C55.33398626 383.92860993 99.66479832 365.3352188 132.109375 334.203125 C133.52089844 332.88634766 133.52089844 332.88634766 134.9609375 331.54296875 C163.78418871 304.16041082 183.62768381 262.17005619 185.27050781 222.29174805 C185.29005644 220.93284847 185.30384031 219.57385634 185.3125 218.21484375 C185.31928772 217.47792297 185.32607544 216.7410022 185.33306885 215.98175049 C185.34992214 213.61799825 185.35625775 211.25443331 185.359375 208.890625 C185.36171143 208.08521271 185.36404785 207.27980042 185.36645508 206.44998169 C185.3782368 195.70277103 184.8434334 185.44962871 182.79296875 174.875 C181.5879637 168.40240144 180.85030953 162.76788799 183.796875 156.765625 C190.34318759 149.51160294 190.34318759 149.51160294 195.24609375 148.96484375 C201.50450622 148.78274599 205.0827774 149.38291083 210.109375 153.203125 C214.16551429 158.19056002 215.21168218 162.91496243 216.296875 169.078125 C216.5434082 170.36783203 216.5434082 170.36783203 216.79492188 171.68359375 C218.31960666 179.81936117 219.26650414 187.7667738 219.34765625 196.0390625 C219.35749542 196.8674614 219.36733459 197.69586029 219.37747192 198.54936218 C219.91059657 255.15603495 203.80117958 305.3062617 166.109375 348.203125 C165.46226562 348.97269531 164.81515625 349.74226563 164.1484375 350.53515625 C160.7632833 354.54066677 157.18775334 358.05112503 153.18359375 361.4375 C151.80834353 362.60814614 150.45597948 363.80625932 149.12890625 365.03125 C115.70930897 395.88010903 67.95329092 415.97826884 22.39453125 416.44140625 C21.58978867 416.45124542 20.78504608 416.46108459 19.95591736 416.47122192 C-36.30282984 417.01672442 -86.30073067 400.62520788 -128.890625 363.203125 C-129.66019531 362.55601562 -130.42976563 361.90890625 -131.22265625 361.2421875 C-135.22816677 357.8570333 -138.73862503 354.28150334 -142.125 350.27734375 C-143.29564614 348.90209353 -144.49375932 347.54972948 -145.71875 346.22265625 C-176.33061222 313.05980551 -196.69902861 265.35347862 -197.12890625 220.11328125 C-197.13874542 219.25990677 -197.14858459 218.40653229 -197.15872192 217.52729797 C-197.67543895 161.04923107 -181.50810874 111.01540411 -143.890625 68.203125 C-143.24351562 67.43355469 -142.59640625 66.66398437 -141.9296875 65.87109375 C-138.56180861 61.88602439 -135.01012339 58.39643733 -131.0234375 55.03125 C-129.57023344 53.78564652 -128.14887915 52.50213442 -126.7578125 51.1875 C-114.66298146 39.78965923 -100.61045833 30.81398698 -85.890625 23.203125 C-85.17745117 22.8309082 -84.46427734 22.45869141 -83.72949219 22.07519531 C-58.11088876 8.86613078 -28.97620098 0.16679402 0 0 Z " fill="#000000" transform="translate(244.890625,47.796875)"/>
<path d="M0 0 C4.77165653 4.65527466 7.3764569 9.75892875 9.61994934 15.96881104 C16.4959134 34.90223644 23.89866671 46.29618999 42.55844116 55.01843262 C47.76277676 57.3457213 52.99351047 59.63513745 58.33189392 61.63903809 C64.22955898 63.94350944 67.65887174 66.69274348 70.5625 72.5 C70.73705695 74.4115417 70.82965146 76.33104056 70.875 78.25 C70.93107422 79.78914063 70.93107422 79.78914063 70.98828125 81.359375 C70.08137612 88.04884035 64.71157754 92.64092115 60.11328125 97.20800781 C59.47538666 97.84940704 58.83749207 98.49080627 58.18026733 99.15164185 C56.08349326 101.25717413 53.97954121 103.35535832 51.875 105.453125 C50.4102706 106.91920241 48.94583814 108.38557654 47.48168945 109.85223389 C44.41844263 112.91842369 41.35162149 115.98098074 38.28222656 119.04101562 C34.34781998 122.96400808 30.42248705 126.89593784 26.49977112 130.830616 C23.48025238 133.85735839 20.45599051 136.87932527 17.43026733 139.8998642 C15.98071463 141.34808286 14.53264582 142.79778835 13.08609009 144.24900055 C11.06609799 146.27406827 9.03981164 148.29261991 7.01171875 150.30957031 C6.41523529 150.91010223 5.81875183 151.51063416 5.20419312 152.12936401 C0.69004986 156.59764099 -2.49904378 158.79871461 -9.0234375 159.04296875 C-15.09224639 158.98472844 -19.63917234 157.46389921 -25.1640625 155.23828125 C-35.44385365 151.36401069 -46.46387916 147.34030243 -57.4375 150.5 C-66.84852199 155.50220219 -74.30920305 163.32988394 -81.5625 171 C-82.04449104 171.50475986 -82.52648209 172.00951973 -83.02307892 172.52957535 C-86.28834434 175.96157842 -89.45280794 179.46431969 -92.5703125 183.03125 C-93.38592651 183.95616745 -94.20154053 184.8810849 -95.04187012 185.83403015 C-98.94123541 190.33153815 -98.94123541 190.33153815 -100.70265198 195.84114075 C-100.47173813 198.25254474 -100.47173813 198.25254474 -99.4375 201.5 C-98.52740668 211.09327877 -100.5486865 220.92519736 -106.1875 228.875 C-113.92500827 238.0439473 -122.57508865 243.44083258 -134.65625 244.73828125 C-144.36908636 245.05428106 -154.14891995 242.52939244 -161.6640625 236.1875 C-170.26601656 228.00238071 -175.35555392 219.12402683 -175.75 207 C-175.59764465 195.65799024 -171.29736069 186.63769892 -163.625 178.6015625 C-156.47785584 171.77142877 -147.50538971 168.34307629 -137.625 168.375 C-136.83480469 168.37242187 -136.04460937 168.36984375 -135.23046875 168.3671875 C-132.4375 168.5 -132.4375 168.5 -128.91723633 169.5 C-124.76837237 170.00486591 -122.771068 168.76327083 -119.45507812 166.31689453 C-117.59973106 164.78720298 -115.77230985 163.2232341 -113.96875 161.6328125 C-113.00181717 160.78771118 -112.03488434 159.94260986 -111.03865051 159.07189941 C-107.94288143 156.3205598 -104.93266876 153.48506201 -101.9375 150.625 C-101.43104824 150.14607048 -100.92459648 149.66714096 -100.4027977 149.17369843 C-86.96383897 136.86218561 -86.96383897 136.86218561 -80.22119141 120.64453125 C-80.06130603 110.59984749 -83.40797526 101.14337212 -87.09683228 91.92483521 C-89.62607972 85.54663785 -90.97979248 79.33952257 -89.4375 72.5 C-86.53387673 67.61189068 -83.00849963 63.78492448 -78.98828125 59.79199219 C-78.35038666 59.15059296 -77.71249207 58.50919373 -77.05526733 57.84835815 C-74.95849326 55.74282587 -72.85454121 53.64464168 -70.75 51.546875 C-69.2852706 50.08079759 -67.82083814 48.61442346 -66.35668945 47.14776611 C-63.29344263 44.08157631 -60.22662149 41.01901926 -57.15722656 37.95898438 C-53.22281998 34.03599192 -49.29748705 30.10406216 -45.37477112 26.169384 C-42.35525238 23.14264161 -39.33099051 20.12067473 -36.30526733 17.1001358 C-34.85571463 15.65191714 -33.40764582 14.20221165 -31.96109009 12.75099945 C-29.94109799 10.72593173 -27.91481164 8.70738009 -25.88671875 6.69042969 C-25.29023529 6.08989777 -24.69375183 5.48936584 -24.07919312 4.87063599 C-17.18803166 -1.95050732 -9.33128401 -4.07183302 0 0 Z M-30.66046429 57.86365032 C-33.12907248 60.26534657 -35.60971781 62.65064713 -38.1262207 65.00219727 C-41.02608462 67.71279152 -43.86315447 70.48437742 -46.69921875 73.26171875 C-47.60322922 74.09144699 -48.50723969 74.92117523 -49.43864441 75.77604675 C-54.18329905 80.49902938 -54.18329905 80.49902938 -55.56240845 86.83518982 C-55.06651193 90.15513451 -54.33642237 93.26850395 -53.4375 96.5 C-53.08712306 98.35493452 -52.75066246 100.21264003 -52.4375 102.07421875 C-52.10708459 103.7792139 -51.77380224 105.48365623 -51.4375 107.1875 C-51.19 108.50524414 -51.19 108.50524414 -50.9375 109.84960938 C-50.7725 110.68685547 -50.6075 111.52410156 -50.4375 112.38671875 C-50.293125 113.13139404 -50.14875 113.87606934 -50 114.64331055 C-49.52945313 116.72252032 -49.52945313 116.72252032 -47.4375 118.5 C-45.25203183 119.09455707 -43.04014645 119.59340623 -40.8203125 120.04296875 C-40.16674774 120.1756868 -39.51318298 120.30840485 -38.83981323 120.44514465 C-37.45696126 120.72367992 -36.07331503 120.9982963 -34.68896484 121.26928711 C-32.57516751 121.68500867 -30.46542408 122.11798406 -28.35546875 122.55273438 C-27.01062634 122.82136433 -25.66558007 123.0889761 -24.3203125 123.35546875 C-23.09715332 123.59934326 -21.87399414 123.84321777 -20.61376953 124.09448242 C-17.56024971 124.48432842 -16.24789893 124.53980721 -13.4375 123.5 C-11.35168503 121.84809842 -11.35168503 121.84809842 -9.31152344 119.71459961 C-8.51099548 118.91384506 -7.71046753 118.11309052 -6.88568115 117.28807068 C-6.03137512 116.41828079 -5.17706909 115.54849091 -4.296875 114.65234375 C-2.97360199 113.32270348 -2.97360199 113.32270348 -1.62359619 111.96620178 C0.71628577 109.61236944 3.04945398 107.25226246 5.37963867 104.88885498 C7.76064663 102.47711583 10.15020853 100.07388521 12.5390625 97.66992188 C17.2214678 92.95441941 21.89520728 88.23045844 26.5625 83.5 C23.78230953 81.36868849 21.15262714 79.70901653 17.97265625 78.23046875 C17.10576172 77.81603516 16.23886719 77.40160156 15.34570312 76.97460938 C13.53960498 76.12018103 11.72970505 75.27374076 9.91601562 74.43554688 C-0.18607144 69.56824583 -3.50385721 62.94679081 -8.25 53.125 C-8.75208984 52.10277344 -9.25417969 51.08054687 -9.77148438 50.02734375 C-11.00087695 47.5217246 -12.22260602 45.01267237 -13.4375 42.5 C-18.2534323 42.5 -27.26712705 54.56076227 -30.66046429 57.86365032 Z " fill="#000000" transform="translate(393.4375,49.5)"/>
<path d="M0 0 C4.4923397 5.03988248 4.93893751 9.13797561 4.76171875 15.703125 C4.12723135 20.89887184 1.62185896 23.46120625 -2.08984375 26.89453125 C-5.5613388 29.23779041 -8.63731453 29.66973536 -12.7578125 29.94140625 C-39.97361093 32.00001963 -62.49572368 41.60864143 -80.83984375 62.20703125 C-96.61629083 82.08791985 -102.22312563 105.53982372 -100.58984375 130.58203125 C-97.74924846 152.94295191 -86.0304784 174.39395262 -68.77734375 188.89453125 C-48.18305665 204.34024658 -23.81539946 211.65783561 1.86572266 208.25683594 C24.19803445 204.38320009 45.84825487 192.60206642 59.57421875 174.30078125 C71.09311521 157.24301117 77.41709332 139.46163249 78.00390625 118.703125 C78.80443494 112.55290937 81.82532976 108.59375443 86.41015625 104.58203125 C91.78686477 102.78979508 98.31845722 102.33024386 103.6484375 104.48828125 C107.69207933 107.18981498 109.58127134 110.02314904 111.41015625 114.58203125 C111.70120112 117.4496792 111.83910708 120.03699759 111.78515625 122.89453125 C111.77500488 123.68214844 111.76485352 124.46976562 111.75439453 125.28125 C110.91761313 157.76653102 95.74143947 188.3440796 72.41015625 210.58203125 C54.34699446 227.06764648 32.56037732 237.59785772 8.41015625 241.58203125 C7.38148438 241.76507813 6.3528125 241.948125 5.29296875 242.13671875 C-28.09435819 245.9658488 -61.35489786 237.79074525 -87.91064453 216.93701172 C-112.38925861 197.18471335 -128.44677166 170.75696052 -133.58984375 139.58203125 C-133.77289063 138.55335938 -133.9559375 137.5246875 -134.14453125 136.46484375 C-137.98279414 102.99788486 -129.74893401 69.85584146 -108.91064453 43.22265625 C-88.70149512 18.11997898 -60.30199249 1.20549654 -28.15625 -3.09375 C-6.76576968 -5.03833912 -6.76576968 -5.03833912 0 0 Z " fill="#000000" transform="translate(267.58984375,136.41796875)"/>
</svg>
