<?xml version="1.0" encoding="UTF-8"?>
<svg version="1.1" xmlns="http://www.w3.org/2000/svg" width="512" height="512">
<path d="M0 0 C0.65880157 0.00054382 1.31760315 0.00108765 1.99636841 0.00164795 C12.94884998 0.0431051 23.0324326 0.91979187 33.4375 4.375 C34.0867041 4.58930664 34.7359082 4.80361328 35.40478516 5.02441406 C50.8695932 10.32200725 63.4556548 18.42802402 75.4375 29.375 C76.17613281 30.03113281 76.91476562 30.68726562 77.67578125 31.36328125 C94.99880408 47.57540883 107.12277184 73.15343611 108.65869141 96.77709961 C108.77729674 100.50004548 108.81770723 104.21267442 108.8125 107.9375 C108.81195618 108.59630157 108.81141235 109.25510315 108.81085205 109.93386841 C108.7693949 120.88634998 107.89270813 130.9699326 104.4375 141.375 C104.22319336 142.0242041 104.00888672 142.6734082 103.78808594 143.34228516 C96.32090531 165.1405832 81.7914795 185.52588498 62.4375 198.375 C61.7775 198.375 61.1175 198.375 60.4375 198.375 C60.4375 199.035 60.4375 199.695 60.4375 200.375 C61.10910156 200.46910156 61.78070313 200.56320312 62.47265625 200.66015625 C88.3347042 206.89566979 110.79755305 230.92704458 124.1875 252.6875 C135.84744846 272.43099376 140.62579832 293.51868321 140.78759766 316.30615234 C140.80420055 318.01885525 140.83154753 319.73148767 140.86962891 321.44384766 C140.92453202 323.93167505 140.94628204 326.41789772 140.9609375 328.90625 C140.98360687 329.66578979 141.00627625 330.42532959 141.02963257 331.20788574 C141.01386025 335.19767001 140.60953303 337.66576707 138.09228516 340.84179688 C134.21660176 344.53998438 130.86710222 344.767893 125.73046875 344.734375 C121.83994364 344.12461638 120.11526365 342.18665184 117.4375 339.375 C115.96039458 336.42078915 116.16336933 333.36683361 116.04296875 330.12109375 C115.9739944 328.60999452 115.90430719 327.0989277 115.83398438 325.58789062 C115.72825738 323.22584804 115.62691992 320.86398965 115.53881836 318.5012207 C114.42058964 289.30579518 104.46916795 263.92731369 83.4375 243.375 C60.25135308 221.97813773 31.32588567 217.1379419 0.8125 217.1875 C-0.30834991 217.18890488 -0.30834991 217.18890488 -1.45184326 217.19033813 C-34.77919433 217.2807346 -63.18859194 224.07908845 -87.5625 248.375 C-107.18156874 269.49569463 -113.8039764 294.61348149 -114.49560547 322.73779297 C-114.55711863 325.03476134 -114.64787008 327.32917747 -114.7421875 329.625 C-114.75071747 330.3156958 -114.75924744 331.0063916 -114.76803589 331.71801758 C-115.02180628 337.26294758 -116.73005937 339.62703065 -120.5625 343.375 C-124.63122744 344.73124248 -128.31271964 345.04106438 -132.5625 344.375 C-135.6360547 342.66959077 -137.96829136 340.56341729 -139.5625 337.375 C-139.69833398 334.82563036 -139.77461186 332.30494359 -139.80078125 329.75390625 C-139.8105751 328.98648102 -139.82036896 328.21905579 -139.83045959 327.42837524 C-140.15531428 295.34437616 -140.15531428 295.34437616 -135.5625 281.375 C-135.34287598 280.68792969 -135.12325195 280.00085938 -134.89697266 279.29296875 C-123.66491183 245.01650288 -100.70085073 219.20469707 -68.72265625 202.9296875 C-63.21131993 200.375 -63.21131993 200.375 -59.5625 200.375 C-59.5625 199.715 -59.5625 199.055 -59.5625 198.375 C-60.12582031 198.11847656 -60.68914062 197.86195313 -61.26953125 197.59765625 C-83.39709067 185.79880429 -97.00846287 161.09688205 -104.5546875 138.16796875 C-107.16545604 128.34216933 -107.95170559 118.97401947 -107.9375 108.8125 C-107.93695618 108.15369843 -107.93641235 107.49489685 -107.93585205 106.81613159 C-107.8943949 95.86365002 -107.01770813 85.7800674 -103.5625 75.375 C-103.34819336 74.7257959 -103.13388672 74.0765918 -102.91308594 73.40771484 C-97.61549275 57.9429068 -89.50947598 45.3568452 -78.5625 33.375 C-77.90636719 32.63636719 -77.25023437 31.89773437 -76.57421875 31.13671875 C-57.01610103 10.23843022 -28.06386348 -0.0392327 0 0 Z M-55.5625 46.375 C-56.40683594 47.12523437 -57.25117188 47.87546875 -58.12109375 48.6484375 C-67.48376436 57.45533314 -74.00723055 68.39512768 -78.5625 80.375 C-78.95566406 81.39980469 -79.34882813 82.42460937 -79.75390625 83.48046875 C-86.2739157 103.58572438 -83.93735411 125.84809751 -74.8125 144.625 C-63.90314031 165.83454155 -46.77621759 181.09113449 -24.0390625 188.52734375 C-1.75124716 194.98391706 19.65971611 192.61050508 40.25 182.0625 C46.1593207 178.71364384 51.3714852 174.88943865 56.4375 170.375 C57.19675781 169.70984375 57.95601562 169.0446875 58.73828125 168.359375 C68.03763336 159.68640412 75.01001904 148.25757757 79.4375 136.375 C79.829375 135.35148437 80.22125 134.32796875 80.625 133.2734375 C87.15798108 113.17544708 84.81079178 90.89636496 75.6875 72.125 C64.74624184 50.87502914 47.73680277 35.70123878 24.91015625 28.21875 C-3.76742411 19.93214267 -33.15722636 26.33776341 -55.5625 46.375 Z " fill="#006400" transform="translate(255.5625,83.625)"/>
<path d="M0 0 C25.50497013 16.40237238 41.9025871 39.14412702 49.11694336 68.35791016 C52.84266353 85.74732626 52.06703596 105.50630664 46.5625 122.4375 C46.35351074 123.08428711 46.14452148 123.73107422 45.92919922 124.39746094 C40.63431157 140.14330662 32.02326431 152.62300839 20.5625 164.4375 C18.52453551 166.74196754 16.54251741 169.0828847 14.5625 171.4375 C15.42230469 172.02015625 16.28210938 172.6028125 17.16796875 173.203125 C42.58505708 190.70614917 60.56063768 213.69755896 69.5625 243.4375 C69.78695801 244.17097656 70.01141602 244.90445313 70.24267578 245.66015625 C73.32881395 256.25202878 73.97837934 266.74731263 74.125 277.75 C74.16548462 279.6379126 74.16548462 279.6379126 74.20678711 281.56396484 C74.16446063 291.50329608 74.16446063 291.50329608 71.21484375 295.23046875 C67.24605135 298.53292487 63.83896559 298.82939374 58.85546875 298.796875 C54.96494364 298.18711638 53.24026365 296.24915184 50.5625 293.4375 C49.27470463 290.86190925 49.31901066 288.81393319 49.16796875 285.93359375 C47.29470987 253.99670265 39.49970694 226.91289278 15.5625 204.4375 C6.02424328 196.12998608 -5.0122852 190.09616399 -16.625 185.1875 C-19.96825559 183.72049707 -22.39067789 182.59301742 -24.4375 179.4375 C-25.61671869 175.12469318 -25.74767034 171.56740625 -24.5625 167.25 C-21.51165079 163.21211134 -17.70397767 161.07112819 -13.4375 158.4375 C5.75251857 145.64415429 18.26462182 129.54852185 23.8671875 106.78515625 C27.9608135 84.63665036 22.96996733 63.46169572 10.83984375 44.78515625 C9.17963612 42.55192187 7.43682648 40.49383753 5.5625 38.4375 C4.83546875 37.61894531 4.1084375 36.80039063 3.359375 35.95703125 C-2.08831744 30.14908818 -7.70600546 26.16714874 -14.50390625 22.1796875 C-18.7165297 19.67791645 -22.24358581 17.35814457 -24.875 13.125 C-25.93468132 8.06207814 -25.38178836 3.98883088 -22.6875 -0.4375 C-15.45467053 -7.26850561 -7.75875486 -4.65159744 0 0 Z " fill="#006400" transform="translate(386.4375,113.5625)"/>
<path d="M0 0 C3.03833701 1.81007311 4.5439661 3.25376272 6.375 6.25 C7.58639042 11.58011785 6.90972422 15.46287976 4.1875 20.0625 C0.81776811 23.68618269 -3.62782519 25.75572575 -7.9140625 28.12109375 C-11.81453444 30.49593806 -14.98217652 33.3344451 -18.2578125 36.49609375 C-20 38 -20 38 -22 38 C-22.26554687 38.58265625 -22.53109375 39.1653125 -22.8046875 39.765625 C-24.03536654 42.06611001 -25.42660213 43.77511875 -27.125 45.75 C-41.02312254 63.44907046 -44.74891644 83.98239123 -43 106 C-41.28793007 119.91056821 -34.07042897 134.3674416 -25 145 C-24.5771875 145.56460938 -24.154375 146.12921875 -23.71875 146.7109375 C-17.33241379 154.91663693 -8.08244688 160.67905614 0.94140625 165.61328125 C3.95853693 167.64569376 5.62307894 169.66646282 6.6171875 173.18359375 C7.03801818 176.86267408 7.27046279 179.32384302 5.875 182.8125 C2.29720257 186.986597 -1.44295699 189.39702472 -6.5625 191.3125 C-31.24738034 201.30112517 -49.22606123 220.46732687 -59.6262207 244.80004883 C-65.04957133 258.19343553 -66.58099055 271.3255466 -67.05395508 285.7355957 C-67.50179508 295.115771 -67.50179508 295.115771 -70.37890625 298.73828125 C-74.3038752 302.12510245 -77.71239441 302.39196643 -82.70703125 302.359375 C-86.59755636 301.74961638 -88.32223635 299.81165184 -91 297 C-98.16656363 282.66687274 -91.18791019 256.83447544 -86.45703125 242.11328125 C-76.85881061 213.70580274 -57.89131698 191.26785013 -33 175 C-36.10381895 171.27541727 -39.19469726 167.79515864 -42.75 164.5 C-61.03577607 146.31911366 -69.17709879 119.95301358 -69.3125 94.75 C-69.3286337 66.84766761 -60.32545361 41.93443507 -40.75390625 21.75 C-33.38199715 14.38854751 -26.01937508 8.25677433 -17 3 C-16.2884375 2.55269531 -15.576875 2.10539062 -14.84375 1.64453125 C-9.8062107 -1.28403823 -5.61368698 -1.67125032 0 0 Z " fill="#006400" transform="translate(144,110)"/>
</svg>
