<?xml version="1.0" encoding="UTF-8"?>
<svg version="1.1" xmlns="http://www.w3.org/2000/svg" width="512" height="512">
<path d="M0 0 C1.05549545 -0.00852997 2.11099091 -0.01705994 3.19847107 -0.02584839 C4.34611938 -0.02494202 5.4937677 -0.02403564 6.67619324 -0.02310181 C7.89302292 -0.02981903 9.1098526 -0.03653625 10.36355591 -0.04345703 C13.69434575 -0.05918574 17.02488621 -0.06581125 20.35569596 -0.0670886 C22.43944946 -0.06851251 24.52317702 -0.07278667 26.60692406 -0.07808304 C33.88458789 -0.09657517 41.16217857 -0.10475481 48.43986511 -0.10317993 C55.21037932 -0.10197923 61.98057438 -0.12306942 68.75100785 -0.15466726 C74.57455524 -0.18087175 80.39799867 -0.19154547 86.22160453 -0.19026911 C89.69498816 -0.18976063 93.16808813 -0.19537977 96.64141273 -0.21662521 C100.51901688 -0.23969678 104.396188 -0.23046115 108.27384949 -0.21841431 C109.41542511 -0.22965332 110.55700073 -0.24089233 111.73316956 -0.25247192 C119.51371498 -0.19112457 124.89737777 0.96222885 130.91130066 6.23226929 C131.45012878 6.88324585 131.98895691 7.53422241 132.54411316 8.20492554 C133.09841003 8.85332397 133.65270691 9.50172241 134.22380066 10.16976929 C137.48111029 14.89727003 137.96693638 19.24313176 137.9596405 24.86825562 C137.96635773 25.61691391 137.97307495 26.3655722 137.97999573 27.13691711 C137.99894084 29.60366517 138.00289828 32.07014057 138.00505066 34.53695679 C138.01148156 36.25942596 138.01821014 37.98189405 138.02522278 39.70436096 C138.03718721 43.31305472 138.04090452 46.92165281 138.03971863 50.53036499 C138.03951561 55.14037258 138.06680338 59.74976252 138.10126305 64.35962391 C138.1235708 67.91741213 138.12755497 71.47505269 138.12649918 75.03290367 C138.12884985 76.73166721 138.13764319 78.43043515 138.15316391 80.12912941 C138.30099521 97.98173906 138.30099521 97.98173906 131.70426941 105.50961304 C131.05329285 106.04844116 130.40231628 106.58726929 129.73161316 107.14242554 C129.08321472 107.69672241 128.43481628 108.25101929 127.76676941 108.82211304 C123.63427633 111.66945463 120.03378839 112.51737807 115.05265808 112.49447632 C113.95189438 112.49432526 112.85113068 112.49417419 111.7170105 112.49401855 C109.95113335 112.4785347 109.95113335 112.4785347 108.14958191 112.46273804 C106.93587418 112.45990814 105.72216644 112.45707825 104.47167969 112.4541626 C100.59989004 112.44297862 96.72833275 112.41787684 92.85661316 112.39242554 C90.22966338 112.38239345 87.60270997 112.373268 84.97575378 112.36508179 C78.5401278 112.34304508 72.10463708 112.30958495 65.66911316 112.26742554 C65.7534929 123.65496084 65.84836726 135.0423557 65.95664024 146.42969036 C66.00658598 151.71729089 66.05291631 157.00487161 66.09098816 162.29257202 C66.12786253 167.39549185 66.17422858 172.49824524 66.22717667 177.60102272 C66.24570913 179.54783013 66.26082133 181.4946732 66.27245712 183.44153404 C66.28933908 186.16842059 66.31837906 188.89492693 66.3502655 191.62167358 C66.35242569 192.42656219 66.35458588 193.23145081 66.35681152 194.06072998 C66.41862942 198.1990156 66.65414684 201.60283625 68.66911316 205.26742554 C72.18577259 207.26384859 75.41261065 207.55331316 79.40739441 207.68148804 C81.00744324 207.73949585 81.00744324 207.73949585 82.63981628 207.79867554 C83.74260925 207.82961304 84.84540222 207.86055054 85.98161316 207.89242554 C87.66480652 207.95043335 87.66480652 207.95043335 89.38200378 208.00961304 C92.14421168 208.10364565 94.90641716 208.18929895 97.66911316 208.26742554 C97.63769226 207.28515991 97.63769226 207.28515991 97.6056366 206.28305054 C97.52180933 203.27800225 97.47024421 200.2732009 97.41911316 197.26742554 C97.38559753 196.2374646 97.35208191 195.20750366 97.31755066 194.14633179 C97.2176745 186.30605302 98.41970448 180.97549826 103.63395691 175.02523804 C104.28493347 174.48640991 104.93591003 173.94758179 105.60661316 173.39242554 C106.2550116 172.83812866 106.90341003 172.28383179 107.57145691 171.71273804 C113.11849824 167.89075425 118.17303443 167.99078086 124.69181824 168.04037476 C126.19984009 168.03993668 126.19984009 168.03993668 127.73832703 168.03948975 C131.05518785 168.04088101 134.37182292 168.05643287 137.68864441 168.07211304 C139.99078244 168.07584388 142.29292207 168.07869052 144.59506226 168.08068848 C150.64986059 168.08831927 156.70456275 168.10796311 162.75932312 168.13009644 C170.02641055 168.15416674 177.29353016 168.16333848 184.56064606 168.17500305 C195.59686862 168.19438771 206.63288021 168.23271434 217.66911316 168.26742554 C217.66911316 149.78742554 217.66911316 131.30742554 217.66911316 112.26742554 C207.82686154 112.42499285 207.82686154 112.42499285 197.98551941 112.6277771 C189.28575259 112.69793651 183.25158539 112.28307629 176.42692566 106.30258179 C175.88809753 105.65160522 175.34926941 105.00062866 174.79411316 104.32992554 C173.96266785 103.35732788 173.96266785 103.35732788 173.11442566 102.36508179 C169.85711603 97.63758105 169.37128993 93.29171932 169.37858582 87.66659546 C169.37186859 86.91793716 169.36515137 86.16927887 169.35823059 85.39793396 C169.33928548 82.93118591 169.33532804 80.4647105 169.33317566 77.99789429 C169.32674476 76.27542511 169.32001618 74.55295702 169.31300354 72.83049011 C169.30103911 69.22179636 169.2973218 65.61319827 169.29850769 62.00448608 C169.29871071 57.39447849 169.27142294 52.78508855 169.23696327 48.17522717 C169.21465551 44.61743894 169.21067135 41.05979838 169.21172714 37.5019474 C169.20937647 35.80318386 169.20058313 34.10441593 169.18506241 32.40572166 C169.03723111 14.55311201 169.03723111 14.55311201 175.63395691 7.02523804 C176.61042175 6.21699585 176.61042175 6.21699585 177.60661316 5.39242554 C178.2550116 4.83812866 178.90341003 4.28383179 179.57145691 3.71273804 C184.29895765 0.4554284 188.64481938 -0.03039769 194.26994324 -0.02310181 C195.39293068 -0.03317764 195.39293068 -0.03317764 196.53860474 -0.04345703 C199.00535279 -0.06240214 201.4718282 -0.06635958 203.93864441 -0.06851196 C205.66111359 -0.07494286 207.38358168 -0.08167144 209.10604858 -0.08868408 C212.71474234 -0.10064851 216.32334043 -0.10436582 219.93205261 -0.10317993 C224.54206021 -0.10297691 229.15145015 -0.13026469 233.76131153 -0.16472435 C237.31909975 -0.18703211 240.87674031 -0.19101627 244.43459129 -0.18996048 C246.13335483 -0.19231115 247.83212277 -0.20110449 249.53081703 -0.21662521 C267.38342668 -0.36445652 267.38342668 -0.36445652 274.91130066 6.23226929 C275.45012878 6.88324585 275.98895691 7.53422241 276.54411316 8.20492554 C277.09841003 8.85332397 277.65270691 9.50172241 278.22380066 10.16976929 C281.48111029 14.89727003 281.96693638 19.24313176 281.9596405 24.86825562 C281.96635773 25.61691391 281.97307495 26.3655722 281.97999573 27.13691711 C281.99894084 29.60366517 282.00289828 32.07014057 282.00505066 34.53695679 C282.01148156 36.25942596 282.01821014 37.98189405 282.02522278 39.70436096 C282.03718721 43.31305472 282.04090452 46.92165281 282.03971863 50.53036499 C282.03951561 55.14037258 282.06680338 59.74976252 282.10126305 64.35962391 C282.1235708 67.91741213 282.12755497 71.47505269 282.12649918 75.03290367 C282.12884985 76.73166721 282.13764319 78.43043515 282.15316391 80.12912941 C282.30099521 97.98173906 282.30099521 97.98173906 275.70426941 105.50961304 C275.05329285 106.04844116 274.40231628 106.58726929 273.73161316 107.14242554 C273.08321472 107.69672241 272.43481628 108.25101929 271.76676941 108.82211304 C267.0527119 112.07016011 263.07245065 112.50942831 257.39958191 112.46273804 C256.15330017 112.45774292 254.90701843 112.4527478 253.62297058 112.44760132 C252.05007263 112.42939331 250.47717468 112.4111853 248.85661316 112.39242554 C243.84473816 112.35117554 238.83286316 112.30992554 233.66911316 112.26742554 C233.66911316 130.74742554 233.66911316 149.22742554 233.66911316 168.26742554 C241.01161316 168.22101929 248.35411316 168.17461304 255.91911316 168.12680054 C260.57667942 168.10635722 265.2341902 168.08710105 269.89176941 168.07211304 C277.28104675 168.04822162 284.67012541 168.01998783 292.05924988 167.96566772 C298.01797154 167.92213822 303.97648009 167.8982731 309.93534851 167.88791656 C312.20629734 167.88053803 314.47723479 167.86612946 316.74809265 167.84450531 C319.93426017 167.81537768 323.11955221 167.81147355 326.30583191 167.81332397 C327.7073777 167.79175232 327.7073777 167.79175232 329.13723755 167.76974487 C336.2470798 167.81428923 341.52216037 169.50972997 346.91130066 174.23226929 C347.45012878 174.88324585 347.98895691 175.53422241 348.54411316 176.20492554 C349.09841003 176.85332397 349.65270691 177.50172241 350.22380066 178.16976929 C353.05079443 182.27273052 353.91971726 185.83835816 353.86442566 190.78695679 C353.85798035 191.80853882 353.85153503 192.83012085 353.84489441 193.88265991 C353.8281366 194.93775757 353.81137878 195.99285522 353.79411316 197.07992554 C353.78508972 198.15435913 353.77606628 199.22879272 353.76676941 200.33578491 C353.74326622 202.97989407 353.71040891 205.62354426 353.66911316 208.26742554 C357.56551312 208.1572388 361.46097409 208.02668076 365.35661316 207.89242554 C367.01080261 207.84601929 367.01080261 207.84601929 368.69841003 207.79867554 C369.76510925 207.76000366 370.83180847 207.72133179 371.93083191 207.68148804 C372.91011658 207.65006714 373.88940125 207.61864624 374.89836121 207.58627319 C377.9125495 207.2394118 380.0244356 206.76882064 382.66911316 205.26742554 C385.06967956 200.90155111 384.97492938 196.47720489 384.98796082 191.62167358 C384.99800644 190.76262924 385.00805206 189.9035849 385.0184021 189.01850891 C385.04920865 186.18872729 385.06626224 183.35904019 385.08317566 180.52914429 C385.10188933 178.56330046 385.1214629 176.59746464 385.14186096 174.63163757 C385.19316702 169.46468839 385.23280099 164.29771316 385.27000427 159.13064575 C385.31005342 153.85521003 385.36114163 148.57988248 385.41130066 143.30453491 C385.50804192 132.95890779 385.59245254 122.61321957 385.66911316 112.26742554 C384.66219421 112.28074921 384.66219421 112.28074921 383.63493347 112.29434204 C376.6267196 112.38307048 369.61866621 112.44326584 362.61003113 112.4871521 C359.99700943 112.50722487 357.38403241 112.53448912 354.77116394 112.56918335 C351.00786794 112.61788988 347.24516767 112.64043865 343.48161316 112.65805054 C342.31984558 112.67869568 341.158078 112.69934082 339.96110535 112.72061157 C332.00040933 112.72279698 326.58179848 111.69613758 320.42692566 106.30258179 C319.61868347 105.32611694 319.61868347 105.32611694 318.79411316 104.32992554 C318.23981628 103.6815271 317.68551941 103.03312866 317.11442566 102.36508179 C313.85711603 97.63758105 313.37128993 93.29171932 313.37858582 87.66659546 C313.37186859 86.91793716 313.36515137 86.16927887 313.35823059 85.39793396 C313.33928548 82.93118591 313.33532804 80.4647105 313.33317566 77.99789429 C313.32674476 76.27542511 313.32001618 74.55295702 313.31300354 72.83049011 C313.30103911 69.22179636 313.2973218 65.61319827 313.29850769 62.00448608 C313.29871071 57.39447849 313.27142294 52.78508855 313.23696327 48.17522717 C313.21465551 44.61743894 313.21067135 41.05979838 313.21172714 37.5019474 C313.20937647 35.80318386 313.20058313 34.10441593 313.18506241 32.40572166 C313.03723111 14.55311201 313.03723111 14.55311201 319.63395691 7.02523804 C320.28493347 6.48640991 320.93591003 5.94758179 321.60661316 5.39242554 C322.2550116 4.83812866 322.90341003 4.28383179 323.57145691 3.71273804 C327.58746338 0.94565723 331.15637402 0.01775858 336 0 C337.05549545 -0.00852997 338.11099091 -0.01705994 339.19847107 -0.02584839 C340.34611938 -0.02494202 341.4937677 -0.02403564 342.67619324 -0.02310181 C343.89302292 -0.02981903 345.1098526 -0.03653625 346.36355591 -0.04345703 C349.69434575 -0.05918574 353.02488621 -0.06581125 356.35569596 -0.0670886 C358.43944946 -0.06851251 360.52317702 -0.07278667 362.60692406 -0.07808304 C369.88458789 -0.09657517 377.16217857 -0.10475481 384.43986511 -0.10317993 C391.21037932 -0.10197923 397.98057438 -0.12306942 404.75100785 -0.15466726 C410.57455524 -0.18087175 416.39799867 -0.19154547 422.22160453 -0.19026911 C425.69498816 -0.18976063 429.16808813 -0.19537977 432.64141273 -0.21662521 C436.51901688 -0.23969678 440.396188 -0.23046115 444.27384949 -0.21841431 C445.41542511 -0.22965332 446.55700073 -0.24089233 447.73316956 -0.25247192 C455.51371498 -0.19112457 460.89737777 0.96222885 466.91130066 6.23226929 C467.45012878 6.88324585 467.98895691 7.53422241 468.54411316 8.20492554 C469.09841003 8.85332397 469.65270691 9.50172241 470.22380066 10.16976929 C473.48111029 14.89727003 473.96693638 19.24313176 473.9596405 24.86825562 C473.96635773 25.61691391 473.97307495 26.3655722 473.97999573 27.13691711 C473.99894084 29.60366517 474.00289828 32.07014057 474.00505066 34.53695679 C474.01148156 36.25942596 474.01821014 37.98189405 474.02522278 39.70436096 C474.03718721 43.31305472 474.04090452 46.92165281 474.03971863 50.53036499 C474.03951561 55.14037258 474.06680338 59.74976252 474.10126305 64.35962391 C474.1235708 67.91741213 474.12755497 71.47505269 474.12649918 75.03290367 C474.12884985 76.73166721 474.13764319 78.43043515 474.15316391 80.12912941 C474.30099521 97.98173906 474.30099521 97.98173906 467.70426941 105.50961304 C467.05329285 106.04844116 466.40231628 106.58726929 465.73161316 107.14242554 C465.08321472 107.69672241 464.43481628 108.25101929 463.76676941 108.82211304 C459.63427633 111.66945463 456.03378839 112.51737807 451.05265808 112.49447632 C449.95189438 112.49432526 448.85113068 112.49417419 447.7170105 112.49401855 C445.95113335 112.4785347 445.95113335 112.4785347 444.14958191 112.46273804 C442.93587418 112.45990814 441.72216644 112.45707825 440.47167969 112.4541626 C436.59989004 112.44297862 432.72833275 112.41787684 428.85661316 112.39242554 C426.22966338 112.38239345 423.60270997 112.373268 420.97575378 112.36508179 C414.5401278 112.34304508 408.10463708 112.30958495 401.66911316 112.26742554 C401.67799561 113.43982788 401.68687805 114.61223022 401.69602966 115.82015991 C401.77721565 126.88415458 401.83712674 137.94808858 401.87636185 149.01231384 C401.89721135 154.70017947 401.9254812 160.38780407 401.97087097 166.07553101 C402.0144222 171.56741699 402.0382701 177.05907155 402.04862213 182.55111694 C402.05599681 184.64343914 402.07039784 186.73574908 402.09203339 188.82797241 C402.12119031 191.76509697 402.12506398 194.70127264 402.12321472 197.63851929 C402.13759583 198.49807724 402.15197693 199.35763519 402.16679382 200.24324036 C402.12020307 207.10936051 400.25495924 212.31657932 395.70426941 217.50961304 C395.05329285 218.04844116 394.40231628 218.58726929 393.73161316 219.14242554 C393.08321472 219.69672241 392.43481628 220.25101929 391.76676941 220.82211304 C387.0527119 224.07016011 383.07245065 224.50942831 377.39958191 224.46273804 C376.15330017 224.45774292 374.90701843 224.4527478 373.62297058 224.44760132 C372.05007263 224.42939331 370.47717468 224.4111853 368.85661316 224.39242554 C361.33880066 224.33055054 361.33880066 224.33055054 353.66911316 224.26742554 C353.66911316 240.10742554 353.66911316 255.94742554 353.66911316 272.26742554 C363.51136478 272.10985822 363.51136478 272.10985822 373.35270691 271.90707397 C382.05247373 271.83691456 388.08664093 272.25177479 394.91130066 278.23226929 C395.45012878 278.88324585 395.98895691 279.53422241 396.54411316 280.20492554 C397.09841003 280.85332397 397.65270691 281.50172241 398.22380066 282.16976929 C401.90407089 287.51113446 401.94800515 292.28090037 401.89616394 298.55575562 C401.89645599 299.48307495 401.89674805 300.41039429 401.89704895 301.36581421 C401.89565851 304.42295778 401.88011065 307.47985593 401.86442566 310.53695679 C401.86069452 312.65973274 401.85784802 314.78251041 401.85585022 316.9052887 C401.84822176 322.48662081 401.82857995 328.06784849 401.80644226 333.6491394 C401.78596692 339.34675687 401.77684489 345.04439124 401.76676941 350.74203491 C401.74533339 361.91721095 401.71120687 373.09230955 401.66911316 384.26742554 C402.34039246 384.25854309 403.01167175 384.24966064 403.70329285 384.24050903 C410.71150672 384.15178059 417.71956011 384.09158523 424.72819519 384.04769897 C427.34121689 384.0276262 429.95419391 384.00036196 432.56706238 383.96566772 C436.33035838 383.91696119 440.09305865 383.89441243 443.85661316 383.87680054 C445.01838074 383.8561554 446.18014832 383.83551025 447.37712097 383.8142395 C455.33781699 383.8120541 460.75642784 384.83871349 466.91130066 390.23226929 C467.45012878 390.88324585 467.98895691 391.53422241 468.54411316 392.20492554 C469.09841003 392.85332397 469.65270691 393.50172241 470.22380066 394.16976929 C473.48111029 398.89727003 473.96693638 403.24313176 473.9596405 408.86825562 C473.96635773 409.61691391 473.97307495 410.3655722 473.97999573 411.13691711 C473.99894084 413.60366517 474.00289828 416.07014057 474.00505066 418.53695679 C474.01148156 420.25942596 474.01821014 421.98189405 474.02522278 423.70436096 C474.03718721 427.31305472 474.04090452 430.92165281 474.03971863 434.53036499 C474.03951561 439.14037258 474.06680338 443.74976252 474.10126305 448.35962391 C474.1235708 451.91741213 474.12755497 455.47505269 474.12649918 459.03290367 C474.12884985 460.73166721 474.13764319 462.43043515 474.15316391 464.12912941 C474.30099521 481.98173906 474.30099521 481.98173906 467.70426941 489.50961304 C467.05329285 490.04844116 466.40231628 490.58726929 465.73161316 491.14242554 C465.08321472 491.69672241 464.43481628 492.25101929 463.76676941 492.82211304 C459.75076294 495.58919385 456.1818523 496.51709249 451.33822632 496.53485107 C450.28273087 496.54338104 449.22723541 496.55191101 448.13975525 496.56069946 C446.99210693 496.55979309 445.84445862 496.55888672 444.66203308 496.55795288 C442.83678856 496.56802872 442.83678856 496.56802872 440.97467041 496.57830811 C437.64388057 496.59403681 434.31334011 496.60066233 430.98253036 496.60193968 C428.89877685 496.60336359 426.8150493 496.60763775 424.73130226 496.61293411 C417.45363843 496.63142624 410.17604775 496.63960588 402.89836121 496.63803101 C396.127847 496.6368303 389.35765194 496.6579205 382.58721846 496.68951833 C376.76367108 496.71572282 370.94022764 496.72639654 365.11662179 496.72512019 C361.64323816 496.72461171 358.17013819 496.73023085 354.69681358 496.75147629 C350.81920944 496.77454786 346.94203831 496.76531222 343.06437683 496.75326538 C341.92280121 496.76450439 340.78122559 496.77574341 339.60505676 496.787323 C331.82451134 496.72597565 326.44084854 495.57262223 320.42692566 490.30258179 C319.88809753 489.65160522 319.34926941 489.00062866 318.79411316 488.32992554 C318.23981628 487.6815271 317.68551941 487.03312866 317.11442566 486.36508179 C313.85711603 481.63758105 313.37128993 477.29171932 313.37858582 471.66659546 C313.37186859 470.91793716 313.36515137 470.16927887 313.35823059 469.39793396 C313.33928548 466.93118591 313.33532804 464.4647105 313.33317566 461.99789429 C313.32674476 460.27542511 313.32001618 458.55295702 313.31300354 456.83049011 C313.30103911 453.22179636 313.2973218 449.61319827 313.29850769 446.00448608 C313.29871071 441.39447849 313.27142294 436.78508855 313.23696327 432.17522717 C313.21465551 428.61743894 313.21067135 425.05979838 313.21172714 421.5019474 C313.20937647 419.80318386 313.20058313 418.10441593 313.18506241 416.40572166 C313.03723111 398.55311201 313.03723111 398.55311201 319.63395691 391.02523804 C320.28493347 390.48640991 320.93591003 389.94758179 321.60661316 389.39242554 C322.2550116 388.83812866 322.90341003 388.28383179 323.57145691 387.71273804 C327.70394998 384.86539644 331.30443793 384.01747301 336.28556824 384.04037476 C337.38633194 384.04052582 338.48709564 384.04067688 339.62121582 384.04083252 C341.38709297 384.05631638 341.38709297 384.05631638 343.18864441 384.07211304 C344.40235214 384.07494293 345.61605988 384.07777283 346.86654663 384.08068848 C350.73833627 384.09187245 354.60989357 384.11697423 358.48161316 384.14242554 C361.10856294 384.15245762 363.73551635 384.16158307 366.36247253 384.16976929 C372.79809852 384.19180599 379.23358924 384.22526613 385.66911316 384.26742554 C385.58473341 372.87989024 385.48985906 361.49249537 385.38158607 350.10516071 C385.33164033 344.81756018 385.28531001 339.52997947 385.24723816 334.24227905 C385.21036379 329.13935922 385.16399774 324.03660583 385.11104965 318.93382835 C385.09251719 316.98702095 385.07740499 315.04017788 385.0657692 313.09331703 C385.04888724 310.36643048 385.01984726 307.63992415 384.98796082 304.91317749 C384.98580063 304.10828888 384.98364044 303.30340027 384.98141479 302.47412109 C384.9195969 298.33583548 384.68407948 294.93201483 382.66911316 291.26742554 C379.15245372 289.27100248 375.92561567 288.98153792 371.93083191 288.85336304 C370.86413269 288.81469116 369.79743347 288.77601929 368.69841003 288.73617554 C367.59561707 288.70523804 366.4928241 288.67430054 365.35661316 288.64242554 C364.23448425 288.60375366 363.11235535 288.56508179 361.95622253 288.52523804 C359.19401464 288.43120543 356.43180916 288.34555213 353.66911316 288.26742554 C353.69006042 288.92226929 353.71100769 289.57711304 353.73258972 290.25180054 C353.81641699 293.25684882 353.86798211 296.26165017 353.91911316 299.26742554 C353.95262878 300.29738647 353.98614441 301.32734741 354.02067566 302.38851929 C354.12055182 310.22879806 352.91852184 315.55935281 347.70426941 321.50961304 C347.05329285 322.04844116 346.40231628 322.58726929 345.73161316 323.14242554 C345.08321472 323.69672241 344.43481628 324.25101929 343.76676941 324.82211304 C338.21972808 328.64409682 333.16519189 328.54407021 326.64640808 328.49447632 C325.13838623 328.4949144 325.13838623 328.4949144 323.59989929 328.49536133 C320.28303847 328.49397006 316.9664034 328.4784182 313.64958191 328.46273804 C311.34744388 328.45900719 309.04530425 328.45616056 306.74316406 328.4541626 C300.68836573 328.44653181 294.63366357 328.42688796 288.5789032 328.40475464 C281.31181577 328.38068433 274.04469616 328.3715126 266.77758026 328.35984802 C255.7413577 328.34046336 244.70534611 328.30213674 233.66911316 328.26742554 C233.66911316 346.74742554 233.66911316 365.22742554 233.66911316 384.26742554 C243.51136478 384.10985822 243.51136478 384.10985822 253.35270691 383.90707397 C262.05247373 383.83691456 268.08664093 384.25177479 274.91130066 390.23226929 C275.45012878 390.88324585 275.98895691 391.53422241 276.54411316 392.20492554 C277.09841003 392.85332397 277.65270691 393.50172241 278.22380066 394.16976929 C281.48111029 398.89727003 281.96693638 403.24313176 281.9596405 408.86825562 C281.96635773 409.61691391 281.97307495 410.3655722 281.97999573 411.13691711 C281.99894084 413.60366517 282.00289828 416.07014057 282.00505066 418.53695679 C282.01148156 420.25942596 282.01821014 421.98189405 282.02522278 423.70436096 C282.03718721 427.31305472 282.04090452 430.92165281 282.03971863 434.53036499 C282.03951561 439.14037258 282.06680338 443.74976252 282.10126305 448.35962391 C282.1235708 451.91741213 282.12755497 455.47505269 282.12649918 459.03290367 C282.12884985 460.73166721 282.13764319 462.43043515 282.15316391 464.12912941 C282.30099521 481.98173906 282.30099521 481.98173906 275.70426941 489.50961304 C275.05329285 490.04844116 274.40231628 490.58726929 273.73161316 491.14242554 C273.08321472 491.69672241 272.43481628 492.25101929 271.76676941 492.82211304 C267.03926867 496.07942267 262.69340694 496.56524876 257.06828308 496.55795288 C256.31962479 496.5646701 255.57096649 496.57138733 254.79962158 496.57830811 C252.33287353 496.59725322 249.86639812 496.60121066 247.39958191 496.60336304 C245.67711273 496.60979393 243.95464464 496.61652251 242.23217773 496.62353516 C238.62348398 496.63549958 235.01488589 496.6392169 231.40617371 496.63803101 C226.79616611 496.63782799 222.18677617 496.66511576 217.57691479 496.69957542 C214.01912657 496.72188318 210.46148601 496.72586735 206.90363503 496.72481155 C205.20487149 496.72716223 203.50610355 496.73595557 201.80740929 496.75147629 C183.95479964 496.89930759 183.95479964 496.89930759 176.42692566 490.30258179 C175.88809753 489.65160522 175.34926941 489.00062866 174.79411316 488.32992554 C174.23981628 487.6815271 173.68551941 487.03312866 173.11442566 486.36508179 C169.85711603 481.63758105 169.37128993 477.29171932 169.37858582 471.66659546 C169.37186859 470.91793716 169.36515137 470.16927887 169.35823059 469.39793396 C169.33928548 466.93118591 169.33532804 464.4647105 169.33317566 461.99789429 C169.32674476 460.27542511 169.32001618 458.55295702 169.31300354 456.83049011 C169.30103911 453.22179636 169.2973218 449.61319827 169.29850769 446.00448608 C169.29871071 441.39447849 169.27142294 436.78508855 169.23696327 432.17522717 C169.21465551 428.61743894 169.21067135 425.05979838 169.21172714 421.5019474 C169.20937647 419.80318386 169.20058313 418.10441593 169.18506241 416.40572166 C169.03723111 398.55311201 169.03723111 398.55311201 175.63395691 391.02523804 C176.28493347 390.48640991 176.93591003 389.94758179 177.60661316 389.39242554 C178.2550116 388.83812866 178.90341003 388.28383179 179.57145691 387.71273804 C184.28551442 384.46469097 188.26577566 384.02542276 193.93864441 384.07211304 C195.18492615 384.07710815 196.43120789 384.08210327 197.71525574 384.08724976 C199.28815369 384.10545776 200.86105164 384.12366577 202.48161316 384.14242554 C207.49348816 384.18367554 212.50536316 384.22492554 217.66911316 384.26742554 C217.66911316 365.78742554 217.66911316 347.30742554 217.66911316 328.26742554 C210.32661316 328.31383179 202.98411316 328.36023804 195.41911316 328.40805054 C190.7615469 328.42849385 186.10403612 328.44775003 181.44645691 328.46273804 C174.05717957 328.48662945 166.66810091 328.51486325 159.27897644 328.56918335 C153.32025477 328.61271285 147.36174623 328.63657798 141.40287781 328.64693451 C139.13192898 328.65431305 136.86099153 328.66872161 134.59013367 328.69034576 C131.40396615 328.71947339 128.21867411 328.72337752 125.03239441 328.7215271 C124.09803055 328.7359082 123.16366669 328.75028931 122.20098877 328.7651062 C115.09114652 328.72056184 109.81606595 327.0251211 104.42692566 322.30258179 C103.88809753 321.65160522 103.34926941 321.00062866 102.79411316 320.32992554 C102.23981628 319.6815271 101.68551941 319.03312866 101.11442566 318.36508179 C98.28743189 314.26212056 97.41850905 310.69649292 97.47380066 305.74789429 C97.48024597 304.72631226 97.48669128 303.70473022 97.49333191 302.65219116 C97.51008972 301.59709351 97.52684753 300.54199585 97.54411316 299.45492554 C97.5531366 298.38049194 97.56216003 297.30605835 97.57145691 296.19906616 C97.5949601 293.554957 97.6278174 290.91130681 97.66911316 288.26742554 C93.77271319 288.37761227 89.87725223 288.50817031 85.98161316 288.64242554 C84.32742371 288.68883179 84.32742371 288.68883179 82.63981628 288.73617554 C81.57311707 288.77484741 80.50641785 288.81351929 79.40739441 288.85336304 C77.93846741 288.90049438 77.93846741 288.90049438 76.43986511 288.94857788 C73.42567682 289.29543927 71.31379071 289.76603044 68.66911316 291.26742554 C66.26854675 295.63329996 66.36329694 300.05764618 66.3502655 304.91317749 C66.34021988 305.77222183 66.33017426 306.63126617 66.31982422 307.51634216 C66.28901767 310.34612378 66.27196408 313.17581089 66.25505066 316.00570679 C66.23633698 317.97155061 66.21676342 319.93738643 66.19636536 321.9032135 C66.14505929 327.07016269 66.10542533 332.23713791 66.06822205 337.40420532 C66.0281729 342.67964104 65.97708469 347.95496859 65.92692566 353.23031616 C65.8301844 363.57594328 65.74577378 373.9216315 65.66911316 384.26742554 C66.34039246 384.25854309 67.01167175 384.24966064 67.70329285 384.24050903 C74.71150672 384.15178059 81.71956011 384.09158523 88.72819519 384.04769897 C91.34121689 384.0276262 93.95419391 384.00036196 96.56706238 383.96566772 C100.33035838 383.91696119 104.09305865 383.89441243 107.85661316 383.87680054 C109.01838074 383.8561554 110.18014832 383.83551025 111.37712097 383.8142395 C119.33781699 383.8120541 124.75642784 384.83871349 130.91130066 390.23226929 C131.45012878 390.88324585 131.98895691 391.53422241 132.54411316 392.20492554 C133.09841003 392.85332397 133.65270691 393.50172241 134.22380066 394.16976929 C137.48111029 398.89727003 137.96693638 403.24313176 137.9596405 408.86825562 C137.96635773 409.61691391 137.97307495 410.3655722 137.97999573 411.13691711 C137.99894084 413.60366517 138.00289828 416.07014057 138.00505066 418.53695679 C138.01148156 420.25942596 138.01821014 421.98189405 138.02522278 423.70436096 C138.03718721 427.31305472 138.04090452 430.92165281 138.03971863 434.53036499 C138.03951561 439.14037258 138.06680338 443.74976252 138.10126305 448.35962391 C138.1235708 451.91741213 138.12755497 455.47505269 138.12649918 459.03290367 C138.12884985 460.73166721 138.13764319 462.43043515 138.15316391 464.12912941 C138.30099521 481.98173906 138.30099521 481.98173906 131.70426941 489.50961304 C131.05329285 490.04844116 130.40231628 490.58726929 129.73161316 491.14242554 C129.08321472 491.69672241 128.43481628 492.25101929 127.76676941 492.82211304 C123.75076294 495.58919385 120.1818523 496.51709249 115.33822632 496.53485107 C114.28273087 496.54338104 113.22723541 496.55191101 112.13975525 496.56069946 C110.99210693 496.55979309 109.84445862 496.55888672 108.66203308 496.55795288 C106.83678856 496.56802872 106.83678856 496.56802872 104.97467041 496.57830811 C101.64388057 496.59403681 98.31334011 496.60066233 94.98253036 496.60193968 C92.89877685 496.60336359 90.8150493 496.60763775 88.73130226 496.61293411 C81.45363843 496.63142624 74.17604775 496.63960588 66.89836121 496.63803101 C60.127847 496.6368303 53.35765194 496.6579205 46.58721846 496.68951833 C40.76367108 496.71572282 34.94022764 496.72639654 29.11662179 496.72512019 C25.64323816 496.72461171 22.17013819 496.73023085 18.69681358 496.75147629 C14.81920944 496.77454786 10.94203831 496.76531222 7.06437683 496.75326538 C5.92280121 496.76450439 4.78122559 496.77574341 3.60505676 496.787323 C-4.17548866 496.72597565 -9.55915146 495.57262223 -15.57307434 490.30258179 C-16.11190247 489.65160522 -16.65073059 489.00062866 -17.20588684 488.32992554 C-17.76018372 487.6815271 -18.31448059 487.03312866 -18.88557434 486.36508179 C-22.14288397 481.63758105 -22.62871007 477.29171932 -22.62141418 471.66659546 C-22.62813141 470.91793716 -22.63484863 470.16927887 -22.64176941 469.39793396 C-22.66071452 466.93118591 -22.66467196 464.4647105 -22.66682434 461.99789429 C-22.67325524 460.27542511 -22.67998382 458.55295702 -22.68699646 456.83049011 C-22.69896089 453.22179636 -22.7026782 449.61319827 -22.70149231 446.00448608 C-22.70128929 441.39447849 -22.72857706 436.78508855 -22.76303673 432.17522717 C-22.78534449 428.61743894 -22.78932865 425.05979838 -22.78827286 421.5019474 C-22.79062353 419.80318386 -22.79941687 418.10441593 -22.81493759 416.40572166 C-22.96276889 398.55311201 -22.96276889 398.55311201 -16.36604309 391.02523804 C-15.38957825 390.21699585 -15.38957825 390.21699585 -14.39338684 389.39242554 C-13.7449884 388.83812866 -13.09658997 388.28383179 -12.42854309 387.71273804 C-8.29605002 384.86539644 -4.69556207 384.01747301 0.28556824 384.04037476 C1.38633194 384.04052582 2.48709564 384.04067688 3.62121582 384.04083252 C5.38709297 384.05631638 5.38709297 384.05631638 7.18864441 384.07211304 C9.00920601 384.07635788 9.00920601 384.07635788 10.86654663 384.08068848 C14.73833627 384.09187245 18.60989357 384.11697423 22.48161316 384.14242554 C25.10856294 384.15245762 27.73551635 384.16158307 30.36247253 384.16976929 C36.79809852 384.19180599 43.23358924 384.22526613 49.66911316 384.26742554 C49.66023071 383.09502319 49.65134827 381.92262085 49.64219666 380.71469116 C49.56101067 369.6506965 49.50109958 358.5867625 49.46186447 347.52253723 C49.44101497 341.83467161 49.41274512 336.147047 49.36735535 330.45932007 C49.32380412 324.96743408 49.29995622 319.47577952 49.28960419 313.98373413 C49.28222951 311.89141193 49.26782848 309.79910199 49.24619293 307.70687866 C49.21703601 304.76975411 49.21316234 301.83357844 49.2150116 298.89633179 C49.20063049 298.03677383 49.18624939 297.17721588 49.1714325 296.29161072 C49.21802325 289.42549057 51.08326708 284.21827176 55.63395691 279.02523804 C56.61042175 278.21699585 56.61042175 278.21699585 57.60661316 277.39242554 C58.2550116 276.83812866 58.90341003 276.28383179 59.57145691 275.71273804 C64.28551442 272.46469097 68.26577566 272.02542276 73.93864441 272.07211304 C75.18492615 272.07710815 76.43120789 272.08210327 77.71525574 272.08724976 C79.28815369 272.10545776 80.86105164 272.12366577 82.48161316 272.14242554 C87.49348816 272.18367554 92.50536316 272.22492554 97.66911316 272.26742554 C97.66911316 256.42742554 97.66911316 240.58742554 97.66911316 224.26742554 C87.82686154 224.42499285 87.82686154 224.42499285 77.98551941 224.6277771 C69.28575259 224.69793651 63.25158539 224.28307629 56.42692566 218.30258179 C55.88809753 217.65160522 55.34926941 217.00062866 54.79411316 216.32992554 C54.23981628 215.6815271 53.68551941 215.03312866 53.11442566 214.36508179 C49.43415543 209.02371661 49.39022117 204.2539507 49.44206238 197.97909546 C49.44177032 197.05177612 49.44147827 196.12445679 49.44117737 195.16903687 C49.4425678 192.1118933 49.45811567 189.05499515 49.47380066 185.99789429 C49.4775318 183.87511834 49.4803783 181.75234067 49.4823761 179.62956238 C49.49000455 174.04823026 49.50964637 168.46700258 49.53178406 162.88571167 C49.5522594 157.1880942 49.56138143 151.49045983 49.57145691 145.79281616 C49.59289293 134.61764012 49.62701945 123.44254152 49.66911316 112.26742554 C48.66219421 112.28074921 48.66219421 112.28074921 47.63493347 112.29434204 C40.6267196 112.38307048 33.61866621 112.44326584 26.61003113 112.4871521 C23.99700943 112.50722487 21.38403241 112.53448912 18.77116394 112.56918335 C15.00786794 112.61788988 11.24516767 112.64043865 7.48161316 112.65805054 C6.31984558 112.67869568 5.158078 112.69934082 3.96110535 112.72061157 C-3.99959067 112.72279698 -9.41820152 111.69613758 -15.57307434 106.30258179 C-16.11190247 105.65160522 -16.65073059 105.00062866 -17.20588684 104.32992554 C-17.76018372 103.6815271 -18.31448059 103.03312866 -18.88557434 102.36508179 C-22.14288397 97.63758105 -22.62871007 93.29171932 -22.62141418 87.66659546 C-22.62813141 86.91793716 -22.63484863 86.16927887 -22.64176941 85.39793396 C-22.66071452 82.93118591 -22.66467196 80.4647105 -22.66682434 77.99789429 C-22.67325524 76.27542511 -22.67998382 74.55295702 -22.68699646 72.83049011 C-22.69896089 69.22179636 -22.7026782 65.61319827 -22.70149231 62.00448608 C-22.70128929 57.39447849 -22.72857706 52.78508855 -22.76303673 48.17522717 C-22.78534449 44.61743894 -22.78932865 41.05979838 -22.78827286 37.5019474 C-22.79062353 35.80318386 -22.79941687 34.10441593 -22.81493759 32.40572166 C-22.96276889 14.55311201 -22.96276889 14.55311201 -16.36604309 7.02523804 C-15.71506653 6.48640991 -15.06408997 5.94758179 -14.39338684 5.39242554 C-13.7449884 4.83812866 -13.09658997 4.28383179 -12.42854309 3.71273804 C-8.41253662 0.94565723 -4.84362598 0.01775858 0 0 Z M-4.33088684 19.26742554 C-6.52305574 22.96580985 -6.58791597 26.37628881 -6.60554504 30.61483765 C-6.61507706 31.87642197 -6.62460907 33.13800629 -6.63442993 34.43782043 C-6.63416848 35.80680367 -6.63323134 37.17578692 -6.63166809 38.54476929 C-6.6355585 39.95814642 -6.63989388 41.37152238 -6.64465332 42.78489685 C-6.65210163 45.74289749 -6.65183434 48.70077875 -6.64656067 51.65878296 C-6.64076704 55.43938122 -6.65770068 59.2194894 -6.68090534 63.00000668 C-6.69567508 65.91776867 -6.69651002 68.8354135 -6.69339561 71.75320625 C-6.69390718 73.14659152 -6.69911382 74.53998364 -6.70920753 75.93333244 C-6.7216165 77.88572285 -6.71281684 79.83821273 -6.70320129 81.7906189 C-6.70383072 82.89916733 -6.70446014 84.00771576 -6.70510864 85.14985657 C-6.26283843 88.83432357 -5.37010021 91.16717219 -3.33088684 94.26742554 C1.19353405 97.31566595 7.16611541 96.55485283 12.42277527 96.54208374 C13.50626755 96.54719467 14.58975983 96.5523056 15.70608521 96.55757141 C19.28626536 96.57146697 22.866253 96.57051069 26.44645691 96.56820679 C28.93600537 96.5720936 31.42555316 96.57642824 33.9151001 96.58119202 C39.13284963 96.58865406 44.35053149 96.58836293 49.56828308 96.58309937 C54.9254527 96.57772712 60.28243336 96.58477347 65.63957214 96.60360718 C72.10980762 96.62606292 78.57988525 96.63386024 85.05015755 96.62993431 C87.51531587 96.63044776 89.98047791 96.63568989 92.44561577 96.64574623 C95.89261246 96.65808258 99.33906848 96.65133535 102.78605652 96.63973999 C103.80391235 96.64738373 104.82176819 96.65502747 105.87046814 96.66290283 C111.13990629 96.62372412 115.25786209 96.49579406 119.66911316 93.26742554 C121.86128206 89.56904122 121.92614229 86.15856226 121.94377136 81.92001343 C121.95330338 80.65842911 121.96283539 79.39684479 121.97265625 78.09703064 C121.9723948 76.7280474 121.97145766 75.35906415 121.96989441 73.99008179 C121.97378482 72.57670466 121.9781202 71.16332869 121.98287964 69.74995422 C121.99032795 66.79195358 121.99006066 63.83407233 121.98478699 60.87606812 C121.97899336 57.09546985 121.995927 53.31536167 122.01913166 49.5348444 C122.0339014 46.61708241 122.03473634 43.69943758 122.03162193 40.78164482 C122.03213349 39.38825955 122.03734014 37.99486744 122.04743385 36.60151863 C122.05984282 34.64912822 122.05104316 32.69663834 122.04142761 30.74423218 C122.04205704 29.63568375 122.04268646 28.52713531 122.04333496 27.38499451 C121.60106475 23.70052751 120.70832653 21.36767888 118.66911316 18.26742554 C114.14469227 15.21918513 108.17211091 15.97999825 102.91545105 15.99276733 C101.83195877 15.9876564 100.74846649 15.98254547 99.63214111 15.97727966 C96.05196096 15.9633841 92.47197331 15.96434038 88.89176941 15.96664429 C86.40222095 15.96275748 83.91267316 15.95842284 81.42312622 15.95365906 C76.20537669 15.94619701 70.98769482 15.94648815 65.76994324 15.95175171 C60.41277362 15.95712396 55.05579296 15.9500776 49.69865417 15.9312439 C43.2284187 15.90878816 36.75834106 15.90099084 30.28806877 15.90491676 C27.82291045 15.90440332 25.35774841 15.89916119 22.89261055 15.88910484 C19.44561386 15.8767685 15.99915784 15.88351573 12.5521698 15.89511108 C11.02538605 15.88364548 11.02538605 15.88364548 9.46775818 15.87194824 C4.19832002 15.91112695 0.08036423 16.03905702 -4.33088684 19.26742554 Z M187.66911316 19.26742554 C185.47694426 22.96580985 185.41208403 26.37628881 185.39445496 30.61483765 C185.38492294 31.87642197 185.37539093 33.13800629 185.36557007 34.43782043 C185.36583152 35.80680367 185.36676866 37.17578692 185.36833191 38.54476929 C185.3644415 39.95814642 185.36010612 41.37152238 185.35534668 42.78489685 C185.34789837 45.74289749 185.34816566 48.70077875 185.35343933 51.65878296 C185.35923296 55.43938122 185.34229932 59.2194894 185.31909466 63.00000668 C185.30432492 65.91776867 185.30348998 68.8354135 185.30660439 71.75320625 C185.30609282 73.14659152 185.30088618 74.53998364 185.29079247 75.93333244 C185.2783835 77.88572285 185.28718316 79.83821273 185.29679871 81.7906189 C185.29616928 82.89916733 185.29553986 84.00771576 185.29489136 85.14985657 C185.73716157 88.83432357 186.62989979 91.16717219 188.66911316 94.26742554 C192.36749747 96.45959444 195.77797644 96.52445467 200.01652527 96.54208374 C201.27810959 96.55161575 202.53969391 96.56114777 203.83950806 96.57096863 C205.20849129 96.57070718 206.57747454 96.56977004 207.94645691 96.56820679 C209.35983404 96.5720972 210.77321 96.57643258 212.18658447 96.58119202 C215.14458511 96.58864033 218.10246637 96.58837304 221.06047058 96.58309937 C224.84106884 96.57730573 228.62117703 96.59423938 232.4016943 96.61744404 C235.31945629 96.63221378 238.23710112 96.63304872 241.15489388 96.62993431 C242.54827915 96.63044587 243.94167126 96.63565252 245.33502007 96.64574623 C247.28741048 96.6581552 249.23990035 96.64935553 251.19230652 96.63973999 C252.30085495 96.64036942 253.40940338 96.64099884 254.55154419 96.64164734 C258.23601119 96.19937713 260.56885981 95.30663891 263.66911316 93.26742554 C265.86128206 89.56904122 265.92614229 86.15856226 265.94377136 81.92001343 C265.95330338 80.65842911 265.96283539 79.39684479 265.97265625 78.09703064 C265.9723948 76.7280474 265.97145766 75.35906415 265.96989441 73.99008179 C265.97378482 72.57670466 265.9781202 71.16332869 265.98287964 69.74995422 C265.99032795 66.79195358 265.99006066 63.83407233 265.98478699 60.87606812 C265.97899336 57.09546985 265.995927 53.31536167 266.01913166 49.5348444 C266.0339014 46.61708241 266.03473634 43.69943758 266.03162193 40.78164482 C266.03213349 39.38825955 266.03734014 37.99486744 266.04743385 36.60151863 C266.05984282 34.64912822 266.05104316 32.69663834 266.04142761 30.74423218 C266.04205704 29.63568375 266.04268646 28.52713531 266.04333496 27.38499451 C265.60106475 23.70052751 264.70832653 21.36767888 262.66911316 18.26742554 C258.97072885 16.07525664 255.56024988 16.0103964 251.32170105 15.99276733 C250.06011673 15.98323532 248.79853241 15.97370331 247.49871826 15.96388245 C246.12973503 15.96414389 244.76075178 15.96508104 243.39176941 15.96664429 C241.97839228 15.96275388 240.56501631 15.9584185 239.15164185 15.95365906 C236.1936412 15.94621074 233.23575995 15.94647804 230.27775574 15.95175171 C226.49715747 15.95754534 222.71704929 15.9406117 218.93653202 15.91740704 C216.01877003 15.90263729 213.1011252 15.90180236 210.18333244 15.90491676 C208.78994717 15.9044052 207.39655506 15.89919856 206.00320625 15.88910484 C204.05081584 15.87669587 202.09832597 15.88549554 200.1459198 15.89511108 C199.03737137 15.89448166 197.92882294 15.89385223 196.78668213 15.89320374 C193.10221513 16.33547394 190.7693665 17.22821217 187.66911316 19.26742554 Z M331.66911316 19.26742554 C329.47694426 22.96580985 329.41208403 26.37628881 329.39445496 30.61483765 C329.38492294 31.87642197 329.37539093 33.13800629 329.36557007 34.43782043 C329.36583152 35.80680367 329.36676866 37.17578692 329.36833191 38.54476929 C329.3644415 39.95814642 329.36010612 41.37152238 329.35534668 42.78489685 C329.34789837 45.74289749 329.34816566 48.70077875 329.35343933 51.65878296 C329.35923296 55.43938122 329.34229932 59.2194894 329.31909466 63.00000668 C329.30432492 65.91776867 329.30348998 68.8354135 329.30660439 71.75320625 C329.30609282 73.14659152 329.30088618 74.53998364 329.29079247 75.93333244 C329.2783835 77.88572285 329.28718316 79.83821273 329.29679871 81.7906189 C329.29616928 82.89916733 329.29553986 84.00771576 329.29489136 85.14985657 C329.73716157 88.83432357 330.62989979 91.16717219 332.66911316 94.26742554 C337.19353405 97.31566595 343.16611541 96.55485283 348.42277527 96.54208374 C349.50626755 96.54719467 350.58975983 96.5523056 351.70608521 96.55757141 C355.28626536 96.57146697 358.866253 96.57051069 362.44645691 96.56820679 C364.93600537 96.5720936 367.42555316 96.57642824 369.9151001 96.58119202 C375.13284963 96.58865406 380.35053149 96.58836293 385.56828308 96.58309937 C390.9254527 96.57772712 396.28243336 96.58477347 401.63957214 96.60360718 C408.10980762 96.62606292 414.57988525 96.63386024 421.05015755 96.62993431 C423.51531587 96.63044776 425.98047791 96.63568989 428.44561577 96.64574623 C431.89261246 96.65808258 435.33906848 96.65133535 438.78605652 96.63973999 C439.80391235 96.64738373 440.82176819 96.65502747 441.87046814 96.66290283 C447.13990629 96.62372412 451.25786209 96.49579406 455.66911316 93.26742554 C457.86128206 89.56904122 457.92614229 86.15856226 457.94377136 81.92001343 C457.95330338 80.65842911 457.96283539 79.39684479 457.97265625 78.09703064 C457.9723948 76.7280474 457.97145766 75.35906415 457.96989441 73.99008179 C457.97378482 72.57670466 457.9781202 71.16332869 457.98287964 69.74995422 C457.99032795 66.79195358 457.99006066 63.83407233 457.98478699 60.87606812 C457.97899336 57.09546985 457.995927 53.31536167 458.01913166 49.5348444 C458.0339014 46.61708241 458.03473634 43.69943758 458.03162193 40.78164482 C458.03213349 39.38825955 458.03734014 37.99486744 458.04743385 36.60151863 C458.05984282 34.64912822 458.05104316 32.69663834 458.04142761 30.74423218 C458.04205704 29.63568375 458.04268646 28.52713531 458.04333496 27.38499451 C457.60106475 23.70052751 456.70832653 21.36767888 454.66911316 18.26742554 C450.14469227 15.21918513 444.17211091 15.97999825 438.91545105 15.99276733 C437.83195877 15.9876564 436.74846649 15.98254547 435.63214111 15.97727966 C432.05196096 15.9633841 428.47197331 15.96434038 424.89176941 15.96664429 C422.40222095 15.96275748 419.91267316 15.95842284 417.42312622 15.95365906 C412.20537669 15.94619701 406.98769482 15.94648815 401.76994324 15.95175171 C396.41277362 15.95712396 391.05579296 15.9500776 385.69865417 15.9312439 C379.2284187 15.90878816 372.75834106 15.90099084 366.28806877 15.90491676 C363.82291045 15.90440332 361.35774841 15.89916119 358.89261055 15.88910484 C355.44561386 15.8767685 351.99915784 15.88351573 348.5521698 15.89511108 C347.02538605 15.88364548 347.02538605 15.88364548 345.46775818 15.87194824 C340.19832002 15.91112695 336.08036423 16.03905702 331.66911316 19.26742554 Z M115.66911316 187.26742554 C112.62087275 191.79184643 113.38168587 197.76442778 113.39445496 203.02108765 C113.38934402 204.10457993 113.38423309 205.1880722 113.37896729 206.30439758 C113.36507172 209.88457773 113.36602801 213.46456538 113.36833191 217.04476929 C113.3644451 219.53431775 113.36011046 222.02386554 113.35534668 224.51341248 C113.34788463 229.73116201 113.34817577 234.94884387 113.35343933 240.16659546 C113.35881158 245.52376508 113.35176522 250.88074574 113.33293152 256.23788452 C113.31047578 262.70812 113.30267846 269.17819763 113.30660439 275.64846992 C113.30609094 278.11362825 113.30084881 280.57879028 113.29079247 283.04392815 C113.27845612 286.49092484 113.28520335 289.93738086 113.29679871 293.3843689 C113.28915497 294.40222473 113.28151123 295.42008057 113.27363586 296.46878052 C113.31281457 301.73821867 113.44074464 305.85617447 116.66911316 310.26742554 C121.00386626 312.63224005 125.3127058 312.55113166 130.12649536 312.52812195 C130.97591298 312.5319475 131.8253306 312.53577304 132.70048815 312.53971452 C135.54548022 312.55002965 138.39026991 312.54605519 141.23527527 312.54208374 C143.2755146 312.54643102 145.31575229 312.55161422 147.35598755 312.55757141 C152.8972583 312.57097054 158.43846088 312.57153908 163.97974467 312.56900811 C168.60463148 312.56793908 173.22950445 312.57282001 177.8543883 312.57761353 C188.76423873 312.58871176 199.67405473 312.58914426 210.58390808 312.58309937 C221.84187167 312.57705755 233.09971033 312.58937518 244.3576526 312.61066943 C254.02146958 312.62827685 263.68524676 312.63428817 273.34907919 312.63103169 C279.12168973 312.62921741 284.89421115 312.63186956 290.66680717 312.64574623 C296.0947487 312.65830601 301.52249526 312.65639792 306.95043373 312.64333534 C308.94265178 312.64096603 310.93488347 312.64371691 312.92708588 312.65195847 C315.6465335 312.66239748 318.36532346 312.65434814 321.08474731 312.64164734 C321.87317691 312.64902162 322.66160651 312.65639591 323.47392792 312.66399366 C328.27760419 312.6167923 331.59361186 311.83038239 335.66911316 309.26742554 C338.71735357 304.74300465 337.95654045 298.77042329 337.94377136 293.51376343 C337.94888229 292.43027115 337.95399323 291.34677887 337.95925903 290.23045349 C337.97315459 286.65027334 337.97219831 283.07028569 337.96989441 279.49008179 C337.97378122 277.00053333 337.97811586 274.51098553 337.98287964 272.0214386 C337.99034169 266.80368907 337.99005055 261.5860072 337.98478699 256.36825562 C337.97941474 251.011086 337.98646109 245.65410534 338.0052948 240.29696655 C338.02775054 233.82673107 338.03554786 227.35665344 338.03162193 220.88638115 C338.03213538 218.42122283 338.03737751 215.95606079 338.04743385 213.49092293 C338.0597702 210.04392624 338.05302297 206.59747021 338.04142761 203.15048218 C338.04907135 202.13262634 338.05671509 201.11477051 338.06459045 200.06607056 C338.02541174 194.7966324 337.89748168 190.67867661 334.66911316 186.26742554 C330.33436005 183.90261102 326.02552052 183.98371941 321.21173096 184.00672913 C319.93760453 184.00099081 319.93760453 184.00099081 318.63773817 183.99513656 C315.7927461 183.98482142 312.9479564 183.98879589 310.10295105 183.99276733 C308.06271172 183.98842005 306.02247403 183.98323685 303.98223877 183.97727966 C298.44096802 183.96388053 292.89976544 183.96331199 287.35848165 183.96584296 C282.73359484 183.966912 278.10872187 183.96203106 273.48383802 183.95723754 C262.57398759 183.94613931 251.66417159 183.94570681 240.75431824 183.95175171 C229.49635465 183.95779352 218.23851598 183.94547589 206.98057371 183.92418164 C197.31675674 183.90657422 187.65297956 183.9005629 177.98914713 183.90381938 C172.21653659 183.90563366 166.44401517 183.90298152 160.67141914 183.88910484 C155.24347762 183.87654506 149.81573106 183.87845315 144.38779259 183.89151573 C142.39557454 183.89388505 140.40334285 183.89113416 138.41114044 183.88289261 C135.69169282 183.8724536 132.97290286 183.88050294 130.253479 183.89320374 C129.07083461 183.88214231 129.07083461 183.88214231 127.8642984 183.87085742 C123.06062213 183.91805877 119.74461446 184.70446869 115.66911316 187.26742554 Z M-4.33088684 403.26742554 C-6.52305574 406.96580985 -6.58791597 410.37628881 -6.60554504 414.61483765 C-6.61507706 415.87642197 -6.62460907 417.13800629 -6.63442993 418.43782043 C-6.63416848 419.80680367 -6.63323134 421.17578692 -6.63166809 422.54476929 C-6.6355585 423.95814642 -6.63989388 425.37152238 -6.64465332 426.78489685 C-6.65210163 429.74289749 -6.65183434 432.70077875 -6.64656067 435.65878296 C-6.64076704 439.43938122 -6.65770068 443.2194894 -6.68090534 447.00000668 C-6.69567508 449.91776867 -6.69651002 452.8354135 -6.69339561 455.75320625 C-6.69390718 457.14659152 -6.69911382 458.53998364 -6.70920753 459.93333244 C-6.7216165 461.88572285 -6.71281684 463.83821273 -6.70320129 465.7906189 C-6.70383072 466.89916733 -6.70446014 468.00771576 -6.70510864 469.14985657 C-6.26283843 472.83432357 -5.37010021 475.16717219 -3.33088684 478.26742554 C1.19353405 481.31566595 7.16611541 480.55485283 12.42277527 480.54208374 C13.50626755 480.54719467 14.58975983 480.5523056 15.70608521 480.55757141 C19.28626536 480.57146697 22.866253 480.57051069 26.44645691 480.56820679 C28.93600537 480.5720936 31.42555316 480.57642824 33.9151001 480.58119202 C39.13284963 480.58865406 44.35053149 480.58836293 49.56828308 480.58309937 C54.9254527 480.57772712 60.28243336 480.58477347 65.63957214 480.60360718 C72.10980762 480.62606292 78.57988525 480.63386024 85.05015755 480.62993431 C87.51531587 480.63044776 89.98047791 480.63568989 92.44561577 480.64574623 C95.89261246 480.65808258 99.33906848 480.65133535 102.78605652 480.63973999 C103.80391235 480.64738373 104.82176819 480.65502747 105.87046814 480.66290283 C111.13990629 480.62372412 115.25786209 480.49579406 119.66911316 477.26742554 C121.86128206 473.56904122 121.92614229 470.15856226 121.94377136 465.92001343 C121.95330338 464.65842911 121.96283539 463.39684479 121.97265625 462.09703064 C121.9723948 460.7280474 121.97145766 459.35906415 121.96989441 457.99008179 C121.97378482 456.57670466 121.9781202 455.16332869 121.98287964 453.74995422 C121.99032795 450.79195358 121.99006066 447.83407233 121.98478699 444.87606812 C121.97899336 441.09546985 121.995927 437.31536167 122.01913166 433.5348444 C122.0339014 430.61708241 122.03473634 427.69943758 122.03162193 424.78164482 C122.03213349 423.38825955 122.03734014 421.99486744 122.04743385 420.60151863 C122.05984282 418.64912822 122.05104316 416.69663834 122.04142761 414.74423218 C122.04205704 413.63568375 122.04268646 412.52713531 122.04333496 411.38499451 C121.60106475 407.70052751 120.70832653 405.36767888 118.66911316 402.26742554 C114.14469227 399.21918513 108.17211091 399.97999825 102.91545105 399.99276733 C101.83195877 399.9876564 100.74846649 399.98254547 99.63214111 399.97727966 C96.05196096 399.9633841 92.47197331 399.96434038 88.89176941 399.96664429 C86.40222095 399.96275748 83.91267316 399.95842284 81.42312622 399.95365906 C76.20537669 399.94619701 70.98769482 399.94648815 65.76994324 399.95175171 C60.41277362 399.95712396 55.05579296 399.9500776 49.69865417 399.9312439 C43.2284187 399.90878816 36.75834106 399.90099084 30.28806877 399.90491676 C27.82291045 399.90440332 25.35774841 399.89916119 22.89261055 399.88910484 C19.44561386 399.8767685 15.99915784 399.88351573 12.5521698 399.89511108 C11.02538605 399.88364548 11.02538605 399.88364548 9.46775818 399.87194824 C4.19832002 399.91112695 0.08036423 400.03905702 -4.33088684 403.26742554 Z M187.66911316 403.26742554 C185.47694426 406.96580985 185.41208403 410.37628881 185.39445496 414.61483765 C185.38492294 415.87642197 185.37539093 417.13800629 185.36557007 418.43782043 C185.36583152 419.80680367 185.36676866 421.17578692 185.36833191 422.54476929 C185.3644415 423.95814642 185.36010612 425.37152238 185.35534668 426.78489685 C185.34789837 429.74289749 185.34816566 432.70077875 185.35343933 435.65878296 C185.35923296 439.43938122 185.34229932 443.2194894 185.31909466 447.00000668 C185.30432492 449.91776867 185.30348998 452.8354135 185.30660439 455.75320625 C185.30609282 457.14659152 185.30088618 458.53998364 185.29079247 459.93333244 C185.2783835 461.88572285 185.28718316 463.83821273 185.29679871 465.7906189 C185.29616928 466.89916733 185.29553986 468.00771576 185.29489136 469.14985657 C185.73716157 472.83432357 186.62989979 475.16717219 188.66911316 478.26742554 C192.36749747 480.45959444 195.77797644 480.52445467 200.01652527 480.54208374 C201.27810959 480.55161575 202.53969391 480.56114777 203.83950806 480.57096863 C205.20849129 480.57070718 206.57747454 480.56977004 207.94645691 480.56820679 C209.35983404 480.5720972 210.77321 480.57643258 212.18658447 480.58119202 C215.14458511 480.58864033 218.10246637 480.58837304 221.06047058 480.58309937 C224.84106884 480.57730573 228.62117703 480.59423938 232.4016943 480.61744404 C235.31945629 480.63221378 238.23710112 480.63304872 241.15489388 480.62993431 C242.54827915 480.63044587 243.94167126 480.63565252 245.33502007 480.64574623 C247.28741048 480.6581552 249.23990035 480.64935553 251.19230652 480.63973999 C252.30085495 480.64036942 253.40940338 480.64099884 254.55154419 480.64164734 C258.23601119 480.19937713 260.56885981 479.30663891 263.66911316 477.26742554 C265.86128206 473.56904122 265.92614229 470.15856226 265.94377136 465.92001343 C265.95330338 464.65842911 265.96283539 463.39684479 265.97265625 462.09703064 C265.9723948 460.7280474 265.97145766 459.35906415 265.96989441 457.99008179 C265.97378482 456.57670466 265.9781202 455.16332869 265.98287964 453.74995422 C265.99032795 450.79195358 265.99006066 447.83407233 265.98478699 444.87606812 C265.97899336 441.09546985 265.995927 437.31536167 266.01913166 433.5348444 C266.0339014 430.61708241 266.03473634 427.69943758 266.03162193 424.78164482 C266.03213349 423.38825955 266.03734014 421.99486744 266.04743385 420.60151863 C266.05984282 418.64912822 266.05104316 416.69663834 266.04142761 414.74423218 C266.04205704 413.63568375 266.04268646 412.52713531 266.04333496 411.38499451 C265.60106475 407.70052751 264.70832653 405.36767888 262.66911316 402.26742554 C258.97072885 400.07525664 255.56024988 400.0103964 251.32170105 399.99276733 C250.06011673 399.98323532 248.79853241 399.97370331 247.49871826 399.96388245 C246.12973503 399.96414389 244.76075178 399.96508104 243.39176941 399.96664429 C241.97839228 399.96275388 240.56501631 399.9584185 239.15164185 399.95365906 C236.1936412 399.94621074 233.23575995 399.94647804 230.27775574 399.95175171 C226.49715747 399.95754534 222.71704929 399.9406117 218.93653202 399.91740704 C216.01877003 399.90263729 213.1011252 399.90180236 210.18333244 399.90491676 C208.78994717 399.9044052 207.39655506 399.89919856 206.00320625 399.88910484 C204.05081584 399.87669587 202.09832597 399.88549554 200.1459198 399.89511108 C199.03737137 399.89448166 197.92882294 399.89385223 196.78668213 399.89320374 C193.10221513 400.33547394 190.7693665 401.22821217 187.66911316 403.26742554 Z M331.66911316 403.26742554 C329.47694426 406.96580985 329.41208403 410.37628881 329.39445496 414.61483765 C329.38492294 415.87642197 329.37539093 417.13800629 329.36557007 418.43782043 C329.36583152 419.80680367 329.36676866 421.17578692 329.36833191 422.54476929 C329.3644415 423.95814642 329.36010612 425.37152238 329.35534668 426.78489685 C329.34789837 429.74289749 329.34816566 432.70077875 329.35343933 435.65878296 C329.35923296 439.43938122 329.34229932 443.2194894 329.31909466 447.00000668 C329.30432492 449.91776867 329.30348998 452.8354135 329.30660439 455.75320625 C329.30609282 457.14659152 329.30088618 458.53998364 329.29079247 459.93333244 C329.2783835 461.88572285 329.28718316 463.83821273 329.29679871 465.7906189 C329.29616928 466.89916733 329.29553986 468.00771576 329.29489136 469.14985657 C329.73716157 472.83432357 330.62989979 475.16717219 332.66911316 478.26742554 C337.19353405 481.31566595 343.16611541 480.55485283 348.42277527 480.54208374 C349.50626755 480.54719467 350.58975983 480.5523056 351.70608521 480.55757141 C355.28626536 480.57146697 358.866253 480.57051069 362.44645691 480.56820679 C364.93600537 480.5720936 367.42555316 480.57642824 369.9151001 480.58119202 C375.13284963 480.58865406 380.35053149 480.58836293 385.56828308 480.58309937 C390.9254527 480.57772712 396.28243336 480.58477347 401.63957214 480.60360718 C408.10980762 480.62606292 414.57988525 480.63386024 421.05015755 480.62993431 C423.51531587 480.63044776 425.98047791 480.63568989 428.44561577 480.64574623 C431.89261246 480.65808258 435.33906848 480.65133535 438.78605652 480.63973999 C439.80391235 480.64738373 440.82176819 480.65502747 441.87046814 480.66290283 C447.13990629 480.62372412 451.25786209 480.49579406 455.66911316 477.26742554 C457.86128206 473.56904122 457.92614229 470.15856226 457.94377136 465.92001343 C457.95330338 464.65842911 457.96283539 463.39684479 457.97265625 462.09703064 C457.9723948 460.7280474 457.97145766 459.35906415 457.96989441 457.99008179 C457.97378482 456.57670466 457.9781202 455.16332869 457.98287964 453.74995422 C457.99032795 450.79195358 457.99006066 447.83407233 457.98478699 444.87606812 C457.97899336 441.09546985 457.995927 437.31536167 458.01913166 433.5348444 C458.0339014 430.61708241 458.03473634 427.69943758 458.03162193 424.78164482 C458.03213349 423.38825955 458.03734014 421.99486744 458.04743385 420.60151863 C458.05984282 418.64912822 458.05104316 416.69663834 458.04142761 414.74423218 C458.04205704 413.63568375 458.04268646 412.52713531 458.04333496 411.38499451 C457.60106475 407.70052751 456.70832653 405.36767888 454.66911316 402.26742554 C450.14469227 399.21918513 444.17211091 399.97999825 438.91545105 399.99276733 C437.83195877 399.9876564 436.74846649 399.98254547 435.63214111 399.97727966 C432.05196096 399.9633841 428.47197331 399.96434038 424.89176941 399.96664429 C422.40222095 399.96275748 419.91267316 399.95842284 417.42312622 399.95365906 C412.20537669 399.94619701 406.98769482 399.94648815 401.76994324 399.95175171 C396.41277362 399.95712396 391.05579296 399.9500776 385.69865417 399.9312439 C379.2284187 399.90878816 372.75834106 399.90099084 366.28806877 399.90491676 C363.82291045 399.90440332 361.35774841 399.89916119 358.89261055 399.88910484 C355.44561386 399.8767685 351.99915784 399.88351573 348.5521698 399.89511108 C347.02538605 399.88364548 347.02538605 399.88364548 345.46775818 399.87194824 C340.19832002 399.91112695 336.08036423 400.03905702 331.66911316 403.26742554 Z " fill="#000000" transform="translate(30.330886840820313,7.732574462890625)"/>
<path d="M0 0 C63.36 0 126.72 0 192 0 C192 5.28 192 10.56 192 16 C128.64 16 65.28 16 0 16 C0 10.72 0 5.44 0 0 Z " fill="#000000" transform="translate(160,280)"/>
<path d="M0 0 C63.36 0 126.72 0 192 0 C192 5.28 192 10.56 192 16 C128.64 16 65.28 16 0 16 C0 10.72 0 5.44 0 0 Z " fill="#000000" transform="translate(160,248)"/>
<path d="M0 0 C39.6 0 79.2 0 120 0 C120 5.28 120 10.56 120 16 C80.4 16 40.8 16 0 16 C0 10.72 0 5.44 0 0 Z " fill="#000000" transform="translate(184,216)"/>
<path d="M0 0 C10.56 0 21.12 0 32 0 C32 5.28 32 10.56 32 16 C21.44 16 10.88 16 0 16 C0 10.72 0 5.44 0 0 Z " fill="#000000" transform="translate(320,216)"/>
</svg>
