<?xml version="1.0" encoding="UTF-8"?>
<svg version="1.1" xmlns="http://www.w3.org/2000/svg" width="512" height="512">
<path d="M0 0 C5.09620539 3.01237564 8.70841667 7.93775001 10.5625 13.5 C10.70834712 15.60075949 10.78335655 17.70688549 10.8125 19.8125 C10.83828125 20.92238281 10.8640625 22.03226563 10.890625 23.17578125 C10.30979871 29.06010473 7.37009636 33.06089488 3.43127728 37.31036568 C2.63189405 38.17404455 1.83251082 39.03772343 1.00890386 39.9275744 C-2.72142727 43.85006629 -6.50655436 47.71042182 -10.3379364 51.53414917 C-11.18668817 52.38516649 -12.03543994 53.23618382 -12.90991145 54.11298954 C-15.23633035 56.44459592 -17.5649278 58.77399909 -19.89453518 61.1024189 C-22.41776829 63.62544615 -24.93812684 66.1513424 -27.45889282 68.67683411 C-32.38447134 73.61067702 -37.31278485 78.54177897 -42.24221738 83.47177105 C-46.24867026 87.47870062 -50.25432933 91.48642206 -54.25943947 95.49469376 C-65.62845701 106.87250251 -76.99955281 118.2482283 -88.37334266 129.62126647 C-88.98498577 130.23286963 -89.59662889 130.84447279 -90.22680664 131.47460938 C-90.83920052 132.08696238 -91.4515944 132.69931538 -92.08254568 133.33022453 C-102.0242892 143.27156092 -111.96102442 153.21788675 -121.89552226 163.16646336 C-132.10962981 173.39493128 -142.32745786 183.61966949 -152.54918033 193.84052765 C-158.28270355 199.57371902 -164.01467973 205.30843758 -169.74265099 211.04717636 C-174.61438926 215.92801463 -179.48957112 220.80538046 -184.36925729 225.67827325 C-186.85760071 228.16335036 -189.34430891 230.65000729 -191.82668114 233.14105034 C-194.51838061 235.84205515 -197.21779851 238.53526047 -199.91801453 241.22775269 C-200.6998247 242.01470642 -201.48163487 242.80166015 -202.28713626 243.61246097 C-208.87667252 250.16033999 -213.96147711 254.59725154 -223.625 254.8125 C-224.71167969 254.84988281 -225.79835938 254.88726562 -226.91796875 254.92578125 C-236.76822381 253.73412997 -242.72511865 246.78678976 -249.37988281 240.07519531 C-250.45747905 239.00302682 -251.53592271 237.93170947 -252.61514282 236.86117554 C-255.52918248 233.96529436 -258.43051915 231.05699588 -261.3291254 228.14567661 C-264.37216579 225.09246977 -267.42499875 222.04907904 -270.47625732 219.00408936 C-275.59750683 213.89010564 -280.71029106 208.76777232 -285.81835938 203.640625 C-291.71398018 197.72323762 -297.62387224 191.82039768 -303.54138303 185.92490697 C-308.63261318 180.85186121 -313.71596623 175.77102122 -318.79288363 170.68365169 C-321.82032879 167.64998833 -324.85036901 164.61904963 -327.88755035 161.59513092 C-330.74324867 158.7510347 -333.58889435 155.89724003 -336.42725754 153.03584671 C-337.46704462 151.99079581 -338.51020383 150.94908693 -339.5570488 149.91110611 C-351.49074747 138.06913254 -351.49074747 138.06913254 -352.96875 129.375 C-352.87774728 121.00274931 -351.59477337 115.72902959 -345.6875 109.6875 C-339.75137396 105.69203055 -333.72483659 103.28877645 -326.4375 104.5 C-318.88734247 106.79852195 -314.02969898 111.23153992 -308.63232422 116.80102539 C-307.80344696 117.63559769 -306.9745697 118.47016998 -306.12057495 119.33003235 C-304.33241872 121.13380223 -302.55008389 122.9433582 -300.77303696 124.75807381 C-297.9590823 127.63146065 -295.13033571 130.48946988 -292.29666138 133.34336853 C-286.79716451 138.88713703 -281.31619368 144.44900633 -275.83772278 150.01354218 C-268.85859949 157.10127243 -261.87315503 164.18264065 -254.86692059 171.24358171 C-251.60322143 174.53428054 -248.35612442 177.84083943 -245.11178589 181.15065002 C-243.40304954 182.87711416 -241.69377832 184.60304915 -239.98388672 186.32836914 C-239.21902954 187.11546265 -238.45417236 187.90255615 -237.6661377 188.71350098 C-233.5525798 192.83692331 -230.19375589 196.14392148 -224.4375 197.5 C-217.93269772 195.52220768 -214.07911727 191.69418867 -209.38499451 186.91505432 C-208.60328843 186.13535481 -207.82158235 185.3556553 -207.0161882 184.55232853 C-204.40280361 181.94084707 -201.80397535 179.31534923 -199.20483398 176.68969727 C-197.3326558 174.81311602 -195.45969277 172.93735076 -193.58569336 171.06259155 C-189.55347473 167.0256551 -185.52853 162.98158322 -181.50835991 158.93264961 C-175.69040027 153.07326303 -169.86041102 147.2259651 -164.0272596 141.38170659 C-154.55573153 131.8916777 -145.09243669 122.39348476 -135.63500977 112.8894043 C-134.78649719 112.03671178 -134.78649719 112.03671178 -133.92084295 111.16679316 C-133.35446371 110.59762286 -132.78808447 110.02845255 -132.20454222 109.44203466 C-124.17498097 101.37293934 -116.14348298 93.30577845 -108.10961914 85.2409668 C-107.54433447 84.67350042 -106.9790498 84.10603405 -106.39663529 83.52137173 C-96.96871113 74.05739245 -87.53671558 64.59747754 -78.10263306 55.13963741 C-72.28660072 49.30843357 -66.474757 43.47311031 -60.66829515 37.63237619 C-56.6898497 33.63077848 -52.70800625 29.63258438 -48.72348576 25.63703579 C-46.42543799 23.33233184 -44.12968571 21.02541778 -41.83722878 18.71515083 C-39.35042136 16.20944952 -36.85751168 13.70997925 -34.36302185 11.21192932 C-33.64210261 10.48245592 -32.92118338 9.75298252 -32.1784181 9.00140387 C-23.31663174 0.15957162 -12.70941807 -5.59115872 0 0 Z " fill="#57A700" transform="translate(437.4375,129.5)"/>
</svg>
